<?xml version="1.0" encoding="utf-8"?>
<!-- Generator: Adobe Illustrator 16.0.0, SVG Export Plug-In . SVG Version: 6.00 Build 0)  -->
<!DOCTYPE svg PUBLIC "-//W3C//DTD SVG 1.1//EN" "http://www.w3.org/Graphics/SVG/1.1/DTD/svg11.dtd">
<svg version="1.1" id="Layer_1" xmlns="http://www.w3.org/2000/svg" xmlns:xlink="http://www.w3.org/1999/xlink" x="0px" y="0px"
	 width="64px" height="64px" viewBox="0 0 64 64" enable-background="new 0 0 64 64" xml:space="preserve">
<g id="Box">
	<rect fill="none" width="64" height="64"/>
</g>
<g id="Icon">
	<g>
		<path d="M54.68,18.767c-0.665,2.852-1.34,6.677-1.84,9.732c0.405,0.167,0.801,0.403,1.174,0.723
			c2.158,1.843,2.384,4.825,0.701,7.806c-3.807,6.74-7.981,9.79-8.854,10.42c-0.25,0.181-0.387,0.133-0.484,0.041
			c0-0.002-0.002-0.014-0.002-0.014c3.791-4.227,5.798-7.13,7.514-11.18c1.303-3.073,0.602-4.922-0.514-5.589
			c-1.09-0.652-2.219-0.298-3.354,1.38c-3.864,5.709-6.656,8.714-10.523,13.259c-2.688,3.159-4.524,7.077-4.487,11.081
			c0.024,2.546,0.187,3.939,0.289,4.574h13.499l1.144-6.5c0.16-0.906,0.566-1.751,1.175-2.441l7.388-7.479
			c1.534-1.74,2.416-3.959,2.495-6.277L60,14.127C60,14.127,56.063,12.843,54.68,18.767z"/>
		<path d="M14.979,32.086c-1.136-1.678-2.264-2.033-3.354-1.381c-1.116,0.667-1.816,2.517-0.514,5.59
			c1.716,4.049,3.724,6.953,7.514,11.18c0,0-0.001,0.012-0.001,0.014c-0.097,0.092-0.234,0.14-0.484-0.041
			c-0.872-0.63-5.046-3.68-8.853-10.42c-1.684-2.982-1.458-5.963,0.7-7.806c0.374-0.319,0.769-0.555,1.174-0.723
			c-0.5-3.056-1.175-6.88-1.84-9.732C7.938,12.843,4,14.127,4,14.127l0.001,24.175c0.079,2.318,0.961,4.537,2.496,6.277l7.387,7.479
			c0.608,0.69,1.015,1.535,1.175,2.441l1.144,6.5h13.5c0.102-0.635,0.264-2.028,0.288-4.574c0.038-4.004-1.799-7.922-4.487-11.081
			C21.636,40.799,18.844,37.795,14.979,32.086z"/>
	</g>
</g>
</svg>
