<?xml version="1.0" encoding="utf-8"?>
<!-- Generator: Adobe Illustrator 16.0.3, SVG Export Plug-In . SVG Version: 6.00 Build 0)  -->
<!DOCTYPE svg PUBLIC "-//W3C//DTD SVG 1.1//EN" "http://www.w3.org/Graphics/SVG/1.1/DTD/svg11.dtd">
<svg version="1.1" id="Layer_1" xmlns="http://www.w3.org/2000/svg" xmlns:xlink="http://www.w3.org/1999/xlink" x="0px" y="0px"
	 width="543px" height="512px" viewBox="0 0 543 512" enable-background="new 0 0 543 512" xml:space="preserve">
<path fill="#4C4C4C" d="M170.666,31.031C170.666,13.91,156.759,0,139.638,0c-17.124,0-31.031,13.91-31.031,31.031
	c0,9.331,0,37.21,0,46.545c0,17.151,13.907,31.031,31.031,31.031c17.149,0,31.028-13.91,31.028-31.031
	C170.666,68.241,170.666,40.362,170.666,31.031z"/>
<rect x="170.666" y="217.212" fill="#4C4C4C" width="93.094" height="62.061"/>
<rect x="279.275" y="217.212" fill="#4C4C4C" width="93.09" height="62.061"/>
<rect x="387.877" y="217.212" fill="#4C4C4C" width="93.096" height="62.061"/>
<rect x="62.062" y="294.786" fill="#4C4C4C" width="93.09" height="62.062"/>
<rect x="170.666" y="294.786" fill="#4C4C4C" width="93.094" height="62.062"/>
<rect x="279.275" y="294.786" fill="#4C4C4C" width="93.09" height="62.062"/>
<rect x="387.877" y="294.786" fill="#4C4C4C" width="93.096" height="62.062"/>
<rect x="62.062" y="372.365" fill="#4C4C4C" width="93.09" height="62.061"/>
<rect x="170.666" y="372.365" fill="#4C4C4C" width="93.094" height="62.061"/>
<rect x="279.275" y="372.365" fill="#4C4C4C" width="93.09" height="62.061"/>
<path fill="#4C4C4C" d="M434.426,31.031C434.426,13.91,420.518,0,403.393,0c-17.119,0-31.027,13.91-31.027,31.031
	c0,9.331,0,37.21,0,46.545c0,17.151,13.908,31.031,31.027,31.031c17.152,0,31.033-13.91,31.033-31.031
	C434.426,68.241,434.426,40.362,434.426,31.031z"/>
<path fill="#4C4C4C" d="M512,62.062h-55.848v15.514c0,29.089-23.67,52.758-52.76,52.758s-52.725-23.668-52.725-52.758V62.062
	H192.393v15.514c0,29.089-23.666,52.758-52.755,52.758c-29.093,0-52.758-23.668-52.758-52.758V62.062H31.031
	C13.91,62.062,0,75.969,0,93.09v387.882C0,498.09,13.91,512,31.031,512H512c17.152,0,31.029-13.91,31.029-31.028V93.09
	C543.029,75.969,529.152,62.062,512,62.062z M496.482,465.455H46.545V186.183h449.938V465.455z"/>
</svg>
