<?xml version="1.0" encoding="utf-8"?>
<!-- Generator: Adobe Illustrator 16.0.0, SVG Export Plug-In . SVG Version: 6.00 Build 0)  -->
<!DOCTYPE svg PUBLIC "-//W3C//DTD SVG 1.1//EN" "http://www.w3.org/Graphics/SVG/1.1/DTD/svg11.dtd">
<svg version="1.1" id="Layer_1" xmlns="http://www.w3.org/2000/svg" xmlns:xlink="http://www.w3.org/1999/xlink" x="0px" y="0px"
	 width="64px" height="64px" viewBox="0 0 64 64" enable-background="new 0 0 64 64" xml:space="preserve">
<g id="floating-bar">
	<g id="Artboard-19" sketch:type="MSArtboardGroup">
		<path id="Path-87" sketch:type="MSShapeGroup" d="M32.9512,26.0713c-3.9448,1.2188-13.1035,6.5771-13.1035,6.5771
			s4.1943-8.3486,9.4219-11.4619c5.2285-3.1133,11.0215-3.5332,11.0215-3.5332c0.0166,0,0-0.9893,0-0.9893V8.832L61,21.748
			L41.2607,34.2871l-0.0625-8.2158C41.1982,26.0713,36.123,25.0947,32.9512,26.0713z"/>
		<path id="Path-216" sketch:type="MSShapeGroup" d="M8.8643,13.2705c-1.4722,0-2.4097,0.167-3.2715,0.8164
			c-1.0562,0.793-1.4785,2.0059-1.4785,3.6367l-0.082,31.8457c0,0.127-0.0034,0.2363-0.0156,0.499
			c-0.002,0.0898-0.0039,0.1289-0.0059,0.1787c-0.0225,0.5762-0.0146,0.9648,0.0532,1.4014
			c0.1016,0.666,0.3369,1.2695,0.7544,1.8057c0.8794,1.1201,2.3159,1.6367,4.3687,1.708c0.2021,0.002,0.2021,0.002,0.8491,0.002
			c0.8765,0,0.8765,0,2.1597,0c3.1069,0,3.1069,0,7.2568,0c3.6543,0,3.6543,0,7.5278,0c7.4863,0,7.4863,0,13.3906,0
			c2.3594,0,2.3594,0,3.7305,0c0.25,0,0.25,0,0.4229,0c0.1318,0,0.1318,0,0.1807,0c0.0059,0-0.5537-0.0049-0.5537-0.0049
			c0.8818,0.0303,1.7607-0.0332,2.6553-0.2813c0.8486-0.2373,1.5977-0.6113,2.2012-1.1904
			c0.7852-0.7471,1.2207-1.7568,1.2207-2.9248V38.8184h-3.8027c0,0,0.1406,11.168,0,11.9443
			c-0.1367,0.7441-1.1504,0.6152-1.9121,0.6152c-0.7578,0-1.7832-0.0195-4.1426-0.0195c-5.9043,0-5.9043,0-13.3906,0
			c-3.8735,0-3.8735,0-7.5278,0c-4.1499,0-4.1499,0-7.2568,0c-1.2832,0-1.2832,0-2.1597,0c-0.647,0-0.647,0-0.7861,0
			c-0.5547-0.0176-1.001-0.0908-1.2847-0.1924c-0.085-0.0342-0.1396-0.0586-0.1704-0.082c0.0059-0.1484,0.0034-0.3447,0.0161-0.6895
			c0.002-0.0488,0.0039-0.085,0.0073-0.166c0.0117-0.3193,0.0166-0.459,0.0166-0.6543l0.0815-31.8457
			c0-0.3633,0.0322-0.6025,0.0752-0.7266c-0.0415,0.0566-0.0786,0.0986-0.1162,0.125c0.2827-0.0342,0.5693-0.0547,0.9888-0.0547
			h17.7769v-3.8018H8.8643z"/>
	</g>
</g>
</svg>
