<?xml version="1.0" encoding="UTF-8" standalone="no"?>
<svg width="512px" height="512px" viewBox="0 0 512 512" version="1.1" xmlns="http://www.w3.org/2000/svg" xmlns:xlink="http://www.w3.org/1999/xlink" xmlns:sketch="http://www.bohemiancoding.com/sketch/ns">
    <!-- Generator: Sketch 3.2.2 (9983) - http://www.bohemiancoding.com/sketch -->
    <defs></defs>
    <g id="floating-bar">
        <g id="Artboard-19" sketch:type="MSArtboardGroup">
            <path d="M276.358493,209.981608 C245.240978,219.56851 173,261.869686 173,261.869686 C173,261.869686 206.087755,196.019138 247.32682,171.457056 C288.565885,146.894974 334.260115,143.558942 334.260115,143.558942 C334.396977,143.558942 334.260116,135.765113 334.260116,135.765113 L334.260116,74 L497.606965,175.883176 L341.913209,274.777141 L341.420218,209.981606 C341.420218,209.981606 301.381051,202.272483 276.358493,209.981608 Z" id="Path-87" sketch:type="MSShapeGroup"></path>
            <path d="M86.3745216,109 C74.7614823,109 67.3613931,110.332388 60.5647214,115.431678 C52.2306163,121.684447 48.8996755,131.25449 48.8996755,144.148536 L48.2562362,395.33632 C48.2561869,396.331033 48.2291824,397.190022 48.1423888,399.280265 C48.1144059,399.954178 48.1012529,400.278246 48.0861455,400.676828 C47.9145673,405.203618 47.9731062,408.274359 48.502175,411.724444 C49.3079191,416.978741 51.1652572,421.744086 54.4558788,425.944524 C61.391724,434.798046 72.7324652,438.886111 88.913134,439.434754 C90.5188524,439.443369 90.5188524,439.443369 95.6170173,439.443369 C102.521144,439.443369 102.521144,439.443369 112.648354,439.44337 C137.15414,439.44337 137.15414,439.44337 169.886179,439.443371 C198.716014,439.443371 198.716014,439.443371 229.275109,439.443372 C288.32671,439.443372 288.32671,439.443372 334.900639,439.443372 C353.508476,439.443372 353.508476,439.443372 364.317768,439.443371 C366.288978,439.443371 366.288978,439.443371 367.650926,439.443371 C368.696059,439.443371 368.696059,439.443371 369.083203,439.44337 C369.128825,439.44337 364.717386,439.413714 364.717386,439.413714 C371.661373,439.662749 378.605176,439.140995 385.650302,437.192035 C392.347856,435.339228 398.251326,432.369497 403.009227,427.821577 C409.202942,421.901212 412.641721,413.94277 412.64172,404.734614 L412.64172,310.50991 L382.64172,310.50991 C382.64172,310.50991 383.756438,398.606756 382.64172,404.734617 C381.577973,410.582274 373.577973,409.582274 367.577973,409.582274 C361.577973,409.582274 353.508475,409.443372 334.900638,409.443372 C288.32671,409.443372 288.32671,409.443372 229.275109,409.443372 C198.716015,409.443371 198.716015,409.443371 169.886179,409.443371 C137.154141,409.44337 137.154141,409.44337 112.648355,409.44337 C102.521145,409.443369 102.521145,409.443369 95.617018,409.443369 C90.5188531,409.443369 90.5188531,409.443369 89.4214521,409.443369 C85.0463584,409.286401 81.5257599,408.711573 79.2779704,407.901299 C78.6098961,407.660474 78.1760643,407.443248 77.9298028,407.274741 C77.9893164,406.09319 77.9602275,404.567291 78.0646193,401.813097 C78.0779195,401.462196 78.0900523,401.163263 78.1165596,400.524888 C78.2208359,398.013609 78.2561869,396.889127 78.2561869,395.374741 L78.8996263,144.186957 C78.8996755,141.300437 79.1526625,139.422537 79.4889128,138.456465 C79.1616308,138.904058 78.8780685,139.196586 78.5687578,139.42865 C80.801826,139.140637 83.0697948,139 86.3745216,139 L226.590216,139 L226.590216,109 L86.3745216,109 Z" id="Path-216" sketch:type="MSShapeGroup"></path>
        </g>
    </g>
</svg>