<?xml version="1.0" encoding="UTF-8" standalone="no"?>
<svg width="64px" height="64px" viewBox="0 0 64 64" version="1.1" xmlns="http://www.w3.org/2000/svg" xmlns:xlink="http://www.w3.org/1999/xlink" xmlns:sketch="http://www.bohemiancoding.com/sketch/ns">
    <!-- Generator: Sketch 3.3.3 (12072) - http://www.bohemiancoding.com/sketch -->
    <title>delen</title>
    <desc>Created with Sketch.</desc>
    <defs></defs>
    <g id="Page-1">
        <g id="delen" sketch:type="MSArtboardGroup">
            <path d="M47.1569,41.0539 C47.0619,44.3609 46.9139,44.6049 46.5989,46.4979 C46.4509,47.3799 45.7859,48.0459 44.9029,48.1919 C41.7779,48.7129 36.5579,48.9999 30.2029,48.9999 C23.8489,48.9999 18.6279,48.7129 15.5029,48.1919 C14.6199,48.0449 13.9549,47.3799 13.8079,46.4969 C13.2869,43.3719 12.9999,38.1509 12.9999,31.7969 C12.9999,25.4419 13.2869,20.2219 13.8079,17.0959 C13.9569,16.1999 14.6069,15.5509 15.5039,15.4009 C18.6279,14.8799 23.8489,14.6219 30.2029,14.5929 C35.0929,14.5709 36.5369,10.6989 36.5369,10.6989 C36.5369,10.6989 31.0379,10.5929 30.2029,10.5929 C26.3999,10.5929 19.3459,10.7049 14.8459,11.4559 C12.2499,11.8879 10.2929,13.8449 9.8619,16.4399 C9.1119,20.9399 8.9999,27.9929 8.9999,31.7969 C8.9999,35.6009 9.1119,42.6529 9.8619,47.1539 C10.2939,49.7499 12.2499,51.7059 14.8459,52.1379 C19.3459,52.8879 26.3999,52.9999 30.2029,52.9999 C34.0069,52.9999 41.0609,52.8879 45.5619,52.1379 C48.1559,51.7059 50.1119,49.7489 50.5439,47.1549 C50.8869,45.0999 50.9589,35.9709 50.9589,35.9709 C50.9589,35.9709 47.2599,37.4879 47.1569,41.0539" id="Fill-4" sketch:type="MSShapeGroup"></path>
            <path d="M20.5599,36.4238 C20.5599,36.4238 29.4949,29.3948 41.4519,29.4728 L41.4889,37.8768 L49.2519,30.5488 L56.5989,23.6358 L41.4889,9.3738 L41.4889,17.0438 C21.9759,20.8768 20.5599,36.4238 20.5599,36.4238" id="Fill-1" sketch:type="MSShapeGroup"></path>
        </g>
    </g>
</svg>