<?xml version="1.0" encoding="UTF-8" standalone="no"?>
<svg width="64px" height="64px" viewBox="0 0 64 64" version="1.1" xmlns="http://www.w3.org/2000/svg" xmlns:xlink="http://www.w3.org/1999/xlink" xmlns:sketch="http://www.bohemiancoding.com/sketch/ns">
    <!-- Generator: Sketch Beta 3.4 (15009) - http://www.bohemiancoding.com/sketch -->
    <title>Artboard 1</title>
    <desc>Created with Sketch Beta.</desc>
    <defs>
        <path id="path-1" d="M0,0.374 L47.599,0.374 L47.599,44 L0,44"></path>
        <path id="path-3" d="M0,0.374 L47.599,0.374 L47.599,44 L0,44"></path>
    </defs>
    <g id="Page-1" stroke="none" stroke-width="1" fill="none" fill-rule="evenodd" sketch:type="MSPage">
        <g id="Artboard-1" sketch:type="MSArtboardGroup">
            <g id="Page-1" sketch:type="MSLayerGroup" transform="translate(8.000000, 10.000000)">
                <g id="Group-3">
                    <mask id="mask-2" sketch:name="Clip 2" fill="white">
                        <use xlink:href="#path-1"></use>
                    </mask>
                    <g id="Clip-2"></g>
                    <path d="M11.5599,27.4238 C11.5599,27.4238 20.4949,20.3948 32.4519,20.4728 L32.4889,28.8768 L40.2519,21.5488 L47.5989,14.6358 L32.4889,0.3738 L32.4889,8.0438 C12.9759,11.8768 11.5599,27.4238 11.5599,27.4238" id="Fill-1" fill="#020203" sketch:type="MSShapeGroup" mask="url(#mask-2)"></path>
                </g>
                <g id="Group-6">
                    <mask id="mask-4" sketch:name="Clip 5" fill="white">
                        <use xlink:href="#path-3"></use>
                    </mask>
                    <g id="Clip-5"></g>
                    <path d="M38.1569,32.0539 C38.0619,35.3609 37.9139,35.6049 37.5989,37.4979 C37.4509,38.3799 36.7859,39.0459 35.9029,39.1919 C32.7779,39.7129 27.5579,39.9999 21.2029,39.9999 C14.8489,39.9999 9.6279,39.7129 6.5029,39.1919 C5.6199,39.0449 4.9549,38.3799 4.8079,37.4969 C4.2869,34.3719 3.9999,29.1509 3.9999,22.7969 C3.9999,16.4419 4.2869,11.2219 4.8079,8.0959 C4.9569,7.1999 5.6069,6.5509 6.5039,6.4009 C9.6279,5.8799 14.8489,5.6219 21.2029,5.5929 C26.0929,5.5709 27.5369,1.6989 27.5369,1.6989 C27.5369,1.6989 22.0379,1.5929 21.2029,1.5929 C17.3999,1.5929 10.3459,1.7049 5.8459,2.4559 C3.2499,2.8879 1.2929,4.8449 0.8619,7.4399 C0.1119,11.9399 -0.0001,18.9929 -0.0001,22.7969 C-0.0001,26.6009 0.1119,33.6529 0.8619,38.1539 C1.2939,40.7499 3.2499,42.7059 5.8459,43.1379 C10.3459,43.8879 17.3999,43.9999 21.2029,43.9999 C25.0069,43.9999 32.0609,43.8879 36.5619,43.1379 C39.1559,42.7059 41.1119,40.7489 41.5439,38.1549 C41.8869,36.0999 41.9589,26.9709 41.9589,26.9709 C41.9589,26.9709 38.2599,28.4879 38.1569,32.0539" id="Fill-4" fill="#020203" sketch:type="MSShapeGroup" mask="url(#mask-4)"></path>
                </g>
            </g>
        </g>
    </g>
</svg>