<?xml version="1.0" encoding="UTF-8" standalone="no"?>
<svg width="64px" height="64px" viewBox="0 0 64 64" version="1.1" xmlns="http://www.w3.org/2000/svg" xmlns:xlink="http://www.w3.org/1999/xlink">
    <path d="M51.6621813,14.2864255 C51.4515803,12.9224581 50.4886028,11.8847287 49.222579,11.6573867 C45.5630547,11 39.463525,11 38.2439254,11 C37.0240033,11 30.9244737,11 27.2649493,11.6573867 C25.999248,11.8847287 25.0362704,12.9224581 24.825347,14.2864255 C24.6486776,15.4286391 24.5243158,16.5341901 24.4351751,17.5638758 C27.6473839,17.5789472 32.8601811,17.7075627 36.2825074,18.3223598 C38.4745951,18.7159112 40.1246654,20.4837599 40.4863865,22.8258481 C41.1900017,27.3740429 41.1900017,28.5523264 41.1900017,32.934735 C41.1900017,33.4461487 41.1892763,34.2476456 41.1625179,35.2526073 L47.1891875,40.3823234 C47.6208671,40.6849381 48.033284,40.5393884 48.2623417,40.2433781 C48.426035,40.0317002 48.4386888,39.7671029 48.3127151,39.4363775 L46.7102779,34.8288283 C47.607891,34.7434798 48.4681875,34.6371329 49.222579,34.501659 C50.4886028,34.2742324 51.4515803,33.2365029 51.6621813,31.8730436 C52.2721423,27.9288928 52.2721423,24.3940422 52.2721423,23.0796922 C52.2721423,19.133848 52.2721423,18.2297296 51.6621813,14.2864255 L51.6621813,14.2864255 Z" id="Shape"></path>
    <path d="M36.917516,20.9249427 C32.8372733,20.1919446 26.0368687,20.1919446 24.6771908,20.1919446 C23.3171099,20.1919446 16.5167054,20.1919446 12.4368657,20.9249427 C11.0252025,21.1783634 9.95164527,22.3352251 9.71670389,23.855834 C9.03670374,28.2526367 9.03670374,32.1943321 9.03670374,33.6595661 C9.03670374,35.1247154 9.03670374,39.0664108 9.71670389,43.4628748 C9.95164527,44.9834838 11.0252025,46.1402608 12.4368657,46.3941049 C12.970904,46.4899526 13.5538649,46.5722529 14.1631005,46.6443081 L17.184213,42.2440338 C17.3426674,42.0016204 17.5065219,42.159024 17.5065219,42.159024 L14.8807397,51.8938338 L14.8730829,51.8899389 L14.8310111,52.0465805 C14.7964348,52.256565 14.8341544,52.4756939 14.9498922,52.6700141 C15.2001471,53.0884589 15.7236271,53.2124174 16.1210528,52.9470581 L25.1894678,47.1259175 C27.262755,47.1204985 33.2076988,47.060128 36.917516,46.3941049 C38.3287762,46.1402608 39.4023334,44.9834838 39.6372748,43.4628748 C40.3173555,39.0664108 40.3173555,35.1247154 40.3173555,33.6595661 C40.3173555,29.2606466 40.3173555,28.2526367 39.6372748,23.855834 C39.4023334,22.3352251 38.3287762,21.1783634 36.917516,20.9249427 L36.917516,20.9249427 Z" id="Shape"></path>
</svg>