<?xml version="1.0" encoding="UTF-8" standalone="no"?>
<svg width="64px" height="64px" viewBox="0 0 64 64" version="1.1" xmlns="http://www.w3.org/2000/svg" xmlns:xlink="http://www.w3.org/1999/xlink" xmlns:sketch="http://www.bohemiancoding.com/sketch/ns">
    <g id="Page-1">
        <g id="enquete" sketch:type="MSArtboardGroup">
            <path d="M50.3351068,8.05461496 C48.4036956,7.72434364 46.0061753,7.48029057 43.2341232,7.30789452 C41.0237186,7.17042775 38.67049,7.08418641 36.2592114,7.03836575 C34.6559236,7.00789905 33.4550518,7 31.999,7 C30.5431316,7 29.3424113,7.00789608 27.7393258,7.03835132 C25.3283519,7.08415474 22.9754209,7.17036362 20.7652964,7.3077786 C17.9924437,7.48018134 15.5944034,7.72427166 13.6628386,8.0546243 C10.7388853,8.55321723 8.50815976,10.839531 8.02594782,13.8038801 C7.56490363,16.6393019 7.27820454,19.5217108 7.1276993,22.4156254 C7.02511236,24.3881671 7,25.8367486 7,27.839 C7,29.8406295 7.0251144,31.2890771 7.12769986,33.2613854 C7.2782097,36.1550874 7.56491215,39.0372115 8.02593457,41.8720384 C8.50798411,44.8367825 10.7380635,47.1232335 13.6628895,47.6233844 C14.4554866,47.7585094 15.3354224,47.8789953 16.3149724,47.9894133 L17.4767473,48.1203723 L18.1608585,47.1722884 L22.6028585,41.0162884 C22.6111363,41.0047156 22.6111363,41.0047156 22.5899836,41.0328107 C22.0868084,41.6883412 21.148259,41.8234723 20.4603074,41.4558331 C20.3242139,41.3831052 20.2115385,41.2998921 20.1066066,41.2041037 L21.455,39.727 L19.5308522,39.1814221 L15.6698522,52.7984221 L17.594,53.344 L18.4216059,51.523267 L18.4106059,51.518267 L16.2924303,50.55546 L15.6586314,52.7942016 L15.5966314,53.0132016 L15.5504291,53.2161663 C15.4143855,54.0004176 15.5707555,54.8048012 15.9990034,55.4899979 C16.9616377,57.0187555 18.9694453,57.4707539 20.4891343,56.5069853 L33.7953252,48.3819148 L32.7575932,48.6749947 C39.4849469,48.6595448 45.8554241,48.3879286 50.334473,47.6234933 C53.2597392,47.1230263 55.4905674,44.8358075 55.9712228,41.871069 C56.4325099,39.0374512 56.7195059,36.155258 56.8701697,33.261489 C56.97286,31.2891392 56.998,29.8406612 56.998,27.839 C56.998,23.7670781 56.9803997,22.5375394 56.868343,20.8459136 C56.7418336,18.9361087 56.4971126,17.0359197 55.9710228,13.8036997 C55.4903923,10.840506 53.258917,8.55342386 50.3343452,8.05448488 L50.3351068,8.05461496 Z M49.6616548,11.9975151 C50.8874899,12.2066456 51.8136753,13.1559109 52.0228009,14.4452156 C52.5304214,17.5639645 52.7605302,19.3506939 52.8770902,21.1103023 C52.9810642,22.6799093 52.998,23.8630292 52.998,27.839 C52.998,32.5460027 52.7917627,36.5071601 52.0229855,41.2296488 C51.8136103,42.5210966 50.8873305,43.4707907 49.6607316,43.6806426 C45.477898,44.3945229 39.2496569,44.6600746 32.7484068,44.6750053 L32.1885176,44.6762911 L31.7106748,44.9680852 L18.3756748,53.1110852 C18.6964179,52.9073329 19.166276,53.0131075 19.3874174,53.3642969 C19.4857551,53.5216157 19.5234993,53.7157758 19.4915709,53.8998337 L17.521,53.558 L19.4453686,54.1027984 L19.5073686,53.8837984 L17.583,53.339 L16.7553941,55.159733 L16.7663941,55.164733 L18.883702,56.1271456 L19.5181478,53.8895779 L23.3791478,40.2725779 L23.7163568,39.0833069 L22.8033934,38.2498963 C22.67924,38.1365613 22.5309258,38.0270283 22.3455807,37.9279805 C21.4015271,37.4234811 20.1832989,37.5988801 19.4169651,38.5972504 C19.3733298,38.6551867 19.3733298,38.6551867 19.3327743,38.7131487 L14.9171415,44.8317116 L16.539,46.002 L16.7630276,44.0145867 C15.8536703,43.912081 15.0466216,43.8015752 14.3361173,43.680446 C13.110067,43.4707888 12.1840376,42.5213514 11.9740761,41.2300271 C11.2060361,36.507349 11,32.5460997 11,27.839 C11,23.1308837 11.206021,19.1695116 11.9740737,14.4459876 C12.1839725,13.1556562 13.1099074,12.2066476 14.3361878,11.997542 C16.1048927,11.6950433 18.3713408,11.4643474 21.013518,11.3000694 C23.160259,11.1665953 25.457721,11.0824188 27.8153037,11.0376297 C29.3882546,11.0077469 30.5662943,11 31.999,11 C33.4318834,11 34.6100689,11.0077498 36.1832146,11.0376437 C38.5410887,11.0824496 40.8388344,11.1666576 42.9858398,11.3001815 C45.6272678,11.4644539 47.893238,11.695116 49.6608932,11.997385 L49.6616548,11.9975151 Z" id="Shape" sketch:type="MSShapeGroup"></path>
        </g>
    </g>
</svg>