<?xml version="1.0" encoding="utf-8"?>
<!-- Generator: Adobe Illustrator 16.0.0, SVG Export Plug-In . SVG Version: 6.00 Build 0)  -->
<!DOCTYPE svg PUBLIC "-//W3C//DTD SVG 1.1//EN" "http://www.w3.org/Graphics/SVG/1.1/DTD/svg11.dtd">
<svg version="1.1" id="Layer_1" xmlns="http://www.w3.org/2000/svg" xmlns:xlink="http://www.w3.org/1999/xlink" x="0px" y="0px"
	 width="64px" height="64px" viewBox="0 0 64 64" enable-background="new 0 0 64 64" xml:space="preserve">
<g id="Icon">
	<g>
		<path d="M51.566,8.09c-6.522-1.116-17.393-1.116-19.565-1.116c-2.174,0-13.045,0-19.566,1.116
			c-2.256,0.385-3.973,2.145-4.348,4.459C7,19.239,7,25.236,7,27.466s0,8.227,1.087,14.916c0.375,2.314,2.092,4.074,4.348,4.46
			c0.854,0.146,1.785,0.271,2.759,0.38l4.83-6.694c0.254-0.368,0.515-0.129,0.515-0.129l-4.197,14.813l-0.013-0.008l-0.066,0.239
			c-0.056,0.32,0.005,0.654,0.19,0.948c0.4,0.637,1.237,0.826,1.872,0.422l14.496-8.857c3.313-0.008,12.816-0.1,18.746-1.113
			c2.256-0.386,3.972-2.146,4.346-4.46C57,35.692,57,29.695,57,27.466c0-6.693,0-8.227-1.088-14.917
			C55.538,10.235,53.822,8.475,51.566,8.09z"/>
	</g>
</g>
</svg>
