<?xml version="1.0" encoding="UTF-8" standalone="no"?>
<svg width="64px" height="64px" viewBox="0 0 64 64" version="1.1" xmlns="http://www.w3.org/2000/svg" xmlns:xlink="http://www.w3.org/1999/xlink" xmlns:sketch="http://www.bohemiancoding.com/sketch/ns">
    <!-- Generator: Sketch Beta 3.4 (15009) - http://www.bohemiancoding.com/sketch -->
    <title>world</title>
    <desc>Created with Sketch Beta.</desc>
    <defs></defs>
    <g id="Page-1" stroke="none" stroke-width="1" fill="none" fill-rule="evenodd" sketch:type="MSPage">
        <g id="Artboard-1" sketch:type="MSArtboardGroup" stroke="#000000" stroke-width="4">
            <path d="M49.998,10.026 C43.998,9 33.999,9 31.999,9 C29.999,9 19.999,9 14,10.026 C11.924,10.38 10.346,11.998 10,14.125 C9,20.275 9,25.789 9,27.839 C9,29.888 9,35.402 10,41.551 C10.346,43.679 11.924,45.297 14,45.652 C14.786,45.786 15.643,45.901 16.539,46.002 L20.981,39.846 C21.214,39.507 21.455,39.727 21.455,39.727 L17.594,53.344 L17.583,53.339 L17.521,53.558 C17.47,53.852 17.525,54.158 17.695,54.43 C18.064,55.016 18.833,55.189 19.418,54.818 L32.753,46.675 C35.801,46.668 44.543,46.583 49.998,45.652 C52.073,45.297 53.652,43.679 53.997,41.551 C54.998,35.402 54.998,29.888 54.998,27.839 C54.998,21.685 54.998,20.275 53.997,14.125 C53.652,11.998 52.073,10.38 49.998,10.026 L49.998,10.026 Z" id="Shape" sketch:type="MSShapeGroup"></path>
        </g>
    </g>
</svg>