<?xml version="1.0" encoding="UTF-8" standalone="no"?>
<svg width="64px" height="64px" viewBox="0 0 64 64" version="1.1" xmlns="http://www.w3.org/2000/svg" xmlns:xlink="http://www.w3.org/1999/xlink" xmlns:sketch="http://www.bohemiancoding.com/sketch/ns">
    <g id="Page-1" stroke="none" stroke-width="1" fill-rule="evenodd" sketch:type="MSPage">
        <g id="GooglePlus" sketch:type="MSArtboardGroup">
            <g sketch:type="MSLayerGroup" id="Shape">
                <path d="M33.3931182,36.4992894 L30.3461107,34.1728064 C29.4183256,33.4164311 28.149183,32.4177246 28.149183,30.5898283 C28.149183,28.7538842 29.4183256,27.5870659 30.519843,26.5067305 C34.0684263,23.7602236 37.6151903,20.8374291 37.6151903,14.6775888 C37.6151903,8.34363273 33.561263,5.0118004 31.6183718,3.43070659 L36.8569793,3.43070659 L42.3556006,0.0342355289 L25.6966597,0.0342355289 C21.1254337,0.0342355289 14.5380293,1.09758084 9.71497593,5.0118004 C6.08011127,8.09465868 4.30705409,12.3458683 4.30705409,16.1727106 C4.30705409,22.6689022 9.38063543,29.254004 18.3401292,29.254004 C19.1865707,29.254004 20.1120169,29.172503 21.0435703,29.0872974 C20.6252874,30.0881756 20.2020666,30.9217086 20.2020666,32.3360958 C20.2020666,34.9158962 21.5507336,36.498523 22.739572,37.9967106 C18.9324043,38.254499 11.8254922,38.6686467 6.5863649,41.8345389 C1.59685596,44.7514571 0.0784849054,48.9967904 0.0784849054,51.9936766 C0.0784849054,58.1616926 5.99201066,63.9066188 18.2543675,63.9066188 C32.7957753,63.9066188 40.4936632,55.9968064 40.4936632,48.1661956 C40.4954824,42.4124551 37.1145242,39.5807425 33.3931182,36.4992894 L33.3931182,36.4992894 Z M22.3172608,26.9202395 C15.0429835,26.9202395 11.7475271,17.6753693 11.7475271,12.097022 C11.7475271,9.92485429 12.16594,7.68281038 13.6046567,5.93130539 C14.9608602,4.2636008 17.3232039,3.18109381 19.5283179,3.18109381 C26.5411521,3.18109381 30.1782258,12.508998 30.1782258,18.508008 C30.1782258,20.009006 30.0102109,22.6689022 28.0657604,24.5922236 C26.7055286,25.9258762 24.430116,26.9202395 22.3172608,26.9202395 L22.3172608,26.9202395 Z M22.4005536,60.4162555 C13.3547784,60.4162555 7.52155672,56.16198 7.52155672,50.2467705 C7.52155672,44.3336048 12.9302582,42.3332535 14.7912861,41.6707705 C18.3402591,40.4965429 22.9077168,40.3327745 23.6696961,40.3327745 C24.5149681,40.3327745 24.9376691,40.3327745 25.6111579,40.4164471 C32.0417225,44.9152255 34.8332643,47.1577804 34.8332643,51.4171657 C34.8332643,56.5745948 30.5197131,60.4162555 22.4005536,60.4162555 L22.4005536,60.4162555 Z" sketch:type="MSShapeGroup"></path>
                <path d="M54.7453006,26.7931337 L54.7453006,18.4647026 L50.5605218,18.4647026 L50.5605218,26.7931337 L42.1029936,26.7931337 L42.1029936,30.9526228 L50.5605218,30.9526228 L50.5605218,39.3317685 L54.7453006,39.3317685 L54.7453006,30.9526228 L63.2453198,30.9526228 L63.2453198,26.7931337 L54.7453006,26.7931337 Z" sketch:type="MSShapeGroup"></path>
            </g>
        </g>
    </g>
</svg>