<svg xmlns="http://www.w3.org/2000/svg" xmlns:xlink="http://www.w3.org/1999/xlink" preserveAspectRatio="xMidYMid" width="53" height="50" viewBox="0 0 53 50">
  <path d="M52.315,23.450 L27.218,0.272 C26.812,-0.102 26.188,-0.102 25.782,0.272 L0.685,23.450 C0.248,23.854 0.000,24.422 0.000,25.016 L0.000,26.593 C0.000,27.180 0.475,27.657 1.060,27.657 L5.300,27.657 L5.300,50.002 L21.200,50.002 L21.200,34.041 L31.800,34.041 L31.800,50.002 L47.700,50.002 L47.700,27.657 L51.940,27.657 C52.525,27.657 53.000,27.180 53.000,26.593 L53.000,25.016 C53.000,24.422 52.751,23.854 52.315,23.450 Z" class="cls-1"/>
</svg>
