<?xml version="1.0" encoding="UTF-8" standalone="no"?>
<svg width="64px" height="64px" viewBox="0 0 64 64" version="1.1" xmlns="http://www.w3.org/2000/svg" xmlns:xlink="http://www.w3.org/1999/xlink" xmlns:sketch="http://www.bohemiancoding.com/sketch/ns">
    <g id="Page-1" stroke="none" stroke-width="1" fill-rule="evenodd" sketch:type="MSPage">
        <g id="LinkedIn" sketch:type="MSArtboardGroup">
            <g sketch:type="MSLayerGroup" transform="translate(3.000000, 0.000000)">
                <rect id="Rectangle-path" sketch:type="MSShapeGroup" x="0.0218536585" y="19.2239823" width="12.7693481" height="44.6991042"></rect>
                <path d="M6.40794678,12.8385987 C2.87716186,12.8385987 0.0218536585,9.98258093 0.0218536585,6.45108647 C0.0218536585,2.9232816 2.87730377,0.0649933481 6.40794678,0.0649933481 C9.93929933,0.0649933481 12.7910599,2.9232816 12.7910599,6.45108647 C12.7912018,9.98258093 9.93944124,12.8385987 6.40794678,12.8385987" id="Shape" sketch:type="MSShapeGroup"></path>
                <path d="M57.4924346,63.9230865 L44.7202483,63.9230865 L44.7202483,38.378714 C44.7202483,34.8509091 41.8676364,31.995459 38.3369933,31.995459 C34.8063503,31.995459 31.9509002,34.8509091 31.9509002,38.378714 L31.9509002,63.9230865 L19.1794235,63.9230865 L19.1794235,19.2239823 L31.9509002,19.2239823 L31.9509002,27.1531707 C34.5841242,23.5334102 38.6091707,19.2239823 43.1259246,19.2239823 C51.0607894,19.2239823 57.4924346,26.3731086 57.4924346,35.1870865 L57.4924346,63.9230865 L57.4924346,63.9230865 Z" id="Shape" sketch:type="MSShapeGroup"></path>
            </g>
        </g>
    </g>
</svg>