<?xml version="1.0" encoding="utf-8"?>
<!-- Generator: Adobe Illustrator 16.0.0, SVG Export Plug-In . SVG Version: 6.00 Build 0)  -->
<!DOCTYPE svg PUBLIC "-//W3C//DTD SVG 1.1//EN" "http://www.w3.org/Graphics/SVG/1.1/DTD/svg11.dtd">
<svg version="1.1" id="Layer_1" xmlns:sketch="http://www.bohemiancoding.com/sketch/ns"
	 xmlns="http://www.w3.org/2000/svg" xmlns:xlink="http://www.w3.org/1999/xlink" x="0px" y="0px" width="64px" height="64px"
	 viewBox="0 0 64 64" enable-background="new 0 0 64 64" xml:space="preserve">
<g id="Mening">
	<path d="M56.719,14.175C56.227,11.126,53.98,8.827,51,8.314c-5.309-0.912-13.641-1.048-18.133-1.048
		c-4.491,0-12.82,0.136-18.132,1.048c-2.982,0.513-5.226,2.813-5.718,5.864C8,20.45,8,21.925,8,28.131c0,2.1,0,7.68,1.018,13.954
		c0.49,3.047,2.734,5.349,5.716,5.862c4.93,0.846,12.39,1.021,16.778,1.043l12.649,7.764c0.526,0.336,1.144,0.514,1.776,0.514
		c0.252,0,0.504-0.027,0.756-0.086c0.887-0.199,1.642-0.736,2.125-1.511c0.449-0.722,0.615-1.569,0.474-2.394l-0.11-0.441
		l-0.646-2.279l-0.01,0.002l-0.621-2.193l0.468-0.055c0.971-0.106,1.854-0.229,2.628-0.362c2.982-0.513,5.229-2.814,5.721-5.863
		c1.016-6.274,1.016-11.853,1.016-13.953C57.734,26.03,57.734,20.452,56.719,14.175L56.719,14.175L56.719,14.175z M52.449,41.387
		c-0.191,1.188-1.047,2.08-2.178,2.274c-0.363,0.063-1.693,0.438-2.086,0.493c0,0-0.937-1.939-3.009-3.838
		c-1.521-1.394-4.346-1.088-4.346-1.088l3.544,12.563l-11.643-7.145l-0.604-0.002c-3.334-0.009-11.632-0.121-16.667-0.983
		c-1.129-0.194-1.983-1.087-2.175-2.272c-0.961-5.931-0.961-11.253-0.961-13.258c0-6.065,0-7.327,0.96-13.257
		c0.192-1.188,1.046-2.079,2.177-2.272c3.705-0.637,9.884-0.987,17.404-0.987c7.521,0,13.702,0.35,17.403,0.987
		c1.133,0.192,1.986,1.086,2.179,2.271c0.959,5.93,0.959,11.253,0.959,13.258S53.408,35.459,52.449,41.387L52.449,41.387
		L52.449,41.387z"/>
</g>
</svg>
