<?xml version="1.0" encoding="utf-8"?>
<!-- Generator: Adobe Illustrator 16.0.0, SVG Export Plug-In . SVG Version: 6.00 Build 0)  -->
<!DOCTYPE svg PUBLIC "-//W3C//DTD SVG 1.1//EN" "http://www.w3.org/Graphics/SVG/1.1/DTD/svg11.dtd">
<svg version="1.1" id="Layer_1" xmlns:sketch="http://www.bohemiancoding.com/sketch/ns"
	 xmlns="http://www.w3.org/2000/svg" xmlns:xlink="http://www.w3.org/1999/xlink" x="0px" y="0px" width="64px" height="64px"
	 viewBox="0 0 64 64" enable-background="new 0 0 64 64" xml:space="preserve">
<g id="pijl-met-hoek">
	<path d="M35.336,57.232c-1.479,1.121-3.588,1.08-5.023-0.1c-1.43-1.179-1.79-3.163-0.854-4.736l5.533-9.271H14.859
		c-3.166,0-10.478-0.264-10.476-3.22c0-1.489-1.356-22.786,0.896-24.406c1.131-0.816,6.421-1.374,8.386,1.411
		c1.873,2.653,0.428,15.067,1.194,15.067h27.709c0,0,0.181-0.288-0.375-0.431c-0.695-0.178-8.797-2.239-8.797-2.239l-3.938-6.603
		c-0.936-1.572-0.577-3.557,0.854-4.736c0.74-0.608,1.659-0.915,2.578-0.915c0.864,0,1.73,0.271,2.445,0.814l22.143,16.719
		c0.945,0.714,1.5,1.811,1.5,2.963c0,1.158-0.555,2.249-1.5,2.967L35.336,57.232L35.336,57.232z"/>
</g>
</svg>
