<?xml version="1.0" encoding="utf-8"?>
<!-- Generator: Adobe Illustrator 17.1.0, SVG Export Plug-In . SVG Version: 6.00 Build 0)  -->
<svg version="1.2" baseProfile="tiny" xmlns="http://www.w3.org/2000/svg" xmlns:xlink="http://www.w3.org/1999/xlink" x="0px"
	 y="0px" width="64px" height="64px" viewBox="0 0 64 64" xml:space="preserve">
<g id="_x36_4px_Boxes">
	<rect fill="none" width="64" height="64"/>
</g>
<g id="Production">
	<path d="M29.3403,12.9004l-15,19c-1.0058,1.2715-0.9682,3.0801,0.0909,4.3096c1.0576,1.2295,2.8388,1.5371,4.248,0.7334L27,32.1975
		v17.2761c0,2.7168,2.3491,3.5274,5.0015,3.5264C34.6519,53.001,37,52.1914,37,49.4736V25.6934c0,0,0.2578-0.1543,0.3863,0.3216
		c0.161,0.5962,2.0104,7.5495,2.0104,7.5495l5.9241,3.3789c1.4092,0.8037,3.1904,0.4961,4.248-0.7334
		c0.5459-0.6338,0.8199-1.4219,0.8199-2.21c0-0.7412-0.2417-1.4834-0.729-2.0996l-15-19c-0.6426-0.8145-1.6226-1.2891-2.6597-1.2891
		C30.9629,11.6113,29.9829,12.0859,29.3403,12.9004z"/>
</g>
</svg>
