<?xml version="1.0" encoding="utf-8"?>
<!-- Generator: Adobe Illustrator 19.1.0, SVG Export Plug-In . SVG Version: 6.00 Build 0)  -->
<svg version="1.1" id="Layer_1" xmlns="http://www.w3.org/2000/svg" xmlns:xlink="http://www.w3.org/1999/xlink" x="0px" y="0px"
	 viewBox="0 0 90.9 91.7" enable-background="new 0 0 90.9 91.7" xml:space="preserve">
<g>
	<path d="M85.5,13.1c-0.6-3.8-3.5-6.7-7.3-7.3C67.3,3.9,49.1,3.9,45.4,3.9c-3.6,0-21.9,0-32.8,1.8C8.8,6.4,6,9.3,5.3,13.1
		C3.5,24,3.5,42.2,3.5,45.9c0,3.6,0,21.9,1.8,32.8c0.6,3.8,3.5,6.7,7.3,7.3c10.9,1.8,29.2,1.8,32.8,1.8c3.6,0,21.9,0,32.8-1.8
		c3.8-0.6,6.7-3.5,7.3-7.3c1.8-10.9,1.8-29.2,1.8-32.8C87.4,34.9,87.4,24,85.5,13.1z"/>
</g>
</svg>
