<?xml version="1.0" encoding="utf-8"?>
<!-- Generator: Adobe Illustrator 16.0.0, SVG Export Plug-In . SVG Version: 6.00 Build 0)  -->
<!DOCTYPE svg PUBLIC "-//W3C//DTD SVG 1.1//EN" "http://www.w3.org/Graphics/SVG/1.1/DTD/svg11.dtd">
<svg version="1.1" id="Layer_1" xmlns:sketch="http://www.bohemiancoding.com/sketch/ns"
	 xmlns="http://www.w3.org/2000/svg" xmlns:xlink="http://www.w3.org/1999/xlink" x="0px" y="0px" width="64px" height="64px"
	 viewBox="0 0 64 64" enable-background="new 0 0 64 64" xml:space="preserve">
    <g id="back-to-top">
    	<path d="M34.551,17.631L48.93,36.758c0.965,1.28,0.928,3.102-0.086,4.34c-1.015,1.237-2.722,1.547-4.072,0.738l-7.979-4.779V54.45
    		c0,2.735-2.252,3.553-4.794,3.551c-2.541,0.002-4.792-0.813-4.792-3.551V30.51c0,0-0.248-0.156-0.371,0.323
    		c-0.154,0.601-1.927,7.601-1.927,7.601l-5.679,3.402c-1.352,0.809-3.059,0.499-4.073-0.738c-0.524-0.639-0.787-1.432-0.787-2.225
    		c0-0.746,0.232-1.494,0.699-2.115l14.382-19.127c0.615-0.82,1.556-1.297,2.55-1.297C32.994,16.333,33.934,16.811,34.551,17.631
    		l-1.306,36.2"/>
    	<path id="Rectangle-41" d="M6,8h52c1.104,0,2,0.896,2,2v4.333c0,1.104-0.896,2-2,2H6c-1.104,0-2-0.896-2-2V10C4,8.896,4.896,8,6,8z
    		"/>
    </g>
</svg>