<?xml version="1.0" encoding="UTF-8" standalone="no"?>
<svg width="64px" height="64px" viewBox="0 0 64 64" version="1.1" xmlns="http://www.w3.org/2000/svg" xmlns:xlink="http://www.w3.org/1999/xlink" xmlns:sketch="http://www.bohemiancoding.com/sketch/ns">
    <g id="Page-1" stroke="none" stroke-width="1" fill-rule="evenodd" sketch:type="MSPage">
        <g id="YouTube" sketch:type="MSArtboardGroup">
            <g id="Twitter_Vogel" sketch:type="MSLayerGroup" transform="translate(0.000000, 6.000000)">
                <path d="M57.4584715,13.1782005 C57.476813,13.7485018 57.4904715,14.3254375 57.4904715,14.9023732 C57.4904715,32.5233039 44.305561,52.8408075 20.2082602,52.8408075 C12.8107967,52.8408075 5.92169106,50.6351829 0.125268293,46.8473105 C1.14978862,46.9770072 2.19043902,47.0377578 3.25034146,47.0377578 C9.39069919,47.0377578 15.0380488,44.9055022 19.52,41.3247283 C13.7877073,41.2170162 8.94881301,37.3611083 7.28260163,32.071642 C8.08286179,32.2304782 8.90458537,32.3052782 9.74491057,32.3052782 C10.9421789,32.3052782 12.0993821,32.1409783 13.1938862,31.8370952 C7.20663415,30.6106352 2.68891057,25.2233434 2.68891057,18.7645253 C2.68891057,18.7096286 2.68891057,18.6552522 2.69164228,18.5986644 C4.45450407,19.5978624 6.47817886,20.198474 8.62556098,20.2649484 C5.10972358,17.8777224 2.79661789,13.7940322 2.79661789,9.16748906 C2.79661789,6.72471591 3.44013008,4.43492503 4.5697561,2.46436759 C11.0334959,10.5341828 20.6896911,15.8440728 31.5769756,16.3946009 C31.3499837,15.4202494 31.2392846,14.402449 31.2392846,13.3591515 C31.2392846,5.99544835 37.1010081,0.0254970464 44.3369106,0.0254970464 C48.1122602,0.0254970464 51.5162276,1.64612054 53.8989268,4.23745301 C56.8894959,3.63814233 59.6902764,2.52785003 62.2243902,0.999848463 C61.2425366,4.11308987 59.1629268,6.72744773 56.4656911,8.37851158 C59.1097236,8.05862771 61.6348618,7.3369052 63.9890732,6.27929812 C62.2410407,8.95362608 60.0136585,11.3000048 57.4584715,13.1782005" id="Shape" sketch:type="MSShapeGroup"></path>
            </g>
        </g>
    </g>
</svg>