<?xml version="1.0" encoding="utf-8"?>
<!-- Generator: Adobe Illustrator 16.0.0, SVG Export Plug-In . SVG Version: 6.00 Build 0)  -->
<svg version="1.2" baseProfile="tiny" xmlns="http://www.w3.org/2000/svg" xmlns:xlink="http://www.w3.org/1999/xlink" x="0px" y="0px" width="64px" height="64px" viewBox="0 0 64 64" xml:space="preserve">
	<g id="User">
		<path d="M21.6406,9.3672c-0.8735,1.3389-0.9663,3.3984-0.9585,5.3408c0.0093,1.8652-0.0376,3.623,0.1289,4.5293
			c-1.2798-0.0625-1.8164,0.9658-1.6182,4.4424c0.1743,3.083,1.4063,3.75,2.1406,4.1748c0.6484,3.1172,1.897,6.0703,4.1104,8.3018
			l0.0039-0.0313c-0.1367,0.8096-0.3086,1.6719-0.5313,2.5283c-3.0454,1.0703-10.5181,3.8545-12.7056,6.1621
			C9.4531,47.7217,8,58.667,8,58.667h48c0,0-1.4531-10.9453-4.2109-13.8516c-2.1836-2.3027-9.6328-5.0811-12.689-6.1563
			c-0.2524-0.8496-0.4399-1.7012-0.582-2.5029c2.2124-2.2314,3.5-5.1846,4.1484-8.3018c0.7344-0.4248,1.9272-1.0918,2.1016-4.1748
			c0.1982-3.4766-0.3369-4.5049-1.6172-4.4424c0.1641-0.9014,0.1772-2.6094,0.1641-4.4453
			c-0.0127-1.9404-0.1055-4.0186-0.8877-5.4248c-0.9741-1.7471-2.3413-2.7734-5.0078-2.1406
			c-2.335-1.1221-4.793-2.3281-8.9077-1.4189C23.875,6.833,22.2368,8.4561,21.6406,9.3672z"/>
	</g>
</svg>