<?xml version="1.0" encoding="utf-8"?>
<!-- Generator: Adobe Illustrator 17.1.0, SVG Export Plug-In . SVG Version: 6.00 Build 0)  -->
<svg version="1.2" baseProfile="tiny" xmlns="http://www.w3.org/2000/svg" xmlns:xlink="http://www.w3.org/1999/xlink" x="0px"
	 y="0px" width="64px" height="64px" viewBox="0 0 64 64" xml:space="preserve">
<g id="Production">
	<path d="M53.8564,14.1172c-0.3432-2.0615-1.9116-3.6299-3.9736-3.9736C43.9219,9.1499,33.9868,9.1499,32,9.1499
		s-11.9219,0-17.8828,0.9937c-2.062,0.3438-3.6304,1.9121-3.9736,3.9736C9.1499,20.0781,9.1499,30.0137,9.1499,32
		c0,1.9863,0,11.9219,0.9937,17.8828c0.3432,2.0615,1.9116,3.6299,3.9736,3.9736c5.9609,0.9932,15.896,0.9932,17.8828,0.9932
		s11.9219,0,17.8828-0.9932c2.062-0.3437,3.6304-1.9121,3.9736-3.9736C54.8501,43.9219,54.8501,33.9863,54.8501,32
		C54.8501,26.0361,54.8501,20.0781,53.8564,14.1172z M42.1904,33.6074l-15,11.1143c-0.3511,0.2598-0.7695,0.3926-1.1904,0.3926
		c-0.3071,0-0.6152-0.0703-0.8994-0.2139C24.4258,44.5605,24,43.8701,24,43.1143V20.8857c0-0.7554,0.4258-1.4463,1.1006-1.7861
		c0.6729-0.3413,1.4824-0.272,2.0898,0.1792l15,11.1138C42.6997,30.7705,43,31.3662,43,32S42.6997,33.2295,42.1904,33.6074z"/>
</g>
</svg>
