<?xml version="1.0" encoding="UTF-8" standalone="no"?>
<svg width="64px" height="64px" viewBox="0 0 64 64" version="1.1" xmlns="http://www.w3.org/2000/svg" xmlns:xlink="http://www.w3.org/1999/xlink" xmlns:sketch="http://www.bohemiancoding.com/sketch/ns">
    <!-- Generator: Sketch 3.3.3 (12072) - http://www.bohemiancoding.com/sketch -->
    <title>wet-7003</title>
    <desc>Created with Sketch.</desc>
    <defs></defs>
    <g id="Page-1" stroke="none" stroke-width="1" fill="none" fill-rule="evenodd" sketch:type="MSPage">
        <g id="wet-7003" sketch:type="MSArtboardGroup" fill="#000000">
            <path d="M53.09812,7 L22.6,7 C16.35958,7 10,9.41875 10,15.96949 L10,51.24256 C10,54.91924 11.91187,57.4 15.4,57.4 L35.69752,57.4 L35.71579,57.4 L45.89479,57.4 C46.94698,57.4 47.8,56.54851 47.8,55.49812 L47.8,17.90188 C47.8,16.85149 46.94698,16 45.89479,16 L16.19299,16 C15.37219,16 14.98573,15.25741 15.27688,14.42887 C16.1875,11.8375 20.9125,11.5 22.6,11.5 L50.5,11.5 L50.5,49.3 L53.2,49.3 C54.19414,49.3 55,48.49414 55,47.5 L55,8.90188 C55,7.85149 54.14851,7 53.09812,7 L53.09812,7 Z M41.5,47.5 L29.8,47.5 L29.8,46.39867 C29.8,45.0187 30.9457,43.9 32.32567,43.9 L39.00133,43.9 C40.3813,43.9 41.5,45.0187 41.5,46.39867 L41.5,47.5 L41.5,47.5 Z M16.20559,38.47651 C16.52437,38.29651 25.58206,33.47305 31.1986,30.48316 C30.87847,29.91625 30.50182,29.24899 30.00826,28.37491 L29.28277,28.39615 C28.76815,28.41235 28.2871,28.14163 28.03402,27.69334 L27.76528,27.21733 C27.57736,26.88451 27.69481,26.4625 28.02763,26.27458 L35.25868,22.19164 C35.5915,22.00372 36.0136,22.12117 36.20152,22.4539 L36.47026,22.92991 C36.72343,23.3782 36.70678,23.92999 36.42706,24.36226 C35.4124,25.9306 33.22225,26.74195 32.32198,27.23686 C32.34844,27.28888 32.39083,27.37132 32.55463,27.38743 C32.72977,27.40471 34.39054,27.24109 36.75448,26.24812 C38.32606,29.03146 37.73053,27.97684 39.3472,30.84001 C37.27594,32.35138 36.27802,33.68878 36.20233,33.84781 C36.1315,33.99649 36.18019,34.07533 36.21106,34.12483 C37.11115,33.60355 38.91196,32.15374 40.79287,32.09443 C41.30749,32.07823 41.78854,32.34895 42.04171,32.79724 L42.31045,33.27316 C42.49837,33.60598 42.38083,34.02808 42.0481,34.216 L34.81705,38.29894 C34.48423,38.48686 34.06213,38.36941 33.87421,38.03659 L33.60547,37.56067 C33.35239,37.11229 33.36895,36.56059 33.64867,36.12832 L34.05052,35.53387 C33.54445,34.63765 33.16123,33.95887 32.83579,33.38251 C27.37459,36.64744 18.56584,41.91217 18.24706,42.09208 C17.24869,42.65584 15.9823,42.30349 15.41854,41.30503 C14.85478,40.30657 15.20722,39.04027 16.20559,38.47651 L16.20559,38.47651 Z" id="Shape" sketch:type="MSShapeGroup"></path>
        </g>
    </g>
</svg>