<?xml version="1.0" encoding="utf-8"?>
<!-- Generator: Adobe Illustrator 16.0.0, SVG Export Plug-In . SVG Version: 6.00 Build 0)  -->
<svg version="1.1" xmlns="http://www.w3.org/2000/svg" xmlns:xlink="http://www.w3.org/1999/xlink" x="0px" y="0px" width="64px" height="64px" viewBox="0 0 64 64" enable-background="new 0 0 64 64" xml:space="preserve">
	<g id="Search">
		<path d="M54.9116,47.3857L42.814,35.292c1.3838-2.5732,2.1729-5.5078,2.1729-8.6279c0-10.0703-8.1953-18.2627-18.2681-18.2627
			c-10.0718,0-18.2656,8.1924-18.2656,18.2627c0,10.0732,8.1938,18.2686,18.2656,18.2686c3.0781,0,5.9766-0.7715,8.5234-2.123
			l12.1226,12.123c1.8955,1.8955,4.9844,1.8955,6.8799,0l0.667-0.667C56.8125,52.3643,56.8071,49.2861,54.9116,47.3857z
			 M15.6538,26.6641c0-6.1094,4.9556-11.0654,11.0649-11.0654c6.1118,0,11.0679,4.9561,11.0679,11.0654
			c0,6.1143-4.9561,11.0703-11.0679,11.0703C20.6094,37.7344,15.6538,32.7783,15.6538,26.6641z"/>
	</g>
</svg>