<?xml version="1.0" encoding="utf-8"?>
<!-- Generator: Adobe Illustrator 16.0.0, SVG Export Plug-In . SVG Version: 6.00 Build 0)  -->
<!DOCTYPE svg PUBLIC "-//W3C//DTD SVG 1.1//EN" "http://www.w3.org/Graphics/SVG/1.1/DTD/svg11.dtd">
<svg version="1.1" id="Layer_1" xmlns="http://www.w3.org/2000/svg" xmlns:xlink="http://www.w3.org/1999/xlink" x="0px" y="0px"
	 width="24px" height="24px" viewBox="0 0 24 24" enable-background="new 0 0 24 24" xml:space="preserve">
<g id="Production">
	<path d="M20.592,17.77l-4.537-4.535c0.52-0.964,0.815-2.066,0.815-3.235c0-3.777-3.073-6.849-6.851-6.849
		c-3.777,0-6.85,3.072-6.85,6.849c0,3.778,3.073,6.851,6.85,6.851c1.154,0,2.241-0.289,3.196-0.796l4.546,4.546
		c0.711,0.711,1.869,0.711,2.58,0l0.25-0.25C21.305,19.637,21.303,18.482,20.592,17.77z M5.87,9.999
		c0-2.291,1.858-4.149,4.149-4.149c2.292,0,4.15,1.858,4.15,4.149c0,2.293-1.858,4.151-4.15,4.151
		C7.729,14.15,5.87,12.292,5.87,9.999z"/>
</g>
</svg>
