<?xml version="1.0" encoding="utf-8"?>
<!-- Generator: Adobe Illustrator 16.0.3, SVG Export Plug-In . SVG Version: 6.00 Build 0)  -->
<!DOCTYPE svg PUBLIC "-//W3C//DTD SVG 1.1//EN" "http://www.w3.org/Graphics/SVG/1.1/DTD/svg11.dtd">
<svg version="1.1" id="Layer_1" xmlns="http://www.w3.org/2000/svg" xmlns:xlink="http://www.w3.org/1999/xlink" x="0px" y="0px"
	 width="378px" height="512px" viewBox="0 0 378 512" enable-background="new 0 0 378 512" xml:space="preserve">
<path d="M355.52,323.25c0,91.823-74.723,166.519-166.52,166.519c-91.823,0-166.519-74.695-166.519-166.519
	c0-91.797,74.695-166.52,166.519-166.52C280.797,156.73,355.52,231.453,355.52,323.25z M377,323.25c0-103.836-84.164-188-188-188
	c-103.835,0-188,84.164-188,188c0,103.835,84.165,188,188,188C292.836,511.25,377,427.085,377,323.25z"/>
<polygon points="65.914,283.059 86.864,266.349 189,373.932 291.135,266.349 312.138,283.059 189,416.881 "/>
</svg>
