<?xml version="1.0" encoding="utf-8"?>
<!-- Generator: Adobe Illustrator 16.0.3, SVG Export Plug-In . SVG Version: 6.00 Build 0)  -->
<!DOCTYPE svg PUBLIC "-//W3C//DTD SVG 1.1//EN" "http://www.w3.org/Graphics/SVG/1.1/DTD/svg11.dtd">
<svg version="1.1" id="Layer_1" xmlns="http://www.w3.org/2000/svg" xmlns:xlink="http://www.w3.org/1999/xlink" x="0px" y="0px"
	 width="378px" height="512px" viewBox="0 0 378 512" enable-background="new 0 0 378 512" xml:space="preserve">
<path d="M22.48,323.25c0-91.823,74.723-166.519,166.52-166.519c91.823,0,166.519,74.695,166.519,166.519
	c0,91.797-74.695,166.52-166.519,166.52C97.203,489.77,22.48,415.047,22.48,323.25z M1,323.25c0,103.836,84.165,188,188,188
	c103.835,0,188-84.164,188-188c0-103.835-84.165-188-188-188C85.165,135.25,1,219.415,1,323.25z"/>
<polygon points="312.086,363.441 291.136,380.151 189,272.568 86.865,380.151 65.862,363.441 189,229.619 "/>
</svg>
