<?xml version="1.0" encoding="utf-8"?>
<!-- Generator: Adobe Illustrator 16.0.3, SVG Export Plug-In . SVG Version: 6.00 Build 0)  -->
<!DOCTYPE svg PUBLIC "-//W3C//DTD SVG 1.1//EN" "http://www.w3.org/Graphics/SVG/1.1/DTD/svg11.dtd">
<svg version="1.1" id="Layer_1" xmlns="http://www.w3.org/2000/svg" xmlns:xlink="http://www.w3.org/1999/xlink" x="0px" y="0px"
	 width="378px" height="512px" viewBox="0 0 378 512" enable-background="new 0 0 378 512" xml:space="preserve">
<path d="M189,156.73c91.823,0,166.519,74.723,166.519,166.52c0,91.823-74.695,166.519-166.519,166.519
	c-91.797,0-166.52-74.695-166.52-166.519C22.48,231.453,97.203,156.73,189,156.73z M189,135.25c-103.835,0-188,84.165-188,188
	c0,103.835,84.165,188,188,188c103.835,0,188-84.165,188-188C377,219.415,292.835,135.25,189,135.25z"/>
<polygon points="148.808,446.336 132.099,425.386 239.682,323.25 132.099,221.115 148.808,200.112 282.631,323.25 "/>
</svg>
