<?xml version="1.0" encoding="utf-8"?>
<!-- Generator: Adobe Illustrator 16.0.3, SVG Export Plug-In . SVG Version: 6.00 Build 0)  -->
<!DOCTYPE svg PUBLIC "-//W3C//DTD SVG 1.1//EN" "http://www.w3.org/Graphics/SVG/1.1/DTD/svg11.dtd">
<svg version="1.1" id="Layer_1" xmlns="http://www.w3.org/2000/svg" xmlns:xlink="http://www.w3.org/1999/xlink" x="0px" y="0px"
	 width="378px" height="512px" viewBox="0 0 378 512" enable-background="new 0 0 378 512" xml:space="preserve">
<path d="M189,489.77c-91.823,0-166.519-74.723-166.519-166.52c0-91.823,74.695-166.519,166.519-166.519
	c91.797,0,166.52,74.695,166.52,166.519C355.52,415.047,280.797,489.77,189,489.77z M189,511.25c103.836,0,188-84.164,188-188
	c0-103.835-84.164-188-188-188c-103.835,0-188,84.165-188,188C1,427.086,85.165,511.25,189,511.25z"/>
<polygon points="229.191,200.164 245.901,221.114 138.318,323.25 245.901,425.385 229.191,446.388 95.369,323.25 "/>
</svg>
