<?xml version="1.0" encoding="utf-8"?>
<!-- Generator: Adobe Illustrator 15.1.0, SVG Export Plug-In . SVG Version: 6.00 Build 0)  -->
<!DOCTYPE svg PUBLIC "-//W3C//DTD SVG 1.1//EN" "http://www.w3.org/Graphics/SVG/1.1/DTD/svg11.dtd">
<svg version="1.1" id="Logo_AvB" xmlns="http://www.w3.org/2000/svg" xmlns:xlink="http://www.w3.org/1999/xlink" x="0px" y="0px"
	 width="35px" height="35px" viewBox="0 0 35 35" enable-background="new 0 0 35 35" xml:space="preserve">
<g>
	<rect x="0.005" y="0.032" fill="#FFFFFF" width="34.98" height="22.156"/>
	<rect x="12.995" y="0.008" fill="#00213B" width="8.876" height="17.745"/>
	<path fill="#FFFFFF" d="M17.587,13.723h-0.155v-0.427h0.155V13.723z M18.283,11.838h-0.154v-0.429h0.154V11.838z M15.425,11.1
		l-0.092,0.017l0.092,0.016l0.259,0.084c0.079,0,0.159-0.054,0.127-0.167l-0.018-0.002c-0.014,0.05-0.075,0.081-0.14,0.081
		L15.425,11.1z M14.575,11.527c0.013,0.019,0.159,0.208-0.064,0.279l0.001,0.019c0.165,0.069,0.246-0.059,0.246-0.059
		c0.083,0.191-0.044,0.296-0.044,0.296c0.018,0.036,0.096,0.092,0.216,0.119c0.045-0.024,0.109-0.071,0.136-0.142
		c0,0,0.033,0.081,0.003,0.162c0.337,0.029,0.457-0.239,0.716-0.19L15.795,12c0-0.168-0.101-0.47-0.422-0.532
		c-0.321-0.062-0.234-0.194-0.234-0.194c0.135-0.005,0.213,0.052,0.213,0.052c0.024-0.039-0.01-0.083-0.01-0.083l0.02-0.072
		c-0.153,0-0.191-0.032-0.191-0.032c-0.024-0.09,0.039-0.218,0.265-0.082c0.056-0.049,0.053-0.125,0.053-0.125l0.027-0.049
		c0-0.037-0.182-0.137-0.229-0.15c-0.01-0.054-0.08-0.133-0.293-0.106c-0.1,0.014-0.173-0.011-0.14-0.072l-0.022-0.002
		c-0.024,0.023-0.055,0.089,0.033,0.132c0.097,0.051,0.104,0.148,0.105,0.162l-0.029,0.002c-0.045-0.165-0.271-0.201-0.404-0.113
		c0.008,0.09,0.102,0.146,0.155,0.146c0.029,0,0.071-0.028,0.071-0.07l0.016-0.001c0.023,0.059-0.064,0.18-0.193,0.107
		c-0.132,0.129-0.079,0.292-0.067,0.352c0.025,0.107-0.027,0.212-0.125,0.162l-0.01,0.008
		C14.383,11.509,14.472,11.585,14.575,11.527z M15.3,10.864c-0.062,0.068-0.161,0.054-0.186-0.06
		C15.239,10.798,15.295,10.811,15.3,10.864z M19.213,11.128c-0.066,0-0.128-0.028-0.14-0.081l-0.019,0.002
		c-0.031,0.113,0.048,0.168,0.126,0.168l0.26-0.083l0.09-0.017L19.44,11.1L19.213,11.128z M20.481,11.44l-0.01-0.007
		c-0.097,0.049-0.147-0.055-0.125-0.162c0.014-0.06,0.066-0.222-0.066-0.354c-0.128,0.074-0.215-0.047-0.193-0.105l0.016,0.001
		c0,0.04,0.041,0.072,0.071,0.072c0.052,0,0.146-0.059,0.155-0.147c-0.135-0.088-0.362-0.053-0.405,0.113l-0.028-0.002
		c0-0.014,0.006-0.111,0.103-0.162c0.091-0.042,0.058-0.109,0.034-0.132l-0.022,0.003c0.034,0.059-0.039,0.084-0.139,0.071
		c-0.213-0.026-0.282,0.052-0.294,0.107c-0.047,0.011-0.229,0.111-0.229,0.149l0.028,0.047c0,0-0.004,0.077,0.052,0.129
		c0.227-0.139,0.289-0.012,0.269,0.079c0,0-0.042,0.033-0.193,0.034l0.019,0.072c0,0-0.035,0.042-0.01,0.085
		c0,0,0.077-0.06,0.213-0.055c0,0,0.087,0.132-0.235,0.194c-0.321,0.061-0.422,0.366-0.422,0.532l0.012,0.01
		c0.259-0.049,0.378,0.222,0.716,0.192c-0.03-0.079,0.002-0.163,0.002-0.163c0.027,0.072,0.091,0.118,0.135,0.143
		c0.122-0.026,0.2-0.085,0.22-0.118c0,0-0.129-0.106-0.046-0.295c0,0,0.081,0.125,0.247,0.057l0.001-0.02
		c-0.225-0.072-0.077-0.262-0.066-0.28C20.393,11.585,20.481,11.509,20.481,11.44z M19.752,10.805
		c-0.026,0.113-0.125,0.127-0.187,0.06C19.57,10.811,19.625,10.798,19.752,10.805z M17.374,8.91l0.021,0.068l0.008,0.053
		L17.35,9.023L17.283,9c-0.049,0-0.073,0.032-0.073,0.061c0,0.026,0.024,0.059,0.073,0.059l0.067-0.022l0.053-0.008l-0.015,0.184
		c-0.081,0.017-0.12,0.081-0.12,0.119c0,0.097,0.104,0.153,0.164,0.185c0.06-0.032,0.165-0.088,0.165-0.185
		c0-0.038-0.039-0.102-0.12-0.119l-0.015-0.184l0.053,0.008l0.067,0.022c0.048,0,0.072-0.032,0.072-0.059
		C17.655,9.033,17.631,9,17.583,9l-0.067,0.023l-0.053,0.007l0.007-0.053l0.022-0.068c0-0.047-0.031-0.073-0.059-0.073
		C17.405,8.837,17.374,8.863,17.374,8.91z M17.433,9.631c-0.065,0-0.119,0.051-0.119,0.117c0,0.066,0.054,0.118,0.119,0.118
		s0.118-0.052,0.118-0.118C17.551,9.682,17.498,9.631,17.433,9.631z M17.433,10.767c0.472,0,0.739,0.091,0.739,0.091
		c0.003-0.239,0.003-0.372,0.141-0.353c-0.076-0.201,0.247-0.279,0.247-0.541c0-0.172-0.123-0.192-0.158-0.192l-0.182,0.07
		l-0.023,0.004c0,0.03,0.025,0.083,0.068,0.083l0.098-0.057c0.019,0,0.044,0.014,0.044,0.072c0,0.11-0.073,0.236-0.159,0.331
		l-0.078-0.044c-0.052,0-0.096,0.053-0.096,0.12l0.013,0.062l-0.074,0.023c-0.038,0-0.097-0.015-0.097-0.1
		c0-0.189,0.255-0.356,0.255-0.597c0-0.114-0.077-0.229-0.239-0.229c-0.171,0-0.139,0.156-0.287,0.156l-0.013,0.009
		c0,0.011,0.026,0.097,0.103,0.097l0.179-0.143c0.028,0,0.069,0.016,0.069,0.113c0,0.075-0.038,0.196-0.093,0.312l-0.075-0.035
		c-0.063,0-0.108,0.062-0.108,0.136c0,0.046,0.018,0.093,0.05,0.122c-0.038,0.047-0.076,0.087-0.127,0.087
		c-0.104,0-0.148-0.058-0.148-0.122c0-0.068,0.125-0.093,0.125-0.2c0-0.074-0.045-0.115-0.092-0.115l-0.08,0.032l-0.079-0.032
		c-0.046,0-0.093,0.042-0.093,0.115c0,0.106,0.126,0.132,0.126,0.2c0,0.064-0.046,0.122-0.149,0.122c-0.053,0-0.09-0.04-0.128-0.087
		c0.031-0.028,0.049-0.075,0.049-0.122c0-0.074-0.045-0.136-0.109-0.136l-0.075,0.035c-0.053-0.116-0.09-0.237-0.09-0.312
		c0-0.097,0.04-0.113,0.068-0.113l0.178,0.143c0.077,0,0.103-0.086,0.103-0.097l-0.012-0.009c-0.148,0-0.117-0.156-0.29-0.156
		c-0.159,0-0.236,0.114-0.236,0.229c0,0.241,0.254,0.408,0.254,0.597c0,0.085-0.06,0.1-0.098,0.1l-0.074-0.023l0.012-0.062
		c0-0.067-0.044-0.12-0.095-0.12l-0.079,0.044c-0.086-0.095-0.158-0.22-0.158-0.331c0-0.058,0.025-0.072,0.042-0.072l0.099,0.057
		c0.042,0,0.067-0.053,0.067-0.083l-0.023-0.004l-0.181-0.07c-0.037,0-0.158,0.02-0.158,0.192c0,0.262,0.323,0.34,0.248,0.541
		c0.137-0.02,0.135,0.113,0.139,0.353C16.693,10.857,16.958,10.767,17.433,10.767L17.433,10.767z M16.564,11.119l-0.261,0.068
		c0.001-0.057,0.023-0.109,0.073-0.124l0.002-0.014c-0.114-0.075-0.175,0.071-0.178,0.077c-0.041-0.004-0.102,0.008-0.102,0.064
		c0,0.165-0.377,0.256-0.463,0.268c0.154,0.06,0.216,0.252,0.216,0.252c0.112-0.111,0.243-0.208,0.271-0.208l0.043,0.059
		l0.013,0.002c0.057-0.087,0.029-0.105,0.026-0.131c-0.005-0.021,0-0.097,0.086-0.088v1.097l-0.042,0.008l-0.365-0.259
		c-0.184-0.126-0.282-0.05-0.491,0.062c-0.275,0.148-0.553,0.014-0.553,0.014c-0.237,0.168-0.317,0.656-0.317,0.656
		c-0.047,0.021-0.124,0.042-0.199,0.042c-0.179,0-0.214-0.109-0.214-0.174l0.349-0.673c0-0.066-0.031-0.337-0.366-0.337
		l-0.299-0.001c-0.126,0-0.158-0.09-0.175-0.125l-0.014,0.006l-0.015,0.127c0,0.112,0.066,0.18,0.187,0.18l0.125-0.026l0.011,0.009
		c-0.052,0.062-0.057,0.179-0.034,0.208h0.013c0.028-0.12,0.139-0.23,0.288-0.23c0.181,0,0.181,0.154,0.181,0.192
		c0,0.225-0.393,0.387-0.393,0.695c0,0.312,0.33,0.378,0.52,0.33c-0.011,0.312-0.368,0.418-0.38,0.194l-0.014,0.001
		c-0.045,0.111-0.027,0.207,0.112,0.239l-0.003,0.014c-0.138,0.087-0.064,0.431-0.056,0.532c0.011,0.146-0.135,0.128-0.146,0.124
		L14,14.259c0.102,0.125,0.23,0.012,0.23,0.012c0.095,0.028,0.037,0.111-0.027,0.155l0.001,0.014
		c0.014,0.001,0.162,0.013,0.188-0.106c0.066,0.079,0.163,0.05,0.183,0.041c0.028-0.014,0.168-0.067,0.183,0.091l0.012-0.002
		c0.105-0.131-0.007-0.213-0.07-0.225c0.004-0.007,0.088-0.076,0.165,0.021l0.011-0.004c0.008-0.167-0.128-0.184-0.216-0.111
		c-0.004-0.018-0.034-0.111,0.1-0.107l0.002-0.01c-0.104-0.111-0.189-0.012-0.208,0.011c-0.046,0.056-0.162,0.032-0.171,0.031
		c0.036-0.583,0.548-0.376,0.62-0.659l0.011-0.004c0.021,0.068,0.194,0.079,0.226-0.059l-0.005-0.006
		c-0.148,0.147-0.484-0.316-0.026-0.694c0.389-0.321,0.741-0.142,0.872-0.036c0.006,0.047-0.021,0.062-0.038,0.066l0.001,0.013
		c0.038,0.015,0.091,0.01,0.115-0.025c0.083,0.059,0.011,0.132-0.022,0.152l0.001,0.012c0.078,0.014,0.14-0.064,0.143-0.11
		l0.014,0.008v0.33c0,0.472,0.543,0.538,1.14,0.938c0.596-0.4,1.14-0.466,1.14-0.938v-0.33l0.016-0.008
		c0.002,0.046,0.065,0.125,0.143,0.11l0.002-0.012c-0.034-0.02-0.105-0.094-0.021-0.152c0.024,0.035,0.077,0.038,0.113,0.025
		l0.001-0.013c-0.017-0.004-0.045-0.019-0.037-0.066c0.134-0.105,0.482-0.285,0.871,0.036c0.458,0.378,0.122,0.841-0.025,0.694
		l-0.007,0.006c0.032,0.138,0.207,0.127,0.225,0.059l0.013,0.004c0.07,0.283,0.584,0.077,0.619,0.659
		c-0.01,0.001-0.123,0.024-0.171-0.031c-0.019-0.023-0.104-0.124-0.208-0.011l0.003,0.01c0.134-0.004,0.104,0.089,0.101,0.107
		c-0.088-0.073-0.225-0.056-0.218,0.111l0.013,0.004c0.075-0.096,0.158-0.027,0.164-0.021c-0.062,0.011-0.176,0.093-0.069,0.225
		l0.01,0.002c0.018-0.156,0.155-0.105,0.185-0.091c0.021,0.01,0.116,0.038,0.182-0.041c0.025,0.119,0.174,0.107,0.191,0.106v-0.014
		c-0.062-0.043-0.124-0.126-0.026-0.155c0,0,0.126,0.116,0.229-0.012l-0.002-0.012c-0.013,0.005-0.158,0.022-0.146-0.124
		c0.005-0.101,0.081-0.446-0.057-0.532l-0.004-0.014c0.137-0.03,0.155-0.127,0.111-0.239l-0.015-0.001
		c-0.01,0.224-0.368,0.118-0.379-0.194c0.19,0.05,0.518-0.017,0.518-0.33c0-0.308-0.39-0.47-0.39-0.695
		c0-0.038-0.002-0.192,0.179-0.192c0.15,0,0.261,0.111,0.292,0.23h0.013c0.021-0.028,0.015-0.146-0.037-0.208l0.012-0.009
		l0.125,0.026c0.121,0,0.188-0.067,0.188-0.18l-0.014-0.127l-0.016-0.006c-0.018,0.036-0.047,0.125-0.174,0.125l-0.3,0.001
		c-0.334,0-0.366,0.271-0.366,0.337l0.349,0.673c0,0.065-0.033,0.174-0.214,0.174c-0.074,0-0.151-0.021-0.197-0.042
		c0,0-0.081-0.488-0.318-0.656c0,0-0.276,0.134-0.55-0.014c-0.209-0.113-0.31-0.189-0.492-0.062l-0.364,0.259l-0.044-0.008v-1.097
		c0.085-0.009,0.093,0.067,0.088,0.088c-0.006,0.026-0.033,0.044,0.024,0.131l0.012-0.002l0.043-0.059
		c0.03,0,0.16,0.097,0.271,0.208c0,0,0.065-0.193,0.219-0.252c-0.089-0.012-0.463-0.104-0.463-0.268
		c0-0.056-0.062-0.068-0.102-0.064c-0.001-0.006-0.064-0.151-0.18-0.077l0.002,0.014c0.051,0.014,0.074,0.067,0.075,0.124
		c-0.109-0.035-0.578-0.165-1.129-0.165c-0.27,0-0.517,0.031-0.714,0.067v0.379h-0.161V11.119 M15.542,15.014
		c-0.041-0.016-0.067-0.042-0.067-0.095v-0.237c-0.067-0.024-0.251-0.095-0.621-0.095c-0.307,0-0.403,0.07-0.407,0.093l-0.082,0.45
		c0,0,0.125-0.114,0.569-0.084c0.537,0.034,1.092,0.35,1.092,0.014v-0.199C15.605,14.861,15.542,14.995,15.542,15.014z
		 M18.842,14.861v0.199c0,0.336,0.556,0.02,1.09-0.014c0.445-0.03,0.57,0.084,0.57,0.084l-0.084-0.45
		c-0.004-0.024-0.099-0.093-0.406-0.093c-0.367,0-0.555,0.071-0.622,0.095v0.237c0,0.053-0.026,0.079-0.066,0.095
		C19.323,14.995,19.26,14.861,18.842,14.861z M17.433,14.658c0.862,0,1.738,0.044,1.851,0.175l0.016-0.009v-0.455
		c0-0.134-0.902-0.212-1.866-0.212c-0.963,0-1.867,0.078-1.867,0.212v0.455l0.014,0.009C15.694,14.702,16.57,14.658,17.433,14.658z
		 M16.664,12.502l-0.088-0.023l-0.008,0.011l-0.102-0.045h0.092l0.003-0.01l-0.078-0.075l0.102,0.039l0.004-0.008l-0.066-0.097
		l0.098,0.066l0.008-0.005l-0.048-0.116l0.091,0.085l0.007-0.004l-0.025-0.115l0.066,0.095h0.01l0.001-0.106l0.042,0.094h0.011
		l0.033-0.081l0.002,0.107l-0.014,0.004l-0.017,0.131c0.129-0.03,0.292-0.252,0.416-0.252c0.149,0,0.203,0.174,0.476,0.084
		c0.069,0.104,0.093,0.192,0.12,0.315c0.107,0.1,0.254,0.065,0.254-0.04l-0.156-0.315c0-0.067,0.048-0.162,0.175-0.162l0.22,0.028
		c0.068,0,0.082-0.048,0.091-0.069l0.021,0.002l0.008,0.064c0,0.094-0.137,0.106-0.153,0.095l-0.007,0.006
		c0.022,0.016,0.017,0.072-0.009,0.107h-0.009c-0.015-0.068-0.093-0.151-0.161-0.151c-0.025,0-0.076,0.015-0.076,0.074
		c0,0.083,0.168,0.162,0.168,0.336c0,0.182-0.179,0.225-0.36,0.18c0.007,0.17,0.265,0.273,0.271,0.149h0.007
		c0.037,0.053,0.021,0.093-0.029,0.113c0.046,0.021,0.055,0.111,0.066,0.164c0.02,0.081,0.105,0.034,0.108,0.033l0.007,0.006
		c-0.034,0.082-0.119,0.052-0.119,0.052c-0.045,0.03,0.01,0.059,0.05,0.073l0.001,0.008c-0.029,0.01-0.094,0.03-0.125-0.023
		c-0.023,0.056-0.071,0.054-0.09,0.054c-0.036,0-0.056,0.034-0.049,0.079l-0.005,0.004c-0.079-0.053-0.031-0.113-0.001-0.129
		c-0.004-0.004-0.06-0.026-0.082,0.038h-0.006c-0.035-0.093,0.039-0.118,0.093-0.095c-0.003-0.014-0.031-0.059-0.102-0.042
		L17.8,13.229c0.011-0.028,0.045-0.07,0.111-0.026c0.034,0.02,0.09-0.01,0.094-0.013c-0.115-0.229-0.338-0.037-0.388-0.217
		l-0.008,0.004c-0.011,0.039-0.108,0.04-0.125-0.034l0.003-0.002c0.014,0.013,0.043,0.026,0.086-0.032
		c0.026-0.039,0.03-0.089,0.03-0.124c0-0.14-0.138-0.372-0.355-0.372c-0.137,0-0.285,0.052-0.394,0.131l0.103,0.024
		c-0.01,0.102-0.108,0.162-0.199,0.137l0.016-0.118l-0.077,0.05h-0.006c-0.018-0.068,0.038-0.102,0.055-0.109l-0.003-0.003
		c-0.048-0.002-0.077,0.035-0.085,0.046h-0.003L16.664,12.502z M16.965,13.296c-0.04,0.046-0.073,0.002-0.125,0.002
		c-0.049,0-0.057,0.04-0.058,0.057h-0.004c-0.053-0.075,0.007-0.115,0.042-0.119c-0.004-0.006-0.058-0.042-0.091,0.006l-0.007-0.001
		c-0.001-0.092,0.073-0.098,0.12-0.058c0.009-0.034-0.012-0.059-0.051-0.06l-0.005-0.006l0.048-0.025l0.092,0.064
		c0.049,0,0.121-0.068,0.129-0.075c-0.002-0.004-0.05-0.135-0.04-0.212l-0.003-0.002c-0.024,0.013-0.086,0.013-0.086-0.063
		l0.006-0.002c0.026,0.038,0.072-0.004,0.091-0.029c0.024-0.026,0.151-0.211,0.32-0.211c0.037,0.002,0.085,0.022,0.123,0.049
		c-0.059,0.071,0,0.138,0.043,0.131v0.004c-0.223,0.085-0.324,0.117-0.324,0.306c0,0.097,0.034,0.151,0.091,0.137l0.002,0.004
		l-0.063,0.034l-0.08-0.026c-0.026,0-0.109,0.049-0.109,0.089l0.039,0.056v0.003C17.046,13.353,16.979,13.357,16.965,13.296z
		 M17.552,11.478c-0.069-0.004-0.114,0.01-0.113,0.034C17.475,11.547,17.519,11.544,17.552,11.478z M17.295,11.65l0.109-0.004v0.016
		l-0.174,0.061c-0.042,0-0.09-0.044-0.073-0.107h0.012C17.176,11.642,17.215,11.672,17.295,11.65z M15.961,13.929
		c0.067,0.088,0.132,0.005,0.222,0.005c0.042,0,0.096,0.015,0.107,0.103h0.007c0.099-0.132-0.013-0.208-0.076-0.219
		c0.013-0.011,0.108-0.069,0.167,0.016l0.012-0.003c0-0.169-0.127-0.18-0.219-0.107c-0.017-0.066,0.033-0.11,0.096-0.11l0.007-0.008
		c-0.113-0.122-0.198,0.03-0.216,0.054c-0.046,0.061-0.206-0.052-0.27-0.119c0,0,0.142-0.148,0.142-0.285v-0.024l0.007-0.004
		l0.051,0.013c0.032,0,0.095-0.009,0.095-0.126l-0.008-0.002l-0.05,0.03c-0.115,0-0.356-0.384-0.639-0.384
		c-0.074,0-0.213,0.054-0.284,0.129c0.034,0.021,0.042,0.063,0.036,0.093c-0.004,0.047-0.043,0.073-0.082,0.083v0.01
		c0.143,0.054,0.403,0.154,0.462,0.205c0.07,0.06,0.056,0.174,0.016,0.332c-0.039,0.149-0.124,0.13-0.154,0.125l-0.003,0.006
		c0.037,0.044,0.083,0.061,0.12,0.061l0.141-0.046c0.064,0,0.199,0.093,0.199,0.164c0,0.041-0.03,0.077-0.07,0.102l0.001,0.005
		C15.809,14.033,15.936,14.042,15.961,13.929z M19.085,14.026l0.002-0.004c-0.037-0.026-0.069-0.062-0.069-0.102
		c0-0.07,0.136-0.163,0.2-0.163l0.141,0.044c0.04,0,0.084-0.014,0.12-0.061l-0.004-0.006c-0.03,0.006-0.114,0.026-0.151-0.125
		c-0.041-0.157-0.054-0.271,0.015-0.332c0.06-0.051,0.318-0.15,0.462-0.204v-0.011c-0.039-0.01-0.077-0.035-0.083-0.083
		c-0.004-0.03,0.002-0.071,0.039-0.091c-0.073-0.077-0.213-0.13-0.286-0.13c-0.282,0-0.523,0.383-0.639,0.383l-0.05-0.028
		l-0.008,0.002c0,0.115,0.062,0.125,0.095,0.125l0.052-0.014l0.008,0.004l-0.003,0.025c0,0.137,0.143,0.284,0.143,0.284
		c-0.065,0.067-0.225,0.18-0.271,0.121c-0.02-0.025-0.104-0.177-0.217-0.055l0.007,0.008c0.062,0,0.113,0.044,0.095,0.11
		c-0.091-0.074-0.217-0.062-0.217,0.107l0.011,0.002c0.059-0.085,0.155-0.027,0.167-0.014c-0.062,0.01-0.173,0.085-0.075,0.217
		h0.007c0.012-0.087,0.064-0.102,0.107-0.102c0.089,0,0.154,0.082,0.224-0.006C18.929,14.042,19.058,14.033,19.085,14.026z
		 M16.796,11.817l-0.049-0.006l-0.002,0.002c0.007,0.017,0.035,0.063,0.077,0.063l0.056-0.024l0.25,0.077
		c-0.033,0.042-0.052,0.093-0.057,0.149l-0.333-0.184l-0.083,0.113c-0.011,0.019-0.079-0.03-0.065-0.048l0.063-0.087l-0.083-0.004
		l-0.002-0.004c0.007-0.016,0.039-0.069,0.117-0.045c0.003-0.047-0.07-0.031-0.089-0.026l0-0.003c0.02-0.022,0.078-0.067,0.142-0.03
		l0.029-0.037l-0.058-0.061l0.038-0.05l0.039,0.054l0.308-0.42l0.091-0.033l-0.002,0.095l-0.303,0.425l0.065,0.022l-0.035,0.049
		l-0.075-0.035L16.796,11.817z M17.873,11.749c0,0.039,0.024,0.095,0.074,0.077l0.006,0.004c-0.008,0.042-0.083,0.081-0.121,0.03
		c-0.03,0.066-0.023,0.127,0.043,0.164l0.001,0.009c-0.04,0.03-0.102,0.023-0.132-0.032c-0.055,0.041-0.046,0.129-0.013,0.159
		c0,0-0.153,0.091-0.291,0.026c-0.091-0.042-0.167-0.099-0.285-0.09c0.017-0.167,0.1-0.209,0.252-0.233
		c0.122-0.018,0.136-0.075,0.12-0.117c-0.042-0.012-0.117,0.026-0.117,0.026l0.006-0.047l-0.012-0.04l0.1-0.019
		c0.016-0.089-0.074-0.097-0.144-0.05l-0.026-0.066l-0.016-0.025c0-0.022,0.1-0.079,0.126-0.085c0.007-0.03,0.044-0.071,0.151-0.061
		c0.013-0.028-0.008-0.133-0.021-0.16l0.011-0.007l0.1,0.113l0.126-0.06l0.021,0.138l0.152,0.018v0.012
		c-0.03,0.006-0.128,0.048-0.145,0.074C17.899,11.591,17.873,11.715,17.873,11.749z"/>
	<rect y="22.169" fill="#D8F1FD" width="35" height="12.807"/>
	<path d="M30.899,32.447h0.326v-1.644c0-0.517-0.292-0.814-0.85-0.814c-0.261,0-0.444,0.05-0.668,0.174v-0.158l-0.318,0.028v2.414
		h0.328v-2.021c0.219-0.094,0.384-0.129,0.613-0.129c0.361,0,0.568,0.22,0.568,0.533V32.447L30.899,32.447z M27.291,30.93
		c0.052-0.422,0.319-0.667,0.63-0.667c0.361,0,0.562,0.207,0.562,0.667H27.291z M26.938,31.236c0,0.868,0.439,1.241,1.092,1.241
		c0.315,0,0.528-0.05,0.781-0.166l0.005-0.307c-0.248,0.113-0.478,0.163-0.751,0.163c-0.459,0-0.797-0.292-0.789-0.956h1.565
		l0.006-0.267c0-0.637-0.333-0.971-0.913-0.971C27.392,29.975,26.938,30.407,26.938,31.236 M25.444,32.447h0.414l0.826-2.428h-0.339
		l-0.666,2.076h-0.021l-0.697-2.076h-0.379L25.444,32.447z M23.793,29.198c0,0.144,0.084,0.218,0.218,0.218
		c0.135,0,0.221-0.074,0.221-0.218c0-0.146-0.086-0.219-0.221-0.219C23.877,28.979,23.793,29.053,23.793,29.198 M24.175,30.005
		l-0.326,0.028v2.583c0,0.288-0.127,0.432-0.396,0.513l0.051,0.293c0.388-0.073,0.671-0.314,0.671-0.802V30.005z M22.737,29.198
		c0,0.144,0.084,0.218,0.218,0.218c0.136,0,0.221-0.074,0.221-0.218c0-0.146-0.085-0.219-0.221-0.219
		C22.821,28.979,22.737,29.053,22.737,29.198 M23.119,30.005l-0.328,0.028v2.414h0.328V30.005z M22.377,30.023
		c-0.105-0.024-0.173-0.034-0.278-0.034c-0.176,0-0.333,0.084-0.522,0.298v-0.282l-0.323,0.028v2.414h0.327v-1.862
		c0.186-0.188,0.313-0.269,0.474-0.269c0.101,0,0.17,0.012,0.278,0.041L22.377,30.023z M19.728,30.287
		c0.165,0,0.314,0.015,0.469,0.045v1.678c-0.164,0.104-0.329,0.158-0.552,0.158c-0.439,0-0.742-0.304-0.742-0.905
		C18.902,30.64,19.224,30.287,19.728,30.287 M20.524,28.97L20.196,29v1.05c-0.109-0.041-0.255-0.061-0.433-0.061
		c-0.703,0-1.21,0.463-1.21,1.31c0,0.771,0.447,1.179,1.023,1.179c0.235,0,0.46-0.069,0.629-0.189v0.159h0.318V28.97L20.524,28.97z
		 M16.611,30.93c0.051-0.422,0.319-0.667,0.628-0.667c0.364,0,0.562,0.207,0.562,0.667H16.611z M16.257,31.236
		c0,0.868,0.438,1.241,1.091,1.241c0.313,0,0.527-0.05,0.781-0.166l0.007-0.307c-0.249,0.113-0.479,0.163-0.751,0.163
		c-0.459,0-0.797-0.292-0.788-0.956h1.564l0.006-0.267c0-0.637-0.335-0.971-0.913-0.971C16.71,29.975,16.257,30.407,16.257,31.236
		 M15.491,31.197c0,0.673-0.378,0.981-0.856,0.981c-0.15,0-0.279-0.006-0.439-0.03v-1.723c0.184-0.088,0.359-0.129,0.548-0.129
		C15.203,30.297,15.491,30.561,15.491,31.197 M15.839,31.164c0-0.791-0.407-1.175-0.998-1.175c-0.232,0-0.422,0.044-0.646,0.159
		V28.97L13.867,29v3.422c0.264,0.045,0.473,0.056,0.712,0.056C15.317,32.478,15.839,31.999,15.839,31.164 M12.636,30.023
		c-0.104-0.024-0.173-0.034-0.278-0.034c-0.175,0-0.333,0.084-0.523,0.298v-0.282l-0.323,0.028v2.414h0.328v-1.862
		c0.184-0.188,0.313-0.269,0.472-0.269c0.1,0,0.169,0.012,0.279,0.041L12.636,30.023z M10.591,31.223
		c0,0.604-0.295,0.971-0.729,0.971c-0.473,0-0.735-0.323-0.735-0.95c0-0.604,0.289-0.972,0.727-0.972
		C10.327,30.271,10.591,30.596,10.591,31.223 M10.939,31.208c0-0.816-0.408-1.233-1.051-1.233c-0.592,0-1.11,0.478-1.11,1.288
		c0,0.812,0.41,1.228,1.046,1.228C10.421,32.49,10.939,32.02,10.939,31.208 M8.011,31.223c0,0.604-0.293,0.971-0.728,0.971
		c-0.475,0-0.738-0.323-0.738-0.95c0-0.604,0.29-0.972,0.727-0.972C7.748,30.271,8.011,30.596,8.011,31.223 M8.359,31.208
		c0-0.816-0.407-1.233-1.049-1.233c-0.593,0-1.11,0.478-1.11,1.288c0,0.812,0.408,1.228,1.046,1.228
		C7.842,32.49,8.359,32.02,8.359,31.208 M4.705,32.447h0.414l0.826-2.428H5.606l-0.667,2.076h-0.02L4.221,30.02H3.843L4.705,32.447z
		"/>
	<path fill="#FF190A" d="M23.384,25.683c0.128,0,0.234,0.011,0.354,0.032v1.401c-0.165,0.088-0.276,0.116-0.454,0.116
		c-0.362,0-0.619-0.221-0.619-0.742C22.664,25.982,22.948,25.683,23.384,25.683 M24.298,24.217l-0.561,0.03v0.995
		c-0.11-0.031-0.229-0.04-0.358-0.04c-0.752,0-1.289,0.486-1.289,1.317c0,0.796,0.412,1.205,1.024,1.205
		c0.244,0,0.463-0.075,0.638-0.199v0.169h0.546V24.217z M21.944,25.236c-0.092-0.025-0.175-0.034-0.282-0.034
		c-0.195,0-0.352,0.084-0.521,0.303v-0.282l-0.556,0.023v2.448h0.563v-1.772c0.169-0.128,0.323-0.179,0.476-0.179
		c0.106,0,0.176,0.012,0.279,0.035L21.944,25.236z M19.513,26.435c0,0.522-0.269,0.807-0.612,0.807
		c-0.372,0-0.613-0.242-0.613-0.752c0-0.522,0.27-0.807,0.613-0.807C19.27,25.683,19.513,25.933,19.513,26.435 M20.092,26.421
		c0-0.817-0.479-1.233-1.155-1.233c-0.657,0-1.224,0.512-1.224,1.322c0,0.812,0.476,1.229,1.153,1.229
		C19.522,27.739,20.092,27.232,20.092,26.421 M16.784,26.435c0,0.522-0.268,0.807-0.613,0.807c-0.373,0-0.612-0.242-0.612-0.752
		c0-0.522,0.27-0.807,0.612-0.807C16.541,25.683,16.784,25.933,16.784,26.435 M17.362,26.421c0-0.817-0.477-1.233-1.154-1.233
		c-0.658,0-1.225,0.512-1.225,1.322c0,0.812,0.477,1.229,1.154,1.229C16.795,27.739,17.362,27.232,17.362,26.421 M14.807,25.231
		H14.22l-0.428,1.984h-0.026l-0.557-1.984h-0.568l0.125,0.458l-0.488,1.526h-0.025l-0.419-1.984h-0.647l0.657,2.462h0.754
		l0.393-1.357h0.015l0.362,1.357h0.779L14.807,25.231z M9.5,25.664h0.299v1.238c0,0.562,0.308,0.821,0.767,0.821
		c0.188,0,0.313-0.015,0.482-0.061v-0.466c-0.129,0.03-0.198,0.04-0.318,0.04c-0.218,0-0.368-0.125-0.368-0.41v-1.166h0.622v-0.432
		h-0.622v-0.496l-0.563,0.048v0.448H9.5V25.664z M8.554,27.693h0.561v-1.62c0-0.563-0.316-0.871-0.855-0.871
		c-0.249,0-0.439,0.063-0.653,0.198v-0.179l-0.546,0.024v2.447h0.561v-1.875c0.169-0.069,0.299-0.095,0.479-0.095
		c0.293,0,0.453,0.139,0.453,0.463L8.554,27.693L8.554,27.693z M5.685,26.47H4.819l0.423-1.512h0.035L5.685,26.47z M5.745,24.431
		h-0.9l-0.972,3.263H4.49l0.208-0.747h1.115l0.209,0.747h0.682L5.745,24.431z"/>
	<g>
		<path fill="#009FE5" d="M34.563,0.437v34.127L0.462,34.519V0.437H34.563 M35,0H0.026v34.954L35,35V0L35,0z"/>
	</g>
</g>
</svg>
