<?xml version="1.0" encoding="utf-8"?>
<!-- Generator: Adobe Illustrator 17.0.0, SVG Export Plug-In . SVG Version: 6.00 Build 0)  -->
<!DOCTYPE svg PUBLIC "-//W3C//DTD SVG 1.1//EN" "http://www.w3.org/Graphics/SVG/1.1/DTD/svg11.dtd">
<svg version="1.1" id="Laag_1" xmlns="http://www.w3.org/2000/svg" xmlns:xlink="http://www.w3.org/1999/xlink" x="0px" y="0px"
	 width="22.649px" height="34.909px" viewBox="0 0 22.649 34.909" enable-background="new 0 0 22.649 34.909" xml:space="preserve">
<g>

	<path fill-rule="evenodd" clip-rule="evenodd" fill="#00A1CD" d="M22.159,34.909l0.489-0.481v-9.41l-0.489-0.489H4.25v-1.88h17.91
		l0.489-0.489v-3.272l-0.489-0.489H0.489L0,18.888v9.41l0.489,0.481h17.91v1.88H0.489L0,31.089v3.339l0.489,0.481H22.159
		L22.159,34.909z M1.215,19.554v8.011h17.91l0.489,0.489v3.339l-0.489,0.422H1.215v1.88h20.22v-8.011H3.525l-0.43-0.422v-3.339
		l0.43-0.489h17.911v-1.88H1.215L1.215,19.554z M12.749,16.518l-0.48-0.489V0.489L12.749,0h3.28l0.489,0.489v5.65h5.641l0.489,0.481
		v9.41l-0.489,0.489H12.749L12.749,16.518z M13.483,1.155v14.149h7.952V7.285h-5.651l-0.48-0.422V1.155H13.483L13.483,1.155z
		 M15.304,9.655l0.48-0.481h3.34l0.489,0.481v3.339l-0.489,0.43h-3.34l-0.48-0.43V9.655L15.304,9.655z M16.519,10.388h1.88v1.88
		h-1.88V10.388L16.519,10.388z M0,6.619v9.41l0.489,0.489h9.41l0.48-0.489v-3.28l-0.48-0.481H4.25v-1.88h5.65l0.48-0.489v-3.28
		l-0.48-0.481h-9.41L0,6.619L0,6.619z M1.215,7.285v8.019h7.95v-1.88H3.525l-0.43-0.489v-3.28l0.43-0.481h5.641V7.285H1.215
		L1.215,7.285z"/>
</g>
</svg>
