<?xml version="1.0" encoding="utf-8"?>
<!-- Generator: Adobe Illustrator 16.0.3, SVG Export Plug-In . SVG Version: 6.00 Build 0)  -->
<!DOCTYPE svg PUBLIC "-//W3C//DTD SVG 1.1//EN" "http://www.w3.org/Graphics/SVG/1.1/DTD/svg11.dtd">
<svg version="1.1" id="Layer_1" xmlns="http://www.w3.org/2000/svg" xmlns:xlink="http://www.w3.org/1999/xlink" x="0px" y="0px"
	 width="100px" height="35px" viewBox="0 0 100 35" enable-background="new 0 0 100 35" xml:space="preserve">
<g>
	<g>
		<path d="M62.226,6.768h1.2c1.322,0,2.215-1.02,2.215-2.503c0-1.466-0.785-2.307-2.164-2.307h-1.251V6.768 M62.226,7.482v4.612
			l1.521,0.627v0.445h-4.722v-0.445l1.522-0.627V2.316l-1.522-0.625V1.243h4.847c1.43,0,1.967,0.144,2.627,0.662
			c0.661,0.518,1.019,1.288,1.019,2.2c0,1.608-1.071,2.771-2.841,3.056l3.592,4.917l1.379,0.644v0.445h-2.863l-3.913-5.684H62.226z"
			/>
		<path d="M73.147,12.362h1.72c1.538,0,2.359-0.303,3.235-1.215c0.965-1.019,1.394-2.27,1.394-4.022
			c0-1.501-0.321-2.645-1.002-3.557c-0.805-1.091-1.787-1.52-3.414-1.52h-1.933V12.362 M69.95,13.167v-0.445l1.519-0.627V2.316
			L69.95,1.691V1.243h5.345c2.307,0,3.503,0.429,4.575,1.627c0.95,1.073,1.396,2.395,1.396,4.076c0,2.162-0.785,3.968-2.217,5.077
			c-1.036,0.804-2.252,1.144-4.022,1.144H69.95z"/>
		<path d="M89.918,4.033l-3.288,9.313h-0.735l-3.611-11.03l-1.375-0.625V1.243h4.522v0.448l-1.359,0.625l2.074,6.722
			c0.089,0.25,0.145,0.481,0.214,0.696c0.092,0.375,0.144,0.572,0.144,0.626c0.037,0.071,0.072,0.196,0.127,0.339l3.288-9.457h0.805
			l2.538,7.849c0.287,0.821,0.356,1.125,0.465,1.715l2.825-8.492l-1.377-0.625V1.243h3.987v0.448l-1.396,0.625l-4.04,11.03h-0.732
			L89.918,4.033"/>
		<path fill="#000000" d="M47.268,12.815L48.3,13.25c-1.733,0.708-3.284,1.48-4.662,2.29l-1.423-0.238
			C43.483,14.541,45.35,13.616,47.268,12.815 M50.777,13.405l-9.202-4.646L41.574,8.76c-0.673,0.089-1.438,0.207-2.06,0.316
			l6.262,2.774c-0.176,0.078-0.249,0.104-0.4,0.17L38.71,9.225c-1.274,0.239-2.556,0.534-3.638,0.828l5.985,1.977
			c-0.277,0.131-0.353,0.167-0.64,0.303l-6.472-1.981c-1.924,0.548-3.896,1.208-6.512,2.302h0.002l12.184,2.175
			c-0.343,0.187-0.55,0.306-0.895,0.498l-12.967-1.943c-3.09,1.347-6.674,3.412-9.528,5.317h0.001l12.761,0.002l0.002-0.002
			c-0.581,0.38-1.076,0.693-1.772,1.193l0.013-0.013l-13.351,0.459h0.002c-2.452,1.769-4.954,3.891-6.408,5.2
			C6.066,26.813,1.905,31.126,0,35l15.57-4.14l0.001,0.002c-0.699,1.056-1.268,2.153-1.605,3.133l16.909-5.477
			c-0.178-4.031,3.652-7.63,6.254-9.815l2.146-0.001c-3.329,2.879-4.868,6.11-4.433,8.545l5.293-1.714
			C38.837,22.193,42.32,16.25,50.777,13.405"/>
	</g>
</g>
</svg>
