<?xml version="1.0" encoding="utf-8"?>
<!-- Generator: Adobe Illustrator 16.0.0, SVG Export Plug-In . SVG Version: 6.00 Build 0)  -->
<!DOCTYPE svg PUBLIC "-//W3C//DTD SVG 1.1//EN" "http://www.w3.org/Graphics/SVG/1.1/DTD/svg11.dtd">
<svg version="1.1" id="Layer_1" xmlns="http://www.w3.org/2000/svg" xmlns:xlink="http://www.w3.org/1999/xlink" x="0px" y="0px"
	 width="100px" height="35px" viewBox="0 0 100 35" enable-background="new 0 0 100 35" xml:space="preserve">
<g>
	<g>
		<path fill="#033054" d="M58.943,9.714h0.891c0.979,0,1.642-0.755,1.642-1.853c0-1.086-0.58-1.709-1.604-1.709h-0.928V9.714
			 M58.943,10.242v3.417l1.126,0.465v0.33h-3.494v-0.33l1.124-0.465V6.417l-1.124-0.463V5.622h3.589
			c1.059,0,1.458,0.105,1.947,0.491c0.49,0.381,0.754,0.954,0.754,1.626c0,1.193-0.797,2.053-2.105,2.265l2.66,3.643l1.021,0.476
			v0.33h-2.119l-2.896-4.211H58.943L58.943,10.242z"/>
		<path fill="#033054" d="M67.031,13.855h1.276c1.135,0,1.744-0.222,2.396-0.899c0.716-0.754,1.033-1.68,1.033-2.979
			c0-1.112-0.241-1.958-0.743-2.634c-0.599-0.809-1.325-1.126-2.528-1.126h-1.434V13.855 M64.665,14.453v-0.33l1.125-0.464V6.417
			l-1.125-0.463V5.622h3.959c1.708,0,2.596,0.317,3.387,1.204c0.702,0.795,1.036,1.775,1.036,3.02c0,1.602-0.58,2.938-1.644,3.76
			c-0.766,0.595-1.669,0.848-2.979,0.848H64.665z"/>
		<path fill="#033054" d="M79.451,7.689l-2.435,6.897h-0.544L73.8,6.417l-1.016-0.463V5.622h3.347v0.332l-1.005,0.463l1.535,4.978
			c0.063,0.186,0.104,0.356,0.154,0.516c0.072,0.276,0.109,0.422,0.109,0.463c0.028,0.053,0.056,0.145,0.093,0.25l2.434-7.002h0.6
			l1.879,5.813c0.21,0.607,0.263,0.834,0.345,1.271l2.09-6.29l-1.018-0.463v-0.33h2.952v0.332l-1.037,0.463l-2.987,8.169H81.73
			L79.451,7.689"/>
		<path fill="#033054" d="M47.867,14.192l0.767,0.322c-1.284,0.525-2.433,1.097-3.453,1.697l-1.054-0.178
			C45.065,15.469,46.449,14.784,47.867,14.192 M50.468,14.628l-6.815-3.441l-0.001,0.001c-0.499,0.066-1.066,0.152-1.525,0.235
			l4.637,2.053c-0.131,0.059-0.185,0.077-0.297,0.125l-4.936-2.068c-0.943,0.175-1.892,0.393-2.695,0.612l4.433,1.465
			c-0.205,0.098-0.261,0.122-0.474,0.223l-4.792-1.468c-1.427,0.407-2.886,0.896-4.822,1.707h0l9.021,1.611
			c-0.253,0.136-0.405,0.225-0.66,0.368l-9.606-1.44c-2.286,1-4.942,2.527-7.056,3.937h0.001l9.452,0.001l0.002-0.001
			c-0.432,0.284-0.798,0.513-1.313,0.884l0.01-0.005l-9.887,0.339h0.001c-1.818,1.308-3.67,2.882-4.748,3.849
			c-1.043,0.939-4.127,4.137-5.536,7.006l11.529-3.064h0.001c-0.515,0.781-0.938,1.594-1.187,2.32l12.522-4.054
			c-0.131-2.987,2.703-5.653,4.63-7.273l1.589-0.001c-2.465,2.134-3.604,4.527-3.283,6.329l3.92-1.269
			C41.625,21.137,44.204,16.735,50.468,14.628"/>
	</g>
</g>
</svg>
