<?xml version="1.0" encoding="utf-8"?>
<!-- Generator: Adobe Illustrator 18.1.1, SVG Export Plug-In . SVG Version: 6.00 Build 0)  -->
<svg version="1.1" id="Logo_Min_SZW" xmlns="http://www.w3.org/2000/svg" xmlns:xlink="http://www.w3.org/1999/xlink" x="0px"
	 y="0px" width="87px" height="35px" viewBox="0 0 87 35" enable-background="new 0 0 87 35" xml:space="preserve">
<g>
	<rect fill="#005790" width="18" height="34.943"/>
	<path fill="#FFFFFF" d="M9.042,27.007H8.738v-0.843h0.304V27.007z M10.412,23.294h-0.304v-0.842h0.304V23.294z M4.785,21.841
		c-0.022,0-0.18,0.001-0.18,0.032l0.18,0.035c0.244,0.042,0.339,0.164,0.51,0.164c0.155,0,0.313-0.107,0.251-0.329L5.51,21.739
		c-0.023,0.101-0.146,0.156-0.276,0.156C5.072,21.896,5.039,21.841,4.785,21.841z M3.112,22.684
		c0.026,0.036,0.313,0.408-0.127,0.552l0.004,0.036c0.325,0.136,0.482-0.113,0.482-0.113c0.164,0.374-0.088,0.581-0.088,0.581
		c0.036,0.068,0.191,0.181,0.427,0.233c0.09-0.049,0.215-0.14,0.268-0.281c0,0,0.063,0.163,0.004,0.32
		c0.665,0.059,0.9-0.472,1.411-0.375l0.022-0.022c0-0.327-0.201-0.927-0.833-1.047C4.05,22.446,4.22,22.187,4.22,22.187
		c0.267-0.012,0.42,0.104,0.42,0.104c0.048-0.08-0.021-0.167-0.021-0.167c0.027-0.031,0.041-0.139,0.041-0.139
		c-0.3-0.001-0.379-0.064-0.379-0.064c-0.046-0.178,0.077-0.43,0.522-0.16c0.112-0.099,0.103-0.25,0.103-0.25
		c0.034-0.016,0.055-0.069,0.055-0.092c0-0.075-0.356-0.272-0.448-0.297c-0.022-0.108-0.16-0.264-0.579-0.207
		c-0.198,0.024-0.34-0.027-0.273-0.143l-0.042-0.004c-0.047,0.045-0.11,0.176,0.063,0.262c0.192,0.098,0.204,0.29,0.205,0.318
		c0.003,0.041-0.045,0.044-0.056,0.003c-0.088-0.324-0.533-0.395-0.795-0.221c0.015,0.172,0.203,0.288,0.305,0.288
		c0.059,0,0.14-0.059,0.14-0.141l0.031-0.004c0.044,0.117-0.126,0.355-0.381,0.21c-0.258,0.259-0.156,0.577-0.129,0.695
		c0.046,0.211-0.057,0.415-0.248,0.319l-0.019,0.017C2.735,22.647,2.908,22.797,3.112,22.684z M4.537,21.378
		c-0.121,0.135-0.317,0.104-0.365-0.118C4.42,21.246,4.528,21.271,4.537,21.378z M12.243,21.896c-0.13,0-0.252-0.057-0.276-0.156
		l-0.038,0.002c-0.06,0.225,0.097,0.331,0.252,0.331c0.17,0,0.266-0.125,0.509-0.165c0.108-0.018,0.18-0.002,0.18-0.034l-0.18-0.032
		C12.437,21.841,12.403,21.896,12.243,21.896z M14.742,22.513l-0.019-0.014c-0.191,0.096-0.295-0.108-0.248-0.319
		c0.026-0.118,0.128-0.437-0.13-0.695c-0.254,0.146-0.425-0.094-0.381-0.21l0.032,0.004c0,0.081,0.081,0.141,0.14,0.141
		c0.102,0,0.29-0.116,0.305-0.291c-0.263-0.172-0.707-0.101-0.795,0.223c-0.012,0.041-0.061,0.039-0.057-0.003
		c0.002-0.029,0.013-0.221,0.205-0.317c0.173-0.088,0.11-0.217,0.065-0.263l-0.043,0.004c0.066,0.116-0.076,0.168-0.274,0.144
		c-0.419-0.057-0.556,0.1-0.579,0.206c-0.092,0.024-0.448,0.223-0.448,0.298c0,0.023,0.021,0.074,0.055,0.091
		c0,0-0.008,0.15,0.103,0.25c0.445-0.27,0.569-0.017,0.523,0.161c0,0-0.079,0.063-0.379,0.063c0,0,0.014,0.108,0.039,0.14
		c0,0-0.068,0.086-0.019,0.165c0,0,0.154-0.115,0.42-0.103c0,0,0.169,0.259-0.462,0.38c-0.632,0.121-0.833,0.721-0.833,1.048
		l0.021,0.021c0.512-0.096,0.747,0.435,1.411,0.376c-0.058-0.157,0.006-0.32,0.006-0.32c0.052,0.141,0.178,0.231,0.267,0.279
		c0.236-0.053,0.391-0.163,0.426-0.231c0,0-0.25-0.208-0.087-0.581c0,0,0.157,0.249,0.483,0.113l0.002-0.039
		c-0.441-0.141-0.154-0.514-0.127-0.55C14.568,22.797,14.742,22.647,14.742,22.513z M13.304,21.26
		c-0.047,0.222-0.245,0.253-0.365,0.118C12.949,21.271,13.056,21.246,13.304,21.26z M8.621,17.53c0,0.057,0.024,0.106,0.044,0.134
		c0.039,0.054,0.033,0.086,0.015,0.104c-0.019,0.018-0.05,0.024-0.105-0.014c-0.027-0.021-0.076-0.043-0.132-0.043
		c-0.096,0-0.143,0.061-0.143,0.116c0,0.053,0.048,0.116,0.143,0.116c0.056,0,0.105-0.024,0.132-0.043
		c0.056-0.039,0.087-0.033,0.105-0.013c0.018,0.018-0.009,0.209-0.03,0.361c-0.159,0.034-0.235,0.161-0.235,0.233
		c0,0.191,0.205,0.303,0.324,0.366c0.119-0.064,0.323-0.175,0.323-0.366c0-0.074-0.076-0.2-0.234-0.233
		c-0.022-0.152-0.05-0.343-0.031-0.361c0.018-0.02,0.048-0.025,0.104,0.013c0.028,0.019,0.077,0.043,0.132,0.043
		c0.096,0,0.143-0.063,0.143-0.116c0-0.055-0.048-0.116-0.143-0.116c-0.056,0-0.104,0.023-0.132,0.043
		c-0.056,0.038-0.086,0.032-0.104,0.014c-0.019-0.018-0.025-0.05,0.014-0.104c0.019-0.027,0.043-0.077,0.043-0.134
		c0-0.096-0.063-0.143-0.116-0.143C8.684,17.387,8.621,17.434,8.621,17.53z M8.738,18.947c-0.129,0-0.233,0.104-0.233,0.232
		c0,0.128,0.104,0.232,0.233,0.232c0.128,0,0.232-0.104,0.232-0.232C8.97,19.051,8.866,18.947,8.738,18.947z M8.738,21.185
		c0.931,0,1.458,0.179,1.458,0.179c0.004-0.472,0.002-0.733,0.271-0.693c-0.147-0.397,0.489-0.552,0.489-1.067
		c0-0.339-0.241-0.377-0.312-0.377c-0.21,0-0.178,0.136-0.357,0.136l-0.045,0.012c0,0.06,0.051,0.161,0.133,0.161
		c0.11,0,0.112-0.111,0.193-0.111c0.036,0,0.087,0.028,0.087,0.141c0,0.221-0.144,0.464-0.314,0.652
		c-0.039-0.055-0.092-0.089-0.155-0.089c-0.101,0-0.188,0.104-0.188,0.233l0.025,0.123c-0.057,0.031-0.106,0.05-0.144,0.05
		c-0.077,0-0.192-0.03-0.192-0.197c0-0.375,0.501-0.703,0.501-1.176c0-0.226-0.151-0.451-0.467-0.451
		c-0.339,0-0.275,0.309-0.568,0.309l-0.024,0.018c0,0.017,0.051,0.189,0.202,0.189c0.163,0,0.208-0.28,0.352-0.28
		c0.053,0,0.134,0.031,0.134,0.22c0,0.147-0.074,0.389-0.179,0.616c-0.039-0.037-0.09-0.066-0.147-0.066
		c-0.126,0-0.216,0.121-0.216,0.267c0,0.091,0.037,0.18,0.098,0.238c-0.073,0.095-0.148,0.171-0.251,0.171
		c-0.203,0-0.292-0.114-0.292-0.238c0-0.136,0.247-0.184,0.247-0.396c0-0.144-0.093-0.224-0.183-0.224
		c-0.097,0-0.146,0.063-0.156,0.063c-0.009,0-0.06-0.063-0.156-0.063c-0.089,0-0.183,0.08-0.183,0.224
		c0,0.212,0.248,0.26,0.248,0.396c0,0.124-0.09,0.238-0.292,0.238c-0.103,0-0.179-0.076-0.251-0.171
		C8.164,20.161,8.2,20.072,8.2,19.981c0-0.146-0.091-0.267-0.215-0.267c-0.059,0-0.111,0.028-0.147,0.066
		c-0.105-0.228-0.179-0.466-0.179-0.616c0-0.189,0.081-0.22,0.134-0.22c0.143,0,0.188,0.28,0.351,0.28
		c0.152,0,0.202-0.172,0.202-0.189l-0.024-0.018c-0.293,0-0.23-0.309-0.568-0.309c-0.315,0-0.466,0.226-0.466,0.451
		c0,0.473,0.5,0.802,0.5,1.176c0,0.167-0.115,0.197-0.191,0.197c-0.038,0-0.089-0.019-0.145-0.05l0.025-0.123
		c0-0.129-0.087-0.233-0.188-0.233c-0.063,0-0.117,0.034-0.155,0.089c-0.169-0.188-0.313-0.432-0.313-0.652
		c0-0.112,0.052-0.141,0.086-0.141c0.082,0,0.084,0.111,0.194,0.111c0.083,0,0.133-0.102,0.133-0.161l-0.045-0.012
		c-0.18,0-0.146-0.136-0.357-0.136c-0.072,0-0.311,0.038-0.311,0.377c0,0.516,0.635,0.672,0.488,1.067
		c0.271-0.04,0.267,0.222,0.272,0.693C7.281,21.363,7.806,21.185,8.738,21.185z M7.03,21.88c-0.253,0.057-0.436,0.108-0.518,0.134
		c0.004-0.112,0.046-0.216,0.147-0.239l0.003-0.028c-0.226-0.15-0.347,0.137-0.35,0.148c-0.08-0.007-0.202,0.017-0.202,0.127
		c0,0.322-0.742,0.503-0.913,0.529c0.302,0.115,0.428,0.497,0.428,0.497c0.22-0.22,0.477-0.413,0.533-0.413
		c0.058,0,0.081,0.073,0.085,0.116l0.024,0.008c0.115-0.172,0.059-0.211,0.051-0.261c-0.008-0.04,0.004-0.191,0.171-0.173v2.161
		l-0.086,0.017c-0.04,0.007-0.355-0.261-0.717-0.511c-0.362-0.251-0.556-0.102-0.969,0.12c-0.54,0.293-1.085,0.029-1.085,0.029
		c-0.466,0.332-0.625,1.292-0.625,1.292c-0.092,0.041-0.246,0.083-0.392,0.083c-0.355,0-0.421-0.216-0.421-0.344
		c0-0.549,0.687-0.783,0.687-1.324c0-0.131-0.06-0.665-0.721-0.665h-0.59c-0.248,0-0.309-0.179-0.343-0.246L1.2,22.946l-0.028,0.252
		c0,0.219,0.128,0.351,0.369,0.351c0.109,0,0.212-0.03,0.245-0.051l0.024,0.021c-0.105,0.122-0.112,0.35-0.07,0.405l0.025-0.001
		c0.058-0.231,0.274-0.449,0.568-0.449c0.358,0,0.356,0.304,0.356,0.377c0,0.44-0.772,0.763-0.772,1.366
		c0,0.615,0.648,0.746,1.023,0.649c-0.022,0.613-0.726,0.822-0.747,0.384l-0.028,0.002c-0.09,0.217-0.053,0.407,0.22,0.468
		l-0.008,0.025c-0.271,0.173-0.124,0.849-0.11,1.049c0.02,0.287-0.266,0.253-0.29,0.245l-0.004,0.023
		c0.203,0.249,0.452,0.022,0.452,0.022c0.189,0.059,0.072,0.22-0.054,0.304l0.003,0.028c0.028,0.001,0.321,0.026,0.373-0.206
		c0.129,0.155,0.321,0.099,0.36,0.078c0.056-0.029,0.33-0.13,0.357,0.179l0.023-0.004c0.208-0.259-0.015-0.42-0.138-0.438
		c0.01-0.015,0.176-0.152,0.326,0.039l0.021-0.012c0.018-0.329-0.251-0.359-0.426-0.216c-0.008-0.034-0.066-0.22,0.197-0.213
		l0.005-0.023c-0.204-0.215-0.372-0.019-0.41,0.027c-0.092,0.108-0.317,0.066-0.338,0.063c0.071-1.147,1.083-0.74,1.222-1.299
		l0.022-0.008c0.039,0.137,0.381,0.154,0.444-0.113l-0.012-0.017C4.11,26.546,3.45,25.633,4.351,24.89
		c0.768-0.633,1.456-0.28,1.718-0.072c0.013,0.092-0.041,0.123-0.075,0.134l0.003,0.023c0.073,0.026,0.176,0.018,0.225-0.051
		c0.166,0.115,0.024,0.261-0.043,0.3l0.004,0.025c0.152,0.027,0.275-0.127,0.282-0.216l0.025,0.014v0.652
		c0,0.928,1.071,1.058,2.247,1.845c1.176-0.787,2.247-0.917,2.247-1.845v-0.652l0.026-0.014c0.006,0.089,0.13,0.244,0.282,0.216
		l0.004-0.025c-0.066-0.039-0.208-0.184-0.043-0.3c0.049,0.068,0.152,0.077,0.225,0.051l0.002-0.023
		c-0.034-0.011-0.089-0.042-0.075-0.134c0.262-0.208,0.95-0.561,1.717,0.072c0.9,0.743,0.24,1.655-0.051,1.364l-0.011,0.017
		c0.063,0.268,0.406,0.25,0.444,0.113l0.022,0.008c0.139,0.558,1.15,0.151,1.222,1.299c-0.021,0.003-0.247,0.045-0.338-0.063
		c-0.039-0.046-0.207-0.242-0.411-0.027l0.005,0.023c0.263-0.007,0.204,0.179,0.196,0.213c-0.173-0.143-0.441-0.113-0.426,0.216
		l0.022,0.012c0.149-0.192,0.314-0.054,0.325-0.039c-0.123,0.018-0.345,0.18-0.138,0.438l0.024,0.004
		c0.027-0.309,0.301-0.208,0.357-0.179c0.04,0.021,0.23,0.077,0.36-0.078c0.052,0.233,0.344,0.207,0.373,0.206l0.003-0.028
		c-0.126-0.084-0.243-0.245-0.053-0.304c0,0,0.249,0.227,0.452-0.022l-0.004-0.023c-0.024,0.009-0.31,0.043-0.289-0.245
		c0.014-0.2,0.161-0.876-0.111-1.049l-0.007-0.025c0.273-0.06,0.309-0.252,0.22-0.468l-0.028-0.002
		c-0.021,0.438-0.725,0.229-0.747-0.384c0.376,0.097,1.023-0.034,1.023-0.649c0-0.604-0.772-0.926-0.772-1.366
		c0-0.073-0.003-0.377,0.356-0.377c0.293,0,0.51,0.218,0.568,0.449l0.025,0.001c0.043-0.056,0.035-0.283-0.069-0.405l0.022-0.021
		c0.034,0.019,0.138,0.051,0.247,0.051c0.24,0,0.369-0.132,0.369-0.351l-0.028-0.252l-0.029-0.01
		c-0.036,0.067-0.097,0.246-0.344,0.246h-0.591c-0.659,0-0.72,0.534-0.72,0.665c0,0.541,0.686,0.774,0.686,1.324
		c0,0.128-0.064,0.344-0.42,0.344c-0.146,0-0.3-0.042-0.391-0.083c0,0-0.159-0.96-0.625-1.292c0,0-0.545,0.264-1.085-0.029
		c-0.413-0.222-0.607-0.372-0.969-0.12c-0.362,0.25-0.678,0.518-0.717,0.511l-0.086-0.017v-2.161
		c0.167-0.017,0.18,0.133,0.173,0.173c-0.01,0.05-0.065,0.089,0.05,0.261l0.023-0.008c0.004-0.043,0.026-0.116,0.085-0.116
		c0.056,0,0.313,0.193,0.533,0.413c0,0,0.127-0.38,0.428-0.497c-0.171-0.026-0.913-0.207-0.913-0.529
		c0-0.109-0.122-0.134-0.202-0.127c-0.004-0.011-0.125-0.298-0.351-0.148l0.003,0.028c0.101,0.023,0.143,0.127,0.147,0.239
		c-0.216-0.066-1.135-0.325-2.225-0.325c-0.529,0-1.017,0.062-1.405,0.132v0.749H7.029L7.03,21.88L7.03,21.88 M5.019,29.549
		c-0.081-0.031-0.134-0.084-0.134-0.189v-0.464c-0.133-0.047-0.497-0.187-1.224-0.187c-0.604,0-0.792,0.136-0.801,0.184
		l-0.161,0.886c0,0,0.245-0.223,1.121-0.166c1.055,0.066,2.147,0.689,2.147,0.025v-0.389C5.139,29.249,5.019,29.511,5.019,29.549z
		 M11.51,29.249v0.389c0,0.664,1.092,0.041,2.147-0.025c0.876-0.058,1.121,0.166,1.121,0.166l-0.161-0.886
		c-0.009-0.048-0.198-0.184-0.801-0.184c-0.726,0-1.092,0.14-1.225,0.187v0.464c0,0.105-0.053,0.158-0.133,0.189
		C12.458,29.511,12.337,29.249,11.51,29.249z M8.738,28.847c1.698,0,3.423,0.089,3.649,0.344l0.025-0.015v-0.9
		c0-0.264-1.779-0.416-3.675-0.416c-1.896,0-3.675,0.155-3.675,0.416v0.9l0.025,0.015C5.314,28.935,7.039,28.847,8.738,28.847z
		 M7.222,24.602l-0.171-0.044l-0.014,0.021L6.838,24.49h0.178l0.009-0.021l-0.152-0.148l0.197,0.074l0.012-0.014L6.95,24.188
		l0.193,0.13l0.014-0.012l-0.091-0.225l0.177,0.166l0.015-0.009l-0.049-0.226l0.129,0.188l0.018-0.005l0.003-0.206L7.44,24.18
		l0.022-0.003l0.066-0.158l0.007,0.214l-0.029,0.006l-0.036,0.258c0.257-0.06,0.577-0.498,0.821-0.498
		c0.292,0,0.398,0.343,0.937,0.168c0.136,0.202,0.184,0.377,0.236,0.62c0.209,0.194,0.5,0.129,0.5-0.077
		c0-0.279-0.303-0.333-0.303-0.625c0-0.129,0.091-0.316,0.34-0.316l0.436,0.057c0.131,0,0.16-0.096,0.174-0.135
		c0.013-0.03,0.049-0.021,0.045,0.002l0.015,0.129c0,0.185-0.268,0.208-0.301,0.185l-0.014,0.014
		c0.041,0.032,0.031,0.142-0.017,0.213l-0.015-0.002c-0.028-0.132-0.183-0.295-0.32-0.295c-0.05,0-0.149,0.029-0.149,0.145
		c0,0.165,0.332,0.317,0.332,0.66c0,0.357-0.354,0.442-0.71,0.354c0.012,0.339,0.516,0.539,0.529,0.298h0.015
		c0.075,0.104,0.041,0.182-0.056,0.222c0.089,0.04,0.105,0.217,0.13,0.323c0.038,0.159,0.207,0.07,0.215,0.066l0.009,0.01
		c-0.064,0.166-0.233,0.104-0.233,0.104c-0.088,0.063,0.019,0.118,0.1,0.142l0.002,0.015c-0.059,0.023-0.187,0.062-0.248-0.045
		c-0.046,0.111-0.14,0.108-0.176,0.108c-0.065,0-0.108,0.066-0.093,0.155l-0.01,0.005c-0.155-0.102-0.066-0.224-0.003-0.253
		c-0.011-0.008-0.118-0.052-0.164,0.073l-0.013,0.002c-0.067-0.182,0.08-0.233,0.187-0.188c-0.007-0.025-0.064-0.113-0.203-0.084
		l-0.007-0.012c0.023-0.055,0.092-0.136,0.219-0.053c0.065,0.039,0.177-0.018,0.188-0.024c-0.227-0.449-0.666-0.072-0.763-0.425
		l-0.017,0.005c-0.024,0.075-0.216,0.079-0.25-0.066l0.009-0.006c0.028,0.029,0.088,0.054,0.167-0.062
		c0.052-0.075,0.06-0.175,0.06-0.244c0-0.274-0.273-0.733-0.699-0.733c-0.27,0-0.559,0.105-0.774,0.261l0.201,0.047
		c-0.019,0.202-0.213,0.32-0.392,0.271l0.03-0.231C7.41,24.783,7.331,24.81,7.29,24.87l-0.012-0.003
		c-0.036-0.13,0.073-0.196,0.105-0.213L7.38,24.648c-0.098-0.004-0.152,0.066-0.167,0.092H7.206
		C7.194,24.718,7.178,24.649,7.222,24.602z M7.817,26.165C7.74,26.258,7.674,26.17,7.573,26.17c-0.095,0-0.111,0.078-0.113,0.109
		l-0.007,0.003c-0.107-0.146,0.012-0.226,0.082-0.236c-0.01-0.012-0.115-0.082-0.183,0.016L7.34,26.057
		c-0.003-0.182,0.141-0.193,0.236-0.114c0.016-0.069-0.027-0.114-0.104-0.119l-0.006-0.009c0.032-0.035,0.064-0.05,0.094-0.05
		c0.103,0,0.115,0.127,0.181,0.127c0.1,0,0.24-0.134,0.253-0.147c-0.003-0.008-0.097-0.265-0.079-0.418l-0.006-0.005
		c-0.048,0.027-0.169,0.026-0.169-0.125l0.01-0.002c0.054,0.074,0.139-0.009,0.183-0.057c0.046-0.053,0.296-0.416,0.628-0.416
		c0.074,0,0.168,0.041,0.245,0.094c-0.115,0.14-0.001,0.273,0.084,0.256l0.003,0.011c-0.44,0.164-0.636,0.231-0.636,0.6
		c0,0.191,0.065,0.298,0.177,0.273l0.005,0.008c-0.041,0.049-0.087,0.064-0.127,0.064c-0.091,0-0.107-0.05-0.156-0.05
		c-0.051,0-0.215,0.096-0.215,0.177c0,0.03,0.02,0.073,0.078,0.109l-0.002,0.007C7.978,26.276,7.847,26.287,7.817,26.165z
		 M8.976,22.586c-0.138-0.008-0.226,0.023-0.221,0.066C8.82,22.722,8.91,22.715,8.976,22.586z M8.467,22.926
		c0.098-0.024,0.205-0.013,0.216-0.009l-0.002,0.029c-0.203,0.027-0.213,0.119-0.34,0.119c-0.086,0-0.178-0.085-0.143-0.212h0.021
		C8.23,22.908,8.309,22.967,8.467,22.926z M5.838,27.415c0.134,0.17,0.263,0.009,0.438,0.009c0.086,0,0.191,0.029,0.211,0.202h0.017
		c0.193-0.263-0.026-0.411-0.152-0.429c0.027-0.025,0.214-0.142,0.333,0.029l0.02-0.005c0-0.331-0.25-0.357-0.43-0.212
		c-0.032-0.129,0.064-0.215,0.189-0.215l0.013-0.02c-0.222-0.237-0.389,0.063-0.427,0.11c-0.089,0.118-0.406-0.104-0.533-0.236
		c0,0,0.281-0.293,0.281-0.562L5.798,26.04l0.011-0.007l0.104,0.026c0.064,0,0.185-0.021,0.185-0.248l-0.015-0.007
		c-0.033,0.049-0.069,0.06-0.098,0.06c-0.227,0-0.699-0.755-1.256-0.755c-0.145,0-0.421,0.104-0.56,0.256
		c0.067,0.039,0.08,0.121,0.073,0.18c-0.01,0.096-0.087,0.144-0.164,0.166v0.019c0.282,0.107,0.793,0.302,0.909,0.401
		c0.138,0.118,0.111,0.344,0.031,0.654c-0.077,0.297-0.241,0.256-0.302,0.247l-0.006,0.012c0.072,0.091,0.161,0.12,0.236,0.12
		c0.146,0,0.201-0.09,0.277-0.09c0.127,0,0.394,0.183,0.394,0.321c0,0.08-0.061,0.148-0.14,0.2l0.004,0.011
		C5.541,27.617,5.791,27.639,5.838,27.415L5.838,27.415z M11.995,27.607L12,27.597c-0.078-0.052-0.14-0.123-0.14-0.2
		c0-0.139,0.267-0.322,0.393-0.322c0.076,0,0.13,0.091,0.276,0.091c0.076,0,0.164-0.029,0.237-0.123l-0.006-0.009
		c-0.061,0.009-0.226,0.05-0.303-0.247c-0.08-0.312-0.106-0.536,0.031-0.654c0.116-0.1,0.628-0.295,0.909-0.401V25.71
		c-0.077-0.02-0.154-0.068-0.164-0.164c-0.006-0.059,0.006-0.143,0.073-0.182c-0.139-0.149-0.414-0.255-0.56-0.255
		c-0.558,0-1.03,0.755-1.256,0.755c-0.028,0-0.065-0.011-0.098-0.06l-0.015,0.007c0,0.228,0.121,0.248,0.185,0.248l0.104-0.027
		l0.011,0.007l-0.002,0.048c0,0.269,0.28,0.563,0.28,0.563c-0.126,0.132-0.444,0.354-0.532,0.235
		c-0.038-0.048-0.204-0.347-0.426-0.109l0.012,0.02c0.125,0,0.222,0.085,0.188,0.215c-0.18-0.145-0.428-0.12-0.428,0.211
		l0.019,0.006c0.119-0.171,0.306-0.055,0.333-0.029c-0.125,0.017-0.344,0.166-0.152,0.429h0.016c0.02-0.173,0.125-0.202,0.21-0.202
		c0.176,0,0.306,0.161,0.439-0.01C11.686,27.639,11.935,27.617,11.995,27.607z M7.486,23.253c-0.018,0.025-0.076,0-0.099-0.011
		l-0.003,0.004c0.014,0.031,0.071,0.125,0.154,0.125c0.039,0,0.094-0.021,0.109-0.046c0,0,0.328,0.106,0.491,0.15
		c-0.063,0.084-0.102,0.186-0.111,0.295c-0.13-0.08-0.654-0.36-0.654-0.36L7.21,23.633c-0.026,0.036-0.156-0.06-0.128-0.096
		l0.123-0.17c-0.041-0.044-0.14-0.017-0.167-0.009l-0.003-0.008c0.016-0.032,0.078-0.136,0.231-0.088
		c0-0.094-0.14-0.064-0.176-0.054l-0.002-0.006c0.039-0.041,0.152-0.132,0.279-0.057l0.056-0.077L7.31,22.951l0.07-0.098
		l0.079,0.106l0.605-0.826c0.015-0.021,0.134-0.057,0.18-0.065c0.004,0.048,0.01,0.17-0.004,0.19l-0.594,0.836l0.124,0.04
		l-0.068,0.098l-0.149-0.07L7.486,23.253L7.486,23.253z M9.606,23.118c0,0.076,0.047,0.188,0.148,0.155l0.008,0.004
		c-0.015,0.085-0.166,0.162-0.235,0.063c-0.061,0.128-0.047,0.249,0.086,0.321v0.019c-0.079,0.057-0.202,0.046-0.259-0.065
		c-0.108,0.082-0.092,0.257-0.026,0.315c0,0-0.3,0.177-0.573,0.05c-0.18-0.086-0.327-0.196-0.561-0.178
		c0.032-0.326,0.196-0.412,0.496-0.46c0.24-0.039,0.27-0.148,0.236-0.231c-0.082-0.022-0.231,0.052-0.231,0.052
		c-0.026-0.043,0.013-0.091,0.013-0.091l-0.023-0.077c0.167,0,0.197-0.038,0.197-0.038c0.03-0.174-0.148-0.193-0.284-0.098
		c-0.063-0.056-0.053-0.13-0.053-0.13l-0.03-0.052c0-0.041,0.2-0.153,0.25-0.166c0.014-0.059,0.086-0.139,0.296-0.12
		c0.026-0.055-0.015-0.259-0.041-0.313l0.022-0.016l0.196,0.224c0,0,0.237-0.125,0.249-0.118c0.011,0.006,0.045,0.271,0.045,0.271
		l0.296,0.036l0.001,0.024c-0.061,0.012-0.252,0.094-0.283,0.146C9.657,22.809,9.606,23.051,9.606,23.118z"/>
</g>
<g>
	<g>
		<path fill="#1D1D1B" d="M24.514,22.369c-0.09,0.011-0.186,0.021-0.286,0.021c-0.063,0-0.117,0-0.17-0.005
			c-0.048,0-0.095-0.005-0.143-0.005c-0.048-0.005-0.09-0.011-0.133-0.016c-0.048-0.005-0.09-0.016-0.138-0.027v-0.101
			c0.217-0.053,0.324-0.185,0.313-0.402l-0.133-2.407h-0.011l-0.944,2.942l-0.207,0.027l-0.954-2.963l-0.005,0.005l-0.164,2.656
			l0.345,0.09V22.3c-0.059,0.016-0.111,0.032-0.154,0.042c-0.048,0.011-0.095,0.022-0.138,0.027
			c-0.048,0.011-0.095,0.016-0.149,0.016c-0.048,0.005-0.106,0.005-0.17,0.005c-0.058,0-0.127-0.005-0.201-0.016
			c-0.069-0.01-0.143-0.021-0.207-0.037v-0.095c0.101-0.032,0.175-0.068,0.222-0.117c0.053-0.053,0.085-0.117,0.09-0.196
			l0.233-2.709l-0.308-0.09v-0.154c0.058-0.005,0.122-0.016,0.186-0.021c0.063-0.005,0.127-0.005,0.191-0.011
			c0.064,0,0.127-0.005,0.186-0.005c0.058,0,0.111,0,0.159,0h0.191l0.832,2.571h0.005l0.806-2.571h0.228
			c0.095,0,0.202,0,0.313,0.005c0.111,0.005,0.223,0.016,0.329,0.032v0.154l-0.329,0.08l0.233,2.915l0.308,0.059V22.3
			C24.678,22.332,24.604,22.353,24.514,22.369z"/>
		<path fill="#1D1D1B" d="M25.991,22.337c-0.048,0.011-0.09,0.022-0.143,0.027c-0.048,0.005-0.101,0.01-0.154,0.016
			c-0.058,0-0.117,0.005-0.185,0.005c-0.058,0-0.127-0.005-0.196-0.01c-0.074-0.005-0.143-0.016-0.201-0.037v-0.09
			c0.037-0.011,0.069-0.026,0.106-0.048c0.032-0.021,0.064-0.042,0.09-0.069c0.027-0.021,0.048-0.048,0.064-0.08
			c0.016-0.026,0.021-0.059,0.021-0.09v-1.792l-0.339-0.143v-0.112c0.122-0.037,0.239-0.058,0.35-0.074
			c0.111-0.022,0.207-0.027,0.281-0.027h0.17L25.826,20.1v2.014l0.297,0.079v0.101C26.075,22.311,26.033,22.327,25.991,22.337z
			 M25.89,19.13c-0.016,0.037-0.037,0.074-0.063,0.1c-0.027,0.032-0.058,0.053-0.096,0.069c-0.037,0.021-0.074,0.027-0.117,0.027
			c-0.037,0-0.074-0.005-0.111-0.021c-0.032-0.016-0.063-0.037-0.09-0.064c-0.021-0.026-0.043-0.058-0.059-0.095
			c-0.016-0.037-0.021-0.079-0.021-0.122c0-0.042,0.005-0.08,0.021-0.117c0.011-0.037,0.032-0.069,0.059-0.101
			c0.027-0.032,0.058-0.053,0.095-0.069c0.037-0.016,0.079-0.027,0.127-0.027c0.037,0,0.074,0.005,0.106,0.021
			c0.032,0.011,0.063,0.032,0.09,0.059c0.027,0.021,0.043,0.053,0.058,0.09c0.016,0.032,0.021,0.074,0.021,0.117
			C25.911,19.045,25.906,19.087,25.89,19.13z"/>
		<path fill="#1D1D1B" d="M28.457,22.385c-0.053,0-0.111-0.005-0.175-0.01c-0.058-0.005-0.117-0.016-0.17-0.037v-0.09
			c0.069-0.032,0.117-0.069,0.143-0.127c0.032-0.053,0.048-0.128,0.048-0.223v-1.012c0-0.127-0.016-0.238-0.037-0.328
			c-0.027-0.095-0.064-0.17-0.111-0.223c-0.048-0.058-0.101-0.1-0.164-0.127c-0.069-0.026-0.138-0.037-0.217-0.037
			c-0.106,0-0.212,0.016-0.308,0.048c-0.101,0.032-0.18,0.074-0.238,0.117v1.781l0.297,0.079v0.101
			c-0.048,0.016-0.09,0.032-0.133,0.042c-0.048,0.011-0.095,0.022-0.143,0.027c-0.048,0.005-0.101,0.01-0.159,0.016
			c-0.053,0-0.111,0.005-0.18,0.005c-0.064,0-0.133-0.005-0.202-0.01c-0.069-0.005-0.138-0.016-0.196-0.037v-0.09
			c0.037-0.011,0.069-0.026,0.101-0.048c0.037-0.021,0.064-0.042,0.09-0.069c0.027-0.021,0.048-0.048,0.069-0.08
			c0.016-0.026,0.021-0.059,0.021-0.09v-1.792l-0.344-0.143v-0.117c0.122-0.037,0.238-0.058,0.35-0.074
			c0.111-0.016,0.207-0.022,0.286-0.022h0.127V20.1c0.09-0.09,0.207-0.164,0.344-0.217c0.138-0.053,0.286-0.08,0.44-0.08
			c0.111,0,0.212,0.016,0.302,0.053c0.09,0.037,0.17,0.09,0.233,0.159c0.064,0.069,0.117,0.154,0.154,0.255
			c0.032,0.106,0.053,0.228,0.053,0.36v1.484l0.276,0.079v0.101C28.865,22.353,28.68,22.385,28.457,22.385z"/>
		<path fill="#1D1D1B" d="M30.292,22.337c-0.048,0.011-0.09,0.022-0.143,0.027c-0.048,0.005-0.101,0.01-0.154,0.016
			c-0.059,0-0.117,0.005-0.186,0.005c-0.058,0-0.127-0.005-0.196-0.01c-0.074-0.005-0.143-0.016-0.201-0.037v-0.09
			c0.037-0.011,0.069-0.026,0.106-0.048c0.032-0.021,0.064-0.042,0.09-0.069c0.027-0.021,0.048-0.048,0.064-0.08
			c0.016-0.026,0.021-0.059,0.021-0.09v-1.792l-0.339-0.143v-0.112c0.122-0.037,0.239-0.058,0.35-0.074
			c0.111-0.022,0.207-0.027,0.281-0.027h0.17L30.128,20.1v2.014l0.297,0.079v0.101C30.377,22.311,30.335,22.327,30.292,22.337z
			 M30.192,19.13c-0.016,0.037-0.037,0.074-0.063,0.1c-0.027,0.032-0.059,0.053-0.096,0.069c-0.037,0.021-0.074,0.027-0.117,0.027
			c-0.037,0-0.074-0.005-0.111-0.021c-0.032-0.016-0.064-0.037-0.09-0.064c-0.021-0.026-0.043-0.058-0.058-0.095
			c-0.016-0.037-0.021-0.079-0.021-0.122c0-0.042,0.005-0.08,0.021-0.117c0.011-0.037,0.032-0.069,0.058-0.101
			c0.026-0.032,0.058-0.053,0.095-0.069c0.037-0.016,0.079-0.027,0.127-0.027c0.037,0,0.074,0.005,0.106,0.021
			c0.032,0.011,0.063,0.032,0.09,0.059c0.027,0.021,0.043,0.053,0.058,0.09c0.016,0.032,0.021,0.074,0.021,0.117
			C30.213,19.045,30.208,19.087,30.192,19.13z"/>
		<path fill="#1D1D1B" d="M32.338,21.934c-0.048,0.09-0.117,0.175-0.202,0.244c-0.085,0.074-0.191,0.133-0.313,0.175
			c-0.117,0.042-0.254,0.063-0.403,0.063c-0.233,0-0.403-0.037-0.509-0.111c-0.111-0.069-0.164-0.18-0.164-0.323
			c0-0.037,0.005-0.074,0.011-0.117c0.011-0.037,0.021-0.069,0.037-0.101c0.117,0.112,0.238,0.196,0.355,0.249
			c0.122,0.059,0.249,0.085,0.392,0.085c0.149,0,0.26-0.031,0.339-0.095c0.074-0.063,0.111-0.138,0.111-0.233
			c0-0.048-0.005-0.09-0.021-0.127c-0.016-0.037-0.043-0.074-0.074-0.111c-0.037-0.037-0.085-0.069-0.143-0.106
			c-0.053-0.032-0.127-0.069-0.217-0.106l-0.265-0.111c-0.154-0.063-0.27-0.153-0.355-0.265c-0.079-0.112-0.122-0.238-0.122-0.392
			c0-0.106,0.021-0.207,0.064-0.297c0.048-0.095,0.111-0.18,0.191-0.249c0.079-0.069,0.175-0.127,0.292-0.17
			c0.111-0.042,0.238-0.064,0.376-0.064c0.106,0,0.196,0.011,0.27,0.027c0.074,0.01,0.138,0.037,0.185,0.063
			c0.048,0.027,0.085,0.064,0.106,0.101c0.021,0.043,0.032,0.09,0.032,0.138c0,0.042,0,0.08-0.005,0.111
			c-0.005,0.037-0.016,0.074-0.021,0.112c-0.085-0.059-0.18-0.106-0.292-0.143c-0.106-0.037-0.212-0.059-0.313-0.059
			c-0.085,0-0.159,0.011-0.223,0.027c-0.063,0.016-0.111,0.042-0.154,0.069c-0.042,0.032-0.074,0.069-0.095,0.106
			c-0.016,0.042-0.027,0.085-0.027,0.127c0,0.048,0.005,0.09,0.016,0.127c0.016,0.043,0.037,0.074,0.069,0.106
			c0.032,0.037,0.074,0.069,0.127,0.095c0.053,0.032,0.122,0.058,0.201,0.09l0.286,0.111c0.095,0.037,0.175,0.08,0.244,0.122
			c0.064,0.042,0.122,0.09,0.164,0.143c0.037,0.058,0.069,0.117,0.09,0.18c0.016,0.064,0.027,0.138,0.027,0.212
			C32.407,21.738,32.386,21.839,32.338,21.934z"/>
		<path fill="#1D1D1B" d="M33.638,22.406c-0.212,0-0.371-0.059-0.477-0.175c-0.101-0.117-0.154-0.302-0.154-0.562
			c0-0.127,0-0.26,0.005-0.392c0.005-0.138,0.005-0.265,0.011-0.387l0.016-0.705h-0.292V20.01l0.573-0.567l0.175-0.021l-0.021,0.477
			h0.7l-0.037,0.287h-0.679l-0.011,0.668c0,0.111-0.005,0.217-0.005,0.323c0,0.101,0,0.196,0,0.297c0,0.106,0.005,0.196,0.021,0.27
			c0.016,0.074,0.037,0.133,0.069,0.18c0.026,0.042,0.058,0.074,0.101,0.095c0.037,0.021,0.085,0.032,0.133,0.032
			c0.08,0,0.148-0.01,0.217-0.037c0.064-0.027,0.122-0.058,0.175-0.101l0.053,0.021C34.189,22.247,33.998,22.406,33.638,22.406z"/>
		<path fill="#1D1D1B" d="M36.473,21.107h-1.564c0,0.149,0.021,0.281,0.058,0.398c0.042,0.117,0.101,0.212,0.17,0.292
			c0.069,0.08,0.154,0.143,0.249,0.185c0.095,0.043,0.196,0.063,0.308,0.063c0.064,0,0.127-0.005,0.196-0.016
			c0.069-0.01,0.133-0.027,0.196-0.048c0.069-0.016,0.127-0.042,0.191-0.069c0.058-0.032,0.117-0.064,0.164-0.095
			c0.005,0.011,0.011,0.032,0.016,0.059c0.005,0.026,0.005,0.053,0.005,0.079c0,0.064-0.021,0.122-0.064,0.175
			c-0.042,0.053-0.101,0.106-0.18,0.149c-0.08,0.042-0.175,0.074-0.286,0.101c-0.117,0.027-0.244,0.037-0.382,0.037
			c-0.154,0-0.292-0.027-0.424-0.085c-0.138-0.058-0.249-0.138-0.35-0.243c-0.101-0.106-0.18-0.234-0.239-0.382
			c-0.053-0.149-0.085-0.318-0.085-0.503c0-0.229,0.032-0.435,0.096-0.616c0.063-0.175,0.148-0.323,0.254-0.445
			c0.101-0.117,0.218-0.212,0.35-0.27c0.133-0.063,0.27-0.095,0.408-0.095c0.143,0,0.27,0.022,0.387,0.069
			c0.111,0.048,0.207,0.111,0.286,0.196c0.08,0.09,0.138,0.191,0.18,0.313c0.042,0.127,0.063,0.26,0.063,0.413
			c0,0.053,0,0.101,0,0.159C36.478,20.98,36.478,21.044,36.473,21.107z M36.012,20.492c-0.027-0.095-0.064-0.175-0.111-0.238
			c-0.048-0.063-0.101-0.111-0.17-0.143c-0.064-0.032-0.138-0.048-0.212-0.048c-0.074,0-0.143,0.022-0.217,0.064
			c-0.074,0.037-0.138,0.095-0.191,0.164c-0.058,0.069-0.101,0.153-0.138,0.244c-0.037,0.095-0.053,0.191-0.053,0.296h1.134
			C36.054,20.699,36.038,20.588,36.012,20.492z"/>
		<path fill="#1D1D1B" d="M38.47,20.174c-0.016,0.059-0.037,0.111-0.064,0.159c-0.048-0.037-0.101-0.069-0.159-0.09
			c-0.058-0.021-0.111-0.032-0.17-0.032c-0.164,0-0.318,0.074-0.466,0.217v1.686l0.366,0.079v0.101
			c-0.042,0.016-0.09,0.032-0.138,0.042c-0.043,0.011-0.09,0.022-0.143,0.027c-0.053,0.005-0.111,0.01-0.17,0.016
			c-0.064,0-0.133,0.005-0.207,0.005c-0.08,0-0.154-0.005-0.223-0.01c-0.074-0.005-0.143-0.016-0.201-0.037v-0.09
			c0.037-0.011,0.069-0.026,0.101-0.048c0.037-0.021,0.064-0.042,0.09-0.069c0.027-0.021,0.048-0.048,0.069-0.08
			c0.016-0.026,0.021-0.059,0.021-0.09v-1.792l-0.344-0.143v-0.117c0.122-0.037,0.238-0.058,0.35-0.074
			c0.111-0.016,0.207-0.022,0.286-0.022h0.127v0.372h0.005l0.148-0.165c0.069-0.079,0.148-0.138,0.223-0.175
			c0.074-0.037,0.154-0.058,0.244-0.058c0.185,0,0.276,0.074,0.276,0.228C38.492,20.063,38.486,20.116,38.47,20.174z"/>
		<path fill="#1D1D1B" d="M39.651,22.337c-0.048,0.011-0.09,0.022-0.143,0.027c-0.048,0.005-0.101,0.01-0.154,0.016
			c-0.059,0-0.117,0.005-0.186,0.005c-0.058,0-0.127-0.005-0.196-0.01c-0.074-0.005-0.143-0.016-0.201-0.037v-0.09
			c0.037-0.011,0.069-0.026,0.106-0.048c0.032-0.021,0.064-0.042,0.09-0.069c0.027-0.021,0.048-0.048,0.064-0.08
			c0.016-0.026,0.021-0.059,0.021-0.09v-1.792l-0.339-0.143v-0.112c0.122-0.037,0.239-0.058,0.35-0.074
			c0.111-0.022,0.207-0.027,0.281-0.027h0.17L39.487,20.1v2.014l0.297,0.079v0.101C39.736,22.311,39.694,22.327,39.651,22.337z
			 M39.551,19.13c-0.016,0.037-0.037,0.074-0.063,0.1c-0.027,0.032-0.059,0.053-0.096,0.069c-0.037,0.021-0.074,0.027-0.117,0.027
			c-0.037,0-0.074-0.005-0.111-0.021c-0.032-0.016-0.064-0.037-0.09-0.064c-0.021-0.026-0.043-0.058-0.058-0.095
			c-0.016-0.037-0.021-0.079-0.021-0.122c0-0.042,0.005-0.08,0.021-0.117c0.011-0.037,0.032-0.069,0.058-0.101
			c0.026-0.032,0.058-0.053,0.095-0.069c0.037-0.016,0.079-0.027,0.127-0.027c0.037,0,0.074,0.005,0.106,0.021
			c0.032,0.011,0.063,0.032,0.09,0.059c0.027,0.021,0.043,0.053,0.058,0.09c0.016,0.032,0.021,0.074,0.021,0.117
			C39.572,19.045,39.567,19.087,39.551,19.13z"/>
		<path fill="#1D1D1B" d="M42.158,21.107h-1.564c0,0.149,0.021,0.281,0.058,0.398c0.042,0.117,0.101,0.212,0.17,0.292
			c0.069,0.08,0.154,0.143,0.249,0.185c0.095,0.043,0.196,0.063,0.308,0.063c0.064,0,0.127-0.005,0.196-0.016
			c0.069-0.01,0.133-0.027,0.196-0.048c0.069-0.016,0.127-0.042,0.191-0.069c0.058-0.032,0.117-0.064,0.164-0.095
			c0.005,0.011,0.011,0.032,0.016,0.059c0.005,0.026,0.005,0.053,0.005,0.079c0,0.064-0.021,0.122-0.064,0.175
			c-0.043,0.053-0.101,0.106-0.18,0.149c-0.08,0.042-0.175,0.074-0.286,0.101c-0.117,0.027-0.244,0.037-0.382,0.037
			c-0.154,0-0.292-0.027-0.424-0.085c-0.138-0.058-0.249-0.138-0.35-0.243c-0.101-0.106-0.18-0.234-0.239-0.382
			c-0.053-0.149-0.085-0.318-0.085-0.503c0-0.229,0.032-0.435,0.096-0.616c0.063-0.175,0.148-0.323,0.254-0.445
			c0.101-0.117,0.218-0.212,0.35-0.27c0.133-0.063,0.27-0.095,0.408-0.095c0.143,0,0.27,0.022,0.387,0.069
			c0.111,0.048,0.207,0.111,0.286,0.196c0.08,0.09,0.138,0.191,0.18,0.313c0.042,0.127,0.063,0.26,0.063,0.413
			c0,0.053,0,0.101,0,0.159C42.163,20.98,42.163,21.044,42.158,21.107z M41.697,20.492c-0.027-0.095-0.064-0.175-0.111-0.238
			c-0.048-0.063-0.101-0.111-0.17-0.143c-0.064-0.032-0.138-0.048-0.212-0.048c-0.074,0-0.143,0.022-0.217,0.064
			c-0.074,0.037-0.138,0.095-0.191,0.164c-0.058,0.069-0.101,0.153-0.138,0.244c-0.037,0.095-0.053,0.191-0.053,0.296h1.134
			C41.739,20.699,41.723,20.588,41.697,20.492z"/>
		<path fill="#1D1D1B" d="M45.623,20.063l-0.938,2.338L44.5,22.412l-0.896-2.317l-0.217-0.153v-0.128h1.007v0.128l-0.302,0.127
			l0.578,1.681h0.005l0.588-1.664l-0.308-0.143v-0.128h0.822v0.128L45.623,20.063z"/>
		<path fill="#1D1D1B" d="M47.769,22.295c-0.064,0.053-0.133,0.095-0.201,0.127c-0.053-0.032-0.095-0.069-0.138-0.111
			c-0.037-0.048-0.074-0.095-0.106-0.148c-0.037,0.037-0.079,0.069-0.133,0.101c-0.058,0.032-0.111,0.058-0.175,0.079
			c-0.063,0.027-0.127,0.042-0.201,0.053c-0.069,0.016-0.138,0.021-0.207,0.021c-0.101,0-0.191-0.016-0.27-0.042
			c-0.085-0.032-0.154-0.069-0.212-0.122c-0.064-0.053-0.106-0.117-0.143-0.191c-0.032-0.069-0.048-0.148-0.048-0.233
			c0-0.117,0.032-0.228,0.095-0.329c0.058-0.106,0.148-0.196,0.27-0.276c0.117-0.079,0.26-0.143,0.43-0.191
			c0.17-0.042,0.366-0.069,0.583-0.069v-0.143c0-0.143-0.011-0.26-0.027-0.35c-0.021-0.09-0.048-0.159-0.085-0.212
			c-0.037-0.048-0.085-0.085-0.149-0.106c-0.058-0.015-0.127-0.026-0.212-0.026c-0.148,0-0.286,0.032-0.424,0.09
			c-0.133,0.059-0.26,0.143-0.371,0.255c-0.011-0.048-0.016-0.101-0.016-0.159c0-0.085,0.016-0.159,0.048-0.228
			c0.032-0.064,0.085-0.122,0.154-0.165c0.069-0.048,0.159-0.085,0.27-0.106c0.111-0.026,0.244-0.037,0.398-0.037
			c0.133,0,0.254,0.016,0.36,0.048c0.106,0.037,0.191,0.08,0.265,0.143c0.074,0.064,0.133,0.138,0.17,0.223
			c0.037,0.085,0.059,0.186,0.059,0.297c0,0.027,0,0.063-0.005,0.111c0,0.042,0,0.09-0.005,0.143c0,0.048-0.005,0.101-0.005,0.149
			s-0.005,0.095-0.005,0.133l-0.016,0.859c0.021,0.048,0.048,0.095,0.085,0.143c0.037,0.048,0.079,0.09,0.127,0.127
			C47.891,22.199,47.838,22.247,47.769,22.295z M47.313,21.213c-0.148,0-0.281,0.016-0.398,0.042
			c-0.117,0.032-0.212,0.069-0.286,0.117c-0.079,0.048-0.138,0.106-0.18,0.17c-0.037,0.068-0.058,0.132-0.058,0.207
			c0,0.106,0.037,0.191,0.106,0.254c0.069,0.064,0.17,0.095,0.308,0.095c0.042,0,0.085-0.005,0.127-0.01
			c0.048-0.011,0.095-0.021,0.138-0.032c0.048-0.011,0.09-0.027,0.133-0.048c0.043-0.016,0.079-0.032,0.111-0.053V21.213z"/>
		<path fill="#1D1D1B" d="M50.302,22.385c-0.053,0-0.111-0.005-0.175-0.01c-0.058-0.005-0.117-0.016-0.17-0.037v-0.09
			c0.069-0.032,0.117-0.069,0.143-0.127c0.032-0.053,0.048-0.128,0.048-0.223v-1.012c0-0.127-0.016-0.238-0.037-0.328
			c-0.026-0.095-0.063-0.17-0.111-0.223c-0.048-0.058-0.101-0.1-0.164-0.127c-0.069-0.026-0.138-0.037-0.217-0.037
			c-0.106,0-0.212,0.016-0.308,0.048c-0.101,0.032-0.18,0.074-0.238,0.117v1.781l0.297,0.079v0.101
			c-0.048,0.016-0.09,0.032-0.133,0.042c-0.048,0.011-0.095,0.022-0.143,0.027c-0.048,0.005-0.101,0.01-0.159,0.016
			c-0.053,0-0.111,0.005-0.18,0.005c-0.064,0-0.133-0.005-0.202-0.01c-0.069-0.005-0.138-0.016-0.196-0.037v-0.09
			c0.037-0.011,0.069-0.026,0.101-0.048c0.037-0.021,0.064-0.042,0.09-0.069c0.027-0.021,0.048-0.048,0.069-0.08
			c0.016-0.026,0.021-0.059,0.021-0.09v-1.792l-0.344-0.143v-0.117c0.122-0.037,0.238-0.058,0.35-0.074
			c0.111-0.016,0.207-0.022,0.286-0.022h0.127V20.1c0.09-0.09,0.207-0.164,0.344-0.217c0.138-0.053,0.286-0.08,0.44-0.08
			c0.111,0,0.212,0.016,0.302,0.053c0.09,0.037,0.17,0.09,0.234,0.159c0.063,0.069,0.116,0.154,0.153,0.255
			c0.032,0.106,0.053,0.228,0.053,0.36v1.484l0.276,0.079v0.101C50.71,22.353,50.525,22.385,50.302,22.385z"/>
		<path fill="#1D1D1B" d="M54.143,21.77c-0.063,0.122-0.148,0.233-0.255,0.328c-0.106,0.095-0.233,0.17-0.376,0.223
			c-0.143,0.059-0.292,0.085-0.451,0.085c-0.169,0-0.318-0.005-0.45-0.027c-0.127-0.016-0.249-0.043-0.366-0.085v-0.769h0.154
			l0.037,0.132c0.022,0.075,0.048,0.138,0.08,0.186c0.032,0.053,0.074,0.1,0.127,0.133c0.048,0.037,0.112,0.058,0.185,0.079
			c0.074,0.016,0.159,0.021,0.26,0.021c0.095,0,0.191-0.01,0.275-0.037c0.085-0.027,0.154-0.069,0.217-0.117
			c0.063-0.048,0.117-0.106,0.149-0.175c0.037-0.069,0.053-0.144,0.053-0.223c0-0.101-0.037-0.202-0.111-0.302
			c-0.069-0.101-0.186-0.196-0.35-0.292l-0.504-0.297c-0.323-0.191-0.482-0.461-0.482-0.805c0-0.132,0.027-0.255,0.085-0.366
			c0.058-0.117,0.138-0.212,0.239-0.296c0.095-0.08,0.211-0.149,0.35-0.196c0.138-0.043,0.281-0.069,0.435-0.069
			c0.08,0,0.153,0,0.223,0.005c0.063,0.005,0.127,0.011,0.191,0.021c0.058,0.01,0.117,0.027,0.17,0.043
			c0.053,0.016,0.106,0.032,0.159,0.053l-0.048,0.747h-0.154l-0.021-0.106c-0.016-0.08-0.043-0.148-0.069-0.202
			c-0.026-0.053-0.063-0.101-0.111-0.133c-0.043-0.032-0.101-0.058-0.164-0.074c-0.064-0.016-0.138-0.022-0.228-0.022
			c-0.095,0-0.18,0.016-0.26,0.042c-0.074,0.027-0.143,0.064-0.196,0.112c-0.053,0.042-0.095,0.095-0.127,0.159
			c-0.027,0.058-0.042,0.122-0.042,0.185c0,0.106,0.032,0.207,0.09,0.292c0.059,0.09,0.164,0.164,0.302,0.244l0.525,0.286
			c0.186,0.101,0.329,0.217,0.419,0.355c0.09,0.138,0.138,0.292,0.138,0.461C54.239,21.51,54.207,21.643,54.143,21.77z"/>
		<path fill="#1D1D1B" d="M56.934,21.59c-0.069,0.175-0.159,0.323-0.276,0.45c-0.117,0.122-0.249,0.217-0.397,0.281
			c-0.154,0.069-0.308,0.101-0.461,0.101c-0.159,0-0.313-0.027-0.451-0.085c-0.143-0.053-0.265-0.132-0.371-0.238
			c-0.101-0.101-0.186-0.233-0.249-0.382c-0.059-0.154-0.09-0.323-0.09-0.519c0-0.218,0.037-0.414,0.101-0.589
			c0.069-0.175,0.164-0.328,0.275-0.451c0.117-0.122,0.249-0.217,0.398-0.286c0.148-0.069,0.307-0.101,0.472-0.101
			c0.165,0,0.313,0.032,0.456,0.09c0.144,0.059,0.265,0.138,0.366,0.249c0.106,0.106,0.186,0.234,0.244,0.382
			c0.064,0.154,0.09,0.319,0.09,0.504C57.04,21.213,57.008,21.415,56.934,21.59z M56.499,20.63c-0.037-0.117-0.09-0.217-0.154-0.302
			c-0.069-0.08-0.143-0.143-0.228-0.186c-0.085-0.042-0.175-0.063-0.27-0.063c-0.09,0-0.18,0.026-0.265,0.069
			c-0.09,0.048-0.17,0.111-0.234,0.201c-0.069,0.09-0.127,0.202-0.164,0.334c-0.042,0.133-0.063,0.286-0.063,0.461
			c0,0.159,0.021,0.302,0.058,0.418c0.037,0.122,0.09,0.223,0.154,0.308c0.069,0.079,0.143,0.143,0.228,0.185
			c0.085,0.037,0.175,0.059,0.27,0.059c0.09,0,0.175-0.022,0.265-0.064c0.085-0.042,0.164-0.111,0.233-0.202
			c0.069-0.085,0.122-0.196,0.164-0.334c0.042-0.132,0.063-0.292,0.063-0.472C56.557,20.89,56.536,20.752,56.499,20.63z"/>
		<path fill="#1D1D1B" d="M59.227,22.146c-0.032,0.053-0.08,0.101-0.148,0.143c-0.063,0.037-0.143,0.069-0.238,0.095
			c-0.095,0.022-0.207,0.032-0.334,0.032c-0.148,0-0.281-0.027-0.414-0.085c-0.127-0.058-0.238-0.143-0.334-0.249
			c-0.101-0.106-0.175-0.234-0.234-0.382c-0.058-0.154-0.085-0.318-0.085-0.504c0-0.218,0.031-0.414,0.095-0.589
			c0.063-0.175,0.153-0.324,0.265-0.445c0.111-0.122,0.244-0.217,0.397-0.281c0.148-0.069,0.313-0.101,0.488-0.101
			c0.106,0,0.196,0.011,0.27,0.027c0.074,0.016,0.133,0.037,0.175,0.063c0.048,0.027,0.08,0.064,0.095,0.101
			c0.021,0.037,0.032,0.08,0.032,0.122c0,0.053-0.005,0.101-0.016,0.143c-0.01,0.043-0.027,0.09-0.048,0.133
			c-0.101-0.08-0.201-0.138-0.297-0.18c-0.101-0.042-0.207-0.063-0.318-0.063c-0.09,0-0.18,0.021-0.26,0.063
			c-0.085,0.048-0.153,0.111-0.217,0.196c-0.063,0.08-0.111,0.186-0.148,0.302c-0.037,0.122-0.053,0.26-0.053,0.414
			c0,0.159,0.021,0.297,0.058,0.413c0.037,0.122,0.09,0.218,0.159,0.297c0.069,0.08,0.148,0.138,0.238,0.18
			c0.09,0.037,0.191,0.059,0.292,0.059c0.053,0,0.106-0.005,0.159-0.016c0.053-0.01,0.106-0.027,0.159-0.043
			c0.053-0.021,0.101-0.042,0.148-0.068c0.053-0.027,0.095-0.053,0.138-0.085c0.016,0.037,0.027,0.08,0.027,0.133
			C59.28,22.035,59.264,22.093,59.227,22.146z"/>
		<path fill="#1D1D1B" d="M60.552,22.337c-0.048,0.011-0.09,0.022-0.143,0.027c-0.048,0.005-0.1,0.01-0.153,0.016
			c-0.059,0-0.117,0.005-0.186,0.005c-0.058,0-0.127-0.005-0.196-0.01c-0.074-0.005-0.143-0.016-0.201-0.037v-0.09
			c0.037-0.011,0.069-0.026,0.106-0.048c0.032-0.021,0.064-0.042,0.09-0.069c0.027-0.021,0.048-0.048,0.063-0.08
			c0.016-0.026,0.021-0.059,0.021-0.09v-1.792l-0.339-0.143v-0.112c0.122-0.037,0.238-0.058,0.35-0.074
			c0.111-0.022,0.207-0.027,0.281-0.027h0.17L60.388,20.1v2.014l0.297,0.079v0.101C60.637,22.311,60.595,22.327,60.552,22.337z
			 M60.452,19.13c-0.016,0.037-0.037,0.074-0.064,0.1c-0.027,0.032-0.058,0.053-0.095,0.069c-0.037,0.021-0.074,0.027-0.117,0.027
			c-0.037,0-0.074-0.005-0.111-0.021c-0.032-0.016-0.064-0.037-0.09-0.064c-0.021-0.026-0.042-0.058-0.058-0.095
			c-0.016-0.037-0.021-0.079-0.021-0.122c0-0.042,0.005-0.08,0.021-0.117c0.01-0.037,0.032-0.069,0.058-0.101
			c0.027-0.032,0.059-0.053,0.095-0.069c0.037-0.016,0.08-0.027,0.127-0.027c0.037,0,0.074,0.005,0.106,0.021
			c0.031,0.011,0.063,0.032,0.09,0.059c0.027,0.021,0.042,0.053,0.059,0.09c0.016,0.032,0.021,0.074,0.021,0.117
			C60.473,19.045,60.467,19.087,60.452,19.13z"/>
		<path fill="#1D1D1B" d="M62.846,22.295c-0.063,0.053-0.132,0.095-0.202,0.127c-0.053-0.032-0.095-0.069-0.138-0.111
			c-0.037-0.048-0.074-0.095-0.106-0.148c-0.037,0.037-0.079,0.069-0.132,0.101c-0.058,0.032-0.111,0.058-0.175,0.079
			c-0.063,0.027-0.127,0.042-0.202,0.053c-0.069,0.016-0.138,0.021-0.207,0.021c-0.101,0-0.191-0.016-0.27-0.042
			c-0.085-0.032-0.154-0.069-0.212-0.122c-0.063-0.053-0.106-0.117-0.143-0.191c-0.032-0.069-0.048-0.148-0.048-0.233
			c0-0.117,0.032-0.228,0.095-0.329c0.058-0.106,0.148-0.196,0.27-0.276c0.117-0.079,0.26-0.143,0.429-0.191
			c0.17-0.042,0.366-0.069,0.583-0.069v-0.143c0-0.143-0.011-0.26-0.027-0.35c-0.021-0.09-0.048-0.159-0.085-0.212
			c-0.037-0.048-0.085-0.085-0.148-0.106c-0.059-0.015-0.127-0.026-0.212-0.026c-0.148,0-0.286,0.032-0.424,0.09
			c-0.133,0.059-0.26,0.143-0.371,0.255c-0.01-0.048-0.016-0.101-0.016-0.159c0-0.085,0.016-0.159,0.048-0.228
			c0.032-0.064,0.085-0.122,0.154-0.165c0.069-0.048,0.159-0.085,0.27-0.106c0.112-0.026,0.244-0.037,0.398-0.037
			c0.133,0,0.254,0.016,0.36,0.048c0.106,0.037,0.191,0.08,0.265,0.143c0.074,0.064,0.133,0.138,0.17,0.223
			c0.037,0.085,0.058,0.186,0.058,0.297c0,0.027,0,0.063-0.005,0.111c0,0.042,0,0.09-0.005,0.143c0,0.048-0.005,0.101-0.005,0.149
			s-0.005,0.095-0.005,0.133l-0.016,0.859c0.021,0.048,0.048,0.095,0.085,0.143c0.037,0.048,0.079,0.09,0.127,0.127
			C62.968,22.199,62.915,22.247,62.846,22.295z M62.39,21.213c-0.149,0-0.281,0.016-0.398,0.042
			c-0.117,0.032-0.212,0.069-0.286,0.117c-0.08,0.048-0.138,0.106-0.18,0.17c-0.037,0.068-0.059,0.132-0.059,0.207
			c0,0.106,0.037,0.191,0.106,0.254c0.069,0.064,0.17,0.095,0.307,0.095c0.042,0,0.085-0.005,0.127-0.01
			c0.048-0.011,0.095-0.021,0.138-0.032c0.048-0.011,0.09-0.027,0.132-0.048c0.043-0.016,0.08-0.032,0.112-0.053V21.213z"/>
		<path fill="#1D1D1B" d="M64.313,22.337c-0.048,0.011-0.095,0.022-0.143,0.027c-0.048,0.005-0.1,0.01-0.159,0.016
			c-0.053,0-0.111,0.005-0.18,0.005c-0.063,0-0.132-0.005-0.201-0.01c-0.069-0.005-0.138-0.016-0.196-0.037v-0.09
			c0.037-0.011,0.069-0.026,0.101-0.048c0.037-0.021,0.063-0.042,0.09-0.069c0.027-0.021,0.048-0.048,0.069-0.08
			c0.016-0.026,0.021-0.059,0.021-0.09v-3.075l-0.345-0.143v-0.117c0.059-0.016,0.122-0.032,0.18-0.042
			c0.059-0.011,0.117-0.022,0.175-0.032c0.053-0.005,0.106-0.01,0.153-0.015c0.048,0,0.09-0.005,0.127-0.005h0.17l-0.027,0.297
			v3.286l0.297,0.079v0.101C64.399,22.311,64.356,22.327,64.313,22.337z"/>
		<path fill="#1D1D1B" d="M66.826,21.107h-1.564c0,0.149,0.021,0.281,0.058,0.398c0.043,0.117,0.101,0.212,0.17,0.292
			c0.069,0.08,0.154,0.143,0.249,0.185c0.095,0.043,0.196,0.063,0.307,0.063c0.064,0,0.127-0.005,0.196-0.016
			c0.069-0.01,0.133-0.027,0.196-0.048c0.069-0.016,0.127-0.042,0.191-0.069c0.059-0.032,0.117-0.064,0.165-0.095
			c0.005,0.011,0.01,0.032,0.016,0.059c0.005,0.026,0.005,0.053,0.005,0.079c0,0.064-0.021,0.122-0.064,0.175
			c-0.042,0.053-0.1,0.106-0.18,0.149c-0.08,0.042-0.175,0.074-0.286,0.101c-0.117,0.027-0.244,0.037-0.382,0.037
			c-0.153,0-0.292-0.027-0.424-0.085c-0.138-0.058-0.249-0.138-0.35-0.243c-0.101-0.106-0.18-0.234-0.238-0.382
			c-0.053-0.149-0.085-0.318-0.085-0.503c0-0.229,0.032-0.435,0.095-0.616c0.063-0.175,0.148-0.323,0.254-0.445
			c0.101-0.117,0.217-0.212,0.35-0.27c0.132-0.063,0.27-0.095,0.408-0.095c0.143,0,0.27,0.022,0.387,0.069
			c0.111,0.048,0.207,0.111,0.286,0.196c0.08,0.09,0.138,0.191,0.18,0.313c0.042,0.127,0.063,0.26,0.063,0.413
			c0,0.053,0,0.101,0,0.159C66.831,20.98,66.831,21.044,66.826,21.107z M66.365,20.492c-0.027-0.095-0.063-0.175-0.111-0.238
			c-0.048-0.063-0.101-0.111-0.17-0.143c-0.063-0.032-0.138-0.048-0.212-0.048s-0.143,0.022-0.217,0.064
			c-0.074,0.037-0.138,0.095-0.191,0.164c-0.059,0.069-0.101,0.153-0.138,0.244c-0.037,0.095-0.053,0.191-0.053,0.296h1.135
			C66.408,20.699,66.391,20.588,66.365,20.492z"/>
		<path fill="#1D1D1B" d="M70.413,22.337h-2.173l-0.048-0.132l1.675-2.927h-0.928c-0.212,0-0.355,0.122-0.435,0.361l-0.037,0.117
			h-0.17l0.064-0.79h2.062l0.048,0.117l-1.665,2.942h0.939c0.085,0,0.153-0.005,0.212-0.022c0.059-0.011,0.111-0.032,0.154-0.063
			c0.042-0.032,0.074-0.069,0.106-0.117c0.027-0.048,0.059-0.106,0.08-0.175l0.032-0.101h0.17L70.413,22.337z"/>
		<path fill="#1D1D1B" d="M72.64,22.295c-0.063,0.053-0.132,0.095-0.202,0.127c-0.053-0.032-0.095-0.069-0.138-0.111
			c-0.037-0.048-0.074-0.095-0.106-0.148c-0.037,0.037-0.079,0.069-0.132,0.101c-0.058,0.032-0.111,0.058-0.175,0.079
			c-0.063,0.027-0.127,0.042-0.202,0.053c-0.069,0.016-0.138,0.021-0.207,0.021c-0.101,0-0.191-0.016-0.27-0.042
			c-0.085-0.032-0.153-0.069-0.212-0.122c-0.063-0.053-0.106-0.117-0.143-0.191c-0.032-0.069-0.048-0.148-0.048-0.233
			c0-0.117,0.031-0.228,0.095-0.329c0.058-0.106,0.148-0.196,0.27-0.276c0.117-0.079,0.26-0.143,0.429-0.191
			c0.17-0.042,0.366-0.069,0.583-0.069v-0.143c0-0.143-0.011-0.26-0.027-0.35c-0.021-0.09-0.048-0.159-0.085-0.212
			c-0.037-0.048-0.085-0.085-0.148-0.106c-0.058-0.015-0.127-0.026-0.212-0.026c-0.148,0-0.286,0.032-0.424,0.09
			c-0.133,0.059-0.26,0.143-0.371,0.255c-0.01-0.048-0.016-0.101-0.016-0.159c0-0.085,0.016-0.159,0.048-0.228
			c0.032-0.064,0.085-0.122,0.154-0.165c0.069-0.048,0.159-0.085,0.27-0.106c0.112-0.026,0.244-0.037,0.398-0.037
			c0.132,0,0.254,0.016,0.36,0.048c0.106,0.037,0.191,0.08,0.265,0.143c0.074,0.064,0.133,0.138,0.17,0.223
			c0.037,0.085,0.059,0.186,0.059,0.297c0,0.027,0,0.063-0.005,0.111c0,0.042,0,0.09-0.005,0.143c0,0.048-0.005,0.101-0.005,0.149
			s-0.005,0.095-0.005,0.133l-0.016,0.859c0.021,0.048,0.048,0.095,0.085,0.143c0.037,0.048,0.08,0.09,0.127,0.127
			C72.762,22.199,72.709,22.247,72.64,22.295z M72.184,21.213c-0.148,0-0.281,0.016-0.398,0.042
			c-0.117,0.032-0.212,0.069-0.286,0.117c-0.08,0.048-0.138,0.106-0.18,0.17c-0.037,0.068-0.059,0.132-0.059,0.207
			c0,0.106,0.037,0.191,0.106,0.254c0.069,0.064,0.17,0.095,0.307,0.095c0.042,0,0.085-0.005,0.127-0.01
			c0.048-0.011,0.095-0.021,0.138-0.032c0.048-0.011,0.09-0.027,0.133-0.048c0.042-0.016,0.079-0.032,0.111-0.053V21.213z"/>
		<path fill="#1D1D1B" d="M75.375,22.359c-0.063,0.016-0.132,0.026-0.212,0.026c-0.074,0-0.143-0.016-0.207-0.048
			c-0.064-0.032-0.117-0.085-0.17-0.153l-0.864-1.14v1.071l0.276,0.085V22.3c-0.048,0.016-0.095,0.032-0.143,0.037
			c-0.042,0.011-0.09,0.022-0.138,0.027c-0.048,0.01-0.095,0.016-0.148,0.016c-0.048,0.005-0.106,0.005-0.17,0.005
			c-0.059,0-0.127-0.005-0.196-0.01c-0.074-0.005-0.143-0.016-0.202-0.037v-0.09c0.037-0.011,0.074-0.026,0.106-0.048
			c0.037-0.021,0.063-0.042,0.09-0.069c0.027-0.021,0.048-0.048,0.069-0.08c0.016-0.026,0.021-0.059,0.021-0.09v-3.075l-0.35-0.143
			v-0.117c0.122-0.037,0.244-0.059,0.355-0.075c0.111-0.01,0.207-0.021,0.281-0.021h0.18l-0.032,0.297v2.12l0.292-0.255
			c0.069-0.063,0.143-0.127,0.207-0.202c0.063-0.074,0.122-0.148,0.175-0.222c0.048-0.074,0.09-0.154,0.117-0.223
			c0.032-0.074,0.048-0.143,0.048-0.201c0.048-0.016,0.095-0.027,0.138-0.032c0.042-0.005,0.09-0.01,0.143-0.01
			c0.042,0,0.08,0.005,0.112,0.01c0.031,0.011,0.069,0.022,0.1,0.037c0,0.058-0.021,0.122-0.048,0.191
			c-0.031,0.074-0.074,0.154-0.132,0.234c-0.058,0.079-0.138,0.164-0.223,0.249c-0.09,0.085-0.196,0.175-0.318,0.259l-0.185,0.133
			l0.816,0.991c0.074,0.09,0.143,0.154,0.212,0.196c0.064,0.037,0.127,0.059,0.18,0.059v0.111
			C75.497,22.311,75.434,22.342,75.375,22.359z"/>
		<path fill="#1D1D1B" d="M77.727,21.107h-1.564c0,0.149,0.021,0.281,0.058,0.398c0.043,0.117,0.101,0.212,0.17,0.292
			c0.069,0.08,0.154,0.143,0.249,0.185c0.095,0.043,0.196,0.063,0.307,0.063c0.064,0,0.127-0.005,0.196-0.016
			c0.069-0.01,0.133-0.027,0.196-0.048c0.069-0.016,0.127-0.042,0.191-0.069c0.058-0.032,0.117-0.064,0.165-0.095
			c0.005,0.011,0.01,0.032,0.016,0.059c0.005,0.026,0.005,0.053,0.005,0.079c0,0.064-0.021,0.122-0.064,0.175
			c-0.042,0.053-0.1,0.106-0.18,0.149c-0.08,0.042-0.175,0.074-0.286,0.101c-0.117,0.027-0.244,0.037-0.382,0.037
			c-0.153,0-0.292-0.027-0.424-0.085c-0.138-0.058-0.249-0.138-0.35-0.243c-0.101-0.106-0.18-0.234-0.238-0.382
			c-0.053-0.149-0.085-0.318-0.085-0.503c0-0.229,0.031-0.435,0.095-0.616c0.063-0.175,0.148-0.323,0.254-0.445
			c0.101-0.117,0.217-0.212,0.35-0.27c0.132-0.063,0.27-0.095,0.408-0.095c0.143,0,0.27,0.022,0.387,0.069
			c0.111,0.048,0.207,0.111,0.286,0.196c0.08,0.09,0.138,0.191,0.18,0.313c0.042,0.127,0.063,0.26,0.063,0.413
			c0,0.053,0,0.101,0,0.159C77.733,20.98,77.733,21.044,77.727,21.107z M77.266,20.492c-0.027-0.095-0.063-0.175-0.111-0.238
			c-0.048-0.063-0.101-0.111-0.17-0.143c-0.063-0.032-0.138-0.048-0.212-0.048c-0.074,0-0.143,0.022-0.217,0.064
			c-0.074,0.037-0.138,0.095-0.191,0.164c-0.058,0.069-0.101,0.153-0.138,0.244c-0.037,0.095-0.053,0.191-0.053,0.296h1.135
			C77.309,20.699,77.293,20.588,77.266,20.492z"/>
		<path fill="#1D1D1B" d="M80.096,22.385c-0.053,0-0.112-0.005-0.175-0.01c-0.058-0.005-0.117-0.016-0.17-0.037v-0.09
			c0.069-0.032,0.117-0.069,0.143-0.127c0.032-0.053,0.048-0.128,0.048-0.223v-1.012c0-0.127-0.016-0.238-0.037-0.328
			c-0.027-0.095-0.063-0.17-0.111-0.223c-0.048-0.058-0.101-0.1-0.164-0.127c-0.069-0.026-0.138-0.037-0.217-0.037
			c-0.106,0-0.212,0.016-0.308,0.048c-0.1,0.032-0.18,0.074-0.238,0.117v1.781l0.297,0.079v0.101
			c-0.048,0.016-0.09,0.032-0.132,0.042c-0.048,0.011-0.096,0.022-0.144,0.027c-0.048,0.005-0.1,0.01-0.159,0.016
			c-0.053,0-0.111,0.005-0.18,0.005c-0.063,0-0.132-0.005-0.201-0.01c-0.069-0.005-0.138-0.016-0.196-0.037v-0.09
			c0.037-0.011,0.069-0.026,0.101-0.048c0.037-0.021,0.063-0.042,0.09-0.069c0.027-0.021,0.048-0.048,0.069-0.08
			c0.016-0.026,0.021-0.059,0.021-0.09v-1.792l-0.345-0.143v-0.117c0.122-0.037,0.239-0.058,0.35-0.074
			c0.111-0.016,0.207-0.022,0.286-0.022h0.127V20.1c0.09-0.09,0.207-0.164,0.345-0.217c0.138-0.053,0.286-0.08,0.44-0.08
			c0.111,0,0.212,0.016,0.302,0.053c0.09,0.037,0.17,0.09,0.233,0.159c0.064,0.069,0.117,0.154,0.154,0.255
			c0.032,0.106,0.053,0.228,0.053,0.36v1.484l0.276,0.079v0.101C80.504,22.353,80.318,22.385,80.096,22.385z"/>
		<path fill="#1D1D1B" d="M84.075,21.107h-1.564c0,0.149,0.021,0.281,0.058,0.398c0.043,0.117,0.101,0.212,0.17,0.292
			c0.069,0.08,0.154,0.143,0.249,0.185c0.095,0.043,0.196,0.063,0.308,0.063c0.063,0,0.127-0.005,0.196-0.016
			c0.069-0.01,0.133-0.027,0.196-0.048c0.069-0.016,0.127-0.042,0.191-0.069c0.058-0.032,0.117-0.064,0.165-0.095
			c0.005,0.011,0.01,0.032,0.016,0.059c0.005,0.026,0.005,0.053,0.005,0.079c0,0.064-0.021,0.122-0.064,0.175
			c-0.042,0.053-0.1,0.106-0.18,0.149c-0.08,0.042-0.175,0.074-0.286,0.101c-0.117,0.027-0.244,0.037-0.382,0.037
			c-0.153,0-0.292-0.027-0.424-0.085c-0.138-0.058-0.249-0.138-0.35-0.243c-0.1-0.106-0.18-0.234-0.238-0.382
			c-0.053-0.149-0.085-0.318-0.085-0.503c0-0.229,0.032-0.435,0.095-0.616c0.063-0.175,0.148-0.323,0.254-0.445
			c0.101-0.117,0.217-0.212,0.35-0.27c0.132-0.063,0.27-0.095,0.408-0.095c0.143,0,0.27,0.022,0.387,0.069
			c0.111,0.048,0.207,0.111,0.286,0.196c0.08,0.09,0.138,0.191,0.18,0.313c0.042,0.127,0.063,0.26,0.063,0.413
			c0,0.053,0,0.101,0,0.159C84.08,20.98,84.08,21.044,84.075,21.107z M83.614,20.492c-0.027-0.095-0.063-0.175-0.111-0.238
			c-0.048-0.063-0.101-0.111-0.17-0.143c-0.063-0.032-0.138-0.048-0.212-0.048c-0.074,0-0.143,0.022-0.217,0.064
			c-0.074,0.037-0.138,0.095-0.191,0.164c-0.059,0.069-0.101,0.153-0.138,0.244c-0.037,0.095-0.053,0.191-0.053,0.296h1.135
			C83.656,20.699,83.64,20.588,83.614,20.492z"/>
		<path fill="#1D1D1B" d="M86.443,22.385c-0.053,0-0.112-0.005-0.175-0.01c-0.059-0.005-0.117-0.016-0.17-0.037v-0.09
			c0.069-0.032,0.117-0.069,0.143-0.127c0.032-0.053,0.048-0.128,0.048-0.223v-1.012c0-0.127-0.016-0.238-0.037-0.328
			c-0.026-0.095-0.063-0.17-0.111-0.223c-0.048-0.058-0.101-0.1-0.164-0.127c-0.069-0.026-0.138-0.037-0.217-0.037
			c-0.106,0-0.212,0.016-0.308,0.048c-0.1,0.032-0.18,0.074-0.238,0.117v1.781l0.297,0.079v0.101
			c-0.048,0.016-0.09,0.032-0.133,0.042c-0.048,0.011-0.095,0.022-0.143,0.027c-0.048,0.005-0.1,0.01-0.159,0.016
			c-0.053,0-0.111,0.005-0.18,0.005c-0.063,0-0.132-0.005-0.201-0.01c-0.069-0.005-0.138-0.016-0.196-0.037v-0.09
			c0.037-0.011,0.069-0.026,0.101-0.048c0.037-0.021,0.063-0.042,0.09-0.069c0.027-0.021,0.048-0.048,0.069-0.08
			c0.016-0.026,0.021-0.059,0.021-0.09v-1.792l-0.345-0.143v-0.117c0.122-0.037,0.239-0.058,0.35-0.074
			c0.111-0.016,0.207-0.022,0.286-0.022h0.127V20.1c0.09-0.09,0.207-0.164,0.345-0.217c0.138-0.053,0.286-0.08,0.44-0.08
			c0.111,0,0.212,0.016,0.302,0.053c0.09,0.037,0.17,0.09,0.233,0.159c0.064,0.069,0.117,0.154,0.154,0.255
			c0.032,0.106,0.053,0.228,0.053,0.36v1.484L87,22.194v0.101C86.852,22.353,86.666,22.385,86.443,22.385z"/>
		<path fill="#1D1D1B" d="M24.805,25.215c-0.043,0.058-0.074,0.133-0.101,0.223l-0.869,2.916l-0.207,0.021l-0.737-2.799h-0.005
			l-0.732,2.778l-0.201,0.021l-0.991-3.165l-0.292-0.09v-0.111c0.09-0.032,0.18-0.053,0.27-0.069
			c0.095-0.016,0.185-0.022,0.27-0.022c0.085,0,0.164,0,0.239,0.005c0.074,0.005,0.148,0.022,0.233,0.042v0.101
			c-0.085,0.016-0.138,0.053-0.164,0.101c-0.021,0.048-0.021,0.117,0,0.202l0.578,2.136h0.005l0.562-2.296l-0.281-0.085v-0.117
			c0.101-0.032,0.196-0.053,0.286-0.063c0.095-0.016,0.191-0.022,0.292-0.022c0.079,0,0.154,0.005,0.233,0.011
			c0.079,0.011,0.143,0.027,0.196,0.042v0.101c-0.101,0.037-0.138,0.127-0.101,0.275l0.514,2.147h0.005l0.583-2.285l-0.324-0.101
			v-0.111c0.101-0.027,0.191-0.053,0.286-0.063c0.09-0.016,0.18-0.022,0.27-0.022c0.074,0,0.133,0.005,0.185,0.011
			c0.053,0.011,0.106,0.027,0.159,0.042v0.095C24.901,25.109,24.848,25.162,24.805,25.215z"/>
		<path fill="#1D1D1B" d="M27.044,27.097h-1.564c0,0.148,0.021,0.281,0.058,0.397c0.042,0.117,0.101,0.212,0.17,0.292
			c0.069,0.08,0.154,0.143,0.249,0.185c0.096,0.043,0.196,0.064,0.308,0.064c0.064,0,0.127-0.005,0.196-0.016
			c0.069-0.01,0.133-0.026,0.196-0.048c0.069-0.015,0.127-0.042,0.191-0.068c0.058-0.032,0.117-0.064,0.164-0.095
			c0.005,0.01,0.011,0.032,0.016,0.058c0.005,0.027,0.005,0.053,0.005,0.08c0,0.063-0.021,0.121-0.064,0.175
			c-0.043,0.053-0.101,0.106-0.18,0.148c-0.08,0.043-0.175,0.074-0.286,0.101c-0.117,0.027-0.244,0.037-0.382,0.037
			c-0.154,0-0.292-0.027-0.424-0.085c-0.138-0.058-0.249-0.138-0.35-0.244c-0.101-0.106-0.18-0.233-0.239-0.382
			c-0.053-0.149-0.085-0.318-0.085-0.504c0-0.228,0.032-0.435,0.095-0.615c0.064-0.175,0.149-0.323,0.255-0.445
			c0.101-0.116,0.217-0.211,0.35-0.27c0.133-0.064,0.27-0.095,0.408-0.095c0.143,0,0.27,0.021,0.387,0.069
			c0.111,0.048,0.207,0.111,0.286,0.196c0.08,0.09,0.138,0.191,0.18,0.313c0.043,0.127,0.064,0.26,0.064,0.413
			c0,0.053,0,0.1,0,0.159C27.05,26.97,27.05,27.034,27.044,27.097z M26.583,26.482c-0.027-0.095-0.064-0.175-0.111-0.238
			s-0.101-0.112-0.17-0.143c-0.064-0.032-0.138-0.048-0.212-0.048c-0.074,0-0.143,0.021-0.217,0.063
			c-0.074,0.037-0.138,0.096-0.191,0.164c-0.058,0.069-0.101,0.154-0.138,0.244c-0.037,0.095-0.053,0.191-0.053,0.297h1.134
			C26.626,26.689,26.61,26.577,26.583,26.482z"/>
		<path fill="#1D1D1B" d="M29.042,26.164c-0.016,0.058-0.037,0.111-0.064,0.159c-0.048-0.037-0.101-0.068-0.159-0.09
			c-0.058-0.021-0.111-0.032-0.17-0.032c-0.164,0-0.318,0.074-0.466,0.217v1.686l0.366,0.08v0.101
			c-0.042,0.016-0.09,0.032-0.138,0.042c-0.043,0.011-0.09,0.021-0.143,0.027c-0.053,0.005-0.111,0.01-0.17,0.016
			c-0.064,0-0.133,0.005-0.207,0.005c-0.08,0-0.154-0.005-0.223-0.011c-0.074-0.005-0.143-0.016-0.201-0.037v-0.09
			c0.037-0.011,0.069-0.027,0.101-0.048c0.037-0.021,0.064-0.042,0.09-0.069c0.027-0.021,0.048-0.048,0.069-0.079
			c0.016-0.027,0.021-0.059,0.021-0.09v-1.792l-0.344-0.143v-0.117c0.122-0.037,0.238-0.059,0.35-0.074
			c0.111-0.016,0.207-0.021,0.286-0.021h0.127v0.371h0.005l0.149-0.164c0.069-0.08,0.149-0.138,0.223-0.175
			c0.074-0.037,0.154-0.059,0.244-0.059c0.185,0,0.276,0.074,0.276,0.228C29.063,26.053,29.058,26.106,29.042,26.164z"/>
		<path fill="#1D1D1B" d="M31.511,28.348c-0.064,0.016-0.133,0.027-0.212,0.027c-0.074,0-0.143-0.016-0.207-0.048
			c-0.063-0.032-0.117-0.085-0.17-0.154l-0.864-1.139v1.07l0.276,0.085v0.101c-0.048,0.016-0.095,0.032-0.143,0.037
			c-0.043,0.011-0.09,0.021-0.138,0.027c-0.048,0.01-0.095,0.016-0.148,0.016c-0.048,0.005-0.106,0.005-0.17,0.005
			c-0.058,0-0.127-0.005-0.196-0.011c-0.074-0.005-0.143-0.016-0.201-0.037v-0.09c0.037-0.011,0.074-0.027,0.106-0.048
			c0.037-0.021,0.064-0.042,0.09-0.069c0.027-0.021,0.048-0.048,0.069-0.079c0.016-0.027,0.021-0.059,0.021-0.09v-3.075l-0.35-0.143
			v-0.117c0.122-0.037,0.244-0.058,0.355-0.074c0.111-0.011,0.207-0.021,0.281-0.021h0.18l-0.032,0.297v2.121l0.292-0.255
			c0.069-0.064,0.143-0.127,0.207-0.202c0.064-0.074,0.122-0.148,0.175-0.222c0.048-0.075,0.09-0.154,0.117-0.223
			c0.032-0.074,0.048-0.143,0.048-0.201c0.048-0.016,0.096-0.027,0.138-0.032c0.043-0.005,0.09-0.011,0.143-0.011
			c0.043,0,0.08,0.005,0.111,0.011c0.032,0.011,0.069,0.021,0.101,0.037c0,0.059-0.021,0.122-0.048,0.191
			c-0.032,0.075-0.074,0.154-0.133,0.234c-0.059,0.08-0.138,0.164-0.223,0.249c-0.09,0.085-0.196,0.175-0.318,0.26l-0.185,0.132
			l0.816,0.992c0.074,0.09,0.143,0.154,0.212,0.196c0.063,0.037,0.127,0.058,0.18,0.058v0.112
			C31.633,28.3,31.569,28.332,31.511,28.348z"/>
		<path fill="#1D1D1B" d="M34.15,26.148c-0.085-0.021-0.175-0.032-0.27-0.042c-0.095-0.011-0.191-0.016-0.297-0.016v0.005
			c0.042,0.032,0.085,0.074,0.122,0.117c0.037,0.042,0.069,0.09,0.095,0.138c0.027,0.053,0.048,0.106,0.064,0.159
			c0.011,0.058,0.021,0.111,0.021,0.164c0,0.154-0.032,0.292-0.09,0.419c-0.058,0.127-0.138,0.238-0.233,0.329
			c-0.101,0.09-0.212,0.159-0.345,0.211c-0.127,0.048-0.265,0.075-0.408,0.075c-0.058,0-0.117-0.005-0.175-0.016
			c-0.058-0.011-0.106-0.026-0.154-0.048c-0.021,0.011-0.043,0.027-0.058,0.048c-0.021,0.016-0.037,0.037-0.059,0.064
			c-0.016,0.021-0.026,0.042-0.037,0.069c-0.011,0.027-0.016,0.048-0.016,0.074c0,0.079,0.032,0.143,0.09,0.18
			c0.064,0.042,0.143,0.064,0.249,0.064l0.742-0.005c0.222,0,0.398,0.042,0.514,0.143c0.122,0.101,0.18,0.254,0.18,0.45
			c0,0.127-0.032,0.244-0.101,0.36c-0.064,0.112-0.154,0.207-0.27,0.292c-0.117,0.085-0.249,0.154-0.408,0.202
			c-0.159,0.048-0.329,0.074-0.514,0.074c-0.17,0-0.313-0.016-0.44-0.048c-0.127-0.032-0.233-0.074-0.318-0.132
			c-0.085-0.053-0.148-0.122-0.191-0.196c-0.042-0.074-0.063-0.159-0.063-0.244c0-0.069,0.011-0.138,0.037-0.202
			c0.026-0.059,0.063-0.117,0.106-0.17c0.048-0.048,0.101-0.095,0.159-0.133c0.063-0.037,0.127-0.063,0.201-0.085v-0.005
			c-0.095-0.037-0.175-0.085-0.228-0.159c-0.058-0.069-0.085-0.154-0.085-0.255c0-0.053,0.011-0.101,0.032-0.149
			c0.016-0.053,0.043-0.095,0.08-0.138c0.032-0.042,0.074-0.085,0.117-0.117c0.043-0.032,0.09-0.058,0.143-0.074v-0.005
			c-0.063-0.027-0.122-0.059-0.175-0.106c-0.058-0.042-0.111-0.095-0.154-0.159c-0.042-0.063-0.079-0.138-0.106-0.217
			c-0.027-0.079-0.042-0.164-0.042-0.255c0-0.148,0.026-0.286,0.085-0.413c0.053-0.127,0.127-0.238,0.222-0.334
			c0.095-0.095,0.212-0.17,0.339-0.223c0.127-0.053,0.265-0.079,0.408-0.079c0.053,0,0.111,0.005,0.17,0.016
			c0.058,0.011,0.111,0.027,0.164,0.043c0.053,0.016,0.101,0.031,0.143,0.053c0.043,0.021,0.074,0.042,0.095,0.063
			c0.027-0.021,0.053-0.042,0.09-0.063c0.037-0.022,0.074-0.037,0.117-0.053c0.042-0.016,0.085-0.027,0.127-0.037
			c0.048-0.01,0.09-0.016,0.133-0.016c0.042,0,0.09,0.005,0.127,0.01c0.043,0.005,0.074,0.011,0.101,0.021L34.15,26.148z
			 M33.599,28.608c-0.069-0.058-0.164-0.085-0.292-0.085h-0.854c-0.037,0.016-0.074,0.042-0.106,0.069
			c-0.032,0.032-0.064,0.063-0.085,0.101c-0.027,0.037-0.043,0.08-0.058,0.122c-0.016,0.042-0.021,0.09-0.021,0.132
			c0,0.058,0.016,0.106,0.043,0.154c0.027,0.053,0.074,0.095,0.127,0.127c0.058,0.037,0.127,0.069,0.212,0.09
			c0.085,0.021,0.186,0.032,0.297,0.032c0.127,0,0.239-0.016,0.345-0.042c0.101-0.032,0.191-0.069,0.265-0.112
			c0.074-0.048,0.127-0.101,0.17-0.164c0.037-0.059,0.058-0.122,0.058-0.185C33.699,28.746,33.667,28.666,33.599,28.608z
			 M33.376,26.397c-0.027-0.08-0.069-0.149-0.117-0.207c-0.048-0.053-0.106-0.09-0.17-0.122c-0.064-0.027-0.133-0.037-0.202-0.037
			c-0.074,0-0.149,0.016-0.217,0.053c-0.064,0.032-0.122,0.085-0.175,0.148c-0.048,0.064-0.09,0.143-0.122,0.234
			c-0.027,0.095-0.043,0.196-0.043,0.313c0,0.112,0.016,0.212,0.043,0.292c0.026,0.085,0.063,0.154,0.111,0.207
			c0.048,0.053,0.106,0.095,0.164,0.122c0.064,0.027,0.127,0.042,0.191,0.042c0.08,0,0.159-0.016,0.228-0.042
			c0.069-0.031,0.127-0.074,0.18-0.138c0.053-0.064,0.096-0.143,0.122-0.238c0.032-0.095,0.048-0.207,0.048-0.334
			C33.418,26.577,33.402,26.482,33.376,26.397z"/>
		<path fill="#1D1D1B" d="M36.386,27.097h-1.564c0,0.148,0.021,0.281,0.058,0.397c0.042,0.117,0.101,0.212,0.17,0.292
			c0.069,0.08,0.154,0.143,0.249,0.185c0.096,0.043,0.196,0.064,0.308,0.064c0.064,0,0.127-0.005,0.196-0.016
			c0.069-0.01,0.133-0.026,0.196-0.048c0.069-0.015,0.127-0.042,0.191-0.068c0.058-0.032,0.117-0.064,0.164-0.095
			c0.005,0.01,0.011,0.032,0.016,0.058c0.005,0.027,0.005,0.053,0.005,0.08c0,0.063-0.021,0.121-0.064,0.175
			c-0.043,0.053-0.101,0.106-0.18,0.148c-0.08,0.043-0.175,0.074-0.286,0.101c-0.117,0.027-0.244,0.037-0.382,0.037
			c-0.154,0-0.292-0.027-0.424-0.085c-0.138-0.058-0.249-0.138-0.35-0.244c-0.101-0.106-0.18-0.233-0.239-0.382
			c-0.053-0.149-0.085-0.318-0.085-0.504c0-0.228,0.032-0.435,0.095-0.615c0.064-0.175,0.149-0.323,0.255-0.445
			c0.101-0.116,0.217-0.211,0.35-0.27c0.133-0.064,0.27-0.095,0.408-0.095c0.143,0,0.27,0.021,0.387,0.069
			c0.111,0.048,0.207,0.111,0.286,0.196c0.08,0.09,0.138,0.191,0.18,0.313c0.042,0.127,0.064,0.26,0.064,0.413
			c0,0.053,0,0.1,0,0.159C36.391,26.97,36.391,27.034,36.386,27.097z M35.925,26.482c-0.027-0.095-0.064-0.175-0.111-0.238
			s-0.101-0.112-0.17-0.143c-0.064-0.032-0.138-0.048-0.212-0.048c-0.074,0-0.143,0.021-0.217,0.063
			c-0.074,0.037-0.138,0.096-0.191,0.164c-0.058,0.069-0.101,0.154-0.138,0.244c-0.037,0.095-0.053,0.191-0.053,0.297h1.134
			C35.967,26.689,35.951,26.577,35.925,26.482z"/>
		<path fill="#1D1D1B" d="M37.689,28.327c-0.048,0.011-0.095,0.021-0.143,0.027c-0.048,0.005-0.101,0.01-0.159,0.016
			c-0.053,0-0.111,0.005-0.18,0.005c-0.064,0-0.133-0.005-0.202-0.011c-0.069-0.005-0.138-0.016-0.196-0.037v-0.09
			c0.037-0.011,0.069-0.027,0.101-0.048c0.037-0.021,0.064-0.042,0.09-0.069c0.027-0.021,0.048-0.048,0.069-0.079
			c0.016-0.027,0.021-0.059,0.021-0.09v-3.075l-0.344-0.143v-0.117c0.058-0.016,0.122-0.032,0.18-0.042
			c0.058-0.01,0.117-0.021,0.175-0.032c0.053-0.005,0.106-0.011,0.154-0.016c0.048,0,0.09-0.005,0.127-0.005h0.17l-0.026,0.297
			v3.286l0.297,0.08v0.101C37.774,28.3,37.731,28.316,37.689,28.327z"/>
		<path fill="#1D1D1B" d="M40.201,27.097h-1.564c0,0.148,0.021,0.281,0.058,0.397c0.042,0.117,0.101,0.212,0.17,0.292
			c0.069,0.08,0.154,0.143,0.249,0.185c0.095,0.043,0.196,0.064,0.308,0.064c0.064,0,0.127-0.005,0.196-0.016
			c0.069-0.01,0.133-0.026,0.196-0.048c0.069-0.015,0.127-0.042,0.191-0.068c0.058-0.032,0.117-0.064,0.164-0.095
			c0.005,0.01,0.011,0.032,0.016,0.058s0.005,0.053,0.005,0.08c0,0.063-0.021,0.121-0.064,0.175
			c-0.043,0.053-0.101,0.106-0.18,0.148c-0.08,0.043-0.175,0.074-0.286,0.101c-0.117,0.027-0.244,0.037-0.382,0.037
			c-0.154,0-0.292-0.027-0.424-0.085c-0.138-0.058-0.249-0.138-0.35-0.244c-0.101-0.106-0.18-0.233-0.239-0.382
			c-0.053-0.149-0.085-0.318-0.085-0.504c0-0.228,0.032-0.435,0.096-0.615c0.063-0.175,0.148-0.323,0.254-0.445
			c0.101-0.116,0.218-0.211,0.35-0.27c0.133-0.064,0.27-0.095,0.408-0.095c0.143,0,0.27,0.021,0.387,0.069
			c0.111,0.048,0.207,0.111,0.286,0.196c0.08,0.09,0.138,0.191,0.18,0.313c0.042,0.127,0.063,0.26,0.063,0.413
			c0,0.053,0,0.1,0,0.159C40.206,26.97,40.206,27.034,40.201,27.097z M39.74,26.482c-0.027-0.095-0.064-0.175-0.111-0.238
			s-0.101-0.112-0.17-0.143c-0.064-0.032-0.138-0.048-0.212-0.048c-0.074,0-0.143,0.021-0.217,0.063
			c-0.074,0.037-0.138,0.096-0.191,0.164c-0.058,0.069-0.101,0.154-0.138,0.244c-0.037,0.095-0.053,0.191-0.053,0.297h1.134
			C39.782,26.689,39.766,26.577,39.74,26.482z"/>
		<path fill="#1D1D1B" d="M42.908,26.148c-0.085-0.021-0.175-0.032-0.27-0.042c-0.095-0.011-0.191-0.016-0.297-0.016v0.005
			c0.042,0.032,0.085,0.074,0.122,0.117c0.037,0.042,0.069,0.09,0.095,0.138c0.027,0.053,0.048,0.106,0.064,0.159
			c0.011,0.058,0.021,0.111,0.021,0.164c0,0.154-0.032,0.292-0.09,0.419c-0.058,0.127-0.138,0.238-0.233,0.329
			c-0.101,0.09-0.212,0.159-0.345,0.211c-0.127,0.048-0.265,0.075-0.408,0.075c-0.058,0-0.117-0.005-0.175-0.016
			c-0.058-0.011-0.106-0.026-0.154-0.048c-0.021,0.011-0.043,0.027-0.058,0.048c-0.021,0.016-0.037,0.037-0.058,0.064
			c-0.016,0.021-0.027,0.042-0.037,0.069c-0.011,0.027-0.016,0.048-0.016,0.074c0,0.079,0.032,0.143,0.09,0.18
			c0.064,0.042,0.143,0.064,0.249,0.064l0.742-0.005c0.222,0,0.398,0.042,0.514,0.143c0.122,0.101,0.18,0.254,0.18,0.45
			c0,0.127-0.032,0.244-0.101,0.36c-0.064,0.112-0.154,0.207-0.27,0.292c-0.117,0.085-0.249,0.154-0.408,0.202
			c-0.159,0.048-0.329,0.074-0.514,0.074c-0.17,0-0.313-0.016-0.44-0.048c-0.127-0.032-0.233-0.074-0.318-0.132
			c-0.085-0.053-0.148-0.122-0.191-0.196c-0.042-0.074-0.063-0.159-0.063-0.244c0-0.069,0.011-0.138,0.037-0.202
			c0.026-0.059,0.063-0.117,0.106-0.17c0.048-0.048,0.101-0.095,0.159-0.133c0.063-0.037,0.127-0.063,0.201-0.085v-0.005
			c-0.095-0.037-0.175-0.085-0.228-0.159c-0.058-0.069-0.085-0.154-0.085-0.255c0-0.053,0.011-0.101,0.032-0.149
			c0.016-0.053,0.043-0.095,0.08-0.138c0.032-0.042,0.074-0.085,0.117-0.117c0.043-0.032,0.09-0.058,0.143-0.074v-0.005
			c-0.064-0.027-0.122-0.059-0.175-0.106c-0.058-0.042-0.111-0.095-0.154-0.159c-0.042-0.063-0.079-0.138-0.106-0.217
			c-0.027-0.079-0.042-0.164-0.042-0.255c0-0.148,0.026-0.286,0.085-0.413c0.053-0.127,0.127-0.238,0.223-0.334
			c0.095-0.095,0.212-0.17,0.339-0.223c0.127-0.053,0.265-0.079,0.408-0.079c0.053,0,0.111,0.005,0.17,0.016
			c0.058,0.011,0.111,0.027,0.164,0.043c0.053,0.016,0.101,0.031,0.143,0.053c0.043,0.021,0.074,0.042,0.095,0.063
			c0.027-0.021,0.053-0.042,0.09-0.063c0.037-0.022,0.074-0.037,0.117-0.053c0.043-0.016,0.085-0.027,0.127-0.037
			c0.048-0.01,0.09-0.016,0.133-0.016c0.042,0,0.09,0.005,0.127,0.01c0.043,0.005,0.074,0.011,0.101,0.021L42.908,26.148z
			 M42.357,28.608c-0.069-0.058-0.164-0.085-0.292-0.085h-0.854c-0.037,0.016-0.074,0.042-0.106,0.069
			c-0.032,0.032-0.064,0.063-0.085,0.101c-0.027,0.037-0.043,0.08-0.058,0.122c-0.016,0.042-0.021,0.09-0.021,0.132
			c0,0.058,0.016,0.106,0.043,0.154c0.027,0.053,0.074,0.095,0.127,0.127c0.058,0.037,0.127,0.069,0.212,0.09
			c0.085,0.021,0.186,0.032,0.297,0.032c0.127,0,0.239-0.016,0.345-0.042c0.101-0.032,0.191-0.069,0.265-0.112
			c0.074-0.048,0.127-0.101,0.17-0.164c0.037-0.059,0.058-0.122,0.058-0.185C42.458,28.746,42.426,28.666,42.357,28.608z
			 M42.134,26.397c-0.027-0.08-0.069-0.149-0.117-0.207c-0.048-0.053-0.106-0.09-0.17-0.122c-0.064-0.027-0.133-0.037-0.202-0.037
			c-0.074,0-0.148,0.016-0.217,0.053c-0.064,0.032-0.122,0.085-0.175,0.148c-0.048,0.064-0.09,0.143-0.122,0.234
			c-0.027,0.095-0.043,0.196-0.043,0.313c0,0.112,0.016,0.212,0.043,0.292c0.026,0.085,0.063,0.154,0.111,0.207
			c0.048,0.053,0.106,0.095,0.164,0.122c0.064,0.027,0.127,0.042,0.191,0.042c0.08,0,0.159-0.016,0.228-0.042
			c0.069-0.031,0.127-0.074,0.18-0.138c0.053-0.064,0.096-0.143,0.122-0.238c0.032-0.095,0.048-0.207,0.048-0.334
			C42.177,26.577,42.161,26.482,42.134,26.397z"/>
		<path fill="#1D1D1B" d="M45.144,27.097h-1.564c0,0.148,0.021,0.281,0.058,0.397c0.042,0.117,0.101,0.212,0.17,0.292
			c0.069,0.08,0.154,0.143,0.249,0.185c0.095,0.043,0.196,0.064,0.308,0.064c0.064,0,0.127-0.005,0.196-0.016
			c0.069-0.01,0.133-0.026,0.196-0.048c0.069-0.015,0.127-0.042,0.191-0.068c0.058-0.032,0.117-0.064,0.164-0.095
			c0.005,0.01,0.011,0.032,0.016,0.058c0.005,0.027,0.005,0.053,0.005,0.08c0,0.063-0.021,0.121-0.064,0.175
			c-0.042,0.053-0.101,0.106-0.18,0.148c-0.08,0.043-0.175,0.074-0.286,0.101c-0.117,0.027-0.244,0.037-0.382,0.037
			c-0.154,0-0.292-0.027-0.424-0.085c-0.138-0.058-0.249-0.138-0.35-0.244c-0.101-0.106-0.18-0.233-0.239-0.382
			c-0.053-0.149-0.085-0.318-0.085-0.504c0-0.228,0.032-0.435,0.096-0.615c0.063-0.175,0.148-0.323,0.254-0.445
			c0.101-0.116,0.218-0.211,0.35-0.27c0.133-0.064,0.27-0.095,0.408-0.095c0.143,0,0.27,0.021,0.387,0.069
			c0.111,0.048,0.207,0.111,0.286,0.196c0.08,0.09,0.138,0.191,0.18,0.313c0.042,0.127,0.063,0.26,0.063,0.413
			c0,0.053,0,0.1,0,0.159C45.15,26.97,45.15,27.034,45.144,27.097z M44.683,26.482c-0.027-0.095-0.064-0.175-0.111-0.238
			s-0.101-0.112-0.17-0.143c-0.064-0.032-0.138-0.048-0.212-0.048c-0.074,0-0.143,0.021-0.217,0.063
			c-0.074,0.037-0.138,0.096-0.191,0.164c-0.058,0.069-0.101,0.154-0.138,0.244c-0.037,0.095-0.053,0.191-0.053,0.297h1.134
			C44.725,26.689,44.71,26.577,44.683,26.482z"/>
		<path fill="#1D1D1B" d="M47.513,28.374c-0.053,0-0.111-0.005-0.175-0.011c-0.058-0.005-0.117-0.016-0.17-0.037v-0.09
			c0.069-0.032,0.117-0.069,0.143-0.127c0.032-0.053,0.048-0.127,0.048-0.223v-1.012c0-0.127-0.016-0.238-0.037-0.328
			c-0.027-0.095-0.064-0.17-0.111-0.223c-0.048-0.058-0.101-0.1-0.164-0.127c-0.069-0.027-0.138-0.037-0.218-0.037
			c-0.106,0-0.212,0.016-0.307,0.048c-0.101,0.032-0.18,0.074-0.238,0.116v1.781l0.297,0.08v0.101
			c-0.048,0.016-0.09,0.032-0.133,0.042c-0.048,0.011-0.095,0.021-0.143,0.027c-0.048,0.005-0.101,0.01-0.159,0.016
			c-0.053,0-0.111,0.005-0.18,0.005c-0.064,0-0.133-0.005-0.202-0.011c-0.069-0.005-0.138-0.016-0.196-0.037v-0.09
			c0.037-0.011,0.069-0.027,0.101-0.048c0.037-0.021,0.064-0.042,0.09-0.069c0.027-0.021,0.048-0.048,0.069-0.079
			c0.016-0.027,0.021-0.059,0.021-0.09v-1.792l-0.344-0.143v-0.117c0.122-0.037,0.238-0.059,0.35-0.074
			c0.111-0.016,0.207-0.021,0.286-0.021h0.127v0.286c0.09-0.09,0.207-0.164,0.344-0.217c0.138-0.053,0.286-0.08,0.44-0.08
			c0.111,0,0.212,0.016,0.302,0.053c0.09,0.037,0.17,0.09,0.233,0.159c0.064,0.069,0.117,0.154,0.154,0.255
			c0.032,0.106,0.053,0.228,0.053,0.36v1.484l0.276,0.08v0.101C47.921,28.342,47.735,28.374,47.513,28.374z"/>
		<path fill="#1D1D1B" d="M50.708,28.353c-0.095,0.01-0.196,0.021-0.313,0.021c-0.053,0-0.111-0.005-0.17-0.011
			c-0.063-0.005-0.117-0.016-0.17-0.037v-0.09c0.064-0.032,0.112-0.069,0.143-0.127c0.032-0.053,0.048-0.127,0.048-0.223v-1.012
			c0-0.127-0.01-0.238-0.037-0.328c-0.027-0.095-0.064-0.17-0.106-0.223c-0.048-0.058-0.106-0.1-0.169-0.127
			c-0.069-0.027-0.144-0.037-0.229-0.037c-0.048,0-0.1,0.005-0.153,0.01c-0.048,0.01-0.101,0.021-0.143,0.037
			c-0.048,0.016-0.09,0.032-0.133,0.053c-0.037,0.021-0.074,0.042-0.106,0.063v1.781l0.297,0.08v0.101
			c-0.048,0.016-0.09,0.032-0.133,0.042c-0.048,0.011-0.09,0.021-0.143,0.027c-0.048,0.005-0.101,0.01-0.154,0.016
			c-0.058,0-0.117,0.005-0.185,0.005c-0.058,0-0.127-0.005-0.196-0.011c-0.074-0.005-0.143-0.016-0.201-0.037v-0.09
			c0.037-0.011,0.069-0.027,0.106-0.048c0.032-0.021,0.064-0.042,0.09-0.069c0.027-0.021,0.048-0.048,0.064-0.079
			c0.016-0.027,0.021-0.059,0.021-0.09v-3.075l-0.344-0.143v-0.117c0.122-0.037,0.233-0.058,0.339-0.074
			c0.106-0.011,0.207-0.021,0.297-0.021h0.17l-0.026,0.297v1.267c0.095-0.09,0.207-0.164,0.334-0.217
			c0.122-0.048,0.27-0.075,0.435-0.075c0.111,0,0.217,0.016,0.307,0.053c0.09,0.037,0.17,0.09,0.234,0.159
			c0.063,0.069,0.117,0.154,0.148,0.255c0.037,0.106,0.053,0.228,0.053,0.36v1.484l0.276,0.08v0.101
			C50.883,28.316,50.798,28.338,50.708,28.353z"/>
		<path fill="#1D1D1B" d="M53.325,27.097h-1.564c0,0.148,0.021,0.281,0.058,0.397c0.042,0.117,0.101,0.212,0.17,0.292
			c0.068,0.08,0.153,0.143,0.249,0.185c0.095,0.043,0.196,0.064,0.307,0.064c0.064,0,0.127-0.005,0.196-0.016
			c0.069-0.01,0.133-0.026,0.196-0.048c0.069-0.015,0.127-0.042,0.191-0.068c0.058-0.032,0.117-0.064,0.165-0.095
			c0.005,0.01,0.01,0.032,0.016,0.058c0.005,0.027,0.005,0.053,0.005,0.08c0,0.063-0.021,0.121-0.063,0.175
			c-0.043,0.053-0.101,0.106-0.18,0.148c-0.08,0.043-0.175,0.074-0.287,0.101c-0.116,0.027-0.244,0.037-0.382,0.037
			c-0.153,0-0.292-0.027-0.424-0.085c-0.138-0.058-0.249-0.138-0.35-0.244c-0.101-0.106-0.18-0.233-0.238-0.382
			c-0.053-0.149-0.085-0.318-0.085-0.504c0-0.228,0.032-0.435,0.095-0.615c0.063-0.175,0.148-0.323,0.254-0.445
			c0.101-0.116,0.217-0.211,0.35-0.27c0.133-0.064,0.27-0.095,0.408-0.095c0.143,0,0.27,0.021,0.387,0.069
			c0.112,0.048,0.207,0.111,0.286,0.196c0.08,0.09,0.138,0.191,0.18,0.313c0.042,0.127,0.063,0.26,0.063,0.413
			c0,0.053,0,0.1,0,0.159C53.331,26.97,53.331,27.034,53.325,27.097z M52.864,26.482c-0.027-0.095-0.064-0.175-0.112-0.238
			s-0.101-0.112-0.17-0.143c-0.063-0.032-0.138-0.048-0.212-0.048c-0.074,0-0.143,0.021-0.218,0.063
			c-0.074,0.037-0.138,0.096-0.191,0.164c-0.058,0.069-0.101,0.154-0.138,0.244c-0.037,0.095-0.053,0.191-0.053,0.297h1.135
			C52.907,26.689,52.891,26.577,52.864,26.482z"/>
		<path fill="#1D1D1B" d="M54.628,28.327c-0.048,0.011-0.09,0.021-0.143,0.027c-0.048,0.005-0.101,0.01-0.154,0.016
			c-0.058,0-0.117,0.005-0.185,0.005c-0.058,0-0.127-0.005-0.196-0.011c-0.074-0.005-0.143-0.016-0.202-0.037v-0.09
			c0.037-0.011,0.069-0.027,0.106-0.048c0.032-0.021,0.064-0.042,0.09-0.069c0.027-0.021,0.048-0.048,0.064-0.079
			c0.016-0.027,0.021-0.059,0.021-0.09v-1.792l-0.339-0.143v-0.112c0.122-0.037,0.239-0.059,0.35-0.074
			c0.112-0.021,0.207-0.027,0.281-0.027h0.17l-0.027,0.286v2.014l0.297,0.08v0.101C54.713,28.3,54.671,28.316,54.628,28.327z
			 M54.527,25.119c-0.016,0.037-0.037,0.075-0.063,0.101c-0.027,0.032-0.058,0.053-0.095,0.069
			c-0.037,0.021-0.074,0.026-0.117,0.026c-0.037,0-0.074-0.005-0.112-0.021c-0.032-0.016-0.063-0.037-0.09-0.063
			c-0.022-0.027-0.042-0.058-0.059-0.095c-0.016-0.037-0.021-0.08-0.021-0.122c0-0.042,0.005-0.079,0.021-0.116
			c0.011-0.037,0.032-0.069,0.059-0.101c0.027-0.032,0.058-0.053,0.095-0.069c0.037-0.016,0.08-0.026,0.127-0.026
			c0.037,0,0.074,0.005,0.106,0.021c0.032,0.01,0.064,0.032,0.09,0.058c0.026,0.022,0.042,0.053,0.058,0.09
			c0.016,0.032,0.021,0.075,0.021,0.117C54.549,25.035,54.543,25.077,54.527,25.119z"/>
		<path fill="#1D1D1B" d="M57.215,28.295c-0.059,0.037-0.127,0.08-0.202,0.117c-0.053-0.042-0.1-0.09-0.148-0.148
			c-0.043-0.059-0.08-0.117-0.106-0.17c-0.042,0.042-0.09,0.085-0.148,0.122c-0.053,0.037-0.111,0.069-0.17,0.095
			c-0.063,0.027-0.122,0.048-0.185,0.063c-0.064,0.016-0.122,0.021-0.175,0.021c-0.133,0-0.26-0.027-0.377-0.08
			c-0.117-0.053-0.217-0.132-0.307-0.228c-0.085-0.101-0.154-0.223-0.207-0.366c-0.048-0.143-0.074-0.302-0.074-0.477
			c0-0.238,0.032-0.45,0.101-0.631c0.069-0.185,0.159-0.339,0.275-0.461c0.112-0.127,0.249-0.223,0.403-0.286
			c0.153-0.064,0.313-0.095,0.487-0.095c0.064,0,0.127,0.005,0.196,0.01c0.069,0.005,0.127,0.016,0.17,0.027v-0.933l-0.36-0.143
			v-0.117c0.122-0.037,0.244-0.058,0.36-0.074c0.122-0.011,0.217-0.021,0.297-0.021h0.17l-0.032,0.297v3.038
			c0.022,0.053,0.048,0.106,0.08,0.159c0.032,0.053,0.069,0.106,0.122,0.148C57.331,28.21,57.273,28.252,57.215,28.295z
			 M56.753,26.127c-0.042-0.016-0.101-0.027-0.175-0.043c-0.069-0.01-0.138-0.016-0.212-0.016c-0.111,0-0.217,0.021-0.313,0.069
			c-0.095,0.042-0.18,0.112-0.255,0.202c-0.069,0.09-0.122,0.202-0.164,0.339c-0.037,0.138-0.058,0.297-0.058,0.482
			c0,0.143,0.016,0.27,0.053,0.382c0.037,0.112,0.085,0.207,0.144,0.281c0.058,0.074,0.122,0.133,0.201,0.17
			c0.074,0.042,0.154,0.058,0.238,0.058c0.053,0,0.101-0.005,0.154-0.011c0.053-0.011,0.101-0.022,0.149-0.037
			c0.048-0.016,0.09-0.032,0.132-0.053c0.043-0.022,0.074-0.042,0.106-0.069V26.127z"/>
	</g>
</g>
</svg>
