<?xml version="1.0" encoding="utf-8"?>
<!-- Generator: Adobe Illustrator 16.0.0, SVG Export Plug-In . SVG Version: 6.00 Build 0)  -->
<!DOCTYPE svg PUBLIC "-//W3C//DTD SVG 1.1//EN" "http://www.w3.org/Graphics/SVG/1.1/DTD/svg11.dtd">
<svg version="1.1" xmlns="http://www.w3.org/2000/svg" xmlns:xlink="http://www.w3.org/1999/xlink" x="0px" y="0px" width="512px" height="512px" viewBox="-122.553 -122.554 512 512" enable-background="new -122.553 -122.554 512 512"
	 xml:space="preserve">

	<g id="GooglePlus">
		<path d="M146.985,169.721l-23.449-18.212c-7.14-5.921-16.907-13.739-16.907-28.048c0-14.372,9.767-23.506,18.244-31.963
			c27.309-21.5,54.604-44.38,54.604-92.6c0-49.583-31.198-75.665-46.15-88.042h40.315l42.316-26.588H87.755
			c-35.179,0-85.874,8.324-122.991,38.965c-27.973,24.133-41.618,57.412-41.618,87.369c0,50.853,39.045,102.402,107.995,102.402
			c6.514,0,13.636-0.638,20.805-1.305c-3.219,7.835-6.476,14.36-6.476,25.432c0,20.195,10.379,32.584,19.528,44.312
			c-29.299,2.018-83.992,5.26-124.311,30.043c-38.398,22.834-50.083,56.067-50.083,79.527c0,48.284,45.509,93.256,139.877,93.256
			c111.907,0,171.148-61.919,171.148-123.218C201.643,216.01,175.624,193.843,146.985,169.721z M61.748,94.735
			c-55.981,0-81.342-72.37-81.342-116.038c0-17.004,3.22-34.555,14.292-48.266C5.135-82.624,23.315-91.098,40.285-91.098
			c53.969,0,81.959,73.02,81.959,119.981c0,11.75-1.293,32.572-16.257,47.628C95.519,86.951,78.008,94.735,61.748,94.735z
			 M62.389,356.946c-69.614,0-114.505-33.303-114.505-79.608c0-46.289,41.624-61.948,55.946-67.134
			c27.312-9.192,62.462-10.474,68.326-10.474c6.505,0,9.758,0,14.941,0.655c49.488,35.217,70.971,52.772,70.971,86.115
			C158.068,326.873,124.872,356.946,62.389,356.946z" />
		<polygon points="311.306,93.74 311.306,28.544 279.101,28.544 279.101,93.74 214.014,93.74 214.014,126.301 279.101,126.301
			279.101,191.894 311.306,191.894 311.306,126.301 376.72,126.301 376.72,93.74" />
	</g>

</svg>