<?xml version="1.0" encoding="utf-8"?>
<!-- Generator: Adobe Illustrator 16.0.0, SVG Export Plug-In . SVG Version: 6.00 Build 0)  -->
<!DOCTYPE svg PUBLIC "-//W3C//DTD SVG 1.1//EN" "http://www.w3.org/Graphics/SVG/1.1/DTD/svg11.dtd">
<svg version="1.1" xmlns="http://www.w3.org/2000/svg" xmlns:xlink="http://www.w3.org/1999/xlink" x="0px" y="0px" width="512px" height="512px" viewBox="-122.553 -122.554 512 512" enable-background="new -122.553 -122.554 512 512"
	 xml:space="preserve">

	<g id="LinkedIn">
		<rect x="-68.846" y="44.469" width="89.984" height="314.989"/>
		<path d="M-23.844-0.528c-24.881,0-45.002-20.126-45.002-45.012c0-24.86,20.122-45.002,45.002-45.002
			c24.885,0,44.981,20.142,44.981,45.002C21.138-20.654,1.042-0.528-23.844-0.528"/>
		<path d="M336.142,359.458h-90.004V179.45c0-24.86-20.102-44.982-44.982-44.982c-24.88,0-45.002,20.122-45.002,44.982v180.008
			H66.155V44.469h89.999v55.876c18.556-25.508,46.92-55.876,78.749-55.876c55.916,0,101.239,50.379,101.239,112.49V359.458z"/>
	</g>

</svg>