<?xml version="1.0" encoding="utf-8"?>
<!-- Generator: Adobe Illustrator 16.0.0, SVG Export Plug-In . SVG Version: 6.00 Build 0)  -->
<!DOCTYPE svg PUBLIC "-//W3C//DTD SVG 1.1//EN" "http://www.w3.org/Graphics/SVG/1.1/DTD/svg11.dtd">
<svg version="1.1" xmlns="http://www.w3.org/2000/svg" xmlns:xlink="http://www.w3.org/1999/xlink" x="0px" y="0px" width="512px" height="512px" viewBox="-122.553 -122.554 512 512" enable-background="new -122.553 -122.554 512 512"
	 xml:space="preserve">

	<g id="Twitter_Vogel">
		<path d="M328.712,32.303c0.141,4.384,0.246,8.819,0.246,13.254c0,135.455-101.359,291.639-286.607,291.639
			c-56.868,0-109.828-16.955-154.388-46.073c7.876,0.997,15.876,1.464,24.024,1.464c47.204,0,90.618-16.391,125.073-43.917
			c-44.067-0.828-81.266-30.469-94.075-71.13c6.152,1.221,12.469,1.796,18.929,1.796c9.204,0,18.1-1.263,26.514-3.599
			c-46.027-9.428-80.757-50.841-80.757-100.491c0-0.422,0-0.84,0.021-1.275c13.552,7.681,29.109,12.298,45.617,12.809
			C-73.719,68.429-91.501,37.037-91.501,1.472c0-18.778,4.947-36.38,13.631-51.528C-28.18,11.978,46.052,52.796,129.748,57.028
			c-1.745-7.49-2.596-15.314-2.596-23.334c0-56.606,45.062-102.498,100.688-102.498c29.023,0,55.191,12.458,73.508,32.378
			c22.99-4.607,44.521-13.142,64.002-24.888c-7.548,23.932-23.535,44.029-44.27,56.721c20.326-2.459,39.738-8.007,57.836-16.137
			C365.478-0.172,348.355,17.865,328.712,32.303"/>
	</g>

</svg>