<?xml version="1.0" encoding="utf-8"?>
<!-- Generator: Adobe Illustrator 16.0.0, SVG Export Plug-In . SVG Version: 6.00 Build 0)  -->
<!DOCTYPE svg PUBLIC "-//W3C//DTD SVG 1.1//EN" "http://www.w3.org/Graphics/SVG/1.1/DTD/svg11.dtd">
<svg version="1.1" xmlns="http://www.w3.org/2000/svg" xmlns:xlink="http://www.w3.org/1999/xlink" x="0px" y="0px"
	 width="512.161px" height="512.246px" viewBox="0 0 512.161 512.246" enable-background="new 0 0 512.161 512.246"
	 xml:space="preserve">

<g id="Kalender">
	<g>
		<path fill="#3E3E3E" d="M346,34.913C346,15.56,360.075,0,379.985,0C399.954,0,414,15.56,414,34.913V71.45
			c0,19.304-14.046,34.849-34.015,34.849c-19.91,0-33.985-15.545-33.985-34.849V34.913z"/>
		<path fill="#3E3E3E" d="M98,34.913C98,15.56,115.574,0,135.463,0C155.455,0,173,15.56,173,34.913V71.45
			c0,19.304-17.545,34.849-37.537,34.849C115.574,106.298,98,90.753,98,71.45V34.913z"/>
		<path fill="#3E3E3E" d="M0,512.246v-445h75.261c0,0,0,64.531,60.187,64.531c60.23,0,60.23-64.531,60.23-64.531h127.943
			c0,0,0,64.531,56.46,64.531c56.438,0,56.431-64.531,56.431-64.531H512l-0.228,445H0z M45,468.246h429v-270H45V468.246z"/>
		<polygon fill="#3E3E3E" points="345.287,242.246 376,242.246 376,417.246 339,417.246 339,271.246 338.694,271.246
			304.372,286.749 297.419,259.906 		"/>
		<path fill="#3E3E3E" d="M177.767,351.246H158v-36h19.127c14.141,0,31.883-8.362,31.883-23.125
			c0-10.449-8.628-19.719-26.569-19.719c-14.699,0-30.147,5.425-37.409,9.752l-8.585-29.847c10.87-6.72,32.133-13.362,55.688-13.362
			c38.248,0,59.133,19.449,59.133,43.284c0,18.534-10.268,33.218-33.268,40.407v0.569c23,3.744,39.412,19.588,39.412,42.607
			c0,30.564-27.785,53.085-73.484,53.085c-23.313,0-42.832-5.879-53.327-12.086l8.55-30.764
			c7.541,3.986,24.681,10.705,41.901,10.705c21.828,0,32.915-3.788,32.915-16.686C213.967,352.671,196.192,351.246,177.767,351.246z
			"/>
	</g>
</g>

</svg>