<?xml version="1.0" encoding="utf-8"?>
<!-- Generator: Adobe Illustrator 16.0.0, SVG Export Plug-In . SVG Version: 6.00 Build 0)  -->
<!DOCTYPE svg PUBLIC "-//W3C//DTD SVG 1.1//EN" "http://www.w3.org/Graphics/SVG/1.1/DTD/svg11.dtd">
<svg version="1.1" id="Layer_1" xmlns="http://www.w3.org/2000/svg" xmlns:xlink="http://www.w3.org/1999/xlink" x="0px" y="0px"
	 width="512px" height="512px" viewBox="0 0 512 512" enable-background="new 0 0 512 512" xml:space="preserve">
<g>
	<path fill="#010002" d="M255.8594,14.4976L5.8154,200.1924v295.3105h500V200.1924L255.8594,14.4976z M186.6743,147.0117
		c7.3438-13.3535,17.4556-23.3857,30.2729-30.0625c12.7915-6.7275,27.3906-10.1074,43.9023-10.1074
		c13.916,0,26.3389,2.7256,37.2188,8.0859c10.8623,5.4521,19.1406,13.0771,24.9375,23.0586
		c5.6621,9.9736,8.5977,20.8525,8.5977,32.6211c0,14.0586-4.3613,26.7666-13.0859,38.124
		c-10.9463,14.3438-24.8955,21.4985-41.9902,21.4985c-4.6055,0-8.0439-0.772-10.4102-2.3657
		c-2.2979-1.6523-3.9082-3.9673-4.6631-7.0791c-6.417,6.333-14.0205,9.5205-22.564,9.5205c-9.2144,0-16.835-3.1875-22.8994-9.4453
		c-6.0771-6.333-9.105-14.7793-9.105-25.2227c0-13.0264,3.6401-24.7949,10.9629-35.4648
		c8.9082-13.0264,20.2275-19.5527,34.1016-19.5527c9.873,0,17.1709,3.75,21.8428,11.2734l2.0723-9.1846h21.9932l-12.5488,59.2783
		c-0.7881,3.7998-1.1572,6.1738-1.1572,7.2725c0,1.4258,0.3105,2.3652,0.9219,3.1123c0.6211,0.6792,1.4014,1.0483,2.2568,1.0483
		c2.7266,0,6.1396-1.5688,10.334-4.8232c5.6709-4.1353,10.2168-9.8477,13.7148-16.8516c3.4814-7.0708,5.2842-14.3853,5.2842-21.9517
		c0-13.5381-4.9316-24.8706-14.8047-34.0386c-9.8809-9.0757-23.6875-13.6646-41.3359-13.6646
		c-15.0571,0-27.7773,3.0371-38.2124,9.1685c-10.439,6.0645-18.311,14.6538-23.6714,25.7261
		c-5.2632,11.0049-7.9053,22.5811-7.9053,34.5254c0,11.6094,3.0029,22.2197,8.8701,31.7402
		c5.9346,9.5879,14.2139,16.4995,24.8711,20.9199c10.6567,4.3535,22.9033,6.5342,36.6348,6.5342
		c13.1855,0,24.5771-1.8281,34.1475-5.5024c9.5791-3.6738,17.2207-9.1177,23.042-16.5244h17.6484
		c-5.5273,11.1978-13.999,19.9722-25.4492,26.3721c-13.1523,7.2554-29.1572,10.8794-48.0469,10.8794
		c-18.3447,0-34.1143-3.0615-47.4219-9.1934c-13.3286-6.1738-23.1934-15.2075-29.7354-27.2021
		c-6.4634-11.9868-9.6509-25.0469-9.6509-39.1895C175.6567,174.8604,179.293,160.3911,186.6743,147.0117z M23.4424,206.0391
		l184.479,123.0693L23.4424,471.1436V206.0391z M37.459,480.6133l218.4004-168.1387l218.3164,168.1387H37.459z M488.167,471.1436
		L303.7461,329.1084l184.4287-123.0693v265.1045H488.167z M264.8516,160.5166c2.9355,3.3223,4.3945,8.1113,4.3945,14.3525
		c0,5.5527-1.0898,11.5918-3.2285,17.9834c-2.0889,6.4844-4.6641,11.4331-7.6084,14.7803c-1.9883,2.3398-4.1353,4.0679-6.2158,5.167
		c-2.7598,1.5518-5.6992,2.3066-8.874,2.3066c-4.2446,0.0332-7.7344-1.6523-10.6318-4.9658
		c-2.8271-3.3135-4.228-8.4297-4.228-15.4341c0-5.2339,0.9985-11.2734,3.0659-18.0513c2.0674-6.811,5.0874-11.978,9.1304-15.6938
		c4.0684-3.6655,8.4595-5.4941,13.207-5.4941C258.2998,155.4922,261.9824,157.1699,264.8516,160.5166z"/>
</g>
</svg>
