<?xml version="1.0" encoding="utf-8"?>
<!-- Generator: Adobe Illustrator 16.0.0, SVG Export Plug-In . SVG Version: 6.00 Build 0)  -->
<!DOCTYPE svg PUBLIC "-//W3C//DTD SVG 1.1//EN" "http://www.w3.org/Graphics/SVG/1.1/DTD/svg11.dtd">
<svg version="1.1" xmlns="http://www.w3.org/2000/svg" xmlns:xlink="http://www.w3.org/1999/xlink" x="0px" y="0px" width="512px"
	 height="512px" viewBox="0 0 512 512" enable-background="new 0 0 512 512" xml:space="preserve">
<g id="Layer_1">
	<polygon points="345.351,352.305 345.337,352.317 480.69,206.685 474.099,200.557 250.894,440.713 27.678,200.547 21.086,206.674 
		155.127,350.894 153.114,349.16 17.212,506.993 24.31,513.105 145.336,372.539 153.582,362.972 159.724,355.84 248.588,451.452 
		250.888,449.314 253.193,451.458 339.198,358.922 475.059,510 481.75,503.982 	"/>
</g>
<g id="Layer_2">
	<path fill="none" stroke="#000000" stroke-width="9" stroke-miterlimit="10" d="M481.5,493.876c0,6.692-5.373,13.624-12,13.624
		h-441c-6.627,0-12-6.932-12-13.624V212.114c0-6.693,5.373-10.614,12-10.614h441c6.627,0,12,3.921,12,10.614V493.876z"/>
</g>
</svg>
