<?xml version="1.0" encoding="utf-8"?>
<!-- Generator: Adobe Illustrator 16.0.0, SVG Export Plug-In . SVG Version: 6.00 Build 0)  -->
<!DOCTYPE svg PUBLIC "-//W3C//DTD SVG 1.1//EN" "http://www.w3.org/Graphics/SVG/1.1/DTD/svg11.dtd">
<svg version="1.1" id="Layer_1" xmlns="http://www.w3.org/2000/svg" xmlns:xlink="http://www.w3.org/1999/xlink" x="0px" y="0px"
	 width="512px" height="512px" viewBox="0.0002 -0.0002 512 512" enable-background="new 0.0002 -0.0002 512 512"
	 xml:space="preserve">
<path d="M469.5002,196.9998h-441c-9.5605,0-16.5,6.3564-16.5,15.1143v281.7627c0,4.6074,1.9712,9.4854,5.292,13.0234l-0.0801,0.0928
	l7.0977,6.1123l1.2329-1.4316c0.9531,0.1992,1.9346,0.3262,2.9575,0.3262h441c9.7236,0,16.5-9.5508,16.5-18.123V212.114
	C486.0002,203.3562,479.0608,196.9998,469.5002,196.9998z M345.3508,352.3054l-0.0137,0.0117l131.5313-141.52
	c0.0801,0.4102,0.1318,0.8442,0.1318,1.3169v281.7627c0,1.335-0.3193,2.6592-0.8555,3.8721L345.3508,352.3054z M250.8938,440.7136
	L32.7463,205.9998h436.2939L250.8938,440.7136z M21.0002,493.8767V212.114c0-1.7183,0.5654-3.0122,1.4624-3.959l132.6646,142.7393
	l-2.0137-1.7344L23.219,500.0164C21.8821,498.3279,21.0002,496.115,21.0002,493.8767z M145.3362,372.5388l8.2461-9.5664
	l6.1416-7.1328l88.8643,95.6123l2.2998-2.1377l2.3047,2.1445l86.0049-92.5371l129.5664,144.0781H33.0105L145.3362,372.5388z"/>
</svg>
