<?xml version="1.0" encoding="utf-8"?>
<!-- Generator: Adobe Illustrator 16.0.0, SVG Export Plug-In . SVG Version: 6.00 Build 0)  -->
<!DOCTYPE svg PUBLIC "-//W3C//DTD SVG 1.1//EN" "http://www.w3.org/Graphics/SVG/1.1/DTD/svg11.dtd">
<svg version="1.1" id="Layer_1" xmlns:sketch="http://www.bohemiancoding.com/sketch/ns"
	 xmlns="http://www.w3.org/2000/svg" xmlns:xlink="http://www.w3.org/1999/xlink" x="0px" y="0px" width="512px" height="512px"
	 viewBox="-251.5 -251 512 512" enable-background="new -251.5 -251 512 512" xml:space="preserve">
<title>externe-link</title>
<desc>Created with Sketch.</desc>
<g id="Page-1" sketch:type="MSPage">
	<g id="TOP-Copy-5-_x2B_-Path-266-Copy" transform="translate(1.000000, 0.000000)" sketch:type="MSLayerGroup">
		<path id="TOP-Copy-5" sketch:type="MSShapeGroup" d="M113.654-55.619c-1.008,7.873-6.929,14.093-14.172,14.88
			c-7.243,0.755-13.731-4.158-15.494-11.731l-10.36-44.72L17.886-36.361C9.114-26.819-0.743-31.89-8.932-40.802
			c-8.188-8.928-12.817-19.683-4.047-29.241l76.748-83.708c0,0-0.315-1.417-2.268-0.173c-2.394,1.559-30.549,19.809-30.549,19.809
			l-29.192-8.062c-6.928-1.906-11.432-8.992-10.739-16.881c0.362-4.063,2.063-7.778,4.598-10.55
			c2.394-2.598,5.543-4.393,9.023-4.928l107.626-16.376c4.598-0.709,9.134,0.929,12.346,4.424c3.212,3.496,4.724,8.457,4.063,13.495
			L113.654-55.619L113.654-55.619z"/>
		<g id="Path-266">
			<polygon points="115.732,89.074 -121.171,89.074 -121.171,-150.586 -22.379,-150.586 -22.379,-118.337 -88.923,-118.337 
				-88.923,56.826 83.483,56.826 83.483,-17.245 115.732,-17.245 			"/>
		</g>
	</g>
</g>
</svg>
