<?xml version="1.0" standalone="no"?>
<!DOCTYPE svg PUBLIC "-//W3C//DTD SVG 1.1//EN" "http://www.w3.org/Graphics/SVG/1.1/DTD/svg11.dtd" >
<svg xmlns="http://www.w3.org/2000/svg">
<metadata></metadata>
<defs>
<font id="rijksoverheidsanstextbold" horiz-adv-x="1075" >
<font-face units-per-em="2048" ascent="1657" descent="-391" />
<missing-glyph horiz-adv-x="409" />
<glyph horiz-adv-x="2048" />
<glyph horiz-adv-x="2048" />
<glyph unicode="&#xd;" horiz-adv-x="2048" />
<glyph unicode=" "  horiz-adv-x="409" />
<glyph unicode="&#x09;" horiz-adv-x="409" />
<glyph unicode="&#xa0;" horiz-adv-x="409" />
<glyph unicode="!" horiz-adv-x="626" d="M182 1333l283 23l-25 -627v-299l-258 -6v909zM147 164q0 79 42.5 129.5t121.5 50.5q82 0 125 -46t43 -134q0 -77 -42.5 -125.5t-121.5 -48.5q-82 0 -125 44t-43 130z" />
<glyph unicode="&#x22;" horiz-adv-x="708" d="M100 965l-28 448h243l-28 -448h-187zM422 965l-29 448h244l-29 -448h-186z" />
<glyph unicode="#" horiz-adv-x="1267" d="M102 829l17 177h248l43 337h180l-41 -337h256l43 337h182l-43 -337h246l-19 -177h-249l-39 -313h241l-18 -176h-246l-39 -340h-182l41 340h-258l-41 -340h-180l41 340h-248l16 176h252l39 313h-242zM526 829l-39 -313h258l39 313h-258z" />
<glyph unicode="$" d="M432 -215v201h-4q-207 0 -340 22v230q178 -33 348 -33q131 0 206 48.5t75 115.5q0 63 -41 103t-160 81l-168 57q-244 81 -244 342q0 144 92.5 246.5t260.5 138.5v222h182v-201q144 0 285 -27l-17 -221q-150 27 -284 27q-131 0 -194.5 -42.5t-63.5 -113.5q0 -59 37.5 -97 t127.5 -67l166 -51q149 -47 217 -130.5t68 -215.5q0 -155 -97.5 -267t-269.5 -153v-215h-182z" />
<glyph unicode="%" horiz-adv-x="1683" d="M1030 1391l166 -66l-545 -1382l-166 65zM393 1358q71 0 129.5 -21t105.5 -65.5t73 -120.5t26 -178q0 -95 -29.5 -171t-79 -122.5t-111.5 -71t-130 -24.5q-332 0 -332 372q0 99 28.5 177t77 126.5t110.5 73.5t132 25zM387 1182q-56 0 -91.5 -48t-35.5 -159q0 -119 32 -166 t93 -47q58 0 92.5 45.5t34.5 144.5q0 230 -125 230zM1305 760q71 0 130 -21t105.5 -65.5t72 -120.5t25.5 -178q0 -95 -29 -171t-78.5 -122.5t-111.5 -71t-131 -24.5q-332 0 -332 372q0 99 28.5 177t77.5 126.5t111 73.5t132 25zM1298 584q-124 0 -124 -207q0 -119 31 -166 t91 -47q129 0 129 190q0 230 -127 230z" />
<glyph unicode="&#x26;" horiz-adv-x="1433" d="M616 -16q-273 0 -398.5 96.5t-125.5 290.5q0 108 73 192.5t210 126.5v6q-114 28 -174 100t-60 183q0 166 126.5 274.5t342.5 108.5q140 0 246 -33l-16 -213q-116 25 -228 25q-94 0 -147 -41t-53 -113q0 -87 71.5 -133.5t214.5 -46.5h66v-217h-86q-148 0 -226.5 -56.5 t-78.5 -148.5q0 -176 282 -176q175 0 281 122.5t106 338.5h-127v198h490v-198h-123q0 -322 -180 -504t-486 -182z" />
<glyph unicode="'" horiz-adv-x="387" d="M100 965l-28 448h243l-28 -448h-187z" />
<glyph unicode="(" horiz-adv-x="573" d="M59 485q0 233 80 453t228 405h176q-146 -203 -217.5 -407t-71.5 -442q0 -208 76.5 -432.5t212.5 -417.5h-176q-147 186 -227.5 401.5t-80.5 439.5z" />
<glyph unicode=")" horiz-adv-x="573" d="M514 504q0 -236 -79 -456t-228 -404h-176q144 204 216 408.5t72 441.5q0 209 -76.5 433t-211.5 416h176q148 -185 227.5 -400t79.5 -439z" />
<glyph unicode="*" horiz-adv-x="1116" d="M664 1104l278 113l62 -185l-287 -71l-41 -13l24 -28l191 -228l-154 -114l-155 249l-25 31l-22 -31l-154 -247l-160 108l193 230l24 30l-39 10l-286 74l53 182l280 -112l37 -15v39l-22 299h194l-20 -299v-36z" />
<glyph unicode="+" d="M133 508v199h303v303h199v-303h305v-199h-305v-305h-199v305h-303z" />
<glyph unicode="," horiz-adv-x="530" d="M98 176q0 70 46 119t120 49q76 0 122 -45.5t46 -134.5q0 -62 -53 -157t-114 -163.5t-87 -68.5h-115l115 262q-80 43 -80 139z" />
<glyph unicode="-" horiz-adv-x="798" d="M135 473v229h529v-229h-529z" />
<glyph unicode="." horiz-adv-x="530" d="M98 164q0 79 43 129.5t123 50.5t124 -46.5t44 -133.5q0 -77 -43 -125.5t-123 -48.5t-124 44.5t-44 129.5z" />
<glyph unicode="/" horiz-adv-x="645" d="M543 1384l182 -69l-623 -1712l-182 69z" />
<glyph unicode="0" d="M524 -18q-217 0 -341 126t-124 379q0 122 39 226t106 173.5t157 108.5t190 39q210 0 337.5 -132.5t127.5 -375.5q0 -123 -39.5 -226.5t-107.5 -172t-157 -107t-188 -38.5zM307 500q0 -307 232 -307q101 0 165 87.5t64 241.5q0 150 -60.5 225.5t-170.5 75.5 q-102 0 -166 -87.5t-64 -235.5z" />
<glyph unicode="1" horiz-adv-x="778" d="M47 766v195q192 55 375 55h135v-1016h-250v788q-131 0 -260 -22z" />
<glyph unicode="2" horiz-adv-x="1044" d="M141 758v227q177 45 328 45q202 0 308 -87t106 -243q0 -105 -69.5 -188t-195.5 -133l-126 -49q-102 -45 -156 -107v-2h602v-221h-819l-33 188q41 177 256 285l145 72q78 40 109 72.5t31 74.5q0 48 -50.5 76.5t-142.5 28.5q-146 0 -293 -39z" />
<glyph unicode="3" horiz-adv-x="950" d="M78 799v217h745l33 -205q-55 -113 -120.5 -193.5t-160.5 -142.5v-8q141 -32 221.5 -125t80.5 -225q0 -202 -177.5 -332.5t-468.5 -130.5h-174v207h170q188 0 289.5 63t101.5 178q0 72 -56.5 131.5t-153.5 85.5q-127 -59 -242 -81l-43 196q343 91 500 365h-545z" />
<glyph unicode="4" horiz-adv-x="1081" d="M883 1020v-815h155v-205h-155v-346h-244v346h-530l-54 166q119 596 570 854h258zM274 205h367v586h-4q-289 -202 -363 -586z" />
<glyph unicode="5" horiz-adv-x="1048" d="M870 1016v-217h-526v-260q73 6 137 6q221 0 337 -108.5t116 -289.5q0 -219 -177 -356t-468 -137h-170v205h180q173 0 276 68.5t103 187.5q0 101 -74 155t-225 54q-99 0 -242 -15v707h733z" />
<glyph unicode="6" d="M848 1354h113v-207h-117q-181 0 -305.5 -78t-184.5 -231l4 -4q102 57 254 57q185 0 292.5 -110.5t107.5 -309.5q0 -142 -64 -254.5t-172 -173.5t-239 -61q-209 0 -335 142t-126 421q0 201 56.5 356.5t160 254t243.5 148.5t312 50zM340 659q-6 -43 -6 -147 q0 -169 65 -253.5t158 -84.5q81 0 140 66t59 192q0 119 -64 184.5t-166 65.5q-106 0 -186 -23z" />
<glyph unicode="7" horiz-adv-x="970" d="M43 1016h842l37 -209q-457 -490 -457 -1155h-240q0 316 97.5 590.5t318.5 543.5v11h-598v219z" />
<glyph unicode="8" d="M549 1362q193 0 302.5 -91.5t109.5 -236.5q0 -111 -53.5 -186.5t-178.5 -147.5l78 -45q113 -65 158 -136t45 -177q0 -158 -133.5 -259t-346.5 -101q-215 0 -337.5 93t-122.5 238q0 104 61.5 189t202.5 166l-64 47q-82 62 -113.5 125t-31.5 157q0 67 34 133.5t90.5 117.5 t135.5 82.5t164 31.5zM545 1171q-79 0 -126.5 -43t-47.5 -114q0 -56 18 -86t72 -68l123 -86q76 55 110.5 111t34.5 123q0 76 -48 119.5t-136 43.5zM616 500l-139 88q-85 -63 -118 -116.5t-33 -127.5q0 -77 61 -124.5t164 -47.5q90 0 146.5 42.5t56.5 107.5q0 48 -30 88 t-108 90z" />
<glyph unicode="9" d="M227 -348h-110v205h116q180 0 307 83t185 240l-4 4q-109 -59 -252 -59q-179 0 -289 111.5t-110 308.5q0 215 135.5 352t335.5 137q210 0 333 -142t123 -419q0 -171 -37.5 -308t-105.5 -232t-164.5 -158.5t-211.5 -93t-251 -29.5zM733 360q8 43 8 144q0 173 -61 255.5 t-160 82.5q-89 0 -140.5 -64.5t-51.5 -191.5t57.5 -189.5t155.5 -62.5q121 0 192 26z" />
<glyph unicode=":" horiz-adv-x="530" d="M98 164q0 79 43 129.5t123 50.5t124 -46.5t44 -133.5q0 -77 -43 -125.5t-123 -48.5t-124 44.5t-44 129.5zM98 801q0 77 43 127.5t123 50.5t124 -46t44 -132q0 -77 -43 -126.5t-123 -49.5t-124 45t-44 131z" />
<glyph unicode=";" horiz-adv-x="530" d="M98 801q0 77 43 127.5t123 50.5t124 -46t44 -132q0 -77 -43 -126.5t-123 -49.5t-124 45t-44 131zM98 176q0 70 46 119t120 49q76 0 122 -45.5t46 -134.5q0 -62 -53 -157t-114 -163.5t-87 -68.5h-115l115 262q-80 43 -80 139z" />
<glyph unicode="&#x3c;" d="M426 610v-4l471 -278l-102 -181l-639 392v137l639 391l102 -180z" />
<glyph unicode="=" d="M133 324v198h807v-198h-807zM133 692v199h807v-199h-807z" />
<glyph unicode="&#x3e;" d="M649 604v4l-471 279l103 180l639 -391v-137l-639 -392l-103 181z" />
<glyph unicode="?" horiz-adv-x="942" d="M840 1047q0 -123 -49.5 -196t-174.5 -140l-100 -52q-84 -46 -84 -110q0 -54 31 -115l-205 -10q-65 65 -65 156q0 72 35.5 125t119.5 102l109 59q64 36 88 69t24 79q0 49 -49 80.5t-139 31.5q-143 0 -289 -57v223q169 66 354 66q177 0 285.5 -85.5t108.5 -225.5zM201 164 q0 79 43 129.5t123 50.5t124 -46.5t44 -133.5q0 -77 -43.5 -125.5t-122.5 -48.5q-80 0 -124 44.5t-44 129.5z" />
<glyph unicode="@" horiz-adv-x="1914" d="M1098 -197v-131q-145 -65 -359 -65q-104 0 -197.5 25.5t-177.5 83t-144.5 143t-96 212.5t-35.5 283q0 179 50.5 337.5t140.5 277.5t209 205.5t259.5 131t288.5 44.5q234 0 414 -91.5t278.5 -259.5t98.5 -389q0 -146 -43 -267.5t-114 -198.5t-161 -119.5t-186 -42.5 q-100 0 -156.5 42.5t-81.5 131.5h-6q-61 -80 -148.5 -124t-191.5 -44q-122 0 -196 100.5t-74 319.5q0 132 45 250t118 197.5t164.5 126t184.5 46.5q91 0 147 -20l195 22v-723q0 -157 82 -157q47 0 94 29t87 83.5t64.5 143.5t24.5 198q0 281 -178 443.5t-475 162.5 q-154 0 -295.5 -60.5t-249.5 -168t-172.5 -267t-64.5 -345.5q0 -152 41 -272.5t112.5 -196t165 -115t201.5 -39.5q76 0 171 15.5t167 41.5zM1071 303v508q-50 4 -102 4q-102 0 -173 -101t-71 -276q0 -132 30.5 -182.5t90.5 -50.5q66 0 117.5 22t107.5 76z" />
<glyph unicode="A" horiz-adv-x="1232" d="M817 1343l391 -1343h-307l-74 289h-454l-74 -289h-276l393 1343h401zM772 502l-166 620h-14l-166 -620h346z" />
<glyph unicode="B" horiz-adv-x="1196" d="M588 0h-418v1343h375q256 0 381 -86.5t125 -234.5q0 -121 -57.5 -201t-153.5 -116v-3q126 -26 196 -104t70 -195q0 -194 -131 -298.5t-387 -104.5zM518 586h-86v-375h146q118 0 181.5 49t63.5 143q0 90 -71.5 136.5t-233.5 46.5zM537 1133h-105v-351h94q123 0 183.5 45 t60.5 142q0 84 -53 124t-180 40z" />
<glyph unicode="C" horiz-adv-x="1093" d="M1059 236v-218q-88 -20 -142.5 -26t-156.5 -6q-143 0 -263 40.5t-210 118.5t-140.5 202.5t-50.5 283.5q0 177 54.5 317.5t150 229t221 134.5t271.5 46q126 0 264 -27l-19 -225q-116 20 -254 20q-86 0 -159 -30t-128.5 -87t-87.5 -148t-32 -206q0 -110 33 -197.5 t89.5 -140.5t126.5 -80.5t148 -27.5q135 0 285 27z" />
<glyph unicode="D" horiz-adv-x="1372" d="M549 0h-379v1343h391q346 0 530.5 -165t184.5 -467q0 -357 -190 -534t-537 -177zM436 1126v-909h125q207 0 320.5 116.5t113.5 364.5q0 207 -119 317.5t-331 110.5h-109z" />
<glyph unicode="E" horiz-adv-x="1003" d="M170 0v1343h717v-217h-451v-327h416v-217h-416v-365h457v-217h-723z" />
<glyph unicode="F" horiz-adv-x="1001" d="M170 0v1343h717v-217h-451v-344h428v-217h-428v-565h-266z" />
<glyph unicode="G" horiz-adv-x="1300" d="M727 465v217h453v-657q-195 -39 -408 -39q-314 0 -495 165.5t-181 479.5q0 179 54.5 319t153.5 228.5t232 134t295 45.5q164 0 308 -27l-19 -225q-141 20 -297 20q-207 0 -326.5 -122t-119.5 -349q0 -216 113 -334t290 -118q71 0 144 8v254h-197z" />
<glyph unicode="H" horiz-adv-x="1396" d="M961 0v571h-525v-571h-266v1343h266v-540h525v540h266v-1343h-266z" />
<glyph unicode="I" horiz-adv-x="604" d="M436 1343v-1343h-266v1343h266z" />
<glyph unicode="J" horiz-adv-x="720" d="M559 1343v-927q0 -428 -438 -428q-69 0 -105 8v227q62 -8 107 -8q78 0 124 53t46 152v923h266z" />
<glyph unicode="K" horiz-adv-x="1269" d="M170 1343h266v-548h111l387 548h305l-459 -628l473 -715h-331l-371 578h-115v-578h-266v1343z" />
<glyph unicode="L" horiz-adv-x="923" d="M170 0v1343h266v-1126h455v-217h-721z" />
<glyph unicode="M" horiz-adv-x="1744" d="M444 1092h-12l-35 -1092h-245l55 1343h418l252 -798h10l254 798h391l63 -1343h-262l-45 1092h-12l-268 -838h-283z" />
<glyph unicode="N" horiz-adv-x="1372" d="M797 0l-379 1085h-12v-1085h-236v1343h405l381 -1085h13v1085h235v-1343h-407z" />
<glyph unicode="O" horiz-adv-x="1480" d="M96 659q0 167 53 302.5t144.5 222t210 132.5t252.5 46q133 0 245.5 -41.5t198.5 -123t135 -213t49 -300.5q0 -167 -52.5 -302.5t-142.5 -221.5t-208 -132t-252 -46t-247.5 41.5t-200.5 122.5t-136 212.5t-49 300.5zM377 682q0 -122 28 -213t79 -144.5t115 -79.5t142 -26 q71 0 134 26t115.5 77.5t83 139t30.5 200.5q0 122 -28 213.5t-78.5 145t-114.5 79.5t-142 26q-72 0 -135.5 -26t-115.5 -78t-82.5 -139.5t-30.5 -200.5z" />
<glyph unicode="P" horiz-adv-x="1134" d="M436 457v-457h-266v1343h436q223 0 347 -115.5t124 -307.5q0 -213 -136 -342t-359 -129q-83 0 -146 8zM432 1133v-463q49 -8 115 -8q117 0 184.5 63t67.5 176q0 112 -59 172t-175 60h-133z" />
<glyph unicode="Q" horiz-adv-x="1480" d="M96 659q0 167 53 302.5t144.5 222t210 132.5t252.5 46q133 0 245.5 -41.5t198.5 -123t135 -213t49 -300.5q0 -240 -102.5 -406t-275.5 -241l342 -391h-328l-277 336h-14q-134 0 -247.5 41.5t-200.5 122.5t-136 212.5t-49 300.5zM377 682q0 -122 28 -213t79 -144.5 t115 -79.5t142 -26q71 0 134 26t115.5 77.5t83 139t30.5 200.5q0 122 -28 213.5t-78.5 145t-114.5 79.5t-142 26q-72 0 -135.5 -26t-115.5 -78t-82.5 -139.5t-30.5 -200.5z" />
<glyph unicode="R" horiz-adv-x="1193" d="M436 502v-502h-266v1343h401q251 0 382.5 -102.5t131.5 -273.5q0 -133 -64.5 -234.5t-176.5 -154.5l356 -578h-313l-293 502h-158zM432 1133v-424h143q105 0 168.5 61t63.5 166q0 100 -60.5 148.5t-193.5 48.5h-121z" />
<glyph unicode="S" horiz-adv-x="1083" d="M96 8v230q178 -33 348 -33q131 0 206 48.5t75 115.5q0 63 -41 103t-160 81l-168 57q-243 80 -243 342q0 181 141 293.5t391 112.5q146 0 287 -27l-17 -221q-150 27 -284 27q-131 0 -194.5 -42.5t-63.5 -113.5q0 -59 38 -97t128 -67l166 -51q149 -47 216.5 -130.5 t67.5 -215.5q0 -195 -148.5 -314.5t-404.5 -119.5q-207 0 -340 22z" />
<glyph unicode="T" horiz-adv-x="1093" d="M680 1126v-1126h-266v1126h-369v217h1004v-217h-369z" />
<glyph unicode="U" horiz-adv-x="1335" d="M664 -18q-255 0 -382.5 123.5t-127.5 359.5v878h266v-845q0 -279 256 -279q124 0 192 71t68 204v849h246v-858q0 -226 -139.5 -364.5t-378.5 -138.5z" />
<glyph unicode="V" horiz-adv-x="1218" d="M410 0l-387 1343h296l299 -1097h13l289 1097h276l-389 -1343h-397z" />
<glyph unicode="W" horiz-adv-x="1921" d="M369 0l-346 1343h296l254 -1097h13l260 819l-86 278h287l317 -1097h12l248 1097h274l-348 -1343h-368l-215 756h-11l-227 -756h-360z" />
<glyph unicode="X" horiz-adv-x="1202" d="M61 1343h312l235 -421h8l238 421h283l-387 -636l421 -707h-309l-270 475h-8l-267 -475h-286l422 688z" />
<glyph unicode="Y" horiz-adv-x="1128" d="M698 537v-537h-266v537l-416 806h299l267 -565h8l260 565h262z" />
<glyph unicode="Z" horiz-adv-x="1046" d="M92 1122v221h891v-210l-621 -904v-8h625v-221h-930v211l619 903v8h-584z" />
<glyph unicode="[" horiz-adv-x="559" d="M166 1343h348v-151h-166v-1407h166v-150h-348v1708z" />
<glyph unicode="\" horiz-adv-x="645" d="M-80 1315l182 69l623 -1712l-182 -69z" />
<glyph unicode="]" horiz-adv-x="559" d="M393 -365h-348v152h166v1407h-166v149h348v-1708z" />
<glyph unicode="^" d="M539 1368l446 -448l-137 -138l-309 312l-310 -312l-137 138z" />
<glyph unicode="_" horiz-adv-x="1048" d="M12 -274v196h1024v-196h-1024z" />
<glyph unicode="`" horiz-adv-x="858" d="M430 1425l148 -297h-187l-223 297h262z" />
<glyph unicode="a" horiz-adv-x="1030" d="M907 664v-664h-235v63q-118 -75 -285 -75q-155 0 -239.5 77t-84.5 207q0 151 115 237.5t348 86.5q27 0 73.5 -1t64.5 -1v45q0 82 -52.5 123t-173.5 41q-136 0 -286 -62l-33 211q182 76 366 76q422 0 422 -364zM319 293q0 -51 38.5 -80t105.5 -29q105 0 201 45v187 q-78 4 -129 4q-216 0 -216 -127z" />
<glyph unicode="b" horiz-adv-x="1144" d="M1063 543q0 -262 -156.5 -408.5t-419.5 -146.5q-165 0 -348 22v1409l252 13v-484q121 80 254 80q197 0 307.5 -124.5t110.5 -360.5zM807 524q0 137 -63.5 205t-176.5 68q-88 0 -178 -33v-553q54 -10 113 -10q305 0 305 323z" />
<glyph unicode="c" horiz-adv-x="847" d="M801 1008l-21 -228q-93 19 -176 19q-122 0 -194 -79t-72 -220q0 -149 73 -222t195 -73q90 0 191 26v-215q-95 -28 -215 -28q-235 0 -367.5 125.5t-132.5 375.5q0 124 40 227.5t109.5 172t161 106t195.5 37.5q117 0 213 -24z" />
<glyph unicode="d" horiz-adv-x="1148" d="M1010 1432v-1432h-244v70q-116 -82 -262 -82q-197 0 -309.5 127.5t-112.5 369.5q0 246 151 394.5t385 148.5q74 0 140 -14v405zM623 815q-130 0 -207.5 -84.5t-77.5 -232.5q0 -150 65.5 -221.5t178.5 -71.5q91 0 178 41v559q-78 10 -137 10z" />
<glyph unicode="e" horiz-adv-x="1032" d="M82 506q0 250 131.5 389t333.5 139q188 0 297.5 -111t109.5 -305q0 -124 -8 -184h-622q23 -121 97.5 -178t211.5 -57q149 0 291 45v-205q-91 -27 -159.5 -39t-164.5 -12q-244 0 -381 130t-137 388zM324 614h389q0 101 -50.5 164.5t-134.5 63.5q-80 0 -135.5 -60 t-68.5 -168z" />
<glyph unicode="f" horiz-adv-x="684" d="M176 825h-131v191h131v65q0 355 410 355q78 0 147 -17l-18 -192q-68 12 -121 12q-88 0 -128 -38t-40 -118v-67h246v-191h-244v-825h-252v825z" />
<glyph unicode="g" horiz-adv-x="1044" d="M317 272q0 -71 134 -71l235 -2q170 -1 249 -64t79 -184q0 -156 -135.5 -254t-403.5 -98q-217 0 -326.5 68.5t-109.5 189.5q0 72 44 130t120 87v6q-41 15 -65.5 52t-24.5 87t32.5 92.5t90.5 65.5v6q-75 37 -117.5 103.5t-42.5 160.5q0 179 117.5 280t314.5 101 q77 0 160 -22h331v-164h-159v-6q37 -22 62.5 -71t25.5 -114q0 -161 -113 -248.5t-326 -87.5q-61 0 -131 17q-41 -20 -41 -60zM504 479q194 0 194 195q0 180 -192 180q-89 0 -142 -50t-53 -145q0 -180 193 -180zM264 -90q0 -61 58 -95t174 -34q152 0 223.5 35t71.5 94 q0 89 -134 92l-342 10q-51 -39 -51 -102z" />
<glyph unicode="h" horiz-adv-x="1126" d="M752 0v612q0 97 -44 141t-133 44q-101 0 -184 -33v-764h-252v1419l252 13v-484q126 80 260 80q166 0 259.5 -93.5t93.5 -268.5v-666h-252z" />
<glyph unicode="i" horiz-adv-x="530" d="M391 1020v-1020h-252v1010zM119 1292q0 60 38.5 102t106.5 42q69 0 107.5 -40.5t38.5 -103.5q0 -58 -39 -98.5t-107 -40.5q-69 0 -107 38.5t-38 100.5z" />
<glyph unicode="j" horiz-adv-x="530" d="M391 1020v-1006q0 -97 -29.5 -172t-83.5 -123.5t-121.5 -77.5t-150.5 -40l-20 196q78 20 115.5 71t37.5 140v1002zM119 1292q0 60 38.5 102t106.5 42q69 0 107.5 -40.5t38.5 -103.5q0 -58 -39 -98.5t-107 -40.5q-69 0 -107 38.5t-38 100.5z" />
<glyph unicode="k" horiz-adv-x="1064" d="M391 465v-465h-252v1419l252 13v-777h84l281 361h282l-342 -426l367 -590h-303l-271 465h-98z" />
<glyph unicode="l" horiz-adv-x="530" d="M391 1432v-1432h-252v1419z" />
<glyph unicode="m" horiz-adv-x="1718" d="M1343 0v608q0 99 -43.5 144t-130.5 45q-54 0 -90 -6.5t-86 -26.5v-764h-252v608q0 100 -44 144.5t-130 44.5q-89 0 -176 -33v-764h-252v1010l244 10v-76q69 46 130 65t136 19q181 0 277 -113q148 113 319 113q167 0 258.5 -94t91.5 -270v-664h-252z" />
<glyph unicode="n" horiz-adv-x="1126" d="M752 0v612q0 97 -44 141t-133 44q-94 0 -184 -33v-764h-252v1010l244 10v-76q125 84 268 84q166 0 259.5 -93.5t93.5 -268.5v-666h-252z" />
<glyph unicode="o" horiz-adv-x="1159" d="M1077 526q0 -122 -41.5 -225.5t-112 -172.5t-163 -107.5t-195.5 -38.5q-219 0 -351 130.5t-132 374.5q0 122 41.5 226t111.5 173.5t163 108.5t196 39q219 0 351 -131.5t132 -376.5zM821 520q0 144 -65 218.5t-176 74.5q-105 0 -173.5 -83t-68.5 -234q0 -145 65 -219 t177 -74q104 0 172.5 83.5t68.5 233.5z" />
<glyph unicode="p" horiz-adv-x="1144" d="M139 -391v1401l244 10v-78q118 86 262 86q197 0 307.5 -122.5t110.5 -360.5q0 -265 -150 -411t-403 -146q-60 0 -119 12v-391h-252zM504 201q143 0 223 80.5t80 244.5q0 135 -63 203t-175 68q-93 0 -180 -33v-553q61 -10 115 -10z" />
<glyph unicode="q" horiz-adv-x="1148" d="M1010 1008v-1399h-250v457q-115 -78 -260 -78q-189 0 -303.5 125.5t-114.5 361.5q0 257 151 405t416 148q168 0 361 -20zM631 815q-138 0 -215.5 -82.5t-77.5 -240.5q0 -146 66 -216.5t178 -70.5q52 0 88.5 8.5t89.5 32.5v559q-72 10 -129 10z" />
<glyph unicode="r" horiz-adv-x="710" d="M719 1014l-17 -240q-60 14 -114 14q-104 0 -197 -67v-721h-252v1010l250 10v-117q50 67 100 96t111 29q67 0 119 -14z" />
<glyph unicode="s" horiz-adv-x="880" d="M82 14v217q133 -34 289 -34q102 0 144 24t42 68q0 36 -26.5 58.5t-102.5 45.5l-129 39q-219 64 -219 273q0 144 115.5 233.5t320.5 89.5q133 0 250 -20l-14 -211q-129 20 -248 20q-88 0 -131 -23t-43 -61q0 -36 21 -56.5t91 -39.5l121 -33q130 -36 188 -103.5t58 -172.5 q0 -159 -115.5 -249.5t-316.5 -90.5q-182 0 -295 26z" />
<glyph unicode="t" horiz-adv-x="737" d="M53 825v191h123v186l250 21v-207h256v-191h-256v-458q0 -82 41 -123t111 -41q61 0 129 18v-209q-96 -24 -205 -24q-153 0 -239.5 88t-86.5 256v493h-123z" />
<glyph unicode="u" horiz-adv-x="1112" d="M373 1020v-614q0 -104 39 -148.5t129 -44.5q89 0 182 41v756l250 10v-1020h-242v70q-76 -48 -130.5 -69t-125.5 -21q-176 0 -264 96.5t-88 279.5v654z" />
<glyph unicode="v" horiz-adv-x="987" d="M322 0l-318 1016h289l207 -821h16l205 821h262l-313 -1016h-348z" />
<glyph unicode="w" horiz-adv-x="1525" d="M1518 1016l-263 -1016h-340l-147 555h-6l-172 -555h-326l-258 1016h289l154 -819h10l205 630l-52 189h250l223 -819h11l159 819h263z" />
<glyph unicode="x" horiz-adv-x="964" d="M946 0h-282l-191 346h-8l-180 -346h-269l320 522l-303 494h295l170 -320h8l149 320h269l-291 -490z" />
<glyph unicode="y" horiz-adv-x="970" d="M328 23l-312 993h277l213 -793h8l188 793h254l-338 -1155q-80 -264 -387 -264q-78 0 -137 10v200q60 -8 129 -8q58 0 105.5 35t68.5 100l29 89h-98z" />
<glyph unicode="z" horiz-adv-x="899" d="M90 813v203h735v-189l-467 -618v-6h473v-203h-763v190l467 619v4h-445z" />
<glyph unicode="{" horiz-adv-x="653" d="M274 733v367q0 120 68.5 189t189.5 69q62 0 95 -8v-142q-93 0 -130.5 -21.5t-37.5 -78.5v-346q0 -240 -316 -273v-4q163 -11 239.5 -67t76.5 -166v-358q0 -68 37.5 -91.5t134.5 -23.5v-137q-51 -15 -92 -15q-265 0 -265 209v391q0 135 -233 191v147q121 18 177 63.5 t56 104.5z" />
<glyph unicode="|" horiz-adv-x="481" d="M145 1343h191v-1699h-191v1699z" />
<glyph unicode="}" horiz-adv-x="653" d="M381 252v-367q0 -120 -68.5 -189t-189.5 -69q-61 0 -94 8v142q91 0 128.5 21.5t37.5 78.5v346q0 240 315 273v4q-163 11 -239 67t-76 166v359q0 67 -37 90.5t-135 23.5v137q54 15 94 15q264 0 264 -211v-389q0 -135 231 -191v-147q-120 -18 -175.5 -63.5t-55.5 -104.5z " />
<glyph unicode="~" d="M889 731l63 -153q-48 -72 -104.5 -109t-140.5 -37q-43 0 -92 24.5t-86 53.5t-82.5 53.5t-81.5 24.5q-44 0 -91 -27.5t-86 -77.5l-65 156q110 149 262 149q46 0 95.5 -24t85 -53.5t79.5 -53.5t80 -24q88 0 164 98z" />
<glyph unicode="&#xa2;" d="M713 -43h-183v207q-174 35 -269 157t-95 332q0 205 100.5 343.5t263.5 181.5v208h183v-190q72 -2 164 -25l-21 -225q-112 19 -172 19q-121 0 -191.5 -79.5t-70.5 -219.5q0 -149 71 -222t193 -73q84 0 188 26v-217q-82 -24 -161 -24v-199z" />
<glyph unicode="&#xa3;" d="M496 809h270v-197h-270v-209q0 -67 -7 -108t-26 -82h262q126 0 244 41v-217q-90 -37 -256 -37h-631v213h96q28 35 39.5 72.5t11.5 103.5v223h-125v197h125v158q0 182 109 284.5t319 102.5q121 0 213 -25v-223q-89 24 -223 24q-151 0 -151 -153v-168z" />
<glyph unicode="&#xa5;" d="M133 371h277v135h-277v199h191l-308 638h299l240 -548h8l234 548h262l-307 -638h188v-199h-272v-135h272v-199h-268v-172h-266v172h-273v199z" />
<glyph unicode="&#xa8;" horiz-adv-x="880" d="M137 1286q0 60 32 97.5t91 37.5q62 0 93.5 -35.5t31.5 -99.5q0 -57 -32.5 -95t-92.5 -38q-61 0 -92 34.5t-31 98.5zM500 1286q0 60 32 97.5t91 37.5q62 0 93.5 -35.5t31.5 -99.5q0 -57 -32.5 -95t-92.5 -38q-61 0 -92 34.5t-31 98.5z" />
<glyph unicode="&#xa9;" horiz-adv-x="1601" d="M104 670q0 140 55.5 268.5t149 221t222.5 147.5t270 55q187 0 347 -93t253.5 -252.5t93.5 -346.5q0 -141 -55.5 -269.5t-148.5 -222t-221.5 -148.5t-268.5 -55q-141 0 -270 55t-222.5 148.5t-149 222t-55.5 269.5zM231 670q0 -155 76 -288t207.5 -211.5t286.5 -78.5 q154 0 284.5 78.5t206.5 211.5t76 288q0 154 -76 286.5t-206.5 210.5t-284.5 78q-116 0 -221.5 -46t-182 -123.5t-121.5 -184t-45 -221.5zM1044 440v-170q-100 -18 -198 -18q-204 0 -325.5 97.5t-121.5 287.5q0 143 64 244t168.5 148.5t238.5 47.5q65 0 174 -16l-12 -174 q-86 14 -168 14q-117 0 -186.5 -64.5t-69.5 -185.5q0 -115 70.5 -172t177.5 -57q90 0 188 18z" />
<glyph unicode="&#xab;" horiz-adv-x="1198" d="M432 76l-332 438l332 438h244l-311 -428l311 -448h-244zM850 76l-332 438l332 438h244l-312 -428l312 -448h-244z" />
<glyph unicode="&#xad;" horiz-adv-x="798" d="M135 473v229h529v-229h-529z" />
<glyph unicode="&#xae;" horiz-adv-x="1601" d="M104 670q0 140 55.5 268.5t149 221t222.5 147.5t270 55q187 0 347 -93t253.5 -252.5t93.5 -346.5q0 -141 -55.5 -269.5t-148.5 -222t-221.5 -148.5t-268.5 -55q-141 0 -270 55t-222.5 148.5t-149 222t-55.5 269.5zM231 670q0 -155 76 -288t207.5 -211.5t286.5 -78.5 q154 0 284.5 78.5t206.5 211.5t76 288q0 154 -76 286.5t-206.5 210.5t-284.5 78q-116 0 -221.5 -46t-182 -123.5t-121.5 -184t-45 -221.5zM694 522v-262h-196v809h276q179 0 263.5 -62t84.5 -169q0 -94 -40 -158t-113 -94l207 -326h-232l-151 262h-99zM692 915v-241h90 q67 0 101.5 34.5t34.5 96.5q0 56 -35.5 83t-124.5 27h-66z" />
<glyph unicode="&#xb4;" horiz-adv-x="858" d="M377 1128l145 297h264l-223 -297h-186z" />
<glyph unicode="&#xb8;" horiz-adv-x="1576" d="M291 -51l170 -12q86 -6 124 -35.5t38 -89.5q0 -91 -84 -147t-238 -56h-96v133h98q77 0 105 11.5t28 33.5q0 20 -23.5 32t-88.5 19l-33 4v107z" />
<glyph unicode="&#xbb;" horiz-adv-x="1198" d="M348 952l332 -438l-332 -438h-244l312 428l-312 448h244zM766 952l332 -438l-332 -438h-244l312 428l-312 448h244z" />
<glyph unicode="&#xc0;" horiz-adv-x="1232" d="M817 1343l391 -1343h-307l-74 289h-454l-74 -289h-276l393 1343h401zM772 502l-166 620h-14l-166 -620h346zM590 1774l147 -297h-186l-223 297h262z" />
<glyph unicode="&#xc1;" horiz-adv-x="1232" d="M817 1343l391 -1343h-307l-74 289h-454l-74 -289h-276l393 1343h401zM772 502l-166 620h-14l-166 -620h346zM502 1477l145 297h264l-223 -297h-186z" />
<glyph unicode="&#xc2;" horiz-adv-x="1232" d="M817 1343l391 -1343h-307l-74 289h-454l-74 -289h-276l393 1343h401zM772 502l-166 620h-14l-166 -620h346zM285 1477l229 297h221l211 -297h-217l-113 159h-12l-115 -159h-204z" />
<glyph unicode="&#xc4;" horiz-adv-x="1232" d="M817 1343l391 -1343h-307l-74 289h-454l-74 -289h-276l393 1343h401zM772 502l-166 620h-14l-166 -620h346zM305 1597q0 60 32 98t91 38q62 0 93.5 -36t31.5 -100q0 -57 -32.5 -95t-92.5 -38q-61 0 -92 34.5t-31 98.5zM680 1597q0 60 32 98t91 38q62 0 93.5 -36 t31.5 -100q0 -57 -32.5 -95t-92.5 -38q-61 0 -92 34.5t-31 98.5z" />
<glyph unicode="&#xc8;" horiz-adv-x="1003" d="M170 0v1343h717v-217h-451v-327h416v-217h-416v-365h457v-217h-723zM510 1774l147 -297h-186l-223 297h262z" />
<glyph unicode="&#xc9;" horiz-adv-x="1003" d="M170 0v1343h717v-217h-451v-327h416v-217h-416v-365h457v-217h-723zM422 1477l145 297h264l-223 -297h-186z" />
<glyph unicode="&#xca;" horiz-adv-x="1003" d="M170 0v1343h717v-217h-451v-327h416v-217h-416v-365h457v-217h-723zM205 1477l229 297h221l211 -297h-217l-112 159h-13l-114 -159h-205z" />
<glyph unicode="&#xcb;" horiz-adv-x="1003" d="M170 0v1343h717v-217h-451v-327h416v-217h-416v-365h457v-217h-723zM225 1597q0 60 32 98t91 38q62 0 93.5 -36t31.5 -100q0 -57 -32.5 -95t-92.5 -38q-61 0 -92 34.5t-31 98.5zM600 1597q0 60 32 98t91 38q62 0 93.5 -36t31.5 -100q0 -57 -32.5 -95t-92.5 -38 q-61 0 -92 34.5t-31 98.5z" />
<glyph unicode="&#xcc;" horiz-adv-x="604" d="M436 1343v-1343h-266v1343h266zM279 1774l147 -297h-186l-224 297h263z" />
<glyph unicode="&#xcd;" horiz-adv-x="604" d="M436 1343v-1343h-266v1343h266zM188 1477l146 297h264l-223 -297h-187z" />
<glyph unicode="&#xce;" horiz-adv-x="604" d="M436 1343v-1343h-266v1343h266zM-27 1477l230 297h221l211 -297h-217l-113 159h-12l-115 -159h-205z" />
<glyph unicode="&#xcf;" horiz-adv-x="604" d="M436 1343v-1343h-266v1343h266zM-6 1597q0 60 32 98t91 38q62 0 93.5 -36t31.5 -100q0 -57 -32.5 -95t-92.5 -38q-61 0 -92 34.5t-31 98.5zM369 1597q0 60 32 98t91 38q62 0 93 -35.5t31 -100.5q0 -57 -32 -95t-92 -38q-61 0 -92 34.5t-31 98.5z" />
<glyph unicode="&#xd2;" horiz-adv-x="1480" d="M96 659q0 167 53 302.5t144.5 222t210 132.5t252.5 46q133 0 245.5 -41.5t198.5 -123t135 -213t49 -300.5q0 -167 -52.5 -302.5t-142.5 -221.5t-208 -132t-252 -46t-247.5 41.5t-200.5 122.5t-136 212.5t-49 300.5zM377 682q0 -122 28 -213t79 -144.5t115 -79.5t142 -26 q71 0 134 26t115.5 77.5t83 139t30.5 200.5q0 122 -28 213.5t-78.5 145t-114.5 79.5t-142 26q-72 0 -135.5 -26t-115.5 -78t-82.5 -139.5t-30.5 -200.5zM715 1774l147 -297h-186l-223 297h262z" />
<glyph unicode="&#xd3;" horiz-adv-x="1480" d="M96 659q0 167 53 302.5t144.5 222t210 132.5t252.5 46q133 0 245.5 -41.5t198.5 -123t135 -213t49 -300.5q0 -167 -52.5 -302.5t-142.5 -221.5t-208 -132t-252 -46t-247.5 41.5t-200.5 122.5t-136 212.5t-49 300.5zM377 682q0 -122 28 -213t79 -144.5t115 -79.5t142 -26 q71 0 134 26t115.5 77.5t83 139t30.5 200.5q0 122 -28 213.5t-78.5 145t-114.5 79.5t-142 26q-72 0 -135.5 -26t-115.5 -78t-82.5 -139.5t-30.5 -200.5zM627 1477l145 297h264l-223 -297h-186z" />
<glyph unicode="&#xd4;" horiz-adv-x="1480" d="M96 659q0 167 53 302.5t144.5 222t210 132.5t252.5 46q133 0 245.5 -41.5t198.5 -123t135 -213t49 -300.5q0 -167 -52.5 -302.5t-142.5 -221.5t-208 -132t-252 -46t-247.5 41.5t-200.5 122.5t-136 212.5t-49 300.5zM377 682q0 -122 28 -213t79 -144.5t115 -79.5t142 -26 q71 0 134 26t115.5 77.5t83 139t30.5 200.5q0 122 -28 213.5t-78.5 145t-114.5 79.5t-142 26q-72 0 -135.5 -26t-115.5 -78t-82.5 -139.5t-30.5 -200.5zM410 1477l229 297h221l211 -297h-217l-113 159h-12l-115 -159h-204z" />
<glyph unicode="&#xd6;" horiz-adv-x="1480" d="M96 659q0 167 53 302.5t144.5 222t210 132.5t252.5 46q133 0 245.5 -41.5t198.5 -123t135 -213t49 -300.5q0 -167 -52.5 -302.5t-142.5 -221.5t-208 -132t-252 -46t-247.5 41.5t-200.5 122.5t-136 212.5t-49 300.5zM377 682q0 -122 28 -213t79 -144.5t115 -79.5t142 -26 q71 0 134 26t115.5 77.5t83 139t30.5 200.5q0 122 -28 213.5t-78.5 145t-114.5 79.5t-142 26q-72 0 -135.5 -26t-115.5 -78t-82.5 -139.5t-30.5 -200.5zM430 1597q0 60 32 98t91 38q62 0 93.5 -36t31.5 -100q0 -57 -32.5 -95t-92.5 -38q-61 0 -92 34.5t-31 98.5zM805 1597 q0 60 32 98t91 38q62 0 93.5 -36t31.5 -100q0 -57 -32.5 -95t-92.5 -38q-61 0 -92 34.5t-31 98.5z" />
<glyph unicode="&#xd9;" horiz-adv-x="1335" d="M664 -18q-255 0 -382.5 123.5t-127.5 359.5v878h266v-845q0 -279 256 -279q124 0 192 71t68 204v849h246v-858q0 -226 -139.5 -364.5t-378.5 -138.5zM643 1774l148 -297h-187l-223 297h262z" />
<glyph unicode="&#xda;" horiz-adv-x="1335" d="M664 -18q-255 0 -382.5 123.5t-127.5 359.5v878h266v-845q0 -279 256 -279q124 0 192 71t68 204v849h246v-858q0 -226 -139.5 -364.5t-378.5 -138.5zM555 1477l145 297h265l-224 -297h-186z" />
<glyph unicode="&#xdb;" horiz-adv-x="1335" d="M664 -18q-255 0 -382.5 123.5t-127.5 359.5v878h266v-845q0 -279 256 -279q124 0 192 71t68 204v849h246v-858q0 -226 -139.5 -364.5t-378.5 -138.5zM338 1477l229 297h221l211 -297h-217l-112 159h-13l-114 -159h-205z" />
<glyph unicode="&#xdc;" horiz-adv-x="1335" d="M664 -18q-255 0 -382.5 123.5t-127.5 359.5v878h266v-845q0 -279 256 -279q124 0 192 71t68 204v849h246v-858q0 -226 -139.5 -364.5t-378.5 -138.5zM358 1597q0 60 32 98t91 38q62 0 93.5 -36t31.5 -100q0 -57 -32.5 -95t-92.5 -38q-61 0 -92 34.5t-31 98.5zM733 1597 q0 60 32 98t91 38q62 0 93.5 -36t31.5 -100q0 -57 -32.5 -95t-92.5 -38q-61 0 -92 34.5t-31 98.5z" />
<glyph unicode="&#xdd;" horiz-adv-x="1128" d="M698 537v-537h-266v537l-416 806h299l267 -565h8l260 565h262zM451 1477l145 297h264l-223 -297h-186z" />
<glyph unicode="&#xe0;" horiz-adv-x="1030" d="M907 664v-664h-235v63q-118 -75 -285 -75q-155 0 -239.5 77t-84.5 207q0 151 115 237.5t348 86.5q27 0 73.5 -1t64.5 -1v45q0 82 -52.5 123t-173.5 41q-136 0 -286 -62l-33 211q182 76 366 76q422 0 422 -364zM319 293q0 -51 38.5 -80t105.5 -29q105 0 201 45v187 q-78 4 -129 4q-216 0 -216 -127zM471 1425l147 -297h-186l-223 297h262z" />
<glyph unicode="&#xe2;" horiz-adv-x="1030" d="M907 664v-664h-235v63q-118 -75 -285 -75q-155 0 -239.5 77t-84.5 207q0 151 115 237.5t348 86.5q27 0 73.5 -1t64.5 -1v45q0 82 -52.5 123t-173.5 41q-136 0 -286 -62l-33 211q182 76 366 76q422 0 422 -364zM319 293q0 -51 38.5 -80t105.5 -29q105 0 201 45v187 q-78 4 -129 4q-216 0 -216 -127zM166 1128l229 297h221l211 -297h-217l-112 160h-13l-114 -160h-205z" />
<glyph unicode="&#xe4;" horiz-adv-x="1030" d="M907 664v-664h-235v63q-118 -75 -285 -75q-155 0 -239.5 77t-84.5 207q0 151 115 237.5t348 86.5q27 0 73.5 -1t64.5 -1v45q0 82 -52.5 123t-173.5 41q-136 0 -286 -62l-33 211q182 76 366 76q422 0 422 -364zM319 293q0 -51 38.5 -80t105.5 -29q105 0 201 45v187 q-78 4 -129 4q-216 0 -216 -127zM199 1286q0 60 32 97.5t91 37.5q62 0 93 -35.5t31 -99.5q0 -57 -32 -95t-92 -38q-61 0 -92 34.5t-31 98.5zM561 1286q0 60 32 97.5t91 37.5q62 0 93.5 -35.5t31.5 -99.5q0 -57 -32.5 -95t-92.5 -38q-61 0 -92 34.5t-31 98.5z" />
<glyph unicode="&#xe8;" horiz-adv-x="1032" d="M82 506q0 250 131.5 389t333.5 139q188 0 297.5 -111t109.5 -305q0 -124 -8 -184h-622q23 -121 97.5 -178t211.5 -57q149 0 291 45v-205q-91 -27 -159.5 -39t-164.5 -12q-244 0 -381 130t-137 388zM324 614h389q0 101 -50.5 164.5t-134.5 63.5q-80 0 -135.5 -60 t-68.5 -168zM526 1425l148 -297h-187l-223 297h262z" />
<glyph unicode="&#xe9;" horiz-adv-x="1032" d="M436 1128l146 297h264l-223 -297h-187zM82 506q0 250 131.5 389t333.5 139q188 0 297.5 -111t109.5 -305q0 -124 -8 -184h-622q23 -121 97.5 -178t211.5 -57q149 0 291 45v-205q-91 -27 -159.5 -39t-164.5 -12q-244 0 -381 130t-137 388zM324 614h389q0 101 -50.5 164.5 t-134.5 63.5q-80 0 -135.5 -60t-68.5 -168z" />
<glyph unicode="&#xea;" horiz-adv-x="1032" d="M221 1128l230 297h221l211 -297h-217l-113 160h-12l-115 -160h-205zM82 506q0 250 131.5 389t333.5 139q188 0 297.5 -111t109.5 -305q0 -124 -8 -184h-622q23 -121 97.5 -178t211.5 -57q149 0 291 45v-205q-91 -27 -159.5 -39t-164.5 -12q-244 0 -381 130t-137 388z M324 614h389q0 101 -50.5 164.5t-134.5 63.5q-80 0 -135.5 -60t-68.5 -168z" />
<glyph unicode="&#xeb;" horiz-adv-x="1032" d="M246 1286q0 60 32 97.5t91 37.5q62 0 93.5 -35.5t31.5 -99.5q0 -57 -32.5 -95t-92.5 -38q-61 0 -92 34.5t-31 98.5zM608 1286q0 60 32 97.5t91 37.5q62 0 93.5 -35.5t31.5 -99.5q0 -57 -32.5 -95t-92.5 -38q-61 0 -92 34.5t-31 98.5zM82 506q0 250 131.5 389t333.5 139 q188 0 297.5 -111t109.5 -305q0 -124 -8 -184h-622q23 -121 97.5 -178t211.5 -57q149 0 291 45v-205q-91 -27 -159.5 -39t-164.5 -12q-244 0 -381 130t-137 388zM324 614h389q0 101 -50.5 164.5t-134.5 63.5q-80 0 -135.5 -60t-68.5 -168z" />
<glyph unicode="&#xec;" horiz-adv-x="530" d="M391 1020v-1020h-252v1010zM240 1425l147 -297h-186l-224 297h263z" />
<glyph unicode="&#xed;" horiz-adv-x="530" d="M150 1128l145 297h264l-223 -297h-186zM391 1020v-1020h-252v1010z" />
<glyph unicode="&#xee;" horiz-adv-x="530" d="M-66 1128l230 297h221l211 -297h-217l-113 160h-12l-115 -160h-205zM391 1020v-1020h-252v1010z" />
<glyph unicode="&#xef;" horiz-adv-x="530" d="M-39 1286q0 60 32 97.5t91 37.5q62 0 93.5 -35.5t31.5 -99.5q0 -57 -32.5 -95t-92.5 -38q-61 0 -92 34.5t-31 98.5zM324 1286q0 60 31.5 97.5t90.5 37.5q62 0 93.5 -35.5t31.5 -99.5q0 -57 -32.5 -95t-92.5 -38q-61 0 -91.5 34.5t-30.5 98.5zM391 1020v-1020h-252v1010z " />
<glyph unicode="&#xf2;" horiz-adv-x="1159" d="M1077 526q0 -122 -41.5 -225.5t-112 -172.5t-163 -107.5t-195.5 -38.5q-219 0 -351 130.5t-132 374.5q0 122 41.5 226t111.5 173.5t163 108.5t196 39q219 0 351 -131.5t132 -376.5zM821 520q0 144 -65 218.5t-176 74.5q-105 0 -173.5 -83t-68.5 -234q0 -145 65 -219 t177 -74q104 0 172.5 83.5t68.5 233.5zM555 1425l147 -297h-186l-223 297h262z" />
<glyph unicode="&#xf3;" horiz-adv-x="1159" d="M467 1128l145 297h265l-224 -297h-186zM1077 526q0 -122 -41.5 -225.5t-112 -172.5t-163 -107.5t-195.5 -38.5q-219 0 -351 130.5t-132 374.5q0 122 41.5 226t111.5 173.5t163 108.5t196 39q219 0 351 -131.5t132 -376.5zM821 520q0 144 -65 218.5t-176 74.5 q-105 0 -173.5 -83t-68.5 -234q0 -145 65 -219t177 -74q104 0 172.5 83.5t68.5 233.5z" />
<glyph unicode="&#xf4;" horiz-adv-x="1159" d="M250 1128l229 297h221l211 -297h-217l-112 160h-13l-114 -160h-205zM1077 526q0 -122 -41.5 -225.5t-112 -172.5t-163 -107.5t-195.5 -38.5q-219 0 -351 130.5t-132 374.5q0 122 41.5 226t111.5 173.5t163 108.5t196 39q219 0 351 -131.5t132 -376.5zM821 520 q0 144 -65 218.5t-176 74.5q-105 0 -173.5 -83t-68.5 -234q0 -145 65 -219t177 -74q104 0 172.5 83.5t68.5 233.5z" />
<glyph unicode="&#xf6;" horiz-adv-x="1159" d="M276 1286q0 60 32 97.5t91 37.5q62 0 93.5 -35.5t31.5 -99.5q0 -57 -32.5 -95t-92.5 -38q-61 0 -92 34.5t-31 98.5zM639 1286q0 60 32 97.5t91 37.5q62 0 93.5 -35.5t31.5 -99.5q0 -57 -32.5 -95t-92.5 -38q-61 0 -92 34.5t-31 98.5zM1077 526q0 -122 -41.5 -225.5 t-112 -172.5t-163 -107.5t-195.5 -38.5q-219 0 -351 130.5t-132 374.5q0 122 41.5 226t111.5 173.5t163 108.5t196 39q219 0 351 -131.5t132 -376.5zM821 520q0 144 -65 218.5t-176 74.5q-105 0 -173.5 -83t-68.5 -234q0 -145 65 -219t177 -74q104 0 172.5 83.5t68.5 233.5z " />
<glyph unicode="&#xf9;" horiz-adv-x="1112" d="M373 1020v-614q0 -104 39 -148.5t129 -44.5q89 0 182 41v756l250 10v-1020h-242v70q-76 -48 -130.5 -69t-125.5 -21q-176 0 -264 96.5t-88 279.5v654zM522 1425l148 -297h-187l-223 297h262z" />
<glyph unicode="&#xfa;" horiz-adv-x="1112" d="M434 1128l146 297h264l-223 -297h-187zM373 1020v-614q0 -104 39 -148.5t129 -44.5q89 0 182 41v756l250 10v-1020h-242v70q-76 -48 -130.5 -69t-125.5 -21q-176 0 -264 96.5t-88 279.5v654z" />
<glyph unicode="&#xfb;" horiz-adv-x="1112" d="M217 1128l229 297h222l211 -297h-217l-113 160h-12l-115 -160h-205zM373 1020v-614q0 -104 39 -148.5t129 -44.5q89 0 182 41v756l250 10v-1020h-242v70q-76 -48 -130.5 -69t-125.5 -21q-176 0 -264 96.5t-88 279.5v654z" />
<glyph unicode="&#xfc;" horiz-adv-x="1112" d="M244 1286q0 60 32 97.5t91 37.5q62 0 93.5 -35.5t31.5 -99.5q0 -57 -32.5 -95t-92.5 -38q-61 0 -92 34.5t-31 98.5zM606 1286q0 60 32 97.5t91 37.5q62 0 93.5 -35.5t31.5 -99.5q0 -57 -32.5 -95t-92.5 -38q-61 0 -92 34.5t-31 98.5zM373 1020v-614q0 -104 39 -148.5 t129 -44.5q89 0 182 41v756l250 10v-1020h-242v70q-76 -48 -130.5 -69t-125.5 -21q-176 0 -264 96.5t-88 279.5v654z" />
<glyph unicode="&#xfd;" horiz-adv-x="970" d="M328 23l-312 993h277l213 -793h8l188 793h254l-338 -1155q-80 -264 -387 -264q-78 0 -137 10v200q60 -8 129 -8q58 0 105.5 35t68.5 100l29 89h-98zM371 1128l145 297h264l-223 -297h-186z" />
<glyph unicode="&#xff;" horiz-adv-x="970" d="M328 23l-312 993h277l213 -793h8l188 793h254l-338 -1155q-80 -264 -387 -264q-78 0 -137 10v200q60 -8 129 -8q58 0 105.5 35t68.5 100l29 89h-98zM182 1286q0 60 32 97.5t91 37.5q62 0 93.5 -35.5t31.5 -99.5q0 -57 -32.5 -95t-92.5 -38q-61 0 -92 34.5t-31 98.5z M545 1286q0 60 32 97.5t91 37.5q62 0 93.5 -35.5t31.5 -99.5q0 -57 -32.5 -95t-92.5 -38q-61 0 -92 34.5t-31 98.5z" />
<glyph unicode="&#x178;" horiz-adv-x="1128" d="M698 537v-537h-266v537l-416 806h299l267 -565h8l260 565h262zM254 1597q0 60 32 98t91 38q62 0 93.5 -36t31.5 -100q0 -57 -32.5 -95t-92.5 -38q-61 0 -92 34.5t-31 98.5zM629 1597q0 60 32 98t91 38q62 0 93.5 -36t31.5 -100q0 -57 -32.5 -95t-92.5 -38q-61 0 -92 34.5 t-31 98.5z" />
<glyph unicode="&#x2c6;" horiz-adv-x="753" d="M43 1128l229 297h222l211 -297h-218l-112 160h-13l-114 -160h-205z" />
<glyph unicode="&#x2da;" horiz-adv-x="882" d="M283 1292q0 77 55.5 131t132.5 54q78 0 132 -53.5t54 -131.5q0 -77 -54.5 -132.5t-131.5 -55.5t-132.5 56t-55.5 132zM397 1292q0 -33 21 -55.5t53 -22.5q28 0 50 23t22 55q0 29 -22 52.5t-50 23.5q-31 0 -52.5 -23t-21.5 -53z" />
<glyph unicode="&#x2dc;" horiz-adv-x="798" d="M657 1372l43 -145q-68 -117 -186 -117q-41 0 -90.5 30t-95 59.5t-76.5 29.5q-75 0 -131 -74l-43 145q38 56 89.5 88.5t108.5 32.5q36 0 74.5 -18.5t66.5 -40.5t62 -40.5t60 -18.5q66 0 118 69z" />
<glyph unicode="&#x2000;" horiz-adv-x="887" />
<glyph unicode="&#x2001;" horiz-adv-x="1774" />
<glyph unicode="&#x2002;" horiz-adv-x="887" />
<glyph unicode="&#x2003;" horiz-adv-x="1774" />
<glyph unicode="&#x2004;" horiz-adv-x="591" />
<glyph unicode="&#x2005;" horiz-adv-x="443" />
<glyph unicode="&#x2006;" horiz-adv-x="295" />
<glyph unicode="&#x2007;" horiz-adv-x="295" />
<glyph unicode="&#x2008;" horiz-adv-x="221" />
<glyph unicode="&#x2009;" horiz-adv-x="354" />
<glyph unicode="&#x200a;" horiz-adv-x="98" />
<glyph unicode="&#x2010;" horiz-adv-x="798" d="M135 473v229h529v-229h-529z" />
<glyph unicode="&#x2011;" horiz-adv-x="798" d="M135 473v229h529v-229h-529z" />
<glyph unicode="&#x2012;" horiz-adv-x="798" d="M135 473v229h529v-229h-529z" />
<glyph unicode="&#x2013;" horiz-adv-x="1024" d="M59 485v205h906v-205h-906z" />
<glyph unicode="&#x2014;" horiz-adv-x="2048" d="M59 485v205h1930v-205h-1930z" />
<glyph unicode="&#x2018;" horiz-adv-x="530" d="M432 1022q0 -70 -46 -119t-120 -49q-77 0 -122.5 45.5t-45.5 134.5q0 62 53 157t114 163.5t87 68.5h115l-115 -262q80 -43 80 -139z" />
<glyph unicode="&#x2019;" horiz-adv-x="530" d="M98 1255q0 70 46 119t120 49q76 0 122 -45.5t46 -134.5q0 -62 -53 -157t-114 -163.5t-87 -68.5h-115l115 262q-80 43 -80 139z" />
<glyph unicode="&#x201a;" horiz-adv-x="530" d="M98 176q0 70 46 119t120 49q76 0 122 -45.5t46 -134.5q0 -62 -53 -157t-114 -163.5t-87 -68.5h-115l115 262q-80 43 -80 139z" />
<glyph unicode="&#x201c;" horiz-adv-x="952" d="M432 1022q0 -70 -46 -119t-120 -49q-77 0 -122.5 45.5t-45.5 134.5q0 62 53 157t114 163.5t87 68.5h115l-115 -262q80 -43 80 -139zM854 1022q0 -70 -46 -119t-120 -49q-76 0 -122 45.5t-46 134.5q0 62 53 157t114 163.5t87 68.5h115l-115 -262q80 -43 80 -139z" />
<glyph unicode="&#x201d;" horiz-adv-x="952" d="M98 1264q0 70 46 118t120 48q76 0 122 -45t46 -134q0 -62 -53 -157t-114 -163.5t-87 -68.5h-115l115 262q-36 18 -58 55t-22 85zM520 1264q0 70 46 118t120 48q77 0 122.5 -45t45.5 -134q0 -62 -53 -157t-114 -163.5t-87 -68.5h-115l115 262q-36 18 -58 55t-22 85z" />
<glyph unicode="&#x201e;" horiz-adv-x="952" d="M98 176q0 70 46 119t120 49q76 0 122 -45.5t46 -134.5q0 -62 -53 -157t-114 -163.5t-87 -68.5h-115l115 262q-80 43 -80 139zM520 176q0 70 46 119t120 49q77 0 122.5 -45.5t45.5 -134.5q0 -62 -53 -157t-114 -163.5t-87 -68.5h-115l115 262q-80 43 -80 139z" />
<glyph unicode="&#x2022;" horiz-adv-x="569" d="M49 604q0 111 62 179.5t174 68.5q110 0 172.5 -64t62.5 -184q0 -106 -64 -174t-171 -68q-113 0 -174.5 63.5t-61.5 178.5z" />
<glyph unicode="&#x2026;" horiz-adv-x="1458" d="M98 164q0 79 43 129.5t123 50.5t124 -46.5t44 -133.5q0 -77 -43 -125.5t-123 -48.5t-124 44.5t-44 129.5zM563 164q0 79 43 129.5t123 50.5t124 -46.5t44 -133.5q0 -77 -43.5 -125.5t-122.5 -48.5q-80 0 -124 44.5t-44 129.5zM1028 164q0 79 42.5 129.5t121.5 50.5 q82 0 125 -46t43 -134q0 -77 -42.5 -125.5t-121.5 -48.5q-82 0 -125 44t-43 130z" />
<glyph unicode="&#x202f;" horiz-adv-x="354" />
<glyph unicode="&#x2039;" horiz-adv-x="780" d="M432 76l-332 438l332 438h244l-311 -428l311 -448h-244z" />
<glyph unicode="&#x203a;" horiz-adv-x="780" d="M348 952l332 -438l-332 -438h-244l312 428l-312 448h244z" />
<glyph unicode="&#x205f;" horiz-adv-x="443" />
<glyph unicode="&#x20ac;" d="M49 733v166h139q55 225 203 341t369 116q109 0 231 -25v-231q-150 26 -237 26q-218 0 -283 -227h360v-166h-389q-4 -58 -4 -84q0 -25 4 -65h389v-162h-362q63 -217 274 -217q115 0 258 31v-220q-85 -20 -137.5 -26t-138.5 -6q-221 0 -362.5 109.5t-186.5 328.5h-127v162 h111v41q0 75 4 108h-115z" />
<glyph unicode="&#x2122;" horiz-adv-x="1792" d="M475 1182v-568h-184v568h-189v161h562v-161h-189zM963 1126h-7l-10 -512h-172l25 729h262l149 -440h4l162 440h232l24 -729h-172l-16 512h-4l-148 -419h-182z" />
<glyph unicode="&#xe000;" horiz-adv-x="1014" d="M0 1015h1015v-1015h-1015v1015z" />
</font>
</defs>
</svg>
