<?xml version="1.0" encoding="utf-8"?>
<!-- Generator: Adobe Illustrator 16.0.0, SVG Export Plug-In . SVG Version: 6.00 Build 0)  -->
<!DOCTYPE svg PUBLIC "-//W3C//DTD SVG 1.1//EN" "http://www.w3.org/Graphics/SVG/1.1/DTD/svg11.dtd">
<svg version="1.1" id="Layer_1" xmlns="http://www.w3.org/2000/svg" xmlns:xlink="http://www.w3.org/1999/xlink" x="0px" y="0px"
	 width="164.265px" height="140px" viewBox="484.752 413.147 164.265 140" enable-background="new 484.752 413.147 164.265 140"
	 xml:space="preserve">
<path fill="#00305B" stroke="#00305B" stroke-width="0.12" d="M649.016,507.726c0,15.427-9.041,20.534-19.488,23.111
	l-120.333,21.478c-16.369,3.937-24.586-6.763-24.441-18.132V432.635c0-10.763,8.727-19.488,19.488-19.488h125.287
	c10.762,0,19.488,8.725,19.488,19.488V507.726z"/>
<path fill="#FFFFFF" stroke="#00305B" stroke-width="0.15" d="M605.014,455.571c-4.669-4.903-12.688-6.45-20.813-5.955
	c-2.006-1.622-4.472-2.884-6.914-3.654c-15.215-4.8-44.644,3.716-50.126,21.733c-1.147,3.77-0.408,6.849,1.407,9.058
	c-2.042,2.637-3.551,5.846-3.551,9.638c0,4.653,3.856,9.443,7.892,11.3c10.619,4.881,23.42,3.175,34.158-1.327
	c3.976-1.667,7.847-4.093,11.031-6.807c7.325-1.552,14.529-4.709,20.589-9.171C606.367,474.734,612.836,463.785,605.014,455.571z"/>
<g>
	<path fill="#FFFFFF" d="M504.593,518.525l-0.308,7.889l-1.491,0.259l0.299-7.859c0.038-0.902-0.051-1.583-0.233-1.984l1.456-0.784
		C504.501,516.404,504.639,517.273,504.593,518.525z M506.011,522.119l2.717,3.426l-1.635,0.477l-2.608-3.68l2.303-3.558
		l1.646-0.005L506.011,522.119z"/>
	<path fill="#FFFFFF" d="M514.73,519.515l-0.084,2.81c-0.033,0.857,0.109,1.195,0.512,1.503l-1.063,1.119
		c-0.419-0.232-0.634-0.588-0.711-1.035c-0.374,0.75-0.996,1.261-1.877,1.416c-1.069,0.185-1.915-0.409-2.167-1.873
		c-0.264-1.519,0.052-3.082,0.774-4.143c0.603-0.873,1.434-1.394,2.532-1.585c0.788-0.136,1.614-0.113,2.218,0.146
		C514.807,518.275,514.74,519.011,514.73,519.515z M512.674,518.938c-0.61,0.105-1.02,0.317-1.441,1.031
		c-0.482,0.84-0.537,2.217-0.369,3.18c0.128,0.745,0.422,0.987,0.924,0.901c0.624-0.108,1.207-0.853,1.398-1.599l0.148-3.489
		C513.185,518.903,512.905,518.898,512.674,518.938z"/>
	<path fill="#FFFFFF" d="M525.473,517.805l-0.185,4.961l-1.464,0.256l0.185-4.809c0.011-0.255,0.001-0.476-0.027-0.639
		c-0.058-0.339-0.247-0.46-0.628-0.393c-0.5,0.087-1.102,0.721-1.515,1.562l-0.184,4.653l-1.436,0.25l0.171-4.723
		c0.017-0.31,0.022-0.604-0.004-0.753c-0.051-0.298-0.202-0.438-0.57-0.376c-0.487,0.085-1.098,0.666-1.581,1.587l-0.173,4.639
		l-1.436,0.249l0.185-4.961c0.025-0.744-0.087-1.313-0.285-1.725l1.283-0.809c0.191,0.287,0.335,0.807,0.33,1.255
		c0.651-0.993,1.404-1.487,2.135-1.612c0.761-0.133,1.25,0.201,1.43,0.992c0.673-1.023,1.44-1.504,2.161-1.631
		c0.785-0.135,1.417,0.285,1.568,1.152C525.477,517.176,525.479,517.512,525.473,517.805z"/>
	<path fill="#FFFFFF" d="M532.219,517.682c-0.471,0.653-1.354,1.129-2.763,1.373c-0.379,0.066-0.713,0.068-0.837,0.089
		c-0.001,0.141,0.008,0.516,0.045,0.732c0.146,0.854,0.719,1.175,1.465,1.045c0.719-0.124,1.26-0.469,1.81-1.083l0.622,0.845
		c-0.712,0.806-1.47,1.26-2.625,1.459c-1.464,0.254-2.594-0.456-2.875-2.085c-0.239-1.37,0.103-2.95,0.878-4.02
		c0.566-0.77,1.275-1.188,2.155-1.339c1.332-0.231,2.276,0.231,2.489,1.453C532.678,516.707,532.547,517.235,532.219,517.682z
		 M530.099,515.842c-0.774,0.136-1.346,0.862-1.419,2.202c0.081-0.015,0.374-0.021,0.602-0.062c0.828-0.145,1.375-0.365,1.644-0.747
		c0.147-0.207,0.217-0.443,0.169-0.727C531.015,516.048,530.722,515.736,530.099,515.842z"/>
	<path fill="#FFFFFF" d="M537.703,514.941c-0.149-0.058-0.289-0.061-0.492-0.024c-0.474,0.081-0.94,0.54-1.391,1.484l-0.172,4.569
		l-1.476,0.255l0.18-4.75c0.042-0.972-0.061-1.486-0.28-1.937l1.286-0.81c0.209,0.327,0.352,0.832,0.341,1.324
		c0.485-0.895,1.16-1.528,1.822-1.645c0.245-0.043,0.371-0.036,0.589,0.01L537.703,514.941z"/>
	<path fill="#FFFFFF" d="M544.259,519.501l-1.301,0.228l-2.212-6.628l1.48-0.493l1.105,3.717c0.132,0.44,0.266,1.045,0.334,1.438
		c-0.003-0.014,0.006-0.03,0.006-0.03c0.094-0.435,0.227-0.961,0.437-1.585l1.342-3.948l1.615-0.265L544.259,519.501z"/>
	<path fill="#FFFFFF" d="M552.762,512.914l-0.086,2.81c-0.031,0.858,0.111,1.194,0.514,1.502l-1.063,1.12
		c-0.419-0.234-0.634-0.587-0.71-1.035c-0.374,0.747-0.996,1.261-1.876,1.414c-1.072,0.187-1.915-0.407-2.168-1.872
		c-0.265-1.517,0.05-3.081,0.774-4.143c0.603-0.872,1.434-1.394,2.531-1.584c0.788-0.138,1.614-0.112,2.217,0.146
		C552.84,511.672,552.773,512.41,552.762,512.914z M550.707,512.336c-0.61,0.104-1.019,0.316-1.441,1.031
		c-0.482,0.839-0.537,2.218-0.369,3.18c0.129,0.745,0.423,0.987,0.924,0.899c0.623-0.107,1.207-0.852,1.398-1.596l0.148-3.49
		C551.217,512.303,550.937,512.296,550.707,512.336z"/>
	<path fill="#FFFFFF" d="M560.099,511.67l-0.194,5.088l-1.479,0.257l0.176-4.708c0.016-0.311,0.006-0.533-0.021-0.681
		c-0.069-0.394-0.271-0.512-0.637-0.449c-0.487,0.085-1.107,0.542-1.664,1.603l-0.172,4.638l-1.462,0.255l0.179-4.919
		c0.023-0.827-0.043-1.292-0.279-1.769l1.284-0.809c0.188,0.288,0.356,0.775,0.344,1.267c0.515-0.898,1.307-1.482,2.257-1.648
		c0.854-0.147,1.462,0.292,1.604,1.118C560.077,511.143,560.111,511.43,560.099,511.67z"/>
	<path fill="#FFFFFF" d="M566.552,507.772l-0.309,7.888l-1.49,0.259l0.298-7.858c0.039-0.901-0.052-1.583-0.234-1.985l1.456-0.782
		C566.462,505.651,566.6,506.519,566.552,507.772z M567.971,511.365l2.719,3.423l-1.637,0.479l-2.607-3.68l2.3-3.556l1.648-0.007
		L567.971,511.365z"/>
	<path fill="#FFFFFF" d="M574.132,514.456c-1.519,0.263-2.538-0.467-2.813-2.038c-0.456-2.644,0.793-5.013,3.07-5.406
		c1.574-0.274,2.586,0.486,2.847,1.991C577.67,511.51,576.652,514.018,574.132,514.456z M574.356,508.19
		c-1.356,0.235-1.685,2.525-1.414,4.087c0.144,0.825,0.601,1.124,1.267,1.008c1.327-0.23,1.693-2.388,1.402-4.057
		C575.454,508.306,574.967,508.084,574.356,508.19z"/>
	<path fill="#FFFFFF" d="M581.392,513.195c-1.517,0.265-2.538-0.465-2.81-2.038c-0.459-2.644,0.79-5.01,3.068-5.407
		c1.571-0.272,2.583,0.489,2.844,1.994C584.931,510.25,583.914,512.758,581.392,513.195z M581.617,506.93
		c-1.354,0.234-1.682,2.527-1.411,4.086c0.144,0.826,0.6,1.123,1.264,1.01c1.329-0.232,1.693-2.39,1.406-4.056
		C582.715,507.046,582.229,506.823,581.617,506.93z"/>
	<path fill="#FFFFFF" d="M591.335,510.312c-0.518,0.816-1.341,1.378-2.219,1.531c-0.612,0.106-1.158,0.104-1.545-0.04
		c0.012,0.067,0.003,0.419-0.006,0.615l-0.08,2.192l-1.456,0.616l0.3-8.011c0.032-0.857-0.085-1.284-0.294-1.695l1.281-0.81
		c0.183,0.249,0.352,0.734,0.366,1.223c0.473-0.822,1.289-1.426,2.103-1.567c1.167-0.202,1.955,0.555,2.191,1.926
		C592.189,507.511,591.957,509.311,591.335,510.312z M589.405,505.731c-0.539,0.096-1.174,0.623-1.634,1.598l-0.123,3.232
		c0.253,0.179,0.738,0.234,1.188,0.158c0.61-0.105,1.024-0.528,1.228-0.968c0.384-0.849,0.461-2.259,0.309-3.127
		C590.248,505.907,589.964,505.635,589.405,505.731z"/>
	<path fill="#FFFFFF" d="M599.152,504.948l-0.188,5.031l-1.464,0.253l0.172-4.789c0.004-0.225,0.007-0.449-0.015-0.584
		c-0.082-0.39-0.334-0.544-0.739-0.474c-0.556,0.097-1.327,0.803-1.779,1.649l-0.173,4.638l-1.478,0.258l0.292-7.815
		c0.044-1.026-0.044-1.611-0.227-2.026l1.429-0.778c0.208,0.396,0.317,1.354,0.279,2.254l-0.039,0.984
		c-0.012,0.254-0.054,0.819-0.094,1.078c0.518-0.886,1.395-1.471,2.222-1.615c1.003-0.173,1.624,0.276,1.765,1.077
		C599.152,504.305,599.172,504.568,599.152,504.948z"/>
	<path fill="#FFFFFF" d="M605.993,503.676l-0.084,2.808c-0.033,0.857,0.109,1.195,0.512,1.503l-1.063,1.12
		c-0.417-0.233-0.634-0.588-0.708-1.036c-0.374,0.749-1,1.263-1.881,1.416c-1.069,0.185-1.912-0.409-2.165-1.874
		c-0.265-1.517,0.05-3.08,0.771-4.142c0.606-0.872,1.438-1.394,2.535-1.585c0.786-0.136,1.615-0.111,2.217,0.148
		C606.069,502.436,606.003,503.171,605.993,503.676z M603.936,503.098c-0.61,0.105-1.019,0.316-1.438,1.032
		c-0.483,0.838-0.537,2.215-0.368,3.178c0.128,0.744,0.422,0.988,0.92,0.901c0.626-0.109,1.209-0.854,1.4-1.599l0.147-3.486
		C604.45,503.064,604.171,503.058,603.936,503.098z"/>
	<path fill="#FFFFFF" d="M613.327,502.43l-0.192,5.089l-1.477,0.257l0.177-4.709c0.013-0.311,0.003-0.53-0.023-0.681
		c-0.069-0.392-0.27-0.511-0.635-0.447c-0.489,0.084-1.107,0.541-1.664,1.601l-0.174,4.639l-1.462,0.253l0.178-4.917
		c0.025-0.827-0.042-1.292-0.277-1.767l1.282-0.81c0.19,0.288,0.359,0.775,0.347,1.267c0.514-0.899,1.308-1.483,2.256-1.648
		c0.854-0.147,1.459,0.291,1.603,1.118C613.307,501.905,613.342,502.191,613.327,502.43z"/>
	<path fill="#FFFFFF" d="M620.566,503.774c-0.062,1.503,0.069,1.928,0.314,2.22l-1.223,0.521c-0.212-0.188-0.381-0.508-0.429-0.945
		c-0.415,0.742-1.06,1.218-1.844,1.352c-1.37,0.239-2.162-0.461-2.431-2.006c-0.238-1.37,0.048-2.928,0.849-4.043
		c0.54-0.75,1.338-1.225,2.125-1.36c0.608-0.106,1.099-0.094,1.353-0.012c-0.014-0.067,0.002-0.711,0.015-0.951l0.089-2.392
		l1.465-0.002L620.566,503.774z M618.082,500.727c-0.432,0.075-0.883,0.377-1.138,0.84c-0.438,0.775-0.589,2.168-0.424,3.104
		c0.128,0.745,0.468,1.092,1.022,0.995c0.57-0.1,1.228-0.73,1.523-1.521l0.136-3.333C618.882,500.67,618.585,500.64,618.082,500.727
		z"/>
	<path fill="#FFFFFF" d="M627.547,501.138c-0.474,0.653-1.354,1.128-2.767,1.371c-0.377,0.066-0.711,0.069-0.834,0.09
		c-0.004,0.14,0.008,0.516,0.044,0.732c0.147,0.854,0.72,1.174,1.466,1.043c0.72-0.122,1.26-0.468,1.809-1.081l0.622,0.842
		c-0.712,0.809-1.472,1.261-2.625,1.462c-1.463,0.253-2.593-0.457-2.875-2.086c-0.238-1.368,0.104-2.95,0.88-4.021
		c0.564-0.769,1.274-1.185,2.158-1.337c1.325-0.23,2.271,0.233,2.482,1.452C628.005,500.163,627.871,500.688,627.547,501.138z
		 M625.427,499.299c-0.775,0.134-1.348,0.861-1.422,2.2c0.082-0.015,0.374-0.022,0.604-0.063c0.826-0.143,1.375-0.364,1.644-0.746
		c0.144-0.207,0.217-0.443,0.167-0.728C626.34,499.502,626.051,499.191,625.427,499.299z"/>
	<path fill="#FFFFFF" d="M631.253,496.373l-0.219,5.735c-0.029,0.563-0.022,0.828,0.004,0.991c0.044,0.244,0.171,0.348,0.388,0.309
		c0.085-0.015,0.165-0.027,0.229-0.065l0.237,0.893c-0.29,0.178-0.619,0.29-0.973,0.35c-0.786,0.139-1.266-0.213-1.375-0.849
		c-0.037-0.203-0.048-0.593-0.032-0.986l0.224-5.862c0.033-0.941-0.026-1.613-0.239-2.038l1.482-0.788
		C631.159,494.462,631.295,495.487,631.253,496.373z"/>
</g>
<linearGradient id="SVGID_1_" gradientUnits="userSpaceOnUse" x1="4149.8662" y1="-2698.1824" x2="4181.3828" y2="-2643.594" gradientTransform="matrix(0.5744 0 0 -0.5744 -1840.3542 -1047.806)">
	<stop  offset="0" style="stop-color:#004F9F"/>
	<stop  offset="0.0204" style="stop-color:#0655A3"/>
	<stop  offset="0.1406" style="stop-color:#5A7ABC"/>
	<stop  offset="0.2593" style="stop-color:#90A0D2"/>
	<stop  offset="0.3736" style="stop-color:#B9C1E3"/>
	<stop  offset="0.4827" style="stop-color:#D8DBF0"/>
	<stop  offset="0.5853" style="stop-color:#EEEFF9"/>
	<stop  offset="0.6787" style="stop-color:#FBFBFE"/>
	<stop  offset="0.7546" style="stop-color:#FFFFFF"/>
	<stop  offset="1" style="stop-color:#FFFFFF"/>
</linearGradient>
<path fill="url(#SVGID_1_)" d="M524.96,486.418c0-8.558,7.679-14.035,11.865-16.876c4.187-2.841,12.824-4.786,12.824-4.786
	l35.444,15.865c-2.196,5.759-9.935,12.354-18.082,15.771c-10.738,4.502-23.539,6.207-34.159,1.326
	C528.816,495.863,524.96,491.073,524.96,486.418z"/>
<linearGradient id="SVGID_2_" gradientUnits="userSpaceOnUse" x1="1042.7058" y1="-69.4871" x2="994.5872" y2="-43.9019" gradientTransform="matrix(0.931 0 0 -0.931 -371.7015 418.1289)">
	<stop  offset="0" style="stop-color:#004F9F"/>
	<stop  offset="0.0517" style="stop-color:#2D61AB"/>
	<stop  offset="0.1612" style="stop-color:#738AC5"/>
	<stop  offset="0.2654" style="stop-color:#A7B2DC"/>
	<stop  offset="0.3613" style="stop-color:#CED3EC"/>
	<stop  offset="0.447" style="stop-color:#E9EBF7"/>
	<stop  offset="0.5197" style="stop-color:#F9FAFD"/>
	<stop  offset="0.5706" style="stop-color:#FFFFFF"/>
	<stop  offset="1" style="stop-color:#FFFFFF"/>
</linearGradient>
<path fill="url(#SVGID_2_)" d="M544.49,485.078l24.44-32.174c11.373-4.407,28.362-5.475,36.111,2.666
	c7.821,8.214,1.354,19.163-6.328,24.815c-10.28,7.565-23.85,11.431-35.73,9.95C549.378,488.642,544.49,485.078,544.49,485.078z"/>
<linearGradient id="SVGID_3_" gradientUnits="userSpaceOnUse" x1="4175.2451" y1="-2594.3665" x2="4210.9761" y2="-2656.2539" gradientTransform="matrix(0.5744 0 0 -0.5744 -1840.3533 -1047.807)">
	<stop  offset="0" style="stop-color:#004F9F"/>
	<stop  offset="0.115" style="stop-color:#5074B8"/>
	<stop  offset="0.2299" style="stop-color:#8A9BCF"/>
	<stop  offset="0.3398" style="stop-color:#B5BDE1"/>
	<stop  offset="0.4437" style="stop-color:#D5D9EF"/>
	<stop  offset="0.54" style="stop-color:#ECEEF8"/>
	<stop  offset="0.6261" style="stop-color:#FAFBFE"/>
	<stop  offset="0.6933" style="stop-color:#FFFFFF"/>
	<stop  offset="1" style="stop-color:#FFFFFF"/>
</linearGradient>
<path fill="url(#SVGID_3_)" d="M558.302,469.341l31.586-2.592c0,0,0.24-6.797-1.64-11.63c-1.88-4.833-6.344-7.674-10.988-9.186
	c-9.707-3.159-25.456-0.644-36.851,6.282L558.302,469.341z"/>
<g>

		<linearGradient id="SVGID_4_" gradientUnits="userSpaceOnUse" x1="716.4968" y1="205.3523" x2="729.1044" y2="182.6075" gradientTransform="matrix(1 0 0 -1 -182.5996 661.3931)">
		<stop  offset="0" style="stop-color:#004F9F"/>
		<stop  offset="0.0801" style="stop-color:#3070B1"/>
		<stop  offset="0.1946" style="stop-color:#6E9BC8"/>
		<stop  offset="0.3045" style="stop-color:#A2BFDC"/>
		<stop  offset="0.4066" style="stop-color:#CADBEB"/>
		<stop  offset="0.4993" style="stop-color:#E7EFF6"/>
		<stop  offset="0.5795" style="stop-color:#F9FBFD"/>
		<stop  offset="0.638" style="stop-color:#FFFFFF"/>
		<stop  offset="0.6858" style="stop-color:#FFFFFF"/>
		<stop  offset="1" style="stop-color:#FFFFFF"/>
	</linearGradient>
	<path fill="url(#SVGID_4_)" d="M540.395,452.235c-6.307,3.835-11.309,9.041-13.262,15.46c-1.216,3.997-0.324,7.225,1.732,9.454
		c1.552,1.681,3.765,2.793,6.238,3.236l23.199-11.016L540.395,452.235z"/>
</g>
<path fill="#FDC300" stroke="#FDC300" stroke-width="0.12" d="M608.402,462.705c-0.955-3.475-6.684-4.816-12.795-2.995
	c-2.884,0.859-5.043,2.706-6.731,4.318l-21.905,1.251l-10.897-7.035c1.323-1.578,2.354-3.576,1.93-5.121
	c-0.956-3.475-6.686-4.815-12.799-2.995c-6.164,1.837-10.353,5.906-9.34,9.588c0.787,2.86,5.392,3.689,10.198,3.085l5.137,9.978
	l-7.98,12.228c-0.726,0.131-2.342,0.304-3.088,0.526c-6.114,1.818-10.294,6.109-9.338,9.584c0.933,3.392,6.81,4.776,12.797,2.993
	c6.112-1.82,10.295-6.114,9.34-9.588c-0.116-0.426-0.598-0.819-0.852-1.179l13.15-11.378l22.489-5.103
	c2.169,2.031,6.491,2.875,11.349,1.427C605.385,470.41,609.375,466.242,608.402,462.705z"/>
</svg>
