<?xml version="1.0" encoding="utf-8"?>
<!-- Generator: Adobe Illustrator 18.1.1, SVG Export Plug-In . SVG Version: 6.00 Build 0)  -->
<svg version="1.1" id="Laag_1" xmlns="http://www.w3.org/2000/svg" xmlns:xlink="http://www.w3.org/1999/xlink" x="0px" y="0px"
	 width="212.025px" height="62.025px" viewBox="0 0 212.025 62.025" enable-background="new 0 0 212.025 62.025"
	 xml:space="preserve">
<g>
	<g>
		<g>
			<path fill="#000000" d="M70.111,17.876c-0.098-3.013-0.932-5.787-2.581-8.155C60.4-0.507,40.765,0.739,23.671,12.504
				C6.578,24.269-1.335,42.147,5.794,52.377c7.098,10.184,26.71,8.942,43.749-2.678c0.09-0.088,0.026-0.173-0.081-0.119
				C40,54.983,31.74,55.002,28.045,49.585c-3.729-5.468,0.197-14.615,8.196-19.931c2.966-1.97,6.235-3.385,9.085-3.935l-1.07,5.391
				c-0.049,0.222,0.013,0.444,0.185,0.561c0.175,0.121,0.417,0.106,0.623-0.017l16.487-8.995c0.196-0.11,0.354-0.31,0.399-0.54
				c0.047-0.233-0.034-0.436-0.191-0.543l-12.898-8.849c-0.156-0.103-0.428-0.164-0.639-0.048c-0.216,0.117-0.358,0.327-0.401,0.546
				l-0.811,4.021c-5.102,0.351-10.418,2.327-15.361,5.657c-11.042,7.437-15.954,19.413-10.961,26.735
				c1.325,1.942,3.213,3.36,5.478,4.263c0.341,0.137,0.341,0.126,0.341,0.126l-0.007,0.066c-4.079-0.622-7.296-2.745-9.303-5.623
				c-6.16-8.839,0.303-23.947,14.295-33.578c13.99-9.63,30.253-10.271,36.414-1.434c0.944,1.356,1.631,2.787,2.006,4.386
				c0.009,0.037,0.017,0.075,0.026,0.112C69.963,18.064,70.111,18.047,70.111,17.876z"/>
			<g>
				<path fill="#000000" d="M39.372,46.912v-0.947c-0.594,1.012-1.695,1.634-2.985,1.634c-1.289,0-2.772-0.753-2.772-3.756v-6.007
					l2.059-0.384v6.256c0,0.559,0.095,1.328,0.508,1.709c0.76,0.7,2.258,0.266,3.166-1.314v-6.266l2.04-0.385v9.993h-1.475
					C39.611,47.445,39.372,47.21,39.372,46.912z"/>
				<path fill="#000000" d="M61.763,44.602l2.288-7.005h2.075l-3.438,9.767l-0.027,0.081h-0.084h-1.473
					c-0.24,0-0.444-0.153-0.517-0.368l-3.385-9.479h2.236L61.763,44.602z"/>
				<path fill="#000000" d="M49.491,40.303l-2.194,7.144h-1.574c-0.239,0-0.44-0.15-0.513-0.362l-2.723-9.487h2.233l1.757,6.755
					l2.105-6.755h1.985l2.156,6.755l1.76-6.755h2.073l-2.725,9.851H52.23c-0.243,0-0.452-0.151-0.507-0.308L49.491,40.303z"/>
			</g>
		</g>
		<path fill="#000000" d="M84.045,43.793l-1.782-5.124l-1.845,5.339h-0.63c-0.132,0-0.254-0.081-0.294-0.215l-1.825-6.2h1.01
			l1.391,5.185l1.78-5.185h0.924l1.779,5.185l1.378-5.185h0.923l-1.859,6.415h-0.657C84.205,44.007,84.082,43.926,84.045,43.793z"/>
		<path fill="#000000" d="M87.516,40.697c0-2.074,1.165-3.37,3.024-3.37c1.674,0,2.677,1.175,2.677,3.156v0.295h-4.711
			c0.027,0.828,0.121,1.15,0.442,1.591c0.374,0.536,0.95,0.79,1.753,0.79c0.735,0,1.298-0.159,1.98-0.549l0.201,0.456
			c0.025,0.039,0.025,0.08,0.025,0.12c0,0.108-0.053,0.214-0.133,0.267c-0.643,0.401-1.339,0.615-2.209,0.615
			C88.735,44.068,87.516,42.732,87.516,40.697z M88.534,40.082h3.665c-0.078-1.338-0.64-2.008-1.711-2.008
			C89.39,38.074,88.695,38.796,88.534,40.082z"/>
		<path fill="#000000" d="M94.617,43.586V37.62l0.923-0.197v1.147c0.442-0.749,1.151-1.166,1.98-1.166
			c0.318,0,0.429,0.029,0.709,0.151l-0.12,1.028c-0.309-0.188-0.441-0.227-0.818-0.227c-0.827,0-1.431,0.414-1.751,1.216v4.337
			h-0.603C94.762,43.909,94.617,43.762,94.617,43.586z"/>
		<path fill="#000000" d="M99.153,43.586V34.77l0.91-0.201v5.659h0.105l2.932-2.734h1.204l-3.2,2.989l3.346,3.426h-1.285
			l-2.996-3.118h-0.105v3.118h-0.591C99.297,43.909,99.153,43.762,99.153,43.586z"/>
		<path fill="#000000" d="M104.598,40.697c0-2.074,1.163-3.37,3.024-3.37c1.67,0,2.675,1.175,2.675,3.156v0.295h-4.711
			c0.027,0.828,0.122,1.15,0.443,1.591c0.375,0.536,0.95,0.79,1.753,0.79c0.735,0,1.299-0.159,1.98-0.549l0.199,0.456
			c0.026,0.039,0.026,0.08,0.026,0.12c0,0.108-0.053,0.214-0.134,0.267c-0.642,0.401-1.337,0.615-2.207,0.615
			C105.816,44.068,104.598,42.732,104.598,40.697z M105.614,40.082h3.668c-0.081-1.338-0.645-2.008-1.715-2.008
			C106.469,38.074,105.774,38.796,105.614,40.082z"/>
		<path fill="#000000" d="M112.503,38.69c0.226-0.321,0.843-0.844,1.309-1.07c0.362-0.154,0.736-0.227,1.127-0.227
			c0.507,0,0.949,0.132,1.269,0.428c0.202,0.174,0.348,0.401,0.429,0.653c0.08,0.296,0.133,0.63,0.133,1.007v0.452v3.976h-0.616
			c-0.172,0-0.319-0.147-0.319-0.322v-3.679v-0.347c0-0.897-0.362-1.313-1.151-1.313c-0.83,0-1.512,0.51-2.18,1.38v4.281h-0.588
			c-0.177,0-0.323-0.147-0.323-0.322v-5.94l0.911-0.203V38.69z"/>
		<path fill="#000000" d="M121.592,38.891l-0.215-0.71c0.735-0.55,1.644-0.83,2.663-0.83c1.484,0,2.126,0.656,2.126,2.17v0.307
			c0,1.515,0,4.081,0,4.081h-0.59c-0.172,0-0.319-0.147-0.319-0.322v-0.521c-0.092,0.106-0.174,0.199-0.229,0.254
			c-0.468,0.428-1.323,0.723-2.087,0.723c-1.258,0-1.981-0.723-1.981-1.969c0-1.377,0.869-2.086,2.583-2.086
			c0.642,0,0.963,0.04,1.753,0.213v-0.361c0-0.881-0.132-1.617-1.537-1.617C122.981,38.222,122.42,38.408,121.592,38.891z
			 M121.941,42.087c0,0.764,0.4,1.151,1.216,1.151c0.494,0,1.323-0.308,2.101-0.936v-1.34c-0.683-0.173-0.964-0.213-1.564-0.213
			C122.474,40.751,121.941,41.154,121.941,42.087z"/>
		<path fill="#000000" d="M128.224,38.891l-0.213-0.71c0.736-0.55,1.645-0.83,2.662-0.83c1.486,0,2.128,0.656,2.128,2.17v0.307
			c0,1.515,0,4.081,0,4.081h-0.588c-0.173,0-0.32-0.147-0.32-0.322v-0.521c-0.094,0.106-0.174,0.199-0.23,0.254
			c-0.468,0.428-1.323,0.723-2.085,0.723c-1.258,0-1.981-0.723-1.981-1.969c0-1.377,0.87-2.086,2.582-2.086
			c0.646,0,0.963,0.04,1.753,0.213v-0.361c0-0.881-0.132-1.617-1.537-1.617C129.617,38.222,129.055,38.408,128.224,38.891z
			 M128.573,42.087c0,0.764,0.402,1.151,1.218,1.151c0.496,0,1.324-0.308,2.103-0.936v-1.34c-0.684-0.173-0.965-0.213-1.566-0.213
			C129.109,40.751,128.573,41.154,128.573,42.087z"/>
		<path fill="#000000" d="M135.597,38.69c0.229-0.321,0.845-0.844,1.313-1.07c0.36-0.154,0.735-0.227,1.123-0.227
			c0.511,0,0.951,0.132,1.272,0.428c0.202,0.174,0.35,0.401,0.43,0.653c0.079,0.296,0.132,0.63,0.132,1.007v0.452v3.976h-0.614
			c-0.174,0-0.321-0.147-0.321-0.322v-3.679v-0.347c0-0.897-0.361-1.313-1.151-1.313c-0.828,0-1.512,0.51-2.183,1.38v4.281h-0.586
			c-0.174,0-0.322-0.147-0.322-0.322v-5.94l0.908-0.203V38.69z"/>
		<path fill="#000000" d="M144.843,46.211v-8.565l0.925-0.203v1.1c0.148-0.186,0.295-0.334,0.414-0.454
			c0.456-0.469,1.112-0.737,1.809-0.737c1.538,0,2.567,1.325,2.567,3.319c0,2.034-1.085,3.372-2.756,3.372
			c-0.28,0-0.564-0.041-0.831-0.12c-0.496-0.148-0.736-0.309-1.203-0.805v3.414h-0.604
			C144.992,46.532,144.843,46.385,144.843,46.211z M149.58,40.684c0-1.526-0.669-2.449-1.765-2.449
			c-0.829,0-1.564,0.482-2.047,1.326v2.584c0.521,0.72,1.108,1.054,1.914,1.054C148.886,43.199,149.58,42.275,149.58,40.684z"/>
		<path fill="#000000" d="M151.54,40.697c0-2.074,1.164-3.37,3.025-3.37c1.673,0,2.678,1.175,2.678,3.156v0.295h-4.712
			c0.025,0.828,0.121,1.15,0.442,1.591c0.373,0.536,0.949,0.79,1.752,0.79c0.735,0,1.298-0.159,1.98-0.549l0.202,0.456
			c0.026,0.039,0.026,0.08,0.026,0.12c0,0.108-0.054,0.214-0.134,0.267c-0.641,0.401-1.339,0.615-2.21,0.615
			C152.76,44.068,151.54,42.732,151.54,40.697z M152.556,40.082h3.667c-0.08-1.338-0.642-2.008-1.712-2.008
			C153.415,38.074,152.718,38.796,152.556,40.082z"/>
		<path fill="#000000" d="M158.742,43.586V37.62l0.924-0.197v1.147c0.441-0.749,1.152-1.166,1.982-1.166
			c0.319,0,0.425,0.029,0.707,0.151l-0.118,1.028c-0.31-0.188-0.442-0.227-0.818-0.227c-0.829,0-1.431,0.414-1.752,1.216v4.337h-0.6
			C158.889,43.909,158.742,43.762,158.742,43.586z"/>
		<path fill="#000000" d="M162.921,43.146c0-0.041,0.016-0.08,0.027-0.12l0.241-0.522c0.669,0.508,1.244,0.709,1.979,0.709
			c0.87,0,1.42-0.415,1.42-1.086c0-0.613-0.348-0.869-1.445-1.135c-0.748-0.174-1.083-0.295-1.418-0.481
			c-0.496-0.282-0.765-0.776-0.765-1.378c0-1.099,0.885-1.794,2.263-1.794c0.349,0,0.695,0.055,1.018,0.146
			c0.402,0.123,0.79,0.282,1.124,0.59l-0.334,0.736c-0.736-0.494-1.178-0.642-1.848-0.642c-0.788,0-1.285,0.348-1.285,0.923
			c0,0.496,0.319,0.736,1.271,0.977c0.335,0.081,0.578,0.133,0.736,0.175c0.309,0.08,0.59,0.186,0.83,0.32
			c0.521,0.282,0.831,0.842,0.831,1.499c0,1.191-0.964,1.994-2.383,1.994c-0.788,0-1.552-0.242-2.129-0.644
			C162.976,43.346,162.921,43.253,162.921,43.146z"/>
		<path fill="#000000" d="M169.05,46.211v-8.565l0.924-0.203v1.1c0.145-0.186,0.294-0.334,0.413-0.454
			c0.456-0.469,1.11-0.737,1.808-0.737c1.538,0,2.568,1.325,2.568,3.319c0,2.034-1.083,3.372-2.756,3.372
			c-0.28,0-0.561-0.041-0.83-0.12c-0.493-0.148-0.734-0.309-1.203-0.805v3.414h-0.602C169.198,46.532,169.05,46.385,169.05,46.211z
			 M173.788,40.684c0-1.526-0.67-2.449-1.766-2.449c-0.831,0-1.567,0.482-2.048,1.326v2.584c0.522,0.72,1.11,1.054,1.912,1.054
			C173.091,43.199,173.788,42.275,173.788,40.684z"/>
		<path fill="#000000" d="M175.879,40.697c0-2.074,1.162-3.37,3.023-3.37c1.673,0,2.676,1.175,2.676,3.156v0.295h-4.71
			c0.026,0.828,0.12,1.15,0.441,1.591c0.375,0.536,0.949,0.79,1.754,0.79c0.734,0,1.297-0.159,1.98-0.549l0.201,0.456
			c0.026,0.039,0.026,0.08,0.026,0.12c0,0.108-0.056,0.214-0.135,0.267c-0.644,0.401-1.339,0.615-2.208,0.615
			C177.096,44.068,175.879,42.732,175.879,40.697z M176.895,40.082h3.666c-0.08-1.338-0.642-2.008-1.71-2.008
			C177.751,38.074,177.055,38.796,176.895,40.082z"/>
		<path fill="#000000" d="M187.63,43.066c0,0.093-0.042,0.173-0.092,0.228c-0.59,0.547-1.22,0.763-2.076,0.763
			c-1.739,0-2.847-1.313-2.847-3.346c0-2.034,1.159-3.359,2.941-3.359c0.843,0,1.471,0.269,2.006,0.871l-0.253,0.844
			c-0.107-0.107-0.267-0.242-0.335-0.296c-0.387-0.335-0.963-0.535-1.485-0.535c-1.177,0-1.901,0.95-1.901,2.476
			c0,1.51,0.766,2.448,1.955,2.448c0.67,0,1.204-0.228,1.818-0.721l0.241,0.507C187.617,42.985,187.63,43.026,187.63,43.066z"/>
		<path fill="#000000" d="M189.78,43.413c-0.268-0.374-0.348-0.843-0.348-1.791v-0.176l0.014-3.063h-1.125v-0.805h1.153v-1.645
			l0.922-0.159v1.804h2.104v0.805h-2.104v3.051c0,0.87,0.04,1.205,0.188,1.418c0.119,0.2,0.401,0.321,0.761,0.321
			c0.147,0,0.282-0.014,0.43-0.04c0.239-0.039,0.375-0.054,0.603-0.201l0.145,0.415c0.017,0.026,0.029,0.066,0.029,0.106
			c0,0.108-0.068,0.215-0.162,0.268c-0.307,0.189-0.694,0.322-1.256,0.322C190.57,44.043,190.047,43.801,189.78,43.413z"/>
		<path fill="#000000" d="M194.514,36.322c-0.373,0-0.683-0.309-0.683-0.682c0-0.375,0.309-0.684,0.683-0.684
			c0.374,0,0.684,0.309,0.684,0.684C195.199,36.013,194.888,36.322,194.514,36.322z M194.38,43.909h0.614v-6.486l-0.936,0.197v5.967
			C194.058,43.762,194.206,43.909,194.38,43.909z"/>
		<path fill="#000000" d="M196.713,40.697c0-2.074,1.164-3.37,3.023-3.37c1.673,0,2.675,1.175,2.675,3.156v0.295h-4.708
			c0.027,0.828,0.12,1.15,0.442,1.591c0.374,0.536,0.948,0.79,1.752,0.79c0.734,0,1.3-0.159,1.981-0.549l0.198,0.456
			c0.028,0.039,0.028,0.08,0.028,0.12c0,0.108-0.054,0.214-0.133,0.267c-0.645,0.401-1.341,0.615-2.209,0.615
			C197.931,44.068,196.713,42.732,196.713,40.697z M197.731,40.082h3.666c-0.08-1.338-0.642-2.008-1.712-2.008
			C198.586,38.074,197.892,38.796,197.731,40.082z"/>
		<path fill="#000000" d="M206.223,34.555c0.364,0,0.658,0.066,0.966,0.24l-0.148,0.736c-0.308-0.094-0.47-0.134-0.683-0.134
			c-0.789,0-1.004,0.416-1.004,1.94v0.254h1.914v0.79h-1.914v5.526h-0.615c-0.174,0-0.32-0.147-0.32-0.322v-5.204h-1.218v-0.79
			h1.218v-0.414c0-0.723,0.039-1.177,0.119-1.445C204.753,34.997,205.394,34.555,206.223,34.555z"/>
	</g>
</g>
</svg>
