<?xml version="1.0" standalone="no"?>
<!DOCTYPE svg PUBLIC "-//W3C//DTD SVG 1.1//EN" "http://www.w3.org/Graphics/SVG/1.1/DTD/svg11.dtd" >
<svg xmlns="http://www.w3.org/2000/svg">
<metadata></metadata>
<defs>
<font id="_.regular" horiz-adv-x="1050" >
<font-face units-per-em="2048" ascent="1536" descent="-512" />
<missing-glyph horiz-adv-x="335" />
<glyph unicode="&#xfb01;" horiz-adv-x="1140" d="M1010 1018v-1018h-232v836h-381v-836h-231v836h-129v178h129v73q0 179 105.5 264t353.5 85q196 0 399 -17l-14 -180q-220 12 -387 12q-129 0 -177.5 -35t-48.5 -124v-78h381z" />
<glyph unicode="&#xfb02;" horiz-adv-x="1140" d="M1010 1432v-1432h-232v1239q-89 12 -190 12q-105 0 -148 -36.5t-43 -122.5v-78h228v-178h-228v-836h-231v836h-129v178h129v73q0 174 100 261.5t318 87.5q82 0 194 -17z" />
<glyph horiz-adv-x="0" />
<glyph horiz-adv-x="682" />
<glyph unicode=" "  horiz-adv-x="335" />
<glyph unicode="&#x09;" horiz-adv-x="335" />
<glyph unicode="&#xa0;" horiz-adv-x="335" />
<glyph unicode="!" horiz-adv-x="550" d="M156 1333l260 23l-23 -625v-313l-237 -6v921zM119 154q0 74 40.5 121t114.5 47q75 0 116.5 -43.5t41.5 -124.5q0 -72 -41 -118t-115 -46q-75 0 -116 42.5t-41 121.5z" />
<glyph unicode="&#x22;" horiz-adv-x="643" d="M76 969l-29 444h227l-28 -444h-170zM397 969l-28 444h227l-29 -444h-170z" />
<glyph unicode="#" horiz-adv-x="1230" d="M90 838l16 166h248l43 339h170l-43 -339h267l43 339h170l-43 -339h245l-16 -166h-250l-41 -330h242l-17 -166h-245l-41 -342h-170l41 342h-267l-41 -342h-170l41 342h-247l16 166h252l41 330h-244zM504 838l-41 -330h266l41 330h-266z" />
<glyph unicode="$" d="M422 -215v201h-2q-194 0 -334 24v213q173 -33 342 -33q134 0 211.5 51.5t77.5 127.5q0 67 -42.5 109.5t-160.5 82.5l-168 57q-244 82 -244 338q0 144 92 246t259 137v220h170v-201q144 0 282 -27l-16 -205q-147 27 -281 27q-132 0 -199 -46t-67 -122q0 -63 39 -103 t131 -69l166 -53q147 -47 215 -130t68 -214q0 -156 -98 -267t-271 -149v-215h-170z" />
<glyph unicode="%" horiz-adv-x="1658" d="M1024 1389l154 -62l-545 -1382l-154 61zM381 1358q71 0 129 -21.5t104 -66t71.5 -120.5t25.5 -177q0 -95 -29 -171t-77.5 -122.5t-110 -71t-129.5 -24.5q-70 0 -126 18.5t-103 59.5t-73 115.5t-26 178.5q0 194 99 298t245 104zM375 1194q-61 0 -99 -52t-38 -167 q0 -123 35 -174t100 -51q64 0 101.5 50.5t37.5 155.5q0 238 -137 238zM1292 760q71 0 129 -21.5t104 -66t71.5 -120.5t25.5 -177q0 -95 -29 -171t-77.5 -122.5t-110 -71t-129.5 -24.5q-70 0 -126 18.5t-103 59.5t-73 115.5t-26 178.5q0 194 99 298t245 104zM1286 596 q-61 0 -99 -52t-38 -167q0 -123 35 -174t100 -51q64 0 101.5 50.5t37.5 155.5q0 238 -137 238z" />
<glyph unicode="&#x26;" horiz-adv-x="1411" d="M606 -16q-267 0 -391.5 96.5t-124.5 288.5q0 111 69 197t203 126v2q-221 68 -221 289q0 164 123.5 271.5t331.5 107.5q140 0 246 -33l-15 -199q-125 27 -227 27q-96 0 -152.5 -45.5t-56.5 -120.5q0 -192 299 -192h62v-201h-86q-153 0 -235.5 -60t-82.5 -155 q0 -190 291 -190q179 0 289 128.5t110 354.5h-129v186h477v-186h-120q0 -326 -179 -509t-481 -183z" />
<glyph unicode="'" horiz-adv-x="321" d="M76 969l-29 444h227l-28 -444h-170z" />
<glyph unicode="(" horiz-adv-x="546" d="M53 485q0 234 79.5 453.5t227.5 404.5h168q-146 -203 -218 -407t-72 -442q0 -208 77 -432.5t213 -417.5h-168q-147 186 -227 401.5t-80 439.5z" />
<glyph unicode=")" horiz-adv-x="546" d="M494 504q0 -236 -79.5 -455.5t-228.5 -404.5h-168q146 203 218.5 408t72.5 442q0 209 -77.5 433t-213.5 416h168q148 -185 228 -400.5t80 -438.5z" />
<glyph unicode="*" horiz-adv-x="1042" d="M629 1104l272 110l60 -174l-283 -69l-47 -15l28 -34l187 -224l-144 -108l-153 246l-29 36l-26 -36l-152 -244l-149 102l188 226l29 36l-45 13l-283 71l51 172l275 -110l43 -17v48l-21 292h182l-20 -292v-46z" />
<glyph unicode="+" d="M121 514v186h309v310h186v-310h312v-186h-312v-311h-186v311h-309z" />
<glyph unicode="," horiz-adv-x="456" d="M72 164q0 67 42.5 112.5t112.5 45.5q72 0 115 -42.5t43 -125.5q0 -58 -51 -151t-109 -160.5t-82 -67.5h-108l112 258q-35 18 -55 52t-20 79z" />
<glyph unicode="-" horiz-adv-x="774" d="M123 481v213h528v-213h-528z" />
<glyph unicode="." horiz-adv-x="456" d="M72 154q0 74 40.5 121t114.5 47q75 0 116.5 -43.5t41.5 -124.5q0 -72 -41 -118t-115 -46q-75 0 -116 42.5t-41 121.5z" />
<glyph unicode="/" horiz-adv-x="620" d="M537 1382l170 -65l-623 -1712l-170 65z" />
<glyph unicode="0" d="M512 -18q-213 0 -336 126.5t-123 378.5q0 123 39 226.5t105 172.5t154.5 107.5t187.5 38.5q207 0 332.5 -132.5t125.5 -375.5q0 -123 -39 -226t-106 -171.5t-154.5 -106.5t-185.5 -38zM283 500q0 -322 243 -322q106 0 174 91t68 251q0 158 -64 237t-180 79 q-106 0 -173.5 -91t-67.5 -245z" />
<glyph unicode="1" horiz-adv-x="743" d="M39 778v180q189 56 364 56h129v-1014h-231v801q-127 0 -262 -23z" />
<glyph unicode="2" horiz-adv-x="1007" d="M129 772v209q164 45 320 45q198 0 301.5 -84.5t103.5 -234.5q0 -106 -66 -188.5t-192 -135.5l-131 -55q-103 -45 -160 -119v-4h608v-205h-804l-35 176q20 86 85.5 159.5t170.5 127.5l143 74q80 41 111.5 76.5t31.5 82.5q0 53 -51.5 84t-146.5 31q-146 0 -289 -39z" />
<glyph unicode="3" horiz-adv-x="915" d="M63 811v203h732l34 -187q-52 -122 -119 -206.5t-167 -149.5v-6q146 -31 226.5 -123t80.5 -229q0 -201 -175 -331t-460 -130h-170v190h166q190 0 295.5 69t105.5 187q0 81 -61.5 143.5t-171.5 86.5q-115 -55 -229 -78l-41 182q356 93 501 379h-547z" />
<glyph unicode="4" d="M856 1018v-828h156v-190h-156v-348h-225v348h-533l-51 152q47 291 194.5 518.5t383.5 347.5h231zM252 190h381v613h-4q-154 -100 -250 -255.5t-127 -357.5z" />
<glyph unicode="5" horiz-adv-x="1009" d="M848 1014v-203h-529v-274q76 6 142 6q215 0 330.5 -107.5t115.5 -288.5q0 -220 -176 -357.5t-461 -137.5h-164v190h175q176 0 282.5 75t106.5 200q0 106 -76.5 163.5t-226.5 57.5q-107 0 -240 -14v690h721z" />
<glyph unicode="6" d="M823 1352h117v-191h-119q-181 0 -305 -81.5t-182 -243.5l4 -5q104 58 250 58q185 0 292 -110.5t107 -309.5q0 -215 -133 -351t-330 -136q-205 0 -327.5 142t-122.5 419q0 202 55 358t155.5 254t236.5 147.5t302 49.5zM319 670q-8 -60 -8 -154q0 -177 67 -265.5t165 -88.5 q88 0 147.5 69t59.5 201q0 125 -66 193.5t-172 68.5q-116 0 -193 -24z" />
<glyph unicode="7" horiz-adv-x="937" d="M29 1014h833l35 -195q-167 -178 -274 -384t-149 -395t-42 -388h-221q0 319 100 600t326 549v8h-608v205z" />
<glyph unicode="8" d="M537 1362q187 0 295 -91t108 -233q0 -113 -54 -191t-179 -151l77 -45q113 -65 159 -136t46 -173q0 -157 -132 -258.5t-339 -101.5q-210 0 -330 92.5t-120 238.5q0 105 61 191t201 168l-64 47q-81 61 -113 124t-32 156q0 140 124 251.5t292 111.5zM532 1184 q-83 0 -133.5 -47t-50.5 -121q0 -59 20.5 -93t77.5 -73l125 -86q80 59 117 118.5t37 131.5q0 78 -51 124t-142 46zM604 508l-141 88q-87 -63 -123.5 -121t-36.5 -135q0 -82 63.5 -131t170.5 -49q95 0 155 44.5t60 112.5q0 53 -31.5 96t-116.5 95z" />
<glyph unicode="9" d="M229 -348h-116v190h118q181 0 307 85.5t183 250.5l-4 4q-105 -57 -248 -57q-180 0 -289.5 111t-109.5 309q0 215 131 351t327 136q207 0 328 -142.5t121 -418.5q0 -211 -56 -370.5t-157.5 -256.5t-235.5 -144.5t-299 -47.5zM731 346q8 60 8 152q0 180 -63 267t-166 87 q-94 0 -148.5 -68.5t-54.5 -201.5q0 -131 60.5 -197t162.5 -66q122 0 201 27z" />
<glyph unicode=":" horiz-adv-x="456" d="M72 154q0 74 40.5 121t114.5 47q75 0 116.5 -43.5t41.5 -124.5q0 -72 -41 -118t-115 -46q-75 0 -116 42.5t-41 121.5zM72 809q0 74 40.5 121t114.5 47q75 0 116.5 -43.5t41.5 -124.5q0 -72 -41 -118t-115 -46q-75 0 -116 42.5t-41 121.5z" />
<glyph unicode=";" horiz-adv-x="456" d="M72 809q0 74 40.5 121t114.5 47q75 0 116.5 -43.5t41.5 -124.5q0 -72 -41 -118t-115 -46q-75 0 -116 42.5t-41 121.5zM72 164q0 67 42.5 112.5t112.5 45.5q72 0 115 -42.5t43 -125.5q0 -58 -51 -151t-109 -160.5t-82 -67.5h-108l112 258q-35 18 -55 52t-20 79z" />
<glyph unicode="&#x3c;" d="M397 610v-4l488 -287l-97 -167l-645 391v129l645 391l97 -168z" />
<glyph unicode="=" d="M121 330v186h807v-186h-807zM121 698v187h807v-187h-807z" />
<glyph unicode="&#x3e;" d="M653 604v4l-487 287l96 168l645 -391v-129l-645 -391l-96 167z" />
<glyph unicode="?" horiz-adv-x="858" d="M786 1051q0 -119 -48.5 -192t-168.5 -140l-102 -57q-86 -48 -86 -119q0 -58 35 -121l-191 -10q-65 65 -65 157q0 71 35.5 125.5t117.5 104.5l109 65q64 38 89.5 73t25.5 85q0 54 -50.5 87.5t-144.5 33.5q-136 0 -285 -58v207q166 66 344 66q174 0 279.5 -84.5 t105.5 -222.5zM168 154q0 73 41 120.5t115 47.5q75 0 116 -43.5t41 -124.5q0 -72 -40.5 -118t-114.5 -46q-75 0 -116.5 42.5t-41.5 121.5z" />
<glyph unicode="@" horiz-adv-x="1896" d="M1087 -203v-125q-142 -65 -350 -65q-104 0 -198 25.5t-178.5 83t-145.5 143t-97 212.5t-36 283q0 178 50.5 336.5t140 277.5t208 206t258 131.5t287.5 44.5q233 0 412 -91.5t278 -260t99 -388.5q0 -145 -43 -266.5t-113.5 -199t-159 -120t-182.5 -42.5q-194 0 -240 168 h-6q-124 -162 -328 -162q-124 0 -198 100.5t-74 319.5q0 138 44.5 256.5t116 196t161 121.5t180.5 44q88 0 147 -20l180 22v-729q0 -158 86 -158q108 0 194.5 124.5t86.5 338.5q0 282 -178.5 446t-476.5 164q-153 0 -294.5 -61t-250 -168.5t-173.5 -268t-65 -347.5 q0 -154 42 -275.5t115 -197t168 -115t204 -39.5q76 0 167.5 15t161.5 40zM1069 299v522q-41 6 -108 6q-105 0 -178.5 -104.5t-73.5 -286.5q0 -139 32.5 -192.5t94.5 -53.5q65 0 119 24.5t114 84.5z" />
<glyph unicode="A" horiz-adv-x="1191" d="M782 1343l396 -1343h-281l-86 307h-459l-86 -307h-254l400 1343h370zM758 504l-168 622h-15l-174 -622h357z" />
<glyph unicode="B" horiz-adv-x="1165" d="M571 0h-409v1343h370q250 0 372 -87t122 -236q0 -238 -192 -313v-5q247 -61 247 -299q0 -194 -129 -298.5t-381 -104.5zM508 594h-100v-397h155q125 0 192.5 51.5t67.5 150.5q0 96 -74.5 145.5t-240.5 49.5zM522 1147h-114v-369h106q130 0 192 47t62 148q0 90 -58.5 132 t-187.5 42z" />
<glyph unicode="C" horiz-adv-x="1062" d="M1038 219v-201q-90 -20 -145.5 -26t-153.5 -6q-141 0 -259 40.5t-206.5 119.5t-138 203.5t-49.5 283.5q0 177 54.5 317.5t149 228.5t217.5 133.5t265 45.5q126 0 264 -27l-18 -209q-124 21 -254 21q-87 0 -162 -30.5t-133 -89t-91.5 -153t-33.5 -213.5q0 -115 34 -205.5 t92 -146t131 -84t155 -28.5q138 0 282 26z" />
<glyph unicode="D" horiz-adv-x="1339" d="M539 0h-377v1343h385q341 0 523.5 -163.5t182.5 -468.5q0 -355 -187.5 -533t-526.5 -178zM408 1141v-938h141q211 0 328.5 121t117.5 374q0 215 -122.5 329t-342.5 114h-122z" />
<glyph unicode="E" horiz-adv-x="976" d="M162 0v1343h704v-202h-458v-348h421v-203h-421v-387h464v-203h-710z" />
<glyph unicode="F" horiz-adv-x="964" d="M162 0v1343h704v-202h-458v-363h434v-203h-434v-575h-246z" />
<glyph unicode="G" horiz-adv-x="1269" d="M711 471v201h444v-647q-192 -39 -403 -39q-305 0 -485.5 166.5t-180.5 480.5q0 181 55.5 321t154.5 227.5t230 132t287 44.5q162 0 303 -27l-18 -209q-146 21 -293 21q-208 0 -334.5 -125t-126.5 -361q0 -225 118.5 -347t299.5 -122q68 0 156 9v274h-207z" />
<glyph unicode="H" horiz-adv-x="1357" d="M948 0v580h-540v-580h-246v1343h246v-548h540v548h248v-1343h-248z" />
<glyph unicode="I" horiz-adv-x="569" d="M408 1343v-1343h-246v1343h246z" />
<glyph unicode="J" horiz-adv-x="681" d="M528 1343v-944q0 -210 -108 -310.5t-309 -100.5q-69 0 -105 8v211q62 -8 105 -8q80 0 125 52.5t45 151.5v940h247z" />
<glyph unicode="K" horiz-adv-x="1230" d="M162 1343h246v-557h110l406 557h282l-471 -630l486 -713h-308l-389 586h-116v-586h-246v1343z" />
<glyph unicode="L" horiz-adv-x="897" d="M162 0v1343h246v-1140h464v-203h-710z" />
<glyph unicode="M" horiz-adv-x="1708" d="M430 1092h-8l-43 -1092h-236l58 1343h391l266 -804h10l267 804h366l64 -1343h-248l-51 1092h-11l-270 -834h-274z" />
<glyph unicode="N" horiz-adv-x="1339" d="M793 0l-396 1085h-8v-1085h-227v1343h385l395 -1085h8v1085h228v-1343h-385z" />
<glyph unicode="O" horiz-adv-x="1431" d="M86 659q0 167 51.5 302t140 221.5t205 133t248.5 46.5q130 0 240.5 -42t195 -123.5t132 -213t47.5 -299.5q0 -134 -33.5 -248t-92.5 -197t-140 -141.5t-176.5 -87t-201.5 -28.5q-131 0 -241.5 41.5t-195 123t-132 213t-47.5 299.5zM344 682q0 -127 29 -221.5t81 -150 t118 -82.5t145 -27q72 0 136 26.5t117.5 79.5t85 144.5t31.5 210.5q0 127 -28.5 222.5t-80 151t-117 82.5t-144.5 27q-73 0 -138 -26.5t-118.5 -80.5t-85 -145.5t-31.5 -210.5z" />
<glyph unicode="P" horiz-adv-x="1099" d="M408 479v-479h-246v1343h422q222 0 344.5 -111.5t122.5 -299.5q0 -214 -135 -337.5t-361 -123.5q-82 0 -147 8zM408 1147v-471q55 -8 116 -8q127 0 199 64t72 181q0 234 -248 234h-139z" />
<glyph unicode="Q" horiz-adv-x="1431" d="M86 659q0 167 51.5 302t140 221.5t205 133t248.5 46.5q130 0 240.5 -42t195 -123.5t132 -213t47.5 -299.5q0 -246 -105.5 -413.5t-282.5 -239.5l322 -385h-291l-272 336h-15q-131 0 -241.5 41.5t-195 123t-132 213t-47.5 299.5zM344 682q0 -127 29 -221.5t81 -150 t118 -82.5t145 -27q72 0 136 26.5t117.5 79.5t85 144.5t31.5 210.5q0 127 -28.5 222.5t-80 151t-117 82.5t-144.5 27q-73 0 -138 -26.5t-118.5 -80.5t-85 -145.5t-31.5 -210.5z" />
<glyph unicode="R" horiz-adv-x="1159" d="M408 514v-514h-246v1343h393q245 0 373.5 -101.5t128.5 -272.5q0 -134 -65 -234.5t-179 -152.5l356 -582h-286l-308 514h-167zM408 1147v-440h149q112 0 178 62t66 171q0 104 -63.5 155.5t-200.5 51.5h-129z" />
<glyph unicode="S" horiz-adv-x="1044" d="M86 10v213q173 -33 342 -33q134 0 211.5 51.5t77.5 127.5q0 67 -42.5 109.5t-160.5 82.5l-168 57q-244 82 -244 338q0 179 138.5 290.5t380.5 111.5q146 0 284 -27l-16 -205q-147 27 -281 27q-132 0 -199 -46t-67 -122q0 -63 39 -103t131 -69l166 -53q147 -47 215 -130 t68 -214q0 -193 -146 -311.5t-395 -118.5q-194 0 -334 24z" />
<glyph unicode="T" horiz-adv-x="1062" d="M655 1141v-1141h-247v1141h-373v202h993v-202h-373z" />
<glyph unicode="U" horiz-adv-x="1306" d="M647 -16q-500 0 -500 481v878h246v-849q0 -291 269 -291q128 0 196 73.5t68 212.5v854h233v-860q0 -227 -138 -363t-374 -136z" />
<glyph unicode="V" horiz-adv-x="1179" d="M406 0l-394 1343h275l309 -1099h10l307 1099h254l-397 -1343h-364z" />
<glyph unicode="W" horiz-adv-x="1865" d="M362 0l-350 1343h275l262 -1099h12l264 809l-90 290h262l330 -1099h10l265 1099h251l-354 -1343h-344l-219 741h-10l-224 -741h-340z" />
<glyph unicode="X" horiz-adv-x="1159" d="M49 1343h287l250 -428h8l250 428h262l-391 -638l426 -705h-287l-283 479h-8l-280 -479h-265l424 688z" />
<glyph unicode="Y" horiz-adv-x="1097" d="M674 541v-541h-246v541l-422 802h277l282 -563h8l275 563h244z" />
<glyph unicode="Z" horiz-adv-x="1019" d="M86 1139v204h879v-198l-633 -932v-8h637v-205h-920v199l633 931v9h-596z" />
<glyph unicode="[" horiz-adv-x="524" d="M156 1343h340v-143h-168v-1421h168v-141h-340v1705z" />
<glyph unicode="\" horiz-adv-x="620" d="M-86 1317l170 65l623 -1712l-170 -65z" />
<glyph unicode="]" horiz-adv-x="524" d="M369 -362h-340v143h168v1421h-168v141h340v-1705z" />
<glyph unicode="^" d="M526 1368l447 -448l-129 -129l-318 319l-317 -319l-129 129z" />
<glyph unicode="_" horiz-adv-x="1024" d="M0 -266v184h1024v-184h-1024z" />
<glyph unicode="`" horiz-adv-x="833" d="M412 1425l157 -297h-176l-227 297h246z" />
<glyph unicode="a" horiz-adv-x="995" d="M881 670v-670h-217v66q-65 -41 -131.5 -59.5t-155.5 -18.5q-153 0 -237.5 76t-84.5 206q0 146 116 232t345 86q26 0 72 -1t67 -1v57q0 85 -54 128.5t-171 43.5q-141 0 -289 -61l-32 194q184 78 364 78q202 0 305 -92t103 -264zM293 289q0 -54 40 -85.5t111 -31.5 q111 0 211 53v191q-78 4 -133 4q-229 0 -229 -131z" />
<glyph unicode="b" horiz-adv-x="1107" d="M1036 541q0 -260 -154 -406.5t-413 -146.5q-161 0 -338 22v1409l231 13v-484q124 78 256 78q196 0 307 -125t111 -360zM799 522q0 146 -66 217.5t-186 71.5q-91 0 -185 -39v-575q65 -11 123 -11q147 0 230.5 81.5t83.5 254.5z" />
<glyph unicode="c" horiz-adv-x="819" d="M782 1004l-20 -209q-95 18 -180 18q-123 0 -198 -82.5t-75 -228.5q0 -157 75.5 -234.5t201.5 -77.5q89 0 194 27v-201q-95 -28 -217 -28q-229 0 -360 126t-131 378q0 123 40 225.5t108 169.5t158 104t191 37q117 0 213 -24z" />
<glyph unicode="d" horiz-adv-x="1112" d="M981 1432v-1432h-225v70q-116 -82 -262 -82q-194 0 -308 127.5t-114 367.5q0 252 147 397.5t383 145.5q88 0 148 -16v409zM604 827q-135 0 -215 -88t-80 -243t68 -230.5t186 -75.5q54 0 94.5 10.5t92.5 37.5v577q-73 12 -146 12z" />
<glyph unicode="e" horiz-adv-x="997" d="M72 504q0 126 35.5 227.5t98 166.5t145 99.5t177.5 34.5q188 0 295 -109t107 -305q0 -104 -6 -172h-627q36 -262 311 -262q147 0 295 49v-192q-85 -28 -156 -40.5t-167 -12.5q-239 0 -373.5 129.5t-134.5 386.5zM301 616h404q0 105 -52 167.5t-141 62.5 q-83 0 -139.5 -59.5t-71.5 -170.5z" />
<glyph unicode="f" horiz-adv-x="647" d="M166 836h-129v178h129v73q0 169 97.5 259t299.5 90q79 0 146 -17l-19 -180q-67 12 -123 12q-89 0 -129.5 -38.5t-40.5 -120.5v-78h248v-178h-248v-836h-231v836z" />
<glyph unicode="g" horiz-adv-x="1003" d="M301 266q0 -35 30 -52t99 -17h242q160 0 234.5 -62.5t74.5 -187.5q0 -154 -132 -251t-396 -97q-211 0 -316.5 69t-105.5 191q0 73 39.5 130t113.5 89v6q-36 19 -58 55.5t-22 79.5q0 49 29.5 90t83.5 62v6q-145 80 -145 268q0 182 113.5 280.5t308.5 98.5q82 0 155 -20 h328v-154h-156v-6q34 -26 57 -77t23 -114q0 -167 -110 -253.5t-320 -86.5q-61 0 -127 17q-43 -22 -43 -64zM485 471q201 0 201 201q0 92 -50 140t-147 48q-90 0 -143 -51.5t-53 -151.5q0 -186 192 -186zM246 -96q0 -62 56 -97.5t171 -35.5q301 0 301 135q0 46 -32 69.5 t-105 24.5l-336 10q-55 -38 -55 -106z" />
<glyph unicode="h" horiz-adv-x="1091" d="M745 0v621q0 190 -186 190q-103 0 -197 -39v-772h-231v1419l231 13v-484q132 78 263 78q167 0 259.5 -93t92.5 -265v-668h-232z" />
<glyph unicode="i" horiz-adv-x="493" d="M362 1018v-1018h-231v1008zM111 1300q0 57 36 95.5t99 38.5q65 0 101 -37t36 -97q0 -56 -36.5 -93.5t-100.5 -37.5q-65 0 -100 35.5t-35 95.5z" />
<glyph unicode="j" horiz-adv-x="493" d="M362 1018v-1018q0 -181 -99.5 -278t-266.5 -121l-21 184q80 20 118 71t38 140v1012zM111 1300q0 57 36 95.5t99 38.5q65 0 101 -37t36 -97q0 -56 -36.5 -93.5t-100.5 -37.5q-65 0 -100 35.5t-35 95.5z" />
<glyph unicode="k" horiz-adv-x="1019" d="M362 467v-467h-231v1419l231 13v-785h87l290 367h265l-351 -428l377 -586h-280l-287 467h-101z" />
<glyph unicode="l" horiz-adv-x="493" d="M362 1432v-1432h-231v1419z" />
<glyph unicode="m" horiz-adv-x="1685" d="M1339 0v618q0 193 -184 193q-54 0 -93.5 -8.5t-94.5 -30.5v-772h-232v618q0 101 -45.5 147t-138.5 46q-56 0 -94.5 -8.5t-94.5 -30.5v-772h-231v1008l225 10v-74q72 43 133 62.5t134 19.5q182 0 276 -111q154 111 322 111t259 -93.5t91 -266.5v-666h-232z" />
<glyph unicode="n" horiz-adv-x="1091" d="M745 0v621q0 190 -186 190q-103 0 -197 -39v-772h-231v1008l225 10v-74q131 82 269 82q167 0 259.5 -93t92.5 -265v-668h-232z" />
<glyph unicode="o" horiz-adv-x="1122" d="M1051 524q0 -122 -41 -225t-110 -171.5t-160.5 -107t-192.5 -38.5q-216 0 -345.5 130.5t-129.5 374.5q0 122 40.5 225.5t109.5 173t160.5 108t192.5 38.5q216 0 346 -131.5t130 -376.5zM813 518q0 152 -67.5 230.5t-184.5 78.5q-110 0 -181 -87.5t-71 -243.5 q0 -153 67 -231.5t185 -78.5q110 0 181 88t71 244z" />
<glyph unicode="p" horiz-adv-x="1107" d="M131 -391v1399l225 10v-74q122 82 262 82q196 0 307 -123t111 -362q0 -262 -149.5 -407.5t-399.5 -145.5q-63 0 -125 12v-391h-231zM487 186q145 0 228.5 84t83.5 252q0 145 -65.5 217t-184.5 72q-93 0 -187 -39v-575q70 -11 125 -11z" />
<glyph unicode="q" horiz-adv-x="1112" d="M981 1004v-1395h-231v457q-121 -78 -261 -78q-189 0 -303 127.5t-114 359.5q0 262 148.5 406.5t414.5 144.5q160 0 346 -22zM614 827q-141 0 -223 -85.5t-82 -249.5q0 -151 68.5 -226.5t185.5 -75.5q53 0 94 10.5t93 37.5v577q-67 12 -136 12z" />
<glyph unicode="r" horiz-adv-x="677" d="M690 1012l-16 -224q-64 15 -115 15q-99 0 -197 -74v-729h-231v1008l229 10v-117q52 67 102 96t111 29q65 0 117 -14z" />
<glyph unicode="s" horiz-adv-x="843" d="M70 16v201q134 -35 288 -35q193 0 193 105q0 41 -29 66t-108 48l-127 37q-217 64 -217 271q0 140 113.5 228.5t308.5 88.5q137 0 247 -22l-14 -195q-126 20 -246 20q-89 0 -134.5 -27t-45.5 -69q0 -39 24.5 -62t94.5 -42l121 -33q128 -34 185.5 -101t57.5 -171 q0 -156 -113.5 -246t-308.5 -90q-181 0 -290 28z" />
<glyph unicode="t" horiz-adv-x="698" d="M43 836v178h123v184l231 21v-205h256v-178h-256v-480q0 -85 40.5 -126.5t111.5 -41.5q56 0 131 17v-193q-93 -24 -199 -24q-146 0 -230.5 85t-84.5 253v510h-123z" />
<glyph unicode="u" horiz-adv-x="1079" d="M346 1018v-625q0 -104 42 -150t136 -46q96 0 193 43v768l231 10v-1018h-223v68q-75 -46 -130.5 -66t-127.5 -20q-175 0 -263.5 94.5t-88.5 273.5v658z" />
<glyph unicode="v" horiz-adv-x="952" d="M319 0l-323 1014h266l223 -817h15l215 817h241l-317 -1014h-320z" />
<glyph unicode="w" horiz-adv-x="1486" d="M1487 1014l-273 -1014h-319l-150 559h-6l-161 -559h-310l-270 1014h266l172 -817h10l201 628l-51 189h233l230 -817h10l176 817h242z" />
<glyph unicode="x" horiz-adv-x="937" d="M928 0h-264l-201 346h-8l-197 -346h-248l324 520l-307 494h276l178 -320h8l168 320h248l-297 -490z" />
<glyph unicode="y" horiz-adv-x="933" d="M324 27l-318 987h256l225 -783h9l198 783h236l-344 -1153q-80 -264 -371 -264q-75 0 -131 10v188q57 -8 123 -8q123 0 168 139l33 101h-84z" />
<glyph unicode="z" horiz-adv-x="858" d="M76 825v189h723v-178l-480 -641v-7h486v-188h-752v178l477 643v4h-454z" />
<glyph unicode="{" horiz-adv-x="628" d="M264 729v373q0 120 66.5 188t183.5 68q61 0 94 -8v-131q-94 0 -132 -23t-38 -82v-356q0 -114 -75.5 -185t-229.5 -86v-2q158 -10 231.5 -65.5t73.5 -163.5v-369q0 -68 39.5 -93t136.5 -25v-127q-51 -15 -94 -15q-127 0 -191.5 52.5t-64.5 154.5v397q0 65 -54.5 112 t-178.5 77v143q121 16 177 60.5t56 105.5z" />
<glyph unicode="|" horiz-adv-x="456" d="M139 1343h178v-1699h-178v1699z" />
<glyph unicode="}" horiz-adv-x="628" d="M365 256v-373q0 -120 -66.5 -188t-183.5 -68q-62 0 -95 8v132q94 0 132 22.5t38 81.5v356q0 114 76 185t230 86v2q-158 10 -232 66t-74 163v369q0 68 -39.5 93.5t-136.5 25.5v126q51 15 95 15q127 0 191.5 -52.5t64.5 -154.5v-397q0 -65 54.5 -112t178.5 -77v-143 q-121 -16 -177 -60.5t-56 -105.5z" />
<glyph unicode="~" d="M877 725l63 -141q-48 -72 -105 -109t-141 -37q-43 0 -92 24.5t-86 53.5t-82.5 53.5t-81.5 24.5q-43 0 -90 -27.5t-86 -77.5l-65 144q110 149 262 149q46 0 95.5 -24t85 -53.5t79.5 -53.5t80 -24q88 0 164 98z" />
<glyph unicode="&#xa1;" horiz-adv-x="550" d="M395 -319l-260 -23l23 625v313l237 6v-921zM432 860q0 -73 -41 -120.5t-115 -47.5q-75 0 -116 43.5t-41 124.5q0 72 40.5 118t114.5 46q75 0 116.5 -42.5t41.5 -121.5z" />
<glyph unicode="&#xa2;" d="M692 -43h-170v207q-174 30 -271 153t-97 340q0 204 102.5 342t265.5 179v208h170v-192q77 -2 172 -25l-20 -208q-94 18 -180 18q-123 0 -198 -82.5t-75 -228.5q0 -157 75.5 -234.5t201.5 -77.5q89 0 194 27v-201q-75 -22 -170 -28v-197z" />
<glyph unicode="&#xa3;" d="M473 805h279v-184h-279v-213q0 -75 -9.5 -121t-33.5 -88h281q127 0 243 43v-203q-88 -39 -256 -39h-626v199h96q33 36 46 78t13 116v228h-133v184h133v170q0 178 107 278.5t311 100.5q119 0 211 -25v-207q-92 25 -221 25q-162 0 -162 -162v-180z" />
<glyph unicode="&#xa4;" d="M186 606q0 94 45 168l-118 119l125 125l118 -119q76 45 168 45q89 0 168 -45l119 119l127 -125l-123 -119q47 -79 47 -168q0 -94 -45 -170l119 -114l-125 -123l-119 114q-71 -45 -168 -45t-168 45l-118 -118l-125 124l118 119q-45 71 -45 168zM354 606q0 -70 50 -120 t120 -50t120 50t50 120t-50 120t-120 50t-120 -50t-50 -120z" />
<glyph unicode="&#xa5;" d="M121 373h282v141h-282v186h203l-318 643h277l258 -563h8l252 563h243l-317 -643h201v-186h-279v-141h279v-187h-279v-186h-246v186h-282v187z" />
<glyph unicode="&#xa6;" horiz-adv-x="456" d="M139 209h178v-565h-178v565zM139 1343h178v-565h-178v565z" />
<glyph unicode="&#xa7;" horiz-adv-x="1044" d="M905 1331l-16 -205q-147 27 -281 27q-132 0 -199 -46t-67 -122q0 -72 49 -113q67 25 141 25q165 0 275.5 -109.5t110.5 -273.5q0 -111 -58 -209q101 -91 101 -248q0 -193 -146 -311.5t-395 -118.5q-188 0 -334 25v213q173 -33 342 -33q134 0 212.5 52.5t78.5 125.5 q0 78 -68 127q-59 -18 -127 -18q-164 0 -274.5 109.5t-110.5 273.5q0 110 54 203q-91 91 -91 251q0 183 137.5 292.5t381.5 109.5q146 0 284 -27zM338 508q0 -83 55.5 -141t134.5 -58t134 58t55 141t-54.5 140t-134.5 57t-135 -57t-55 -140z" />
<glyph unicode="&#xa8;" horiz-adv-x="856" d="M139 1235q0 54 29.5 87.5t83.5 33.5q115 0 115 -121q0 -52 -30 -85.5t-85 -33.5t-84 31t-29 88zM494 1235q0 54 30 87.5t84 33.5t84.5 -31.5t30.5 -89.5q0 -51 -31 -85t-84 -34q-55 0 -84.5 31t-29.5 88z" />
<glyph unicode="&#xa9;" horiz-adv-x="1576" d="M92 670q0 187 93.5 346.5t254 252.5t348.5 93q187 0 347.5 -93t254 -252.5t93.5 -346.5q0 -141 -55.5 -269.5t-149 -222t-222 -148.5t-268.5 -55q-141 0 -270 55t-222 148.5t-148.5 222t-55.5 269.5zM215 670q0 -156 76.5 -290t208.5 -213t288 -79q155 0 287 79 t208.5 213t76.5 290q0 116 -45.5 223t-122 185t-182.5 124.5t-222 46.5q-156 0 -288 -78.5t-208.5 -212t-76.5 -288.5zM1030 432v-158q-98 -18 -196 -18q-201 0 -321 98t-120 287q0 107 36.5 191.5t100 138t146.5 81t180 27.5q68 0 174 -16l-12 -162q-86 14 -168 14 q-118 0 -191 -67.5t-73 -192.5q0 -120 73.5 -180.5t184.5 -60.5q91 0 186 18z" />
<glyph unicode="&#xaa;" horiz-adv-x="727" d="M651 1102v-422h-182v41q-87 -49 -201 -49q-115 0 -174 49t-59 137q0 101 81.5 157t250.5 56q23 0 55 -1t39 -1v21q0 98 -158 98q-85 0 -207 -43l-22 162q146 47 264 47q153 0 233 -64t80 -188zM231 870q0 -29 28.5 -46t82.5 -17q62 0 119 14v119q-40 4 -86 4 q-74 0 -109 -20.5t-35 -53.5z" />
<glyph unicode="&#xab;" horiz-adv-x="1165" d="M426 76l-332 438l332 438h229l-315 -428l315 -448h-229zM836 76l-332 438l332 438h229l-315 -428l315 -448h-229z" />
<glyph unicode="&#xac;" d="M121 698v187h807v-525h-187v338h-620z" />
<glyph unicode="&#xad;" horiz-adv-x="774" d="M123 481v213h528v-213h-528z" />
<glyph unicode="&#xae;" horiz-adv-x="1576" d="M92 670q0 187 93.5 346.5t254 252.5t348.5 93q187 0 347.5 -93t254 -252.5t93.5 -346.5q0 -141 -55.5 -269.5t-149 -222t-222 -148.5t-268.5 -55q-141 0 -270 55t-222 148.5t-148.5 222t-55.5 269.5zM215 670q0 -156 76.5 -290t208.5 -213t288 -79q155 0 287 79 t208.5 213t76.5 290q0 116 -45.5 223t-122 185t-182.5 124.5t-222 46.5q-156 0 -288 -78.5t-208.5 -212t-76.5 -288.5zM676 537v-273h-182v807h270q338 0 338 -229q0 -93 -41 -156.5t-115 -91.5l213 -330h-213l-170 273h-100zM676 928v-250h90q73 0 110 35t37 100 q0 57 -36.5 86t-126.5 29h-74z" />
<glyph unicode="&#xaf;" horiz-adv-x="776" d="M131 1139v159h510v-159h-510z" />
<glyph unicode="&#xb0;" horiz-adv-x="753" d="M233 1042q0 -61 43 -104t105 -43t105.5 43t43.5 104q0 62 -44 106t-105 44t-104.5 -44t-43.5 -106zM68 1042q0 131 91.5 223.5t221.5 92.5t222.5 -92.5t92.5 -223.5q0 -130 -92 -221.5t-223 -91.5t-222 91.5t-91 221.5z" />
<glyph unicode="&#xb1;" d="M121 535v186h309v309h186v-309h312v-186h-312v-291h-186v291h-309zM121 0v186h807v-186h-807z" />
<glyph unicode="&#xb2;" horiz-adv-x="751" d="M104 1210v170q121 31 240 31q158 0 238 -69.5t80 -192.5q0 -84 -52 -156.5t-147 -124.5l-64 -34q-63 -34 -95 -69t-46 -81h428v-154h-604l-16 144q13 73 68.5 145t129.5 115l80 47q71 42 94 70t23 75q0 52 -41 81.5t-115 29.5q-98 0 -201 -27z" />
<glyph unicode="&#xb3;" horiz-adv-x="751" d="M100 1243v160h543l23 -174q-44 -60 -91 -99t-120 -73v-4q104 -23 160.5 -86t56.5 -148q0 -131 -127 -216t-336 -85h-129v154h127q133 0 201.5 37t68.5 102q0 48 -38.5 86t-104.5 51q-83 -45 -174 -63l-33 123q110 27 209 92.5t151 142.5h-387z" />
<glyph unicode="&#xb4;" horiz-adv-x="833" d="M360 1128l158 297h246l-227 -297h-177z" />
<glyph unicode="&#xb5;" horiz-adv-x="1095" d="M965 1018v-756q0 -72 51 -72q28 0 71 19v-195q-70 -26 -169 -26q-56 0 -103.5 28.5t-66.5 73.5q-105 -108 -265 -108q-69 0 -131 16v-61q0 -177 62 -328h-228q-31 72 -43 141t-12 168v1090l231 10v-625q0 -104 42.5 -150t136.5 -46q56 0 97 9.5t95 33.5v768z" />
<glyph unicode="&#xb6;" horiz-adv-x="1452" d="M846 1343h459v-1855h-232v1681h-172v-1681h-166v721q-71 -23 -178 -23q-108 0 -195.5 34t-154.5 104t-104 186t-37 270q0 264 160 416t446 152q34 0 91 -2.5t83 -2.5z" />
<glyph unicode="&#xb7;" horiz-adv-x="382" d="M49 606q0 67 37 110.5t104 43.5q69 0 106.5 -40t37.5 -114q0 -65 -37 -107t-104 -42q-69 0 -106.5 38.5t-37.5 110.5z" />
<glyph unicode="&#xb8;" horiz-adv-x="1552" d="M279 -53l159 -13q86 -6 125 -36.5t39 -90.5q0 -89 -81 -143.5t-232 -54.5h-96v127h98q135 0 135 49q0 20 -24.5 33t-88.5 20l-34 4v105z" />
<glyph unicode="&#xb9;" horiz-adv-x="751" d="M125 1214v144q155 45 305 45h98v-873h-196v701q-108 0 -207 -17z" />
<glyph unicode="&#xba;" horiz-adv-x="784" d="M739 1024q0 -160 -104 -260t-254 -100q-152 0 -244 85.5t-92 243.5q0 159 103.5 260t252.5 101q154 0 246 -85.5t92 -244.5zM545 1018q0 172 -154 172q-68 0 -109.5 -53t-41.5 -140q0 -168 151 -168q68 0 111 52t43 137z" />
<glyph unicode="&#xbb;" horiz-adv-x="1165" d="M330 952l332 -438l-332 -438h-230l316 428l-316 448h230zM739 952l332 -438l-332 -438h-229l315 428l-315 448h229z" />
<glyph unicode="&#xbc;" horiz-adv-x="1658" d="M1194 1403l149 -88l-937 -1622l-150 88zM125 1214v144q155 45 305 45h98v-873h-196v701q-108 0 -207 -17zM1448 565v-553h111v-157h-111v-162h-191v162h-376l-39 133q29 176 135 326t264 251h207zM1010 12h247v379h-2q-101 -79 -157 -166t-88 -213z" />
<glyph unicode="&#xbd;" horiz-adv-x="1658" d="M1194 1403l149 -88l-937 -1622l-150 88zM125 1214v144q155 45 305 45h98v-873h-196v701q-108 0 -207 -17zM987 373v170q117 30 240 30q157 0 237 -69.5t80 -192.5q0 -84 -51.5 -156.5t-146.5 -123.5l-64 -35q-63 -34 -95 -69t-46 -81h428v-153h-604l-17 143q13 73 69 145 t130 115l80 47q70 41 93 70t23 76q0 52 -40.5 81t-114.5 29q-102 0 -201 -26z" />
<glyph unicode="&#xbe;" horiz-adv-x="1658" d="M1194 1403l149 -88l-937 -1622l-150 88zM1448 565v-553h111v-157h-111v-162h-191v162h-376l-39 133q29 176 135 326t264 251h207zM1010 12h247v379h-2q-101 -79 -157 -166t-88 -213zM100 1243v160h543l23 -174q-44 -60 -91 -99t-120 -73v-4q104 -23 160.5 -86t56.5 -148 q0 -131 -127 -216t-336 -85h-129v154h127q133 0 201.5 37t68.5 102q0 48 -38.5 86t-104.5 51q-83 -45 -174 -63l-33 123q110 27 209 92.5t151 142.5h-387z" />
<glyph unicode="&#xbf;" horiz-adv-x="858" d="M72 -37q0 119 48.5 192t168.5 140l102 57q86 48 86 119q0 58 -35 121l191 10q65 -65 65 -158q0 -71 -35.5 -125t-117.5 -104l-109 -65q-64 -38 -89 -73t-25 -85q0 -54 50 -87.5t144 -33.5q139 0 285 57v-207q-163 -65 -344 -65q-174 0 -279.5 84.5t-105.5 222.5zM690 860 q0 -74 -40.5 -121t-114.5 -47q-75 0 -116.5 43.5t-41.5 124.5q0 72 40.5 118t114.5 46q75 0 116.5 -42.5t41.5 -121.5z" />
<glyph unicode="&#xc0;" horiz-adv-x="1191" d="M782 1343l396 -1343h-281l-86 307h-459l-86 -307h-254l400 1343h370zM758 504l-168 622h-15l-174 -622h357zM551 1774l158 -297h-177l-227 297h246z" />
<glyph unicode="&#xc1;" horiz-adv-x="1191" d="M782 1343l396 -1343h-281l-86 307h-459l-86 -307h-254l400 1343h370zM758 504l-168 622h-15l-174 -622h357zM487 1477l158 297h246l-227 -297h-177z" />
<glyph unicode="&#xc2;" horiz-adv-x="1191" d="M782 1343l396 -1343h-281l-86 307h-459l-86 -307h-254l400 1343h370zM758 504l-168 622h-15l-174 -622h357zM272 1477l226 297h211l209 -297h-205l-115 163h-16l-117 -163h-193z" />
<glyph unicode="&#xc3;" horiz-adv-x="1191" d="M782 1343l396 -1343h-281l-86 307h-459l-86 -307h-254l400 1343h370zM758 504l-168 622h-15l-174 -622h357zM860 1706l49 -131q-72 -115 -188 -115q-41 0 -90.5 30t-95 59.5t-76.5 29.5q-74 0 -131 -76l-49 131q38 55 89.5 87t108.5 32q36 0 75 -18.5t67 -41t61 -41 t59 -18.5q67 0 121 72z" />
<glyph unicode="&#xc4;" horiz-adv-x="1191" d="M782 1343l396 -1343h-281l-86 307h-459l-86 -307h-254l400 1343h370zM758 504l-168 622h-15l-174 -622h357zM303 1583q0 54 29.5 87.5t83.5 33.5q114 0 114 -121q0 -52 -29.5 -85.5t-84.5 -33.5t-84 31t-29 88zM657 1583q0 54 30.5 87.5t84.5 33.5t84.5 -31.5t30.5 -89.5 q0 -51 -31 -85t-84 -34q-55 0 -85 31t-30 88z" />
<glyph unicode="&#xc5;" horiz-adv-x="1191" d="M782 1343l396 -1343h-281l-86 307h-459l-86 -307h-254l400 1343h370zM758 504l-168 622h-15l-174 -622h357zM412 1636q0 76 54.5 129.5t129.5 53.5q76 0 129 -53t53 -130q0 -76 -53 -130t-129 -54q-75 0 -129.5 54.5t-54.5 129.5zM520 1636q0 -33 22 -56.5t54 -23.5 q29 0 51.5 24t22.5 56q0 31 -22.5 54.5t-51.5 23.5q-32 0 -54 -23.5t-22 -54.5z" />
<glyph unicode="&#xc6;" horiz-adv-x="1679" d="M864 0v307h-438l-158 -307h-268l719 1343h850v-202h-459v-348h422v-203h-422v-387h465v-203h-711zM850 1145l-324 -641h338v641h-14z" />
<glyph unicode="&#xc7;" horiz-adv-x="1062" d="M1038 219v-201q-90 -20 -145.5 -26t-153.5 -6q-141 0 -259 40.5t-206.5 119.5t-138 203.5t-49.5 283.5q0 177 54.5 317.5t149 228.5t217.5 133.5t265 45.5q126 0 264 -27l-18 -209q-124 21 -254 21q-87 0 -162 -30.5t-133 -89t-91.5 -153t-33.5 -213.5q0 -115 34 -205.5 t92 -146t131 -84t155 -28.5q138 0 282 26zM545 -47l157 -12q195 -14 195 -134q0 -88 -88 -143t-240 -55h-112v133h114q81 0 110.5 11.5t29.5 35.5q0 19 -21 29.5t-86 17.5l-59 6v111z" />
<glyph unicode="&#xc8;" horiz-adv-x="976" d="M162 0v1343h704v-202h-458v-348h421v-203h-421v-387h464v-203h-710zM473 1774l158 -297h-176l-228 297h246z" />
<glyph unicode="&#xc9;" horiz-adv-x="976" d="M162 0v1343h704v-202h-458v-348h421v-203h-421v-387h464v-203h-710zM410 1477l157 297h246l-227 -297h-176z" />
<glyph unicode="&#xca;" horiz-adv-x="976" d="M162 0v1343h704v-202h-458v-348h421v-203h-421v-387h464v-203h-710zM195 1477l225 297h211l209 -297h-205l-115 163h-16l-117 -163h-192z" />
<glyph unicode="&#xcb;" horiz-adv-x="976" d="M162 0v1343h704v-202h-458v-348h421v-203h-421v-387h464v-203h-710zM225 1583q0 54 29.5 87.5t83.5 33.5q115 0 115 -121q0 -52 -30 -85.5t-85 -33.5t-84 31t-29 88zM580 1583q0 54 30 87.5t84 33.5t84.5 -31.5t30.5 -89.5q0 -51 -31 -85t-84 -34q-55 0 -84.5 31 t-29.5 88z" />
<glyph unicode="&#xcc;" horiz-adv-x="569" d="M408 1343v-1343h-246v1343h246zM242 1774l157 -297h-176l-227 297h246z" />
<glyph unicode="&#xcd;" horiz-adv-x="569" d="M408 1343v-1343h-246v1343h246zM178 1477l158 297h246l-228 -297h-176z" />
<glyph unicode="&#xce;" horiz-adv-x="569" d="M408 1343v-1343h-246v1343h246zM-37 1477l225 297h211l209 -297h-205l-114 163h-17l-116 -163h-193z" />
<glyph unicode="&#xcf;" horiz-adv-x="569" d="M408 1343v-1343h-246v1343h246zM-6 1583q0 54 29 87.5t83 33.5q115 0 115 -121q0 -52 -30 -85.5t-85 -33.5t-83.5 31t-28.5 88zM348 1583q0 54 30.5 87.5t84.5 33.5t84.5 -31.5t30.5 -89.5q0 -51 -31 -85t-84 -34q-55 0 -85 31t-30 88z" />
<glyph unicode="&#xd0;" horiz-adv-x="1339" d="M580 0h-377v582h-152v213h152v548h385q341 0 523.5 -163.5t182.5 -468.5q0 -355 -187.5 -533t-526.5 -178zM449 1141v-346h243v-213h-243v-379h141q211 0 328.5 121t117.5 374q0 215 -122.5 329t-342.5 114h-122z" />
<glyph unicode="&#xd1;" horiz-adv-x="1339" d="M793 0l-396 1085h-8v-1085h-227v1343h385l395 -1085h8v1085h228v-1343h-385zM936 1706l49 -131q-72 -115 -188 -115q-41 0 -90.5 30t-95 59.5t-76.5 29.5q-75 0 -132 -76l-49 131q38 55 90 87t109 32q36 0 75 -18.5t67 -41t61 -41t59 -18.5q67 0 121 72z" />
<glyph unicode="&#xd2;" horiz-adv-x="1431" d="M86 659q0 167 51.5 302t140 221.5t205 133t248.5 46.5q130 0 240.5 -42t195 -123.5t132 -213t47.5 -299.5q0 -134 -33.5 -248t-92.5 -197t-140 -141.5t-176.5 -87t-201.5 -28.5q-131 0 -241.5 41.5t-195 123t-132 213t-47.5 299.5zM344 682q0 -127 29 -221.5t81 -150 t118 -82.5t145 -27q72 0 136 26.5t117.5 79.5t85 144.5t31.5 210.5q0 127 -28.5 222.5t-80 151t-117 82.5t-144.5 27q-73 0 -138 -26.5t-118.5 -80.5t-85 -145.5t-31.5 -210.5zM672 1774l157 -297h-176l-227 297h246z" />
<glyph unicode="&#xd3;" horiz-adv-x="1431" d="M86 659q0 167 51.5 302t140 221.5t205 133t248.5 46.5q130 0 240.5 -42t195 -123.5t132 -213t47.5 -299.5q0 -134 -33.5 -248t-92.5 -197t-140 -141.5t-176.5 -87t-201.5 -28.5q-131 0 -241.5 41.5t-195 123t-132 213t-47.5 299.5zM344 682q0 -127 29 -221.5t81 -150 t118 -82.5t145 -27q72 0 136 26.5t117.5 79.5t85 144.5t31.5 210.5q0 127 -28.5 222.5t-80 151t-117 82.5t-144.5 27q-73 0 -138 -26.5t-118.5 -80.5t-85 -145.5t-31.5 -210.5zM608 1477l158 297h246l-228 -297h-176z" />
<glyph unicode="&#xd4;" horiz-adv-x="1431" d="M86 659q0 167 51.5 302t140 221.5t205 133t248.5 46.5q130 0 240.5 -42t195 -123.5t132 -213t47.5 -299.5q0 -134 -33.5 -248t-92.5 -197t-140 -141.5t-176.5 -87t-201.5 -28.5q-131 0 -241.5 41.5t-195 123t-132 213t-47.5 299.5zM344 682q0 -127 29 -221.5t81 -150 t118 -82.5t145 -27q72 0 136 26.5t117.5 79.5t85 144.5t31.5 210.5q0 127 -28.5 222.5t-80 151t-117 82.5t-144.5 27q-73 0 -138 -26.5t-118.5 -80.5t-85 -145.5t-31.5 -210.5zM393 1477l225 297h211l209 -297h-204l-115 163h-17l-116 -163h-193z" />
<glyph unicode="&#xd5;" horiz-adv-x="1431" d="M86 659q0 167 51.5 302t140 221.5t205 133t248.5 46.5q130 0 240.5 -42t195 -123.5t132 -213t47.5 -299.5q0 -134 -33.5 -248t-92.5 -197t-140 -141.5t-176.5 -87t-201.5 -28.5q-131 0 -241.5 41.5t-195 123t-132 213t-47.5 299.5zM344 682q0 -127 29 -221.5t81 -150 t118 -82.5t145 -27q72 0 136 26.5t117.5 79.5t85 144.5t31.5 210.5q0 127 -28.5 222.5t-80 151t-117 82.5t-144.5 27q-73 0 -138 -26.5t-118.5 -80.5t-85 -145.5t-31.5 -210.5zM981 1706l49 -131q-72 -115 -188 -115q-41 0 -90.5 30t-95 59.5t-76.5 29.5q-74 0 -131 -76 l-50 131q38 55 90 87t109 32q36 0 75 -18.5t67 -41t61 -41t59 -18.5q67 0 121 72z" />
<glyph unicode="&#xd6;" horiz-adv-x="1431" d="M86 659q0 167 51.5 302t140 221.5t205 133t248.5 46.5q130 0 240.5 -42t195 -123.5t132 -213t47.5 -299.5q0 -134 -33.5 -248t-92.5 -197t-140 -141.5t-176.5 -87t-201.5 -28.5q-131 0 -241.5 41.5t-195 123t-132 213t-47.5 299.5zM344 682q0 -127 29 -221.5t81 -150 t118 -82.5t145 -27q72 0 136 26.5t117.5 79.5t85 144.5t31.5 210.5q0 127 -28.5 222.5t-80 151t-117 82.5t-144.5 27q-73 0 -138 -26.5t-118.5 -80.5t-85 -145.5t-31.5 -210.5zM424 1583q0 54 29.5 87.5t83.5 33.5q114 0 114 -121q0 -52 -29.5 -85.5t-84.5 -33.5t-84 31 t-29 88zM778 1583q0 54 30.5 87.5t84.5 33.5t84.5 -31.5t30.5 -89.5q0 -51 -31 -85t-84 -34q-55 0 -85 31t-30 88z" />
<glyph unicode="&#xd7;" d="M285 236l-133 131l239 239l-239 240l133 131l237 -240l242 242l131 -133l-240 -240l240 -239l-131 -134l-242 242z" />
<glyph unicode="&#xd8;" horiz-adv-x="1431" d="M86 659q0 167 51.5 302t140 221.5t205 133t248.5 46.5q149 0 275 -57l71 122l113 -63l-72 -125q228 -182 228 -555q0 -134 -33.5 -248t-92.5 -197t-140 -141.5t-176.5 -87t-201.5 -28.5q-153 0 -278 55l-70 -121l-112 64l71 124q-227 178 -227 555zM340 682 q0 -235 96 -365l457 791q-75 41 -176 41q-73 0 -138.5 -27.5t-120 -81.5t-86.5 -146.5t-32 -211.5zM1092 662q0 232 -97 364l-456 -790q77 -39 178 -39q72 0 137 27t119 81t86.5 146t32.5 211z" />
<glyph unicode="&#xd9;" horiz-adv-x="1306" d="M647 -16q-500 0 -500 481v878h246v-849q0 -291 269 -291q128 0 196 73.5t68 212.5v854h233v-860q0 -227 -138 -363t-374 -136zM610 1774l158 -297h-176l-227 297h245z" />
<glyph unicode="&#xda;" horiz-adv-x="1306" d="M647 -16q-500 0 -500 481v878h246v-849q0 -291 269 -291q128 0 196 73.5t68 212.5v854h233v-860q0 -227 -138 -363t-374 -136zM547 1477l158 297h245l-227 -297h-176z" />
<glyph unicode="&#xdb;" horiz-adv-x="1306" d="M647 -16q-500 0 -500 481v878h246v-849q0 -291 269 -291q128 0 196 73.5t68 212.5v854h233v-860q0 -227 -138 -363t-374 -136zM332 1477l225 297h211l209 -297h-205l-115 163h-16l-117 -163h-192z" />
<glyph unicode="&#xdc;" horiz-adv-x="1306" d="M647 -16q-500 0 -500 481v878h246v-849q0 -291 269 -291q128 0 196 73.5t68 212.5v854h233v-860q0 -227 -138 -363t-374 -136zM362 1583q0 54 29.5 87.5t83.5 33.5q115 0 115 -121q0 -52 -30 -85.5t-85 -33.5t-84 31t-29 88zM717 1583q0 54 30 87.5t84 33.5t84.5 -31.5 t30.5 -89.5q0 -51 -31 -85t-84 -34q-55 0 -84.5 31t-29.5 88z" />
<glyph unicode="&#xdd;" horiz-adv-x="1097" d="M674 541v-541h-246v541l-422 802h277l282 -563h8l275 563h244zM442 1477l158 297h246l-228 -297h-176z" />
<glyph unicode="&#xde;" horiz-adv-x="1099" d="M408 1343v-213h176q222 0 344.5 -111.5t122.5 -299.5q0 -214 -135 -337.5t-361 -123.5q-82 0 -147 8v-266h-246v1343h246zM408 934v-471q55 -8 116 -8q127 0 199 64t72 181q0 234 -248 234h-139z" />
<glyph unicode="&#xdf;" horiz-adv-x="1232" d="M530 16v201q134 -35 261 -35q80 0 120.5 27.5t40.5 73.5q0 61 -96 114l-102 58q-105 60 -143 113.5t-38 138.5q0 55 23.5 103t57 82t67 65.5t57 68.5t23.5 76q0 149 -221 149q-90 0 -136.5 -43t-46.5 -116v-1092h-231v1079q0 164 105.5 260.5t312.5 96.5t320.5 -84 t113.5 -236q0 -60 -23.5 -109.5t-57 -82t-66.5 -60.5t-56.5 -58t-23.5 -61q0 -28 18 -50t65 -48l95 -51q114 -61 160.5 -122t46.5 -146q0 -151 -110.5 -245.5t-272.5 -94.5q-154 0 -263 28z" />
<glyph unicode="&#xe0;" horiz-adv-x="995" d="M881 670v-670h-217v66q-65 -41 -131.5 -59.5t-155.5 -18.5q-153 0 -237.5 76t-84.5 206q0 146 116 232t345 86q26 0 72 -1t67 -1v57q0 85 -54 128.5t-171 43.5q-141 0 -289 -61l-32 194q184 78 364 78q202 0 305 -92t103 -264zM293 289q0 -54 40 -85.5t111 -31.5 q111 0 211 53v191q-78 4 -133 4q-229 0 -229 -131zM438 1425l158 -297h-176l-227 297h245z" />
<glyph unicode="&#xe1;" horiz-adv-x="995" d="M881 670v-670h-217v66q-65 -41 -131.5 -59.5t-155.5 -18.5q-153 0 -237.5 76t-84.5 206q0 146 116 232t345 86q26 0 72 -1t67 -1v57q0 85 -54 128.5t-171 43.5q-141 0 -289 -61l-32 194q184 78 364 78q202 0 305 -92t103 -264zM293 289q0 -54 40 -85.5t111 -31.5 q111 0 211 53v191q-78 4 -133 4q-229 0 -229 -131zM375 1128l157 297h246l-227 -297h-176z" />
<glyph unicode="&#xe2;" horiz-adv-x="995" d="M881 670v-670h-217v66q-65 -41 -131.5 -59.5t-155.5 -18.5q-153 0 -237.5 76t-84.5 206q0 146 116 232t345 86q26 0 72 -1t67 -1v57q0 85 -54 128.5t-171 43.5q-141 0 -289 -61l-32 194q184 78 364 78q202 0 305 -92t103 -264zM293 289q0 -54 40 -85.5t111 -31.5 q111 0 211 53v191q-78 4 -133 4q-229 0 -229 -131zM160 1128l225 297h211l209 -297h-205l-115 164h-16l-117 -164h-192z" />
<glyph unicode="&#xe3;" horiz-adv-x="995" d="M881 670v-670h-217v66q-65 -41 -131.5 -59.5t-155.5 -18.5q-153 0 -237.5 76t-84.5 206q0 146 116 232t345 86q26 0 72 -1t67 -1v57q0 85 -54 128.5t-171 43.5q-141 0 -289 -61l-32 194q184 78 364 78q202 0 305 -92t103 -264zM293 289q0 -54 40 -85.5t111 -31.5 q111 0 211 53v191q-78 4 -133 4q-229 0 -229 -131zM748 1358l49 -131q-72 -115 -189 -115q-41 0 -90.5 30t-95 59.5t-76.5 29.5q-74 0 -131 -76l-49 131q38 55 90 87t109 32q36 0 75 -18.5t67 -41t61 -41t59 -18.5q67 0 121 72z" />
<glyph unicode="&#xe4;" horiz-adv-x="995" d="M881 670v-670h-217v66q-65 -41 -131.5 -59.5t-155.5 -18.5q-153 0 -237.5 76t-84.5 206q0 146 116 232t345 86q26 0 72 -1t67 -1v57q0 85 -54 128.5t-171 43.5q-141 0 -289 -61l-32 194q184 78 364 78q202 0 305 -92t103 -264zM293 289q0 -54 40 -85.5t111 -31.5 q111 0 211 53v191q-78 4 -133 4q-229 0 -229 -131zM190 1235q0 54 29.5 87.5t83.5 33.5q115 0 115 -121q0 -52 -30 -85.5t-85 -33.5t-84 31t-29 88zM545 1235q0 54 30 87.5t84 33.5t84.5 -31.5t30.5 -89.5q0 -51 -31 -85t-84 -34q-55 0 -84.5 31t-29.5 88z" />
<glyph unicode="&#xe5;" horiz-adv-x="995" d="M881 670v-670h-217v66q-65 -41 -131.5 -59.5t-155.5 -18.5q-153 0 -237.5 76t-84.5 206q0 146 116 232t345 86q26 0 72 -1t67 -1v57q0 85 -54 128.5t-171 43.5q-141 0 -289 -61l-32 194q184 78 364 78q202 0 305 -92t103 -264zM293 289q0 -54 40 -85.5t111 -31.5 q111 0 211 53v191q-78 4 -133 4q-229 0 -229 -131zM299 1288q0 76 54 129t130 53q77 0 130 -53t53 -129q0 -75 -53.5 -129.5t-129.5 -54.5q-75 0 -129.5 54.5t-54.5 129.5zM408 1288q0 -33 21.5 -56.5t53.5 -23.5q29 0 51.5 24t22.5 56q0 31 -22.5 54.5t-51.5 23.5 q-32 0 -53.5 -23.5t-21.5 -54.5z" />
<glyph unicode="&#xe6;" horiz-adv-x="1574" d="M473 1026q220 0 324 -113q125 119 309 119q187 0 294 -108.5t107 -305.5q0 -104 -6 -172h-627q36 -262 312 -262q147 0 295 49v-192q-85 -28 -156.5 -40.5t-167.5 -12.5q-132 0 -232.5 38.5t-158.5 108.5q-165 -147 -389 -147q-153 0 -237.5 74.5t-84.5 203.5 q0 148 115.5 235t345.5 87q26 0 72 -1t67 -1v53q0 88 -53.5 132t-171.5 44q-141 0 -289 -61l-32 194q184 78 364 78zM293 285q0 -52 40 -82.5t111 -30.5q133 0 250 74q-27 59 -41 170q-78 4 -131 4q-229 0 -229 -135zM879 616h403q0 105 -51.5 167.5t-140.5 62.5 q-83 0 -139.5 -59.5t-71.5 -170.5z" />
<glyph unicode="&#xe7;" horiz-adv-x="819" d="M782 1004l-20 -209q-95 18 -180 18q-123 0 -198 -82.5t-75 -228.5q0 -157 75.5 -234.5t201.5 -77.5q89 0 194 27v-201q-95 -28 -217 -28q-229 0 -360 126t-131 378q0 123 40 225.5t108 169.5t158 104t191 37q117 0 213 -24zM360 -53l160 -13q86 -6 125 -36.5t39 -90.5 q0 -89 -81 -143.5t-232 -54.5h-97v127h99q135 0 135 49q0 20 -24.5 33t-88.5 20l-35 4v105z" />
<glyph unicode="&#xe8;" horiz-adv-x="997" d="M72 504q0 126 35.5 227.5t98 166.5t145 99.5t177.5 34.5q188 0 295 -109t107 -305q0 -104 -6 -172h-627q36 -262 311 -262q147 0 295 49v-192q-85 -28 -156 -40.5t-167 -12.5q-239 0 -373.5 129.5t-134.5 386.5zM301 616h404q0 105 -52 167.5t-141 62.5 q-83 0 -139.5 -59.5t-71.5 -170.5zM487 1425l158 -297h-176l-227 297h245z" />
<glyph unicode="&#xe9;" horiz-adv-x="997" d="M72 504q0 126 35.5 227.5t98 166.5t145 99.5t177.5 34.5q188 0 295 -109t107 -305q0 -104 -6 -172h-627q36 -262 311 -262q147 0 295 49v-192q-85 -28 -156 -40.5t-167 -12.5q-239 0 -373.5 129.5t-134.5 386.5zM301 616h404q0 105 -52 167.5t-141 62.5 q-83 0 -139.5 -59.5t-71.5 -170.5zM424 1128l158 297h245l-227 -297h-176z" />
<glyph unicode="&#xea;" horiz-adv-x="997" d="M72 504q0 126 35.5 227.5t98 166.5t145 99.5t177.5 34.5q188 0 295 -109t107 -305q0 -104 -6 -172h-627q36 -262 311 -262q147 0 295 49v-192q-85 -28 -156 -40.5t-167 -12.5q-239 0 -373.5 129.5t-134.5 386.5zM301 616h404q0 105 -52 167.5t-141 62.5 q-83 0 -139.5 -59.5t-71.5 -170.5zM209 1128l225 297h211l209 -297h-205l-114 164h-17l-117 -164h-192z" />
<glyph unicode="&#xeb;" horiz-adv-x="997" d="M72 504q0 126 35.5 227.5t98 166.5t145 99.5t177.5 34.5q188 0 295 -109t107 -305q0 -104 -6 -172h-627q36 -262 311 -262q147 0 295 49v-192q-85 -28 -156 -40.5t-167 -12.5q-239 0 -373.5 129.5t-134.5 386.5zM301 616h404q0 105 -52 167.5t-141 62.5 q-83 0 -139.5 -59.5t-71.5 -170.5zM240 1235q0 54 29 87.5t83 33.5q115 0 115 -121q0 -52 -30 -85.5t-85 -33.5t-83.5 31t-28.5 88zM594 1235q0 54 30.5 87.5t84.5 33.5t84 -31.5t30 -89.5q0 -51 -31 -85t-83 -34q-55 0 -85 31t-30 88z" />
<glyph unicode="&#xec;" horiz-adv-x="493" d="M203 1425l157 -297h-176l-227 297h246zM362 1018v-1018h-231v1008z" />
<glyph unicode="&#xed;" horiz-adv-x="493" d="M139 1128l158 297h246l-228 -297h-176zM362 1018v-1018h-231v1008z" />
<glyph unicode="&#xee;" horiz-adv-x="493" d="M-76 1128l226 297h210l209 -297h-204l-115 164h-17l-116 -164h-193zM362 1018v-1018h-231v1008z" />
<glyph unicode="&#xef;" horiz-adv-x="493" d="M-45 1235q0 54 29.5 87.5t83.5 33.5q114 0 114 -121q0 -52 -29.5 -85.5t-84.5 -33.5t-84 31t-29 88zM309 1235q0 54 30.5 87.5t84.5 33.5t84.5 -31.5t30.5 -89.5q0 -51 -31 -85t-84 -34q-55 0 -85 31t-30 88zM362 1018v-1018h-231v1008z" />
<glyph unicode="&#xf0;" horiz-adv-x="1083" d="M530 -18q-207 0 -332.5 129.5t-125.5 375.5q0 123 38.5 226.5t105 172.5t154.5 107.5t187 38.5q116 0 193 -57l10 6q-12 56 -43 108.5t-72 86.5l-86 -91l-94 93l55 59q-43 16 -104 16q-119 0 -244 -24v180q138 27 279 27q123 0 213 -37l98 102l100 -102l-71 -76 q105 -90 157.5 -248.5t52.5 -423.5q0 -171 -35.5 -301t-100 -209.5t-148.5 -119t-187 -39.5zM309 496q0 -156 65.5 -233t172.5 -77q99 0 168 90.5t69 239.5q0 150 -14 260q-54 32 -103 45t-122 13q-100 0 -168 -93.5t-68 -244.5z" />
<glyph unicode="&#xf1;" horiz-adv-x="1091" d="M745 0v621q0 190 -186 190q-103 0 -197 -39v-772h-231v1008l225 10v-74q131 82 269 82q167 0 259.5 -93t92.5 -265v-668h-232zM819 1358l49 -131q-72 -115 -188 -115q-41 0 -90.5 30t-95 59.5t-76.5 29.5q-74 0 -131 -76l-49 131q38 55 89.5 87t108.5 32q36 0 75 -18.5 t67 -41t61 -41t59 -18.5q67 0 121 72z" />
<glyph unicode="&#xf2;" horiz-adv-x="1122" d="M1051 524q0 -122 -41 -225t-110 -171.5t-160.5 -107t-192.5 -38.5q-216 0 -345.5 130.5t-129.5 374.5q0 122 40.5 225.5t109.5 173t160.5 108t192.5 38.5q216 0 346 -131.5t130 -376.5zM813 518q0 152 -67.5 230.5t-184.5 78.5q-110 0 -181 -87.5t-71 -243.5 q0 -153 67 -231.5t185 -78.5q110 0 181 88t71 244zM518 1425l158 -297h-176l-228 297h246z" />
<glyph unicode="&#xf3;" horiz-adv-x="1122" d="M1051 524q0 -122 -41 -225t-110 -171.5t-160.5 -107t-192.5 -38.5q-216 0 -345.5 130.5t-129.5 374.5q0 122 40.5 225.5t109.5 173t160.5 108t192.5 38.5q216 0 346 -131.5t130 -376.5zM813 518q0 152 -67.5 230.5t-184.5 78.5q-110 0 -181 -87.5t-71 -243.5 q0 -153 67 -231.5t185 -78.5q110 0 181 88t71 244zM455 1128l157 297h246l-227 -297h-176z" />
<glyph unicode="&#xf4;" horiz-adv-x="1122" d="M1051 524q0 -122 -41 -225t-110 -171.5t-160.5 -107t-192.5 -38.5q-216 0 -345.5 130.5t-129.5 374.5q0 122 40.5 225.5t109.5 173t160.5 108t192.5 38.5q216 0 346 -131.5t130 -376.5zM813 518q0 152 -67.5 230.5t-184.5 78.5q-110 0 -181 -87.5t-71 -243.5 q0 -153 67 -231.5t185 -78.5q110 0 181 88t71 244zM240 1128l225 297h211l209 -297h-205l-115 164h-16l-117 -164h-192z" />
<glyph unicode="&#xf5;" horiz-adv-x="1122" d="M1051 524q0 -122 -41 -225t-110 -171.5t-160.5 -107t-192.5 -38.5q-216 0 -345.5 130.5t-129.5 374.5q0 122 40.5 225.5t109.5 173t160.5 108t192.5 38.5q216 0 346 -131.5t130 -376.5zM813 518q0 152 -67.5 230.5t-184.5 78.5q-110 0 -181 -87.5t-71 -243.5 q0 -153 67 -231.5t185 -78.5q110 0 181 88t71 244zM827 1358l50 -131q-72 -115 -189 -115q-41 0 -90.5 30t-95 59.5t-76.5 29.5q-74 0 -131 -76l-49 131q38 55 89.5 87t108.5 32q45 0 94.5 -30t93 -59.5t75.5 -29.5q66 0 120 72z" />
<glyph unicode="&#xf6;" horiz-adv-x="1122" d="M1051 524q0 -122 -41 -225t-110 -171.5t-160.5 -107t-192.5 -38.5q-216 0 -345.5 130.5t-129.5 374.5q0 122 40.5 225.5t109.5 173t160.5 108t192.5 38.5q216 0 346 -131.5t130 -376.5zM813 518q0 152 -67.5 230.5t-184.5 78.5q-110 0 -181 -87.5t-71 -243.5 q0 -153 67 -231.5t185 -78.5q110 0 181 88t71 244zM270 1235q0 54 29.5 87.5t83.5 33.5q115 0 115 -121q0 -52 -30 -85.5t-85 -33.5t-84 31t-29 88zM625 1235q0 54 30 87.5t84 33.5t84.5 -31.5t30.5 -89.5q0 -51 -31 -85t-84 -34q-55 0 -84.5 31t-29.5 88z" />
<glyph unicode="&#xf7;" d="M121 514v186h807v-186h-807zM416 924q0 53 28.5 80.5t79.5 27.5t80 -27.5t29 -80.5t-29 -81t-80 -28q-50 0 -79 28t-29 81zM416 291q0 53 28.5 80.5t79.5 27.5t80 -27.5t29 -80.5t-29 -81t-80 -28q-50 0 -79 28t-29 81z" />
<glyph unicode="&#xf8;" horiz-adv-x="1122" d="M1051 524q0 -122 -41 -225t-110 -171.5t-160.5 -107t-192.5 -38.5q-114 0 -201 34l-65 -112l-101 59l64 111q-172 129 -172 413q0 122 40.5 225.5t109.5 173t160.5 108t192.5 38.5q114 0 201 -37l68 117l100 -59l-65 -115q172 -133 172 -414zM305 496q0 -138 55 -228 l314 543q-50 23 -113 23q-110 0 -183 -91t-73 -247zM817 518q0 135 -57 223l-311 -540q54 -21 112 -21q110 0 183 91t73 247z" />
<glyph unicode="&#xf9;" horiz-adv-x="1079" d="M346 1018v-625q0 -104 42 -150t136 -46q96 0 193 43v768l231 10v-1018h-223v68q-75 -46 -130.5 -66t-127.5 -20q-175 0 -263.5 94.5t-88.5 273.5v658zM487 1425l158 -297h-176l-227 297h245z" />
<glyph unicode="&#xfa;" horiz-adv-x="1079" d="M346 1018v-625q0 -104 42 -150t136 -46q96 0 193 43v768l231 10v-1018h-223v68q-75 -46 -130.5 -66t-127.5 -20q-175 0 -263.5 94.5t-88.5 273.5v658zM424 1128l158 297h245l-227 -297h-176z" />
<glyph unicode="&#xfb;" horiz-adv-x="1079" d="M346 1018v-625q0 -104 42 -150t136 -46q96 0 193 43v768l231 10v-1018h-223v68q-75 -46 -130.5 -66t-127.5 -20q-175 0 -263.5 94.5t-88.5 273.5v658zM209 1128l225 297h211l209 -297h-205l-114 164h-17l-117 -164h-192z" />
<glyph unicode="&#xfc;" horiz-adv-x="1079" d="M346 1018v-625q0 -104 42 -150t136 -46q96 0 193 43v768l231 10v-1018h-223v68q-75 -46 -130.5 -66t-127.5 -20q-175 0 -263.5 94.5t-88.5 273.5v658zM240 1235q0 54 29 87.5t83 33.5q115 0 115 -121q0 -52 -30 -85.5t-85 -33.5t-83.5 31t-28.5 88zM594 1235 q0 54 30.5 87.5t84.5 33.5t84 -31.5t30 -89.5q0 -51 -31 -85t-83 -34q-55 0 -85 31t-30 88z" />
<glyph unicode="&#xfd;" horiz-adv-x="933" d="M324 27l-318 987h256l225 -783h9l198 783h236l-344 -1153q-80 -264 -371 -264q-75 0 -131 10v188q57 -8 123 -8q123 0 168 139l33 101h-84zM360 1128l158 297h246l-227 -297h-177z" />
<glyph unicode="&#xfe;" horiz-adv-x="1107" d="M362 1432v-484q118 78 256 78q196 0 307 -123t111 -362q0 -262 -149.5 -407.5t-399.5 -145.5q-63 0 -125 12v-391h-231v1810zM487 186q145 0 228.5 84t83.5 252q0 145 -65.5 217t-184.5 72q-93 0 -187 -39v-575q70 -11 125 -11z" />
<glyph unicode="&#xff;" horiz-adv-x="933" d="M324 27l-318 987h256l225 -783h9l198 783h236l-344 -1153q-80 -264 -371 -264q-75 0 -131 10v188q57 -8 123 -8q123 0 168 139l33 101h-84zM176 1235q0 54 29.5 87.5t83.5 33.5q114 0 114 -121q0 -52 -29.5 -85.5t-84.5 -33.5t-84 31t-29 88zM530 1235q0 54 30.5 87.5 t84.5 33.5t84.5 -31.5t30.5 -89.5q0 -51 -31 -85t-84 -34q-55 0 -85 31t-30 88z" />
<glyph unicode="&#x131;" horiz-adv-x="493" d="M362 1018v-1018h-231v1008z" />
<glyph unicode="&#x152;" horiz-adv-x="1837" d="M1022 0v78q-128 -96 -320 -96q-131 0 -241.5 41.5t-195 123t-132 213t-47.5 299.5q0 167 51.5 302t140 221.5t205 133t248.5 46.5q172 0 291 -78v59h704v-202h-458v-348h422v-203h-422v-387h465v-203h-711zM344 682q0 -127 29 -221.5t81 -150t118 -82.5t145 -27 q89 0 169 37.5t136 115.5v639q-106 152 -305 152q-73 0 -138 -26.5t-118.5 -80.5t-85 -145.5t-31.5 -210.5z" />
<glyph unicode="&#x153;" horiz-adv-x="1740" d="M575 1032q235 0 359 -151q127 151 338 151q187 0 294 -108.5t107 -305.5q0 -104 -6 -172h-627q36 -262 312 -262q147 0 295 49v-192q-85 -28 -156.5 -40.5t-167.5 -12.5q-275 0 -405 164q-67 -81 -164.5 -125.5t-206.5 -44.5q-216 0 -345.5 130.5t-129.5 374.5 q0 122 40.5 225.5t109.5 173t160.5 108t192.5 38.5zM813 518q0 152 -67.5 230.5t-184.5 78.5q-110 0 -181 -87.5t-71 -243.5q0 -153 67 -231.5t185 -78.5q110 0 181 88t71 244zM1044 616h404q0 105 -52 167.5t-141 62.5q-83 0 -139.5 -59.5t-71.5 -170.5z" />
<glyph unicode="&#x178;" horiz-adv-x="1097" d="M674 541v-541h-246v541l-422 802h277l282 -563h8l275 563h244zM258 1583q0 54 29.5 87.5t83.5 33.5q114 0 114 -121q0 -52 -29.5 -85.5t-84.5 -33.5t-84 31t-29 88zM612 1583q0 54 30.5 87.5t84.5 33.5t84.5 -31.5t30.5 -89.5q0 -51 -31 -85t-84 -34q-55 0 -85 31t-30 88 z" />
<glyph unicode="&#x192;" d="M580 922h268l-17 -162h-264l-100 -1151h-215l98 1151h-178v162h195l8 98q14 163 111 250.5t270 87.5q86 0 153 -17l-20 -172q-71 13 -144 13q-145 0 -157 -160z" />
<glyph unicode="&#x2c6;" horiz-adv-x="729" d="M39 1128l225 297h211l209 -297h-205l-114 164h-17l-117 -164h-192z" />
<glyph unicode="&#x2c7;" horiz-adv-x="704" d="M684 1425l-225 -297h-211l-209 297h205l114 -163h17l117 163h192z" />
<glyph unicode="&#x2d8;" horiz-adv-x="837" d="M485 1128h-16q-128 0 -205.5 78.5t-77.5 218.5h172q0 -77 31.5 -117t79.5 -40h29q50 0 82 39.5t32 117.5h158q0 -138 -80.5 -217.5t-204.5 -79.5z" />
<glyph unicode="&#x2d9;" horiz-adv-x="493" d="M117 1280q0 54 34.5 90.5t94.5 36.5q62 0 96.5 -35t34.5 -92q0 -53 -35 -89t-96 -36q-62 0 -95.5 34t-33.5 91z" />
<glyph unicode="&#x2da;" horiz-adv-x="858" d="M274 1288q0 76 54.5 129t130.5 53q77 0 129.5 -53t52.5 -129t-53 -130t-129 -54q-75 0 -130 54.5t-55 129.5zM383 1288q0 -33 22 -56.5t54 -23.5q29 0 51 24t22 56q0 31 -22 54.5t-51 23.5q-32 0 -54 -23.5t-22 -54.5z" />
<glyph unicode="&#x2db;" horiz-adv-x="571" d="M231 0h220q-94 -60 -137.5 -105.5t-43.5 -87.5q0 -69 76 -69t137 20v-120q-66 -29 -161 -29q-250 0 -250 168q0 62 40 120.5t119 102.5z" />
<glyph unicode="&#x2dc;" horiz-adv-x="774" d="M641 1358l49 -131q-72 -115 -188 -115q-41 0 -90.5 30t-95 59.5t-76.5 29.5q-74 0 -131 -76l-50 131q38 55 90 87t109 32q36 0 75 -18.5t67 -41t61 -41t59 -18.5q67 0 121 72z" />
<glyph unicode="&#x2dd;" horiz-adv-x="919" d="M143 1128l199 297h207l-240 -297h-166zM465 1128l199 297h206l-239 -297h-166z" />
<glyph unicode="&#x2000;" horiz-adv-x="909" />
<glyph unicode="&#x2001;" horiz-adv-x="1819" />
<glyph unicode="&#x2002;" horiz-adv-x="909" />
<glyph unicode="&#x2003;" horiz-adv-x="1819" />
<glyph unicode="&#x2004;" horiz-adv-x="606" />
<glyph unicode="&#x2005;" horiz-adv-x="454" />
<glyph unicode="&#x2006;" horiz-adv-x="303" />
<glyph unicode="&#x2007;" horiz-adv-x="303" />
<glyph unicode="&#x2008;" horiz-adv-x="227" />
<glyph unicode="&#x2009;" horiz-adv-x="363" />
<glyph unicode="&#x200a;" horiz-adv-x="101" />
<glyph unicode="&#x2010;" horiz-adv-x="774" d="M123 481v213h528v-213h-528z" />
<glyph unicode="&#x2011;" horiz-adv-x="774" d="M123 481v213h528v-213h-528z" />
<glyph unicode="&#x2012;" horiz-adv-x="774" d="M123 481v213h528v-213h-528z" />
<glyph unicode="&#x2013;" horiz-adv-x="1024" d="M59 492v192h906v-192h-906z" />
<glyph unicode="&#x2014;" horiz-adv-x="2048" d="M59 492v192h1930v-192h-1930z" />
<glyph unicode="&#x2018;" horiz-adv-x="456" d="M385 1034q0 -66 -43 -111.5t-113 -45.5q-72 0 -114.5 42t-42.5 125q0 58 50.5 151t108.5 160.5t82 67.5h109l-113 -258q35 -18 55.5 -52t20.5 -79z" />
<glyph unicode="&#x2019;" horiz-adv-x="456" d="M72 1266q0 67 42.5 112t112.5 45q72 0 115 -42.5t43 -125.5q0 -58 -51 -150.5t-109 -160t-82 -67.5h-108l112 258q-35 18 -55 52t-20 79z" />
<glyph unicode="&#x201a;" horiz-adv-x="456" d="M72 164q0 67 42.5 112.5t112.5 45.5q72 0 115 -42.5t43 -125.5q0 -58 -51 -151t-109 -160.5t-82 -67.5h-108l112 258q-35 18 -55 52t-20 79z" />
<glyph unicode="&#x201c;" horiz-adv-x="860" d="M385 1034q0 -66 -43 -111.5t-113 -45.5q-72 0 -114.5 42t-42.5 125q0 58 50.5 151t108.5 160.5t82 67.5h109l-113 -258q35 -18 55.5 -52t20.5 -79zM788 1034q0 -67 -42.5 -112t-112.5 -45q-72 0 -115 42t-43 125q0 58 51 151t109 160.5t82 67.5h108l-112 -258 q35 -18 55 -52t20 -79z" />
<glyph unicode="&#x201d;" horiz-adv-x="860" d="M72 1272q0 67 42.5 112.5t112.5 45.5q72 0 115 -42.5t43 -125.5q0 -58 -51 -151t-109 -160.5t-82 -67.5h-108l112 258q-35 18 -55 52t-20 79zM475 1272q0 67 43 112.5t113 45.5q72 0 114.5 -42.5t42.5 -125.5q0 -58 -50.5 -151t-108.5 -160.5t-82 -67.5h-109l113 258 q-35 18 -55.5 52t-20.5 79z" />
<glyph unicode="&#x201e;" horiz-adv-x="860" d="M72 164q0 67 42.5 112.5t112.5 45.5q72 0 115 -42.5t43 -125.5q0 -58 -51 -151t-109 -160.5t-82 -67.5h-108l112 258q-35 18 -55 52t-20 79zM475 164q0 67 43 112.5t113 45.5q72 0 114.5 -42.5t42.5 -125.5q0 -58 -50.5 -151t-108.5 -160.5t-82 -67.5h-109l113 258 q-35 18 -55.5 52t-20.5 79z" />
<glyph unicode="&#x2020;" horiz-adv-x="784" d="M322 1159l-9 266h158l-8 -266v-76h76l221 9v-144l-221 8h-76v-112l8 -1235h-158l9 1235v112h-74l-223 -8v144l223 -9h74v76z" />
<glyph unicode="&#x2021;" horiz-adv-x="784" d="M463 -125l8 -266h-158l9 266v76h-74l-223 -8v143l223 -8h74v878h-74l-223 -8v144l223 -9h74v76l-9 266h158l-8 -266v-76l74 2l223 7v-144l-221 8h-76v-878h76l221 8v-143l-221 8h-76v-76z" />
<glyph unicode="&#x2022;" horiz-adv-x="544" d="M41 604q0 110 60.5 177t170.5 67q109 0 170.5 -63t61.5 -181q0 -104 -63 -170.5t-169 -66.5q-112 0 -171.5 62t-59.5 175z" />
<glyph unicode="&#x2026;" horiz-adv-x="1370" d="M72 154q0 74 40.5 121t114.5 47q75 0 116.5 -43.5t41.5 -124.5q0 -72 -41 -118t-115 -46q-75 0 -116 42.5t-41 121.5zM528 154q0 73 41 120.5t115 47.5q75 0 116.5 -43.5t41.5 -124.5q0 -72 -41 -118t-115 -46q-75 0 -116.5 42.5t-41.5 121.5zM985 154q0 73 41 120.5 t115 47.5q75 0 116 -43.5t41 -124.5q0 -72 -40.5 -118t-114.5 -46q-75 0 -116.5 42.5t-41.5 121.5z" />
<glyph unicode="&#x202f;" horiz-adv-x="363" />
<glyph unicode="&#x2039;" horiz-adv-x="755" d="M426 76l-332 438l332 438h229l-315 -428l315 -448h-229z" />
<glyph unicode="&#x203a;" horiz-adv-x="755" d="M330 952l332 -438l-332 -438h-230l316 428l-316 448h230z" />
<glyph unicode="&#x205f;" horiz-adv-x="454" />
<glyph unicode="&#x20ac;" d="M37 735v158h151q55 227 203 345t365 118q110 0 229 -25v-215q-150 27 -235 27q-236 0 -304 -250h373v-158h-399q-2 -29 -2 -86q0 -47 2 -67h399v-156h-375q34 -121 110.5 -179.5t182.5 -58.5q115 0 258 31v-203q-83 -20 -136.5 -26t-137.5 -6q-219 0 -360.5 110 t-184.5 332h-139v156h123v43q0 75 4 110h-127z" />
<glyph unicode="&#x2122;" horiz-adv-x="1761" d="M459 1192v-578h-176v578h-193v151h561v-151h-192zM950 1126h-6l-14 -512h-162l27 729h243l160 -432h4l170 432h215l27 -729h-162l-18 512h-4l-156 -411h-168z" />
<glyph unicode="&#x25ca;" horiz-adv-x="1089" d="M1069 678l-475 -678h-94l-480 678l478 665h96zM233 682l316 -455l311 447l-315 444z" />
<glyph unicode="&#x25fc;" horiz-adv-x="1014" d="M0 1015h1015v-1015h-1015v1015z" />
</font>
</defs>
</svg>
