<?xml version="1.0" standalone="no"?>
<!DOCTYPE svg PUBLIC "-//W3C//DTD SVG 1.1//EN" "http://www.w3.org/Graphics/SVG/1.1/DTD/svg11.dtd" >
<svg xmlns="http://www.w3.org/2000/svg">
<metadata></metadata>
<defs>
<font id="_.regular" horiz-adv-x="1064" >
<font-face units-per-em="2048" ascent="1657" descent="-391" />
<missing-glyph horiz-adv-x="366" />
<glyph unicode="&#xfb01;" horiz-adv-x="966" d="M864 1012l-90 -1012h-143l78 885h-353l-116 -1276h-144l117 1276h-100v116h110l13 117q15 156 116 236t283 80q141 0 258 -15l-16 -125q-133 13 -256 13q-118 0 -176.5 -45t-67.5 -142l-10 -119h354z" />
<glyph unicode="&#xfb02;" horiz-adv-x="966" d="M905 1436l-133 -1436h-143l119 1296q-76 11 -177 11q-79 0 -132 -48t-62 -139l-10 -119h186l-14 -116h-183l-116 -1276h-144l117 1276h-100v116h110l13 117q13 147 109.5 231.5t236.5 84.5q108 0 190 -15z" />
<glyph horiz-adv-x="0" />
<glyph horiz-adv-x="682" />
<glyph unicode=" "  horiz-adv-x="366" />
<glyph unicode="&#x09;" horiz-adv-x="366" />
<glyph unicode="&#xa0;" horiz-adv-x="366" />
<glyph unicode="!" horiz-adv-x="555" d="M281 1335l161 21l-67 -613l-37 -374l-143 -9zM129 100q0 57 33 92t90 35q48 0 75 -27.5t27 -76.5q0 -64 -31 -97.5t-87 -33.5q-51 0 -79 28t-28 80z" />
<glyph unicode="&#x22;" horiz-adv-x="692" d="M174 989l14 424h152l-59 -424h-107zM479 989l15 424h151l-59 -424h-107z" />
<glyph unicode="#" horiz-adv-x="1161" d="M131 870l25 121h235l72 352h119l-72 -352h287l71 352h119l-72 -352h232l-23 -121h-231l-82 -395h229l-22 -121h-232l-69 -354h-119l70 354h-287l-70 -354h-118l71 354h-237l22 121h238l82 395h-238zM487 870l-81 -395h286l80 395h-285z" />
<glyph unicode="$" d="M127 18v144q160 -39 309 -39q133 0 216 62t83 159q0 71 -36.5 122t-133.5 112l-162 100q-97 62 -141.5 132.5t-44.5 166.5q0 142 92.5 244t243.5 127l20 211h113l-16 -203q117 -3 223 -25l-10 -139q-131 29 -248 29t-189.5 -63t-72.5 -150q0 -68 31.5 -114.5t113.5 -92.5 l158 -94q123 -71 170 -144t47 -178q0 -155 -105 -263t-282 -128l-19 -209h-114l18 201q-133 3 -264 32z" />
<glyph unicode="%" horiz-adv-x="1615" d="M1079 1380l105 -45l-635 -1382l-103 45zM449 1358q122 0 196 -79.5t74 -238.5q0 -111 -28.5 -200t-77.5 -144t-110.5 -83.5t-131.5 -28.5q-125 0 -199 75.5t-74 237.5q0 114 29.5 204t79 145t111.5 83.5t131 28.5zM436 1245q-88 0 -145.5 -85.5t-57.5 -248.5 q0 -213 150 -213q88 0 145.5 87.5t57.5 246.5q0 110 -37.5 161.5t-112.5 51.5zM1257 760q124 0 199.5 -80.5t75.5 -241.5q0 -110 -29 -198t-78.5 -142.5t-111 -83t-129.5 -28.5q-125 0 -199 75t-74 234q0 115 29 206t77.5 146t110 84t129.5 29zM1249 647q-88 0 -146.5 -86.5 t-58.5 -247.5q0 -213 152 -213q87 0 145 86.5t58 243.5q0 217 -150 217z" />
<glyph unicode="&#x26;" horiz-adv-x="1394" d="M582 -18q-215 0 -333 92.5t-118 251.5q0 137 84.5 237t245.5 139v7q-105 32 -159 103.5t-54 172.5q0 157 118.5 262t303.5 105q137 0 237 -33l-10 -131q-108 24 -227 24q-121 0 -190.5 -60.5t-69.5 -152.5q0 -121 81.5 -179t280.5 -58v-129q-223 9 -349 -70t-126 -215 q0 -112 77 -170.5t232 -58.5q211 0 346 156t135 432h-129v116h392v-116h-121q0 -214 -84 -380t-231 -255.5t-332 -89.5z" />
<glyph unicode="'" horiz-adv-x="387" d="M174 989l14 424h152l-59 -424h-107z" />
<glyph unicode="(" horiz-adv-x="534" d="M100 391q4 252 97.5 495t263.5 457h123q-169 -224 -259 -448.5t-94 -482.5q-4 -191 49 -391t152 -377h-121q-105 164 -159.5 355.5t-51.5 391.5z" />
<glyph unicode=")" horiz-adv-x="534" d="M428 596q-4 -252 -97.5 -495.5t-262.5 -456.5h-123q169 223 258.5 448t93.5 483q4 191 -49 391t-152 377h121q105 -164 159.5 -355.5t51.5 -391.5z" />
<glyph unicode="*" horiz-adv-x="911" d="M606 1110l240 100l28 -125l-247 -63l-70 -23l39 -65l143 -205l-104 -78l-113 228l-39 63l-45 -63l-149 -226l-96 74l180 205l49 67l-70 21l-237 65l49 123l221 -100l68 -27l8 80l2 269h121l-37 -269l-8 -80z" />
<glyph unicode="+" d="M141 543l11 129h317l31 340h131l-31 -340h318l-11 -129h-319l-29 -340h-131l31 340h-318z" />
<glyph unicode="," horiz-adv-x="417" d="M63 104q0 52 35.5 89.5t85.5 37.5q46 0 76.5 -31.5t30.5 -80.5q0 -47 -46 -131t-99.5 -148.5t-73.5 -64.5h-72l115 237q-52 27 -52 92z" />
<glyph unicode="-" horiz-adv-x="786" d="M158 520v133h522v-133h-522z" />
<glyph unicode="." horiz-adv-x="417" d="M61 100q0 59 34.5 95t92.5 36q50 0 78.5 -28.5t28.5 -79.5q0 -65 -32.5 -100t-90.5 -35q-53 0 -82 29t-29 83z" />
<glyph unicode="/" horiz-adv-x="606" d="M596 1370l113 -43l-713 -1712l-109 43z" />
<glyph unicode="0" d="M487 -18q-180 0 -280.5 99.5t-100.5 309.5q0 150 38 271t104 199t154 119.5t190 41.5q174 0 274.5 -107.5t100.5 -306.5q0 -146 -38.5 -266t-104.5 -198t-152.5 -120t-184.5 -42zM258 412q0 -299 254 -299q54 0 106.5 30t97 87t72 150t27.5 208q0 148 -66 224.5 t-178 76.5q-126 0 -219.5 -127.5t-93.5 -349.5z" />
<glyph unicode="1" horiz-adv-x="667" d="M90 827v125q151 52 332 52h74l-93 -1004h-145l80 860q-127 0 -248 -33z" />
<glyph unicode="2" horiz-adv-x="921" d="M150 834v133q149 45 301 45q163 0 250.5 -73.5t89.5 -186.5q2 -114 -59 -194.5t-216 -166.5l-137 -74q-136 -74 -176 -178v-4h626v-135h-753l-21 129q28 82 90.5 155t143.5 119l133 76q127 74 172 126.5t45 119.5q0 65 -56 106t-157 41q-146 0 -276 -38z" />
<glyph unicode="3" horiz-adv-x="847" d="M104 868v133h648l32 -108q-57 -158 -138 -260.5t-202 -175.5v-2q141 -23 218 -104t77 -210q0 -138 -78 -252.5t-219.5 -181.5t-316.5 -67h-137v127h141q195 0 326 101.5t131 244.5q0 99 -72.5 165.5t-214.5 83.5q-85 -38 -182 -57l-17 117q406 105 529 446h-525z" />
<glyph unicode="4" horiz-adv-x="983" d="M717 1006h117l-78 -875h151v-131h-159l-31 -360h-146l33 360h-534l-37 96q13 150 72.5 299.5t149.5 272t211 213t251 125.5zM172 131h442l66 733q-188 -86 -332.5 -288t-175.5 -445z" />
<glyph unicode="5" horiz-adv-x="872" d="M778 1001v-133h-502l-22 -344q76 11 139 11q185 0 288 -92.5t103 -258.5q0 -163 -80.5 -288t-219 -190.5t-312.5 -65.5h-133v127h147q190 0 317.5 111t127.5 274q0 118 -76.5 181.5t-220.5 63.5q-92 0 -225 -14l41 618h628z" />
<glyph unicode="6" horiz-adv-x="964" d="M788 1352h130v-127h-132q-170 0 -296 -100t-189 -296l2 -4q103 56 227 56q162 0 256.5 -98t94.5 -273q0 -239 -121.5 -383.5t-304.5 -144.5q-166 0 -262.5 118.5t-96.5 341.5q0 180 36.5 330.5t100.5 256.5t151.5 179.5t189 108.5t214.5 35zM274 721q-26 -123 -26 -275 q0 -169 60.5 -255.5t162.5 -86.5q112 0 184 99t72 274q0 130 -63.5 200.5t-169.5 70.5q-120 0 -220 -27z" />
<glyph unicode="7" horiz-adv-x="811" d="M37 1001h741l25 -133q-265 -255 -416.5 -583.5t-163.5 -644.5h-147q21 332 159.5 645t401.5 581v4h-602z" />
<glyph unicode="8" horiz-adv-x="972" d="M555 1362q149 0 242.5 -83t93.5 -206q0 -240 -266 -395l75 -47q92 -60 131 -124t39 -145q0 -163 -128.5 -271.5t-309.5 -108.5q-170 0 -269.5 82.5t-99.5 220.5q0 245 285 407l-59 45q-59 43 -92 106.5t-33 137.5q0 150 115.5 265.5t275.5 115.5zM535 1239 q-95 0 -157.5 -70t-62.5 -170q0 -63 24 -104.5t83 -83.5l121 -84q101 72 148.5 149.5t47.5 182.5q0 79 -55 129.5t-149 50.5zM561 547l-139 86q-103 -65 -155 -149t-52 -179q0 -91 65.5 -146t172.5 -55q114 0 190 67t76 155q0 69 -33 115.5t-125 105.5z" />
<glyph unicode="9" horiz-adv-x="964" d="M176 -360h-131v127h131q173 0 297 98t186 295l-2 4q-54 -31 -104 -43t-119 -12q-159 0 -254.5 103.5t-95.5 279.5q0 239 123.5 384.5t302.5 145.5q167 0 262.5 -119.5t95.5 -343.5q0 -225 -55.5 -403t-151.5 -289t-219.5 -169t-265.5 -58zM690 268q25 150 25 289 q0 168 -59.5 255t-161.5 87q-112 0 -184 -102t-72 -273q0 -133 65 -208.5t166 -75.5q123 0 221 28z" />
<glyph unicode=":" horiz-adv-x="417" d="M131 836q0 59 34.5 95t92.5 36q50 0 78.5 -29t28.5 -80q0 -65 -32.5 -100t-90.5 -35q-53 0 -82 29.5t-29 83.5zM61 100q0 59 34.5 95t92.5 36q50 0 78.5 -28.5t28.5 -79.5q0 -65 -32.5 -100t-90.5 -35q-53 0 -82 29t-29 83z" />
<glyph unicode=";" horiz-adv-x="417" d="M131 836q0 59 34.5 95t92.5 36q50 0 78.5 -29t28.5 -80q0 -65 -32.5 -100t-90.5 -35q-53 0 -82 29.5t-29 83.5zM63 104q0 52 35.5 89.5t85.5 37.5q46 0 76.5 -31.5t30.5 -80.5q0 -47 -46 -131t-99.5 -148.5t-73.5 -64.5h-72l115 237q-52 27 -52 92z" />
<glyph unicode="&#x3c;" d="M348 610l-2 -4l496 -319l-76 -115l-600 391l4 92l674 392l57 -119z" />
<glyph unicode="=" d="M125 356l10 133h766l-10 -133h-766zM158 725l10 133h766l-10 -133h-766z" />
<glyph unicode="&#x3e;" d="M713 604l2 4l-496 320l74 116l600 -391l-2 -94l-676 -391l-55 119z" />
<glyph unicode="?" horiz-adv-x="817" d="M758 1065q0 -224 -205 -338l-107 -59q-68 -39 -97.5 -84.5t-29.5 -104.5q0 -56 15 -110l-123 -11q-29 56 -29 136q0 161 164 264l121 76q127 80 127 217q0 75 -56.5 122.5t-148.5 47.5q-128 0 -256 -47v122q130 62 287 62q158 0 248 -80.5t90 -212.5zM141 100q0 57 33 92 t90 35q48 0 75.5 -27.5t27.5 -76.5q0 -64 -31.5 -97.5t-87.5 -33.5q-51 0 -79 28t-28 80z" />
<glyph unicode="@" horiz-adv-x="1822" d="M1126 1004l121 20l-71 -795q-6 -62 17.5 -93.5t66.5 -31.5q48 0 97.5 26.5t93.5 77.5t78.5 119.5t54.5 159t20 189.5q0 266 -151.5 413.5t-416.5 147.5q-162 0 -310.5 -68t-262 -190t-181 -307t-67.5 -404q0 -137 35.5 -243.5t99.5 -172.5t149 -99.5t189 -33.5 q145 0 287 48v-93q-149 -67 -326 -67q-119 0 -219.5 40t-177 117t-119.5 200.5t-43 281.5q0 250 78.5 460t211 349.5t307 217t366.5 77.5q195 0 349 -81t241.5 -231.5t87.5 -345.5q0 -157 -47 -294t-121 -226t-164 -139.5t-178 -50.5q-85 0 -135 47.5t-56 136.5h-6 q-132 -184 -303 -184q-225 0 -225 348q0 163 39.5 296.5t106 218t152 130t179.5 45.5q84 0 153 -16zM1038 315l52 570q-56 12 -129 12q-59 0 -114.5 -36.5t-100.5 -104t-72 -175.5t-27 -241q0 -225 123 -225q56 0 126.5 51t141.5 149z" />
<glyph unicode="A" horiz-adv-x="1083" d="M725 1343l266 -1343h-170l-65 348h-490l-121 -348h-163l516 1343h227zM600 1221h-14l-267 -742h418z" />
<glyph unicode="B" horiz-adv-x="1077" d="M459 0h-320l101 1343h297q210 0 318 -82t108 -219q0 -122 -60.5 -208.5t-165.5 -120.5v-2q113 -23 178.5 -97.5t65.5 -177.5q0 -200 -142.5 -318t-379.5 -118zM473 637h-133l-37 -510h148q176 0 273 74.5t97 201.5q0 117 -83 175.5t-265 58.5zM514 1219h-131l-35 -461 h133q161 0 242.5 69.5t81.5 190.5q0 201 -291 201z" />
<glyph unicode="C" horiz-adv-x="1038" d="M965 152v-134q-92 -21 -149 -27.5t-152 -6.5q-118 0 -218 38.5t-174 110.5t-115.5 183.5t-41.5 250.5q0 153 36.5 283t100.5 222t149 157t182 96t201 31q126 0 271 -29l-13 -139q-140 31 -268 31q-95 0 -183 -42.5t-158 -119.5t-112 -196.5t-42 -262.5q0 -117 30.5 -209 t85 -150t126.5 -88t157 -30q129 0 287 31z" />
<glyph unicode="D" horiz-adv-x="1284" d="M514 0h-375l101 1343h348q272 0 436 -157t164 -426q0 -185 -48 -330t-137 -239t-212.5 -142.5t-276.5 -48.5zM565 1212h-182l-80 -1081h227q226 0 361 153t135 451q0 224 -122.5 350.5t-338.5 126.5z" />
<glyph unicode="E" horiz-adv-x="931" d="M139 0l101 1343h606l-10 -133h-453l-35 -454h424l-8 -133h-424l-37 -490h481v-133h-645z" />
<glyph unicode="F" horiz-adv-x="886" d="M139 0l101 1343h637l-9 -133h-485l-35 -456h457l-10 -133h-455l-47 -621h-154z" />
<glyph unicode="G" horiz-adv-x="1200" d="M702 496v135h381l-45 -613q-178 -34 -364 -34q-250 0 -404.5 152.5t-154.5 418.5q0 155 36.5 286.5t101 225t152.5 159.5t190.5 98t215.5 32q163 0 305 -29l-10 -139q-152 31 -305 31q-106 0 -201 -43t-166.5 -121.5t-113 -198.5t-41.5 -264q0 -226 113.5 -348.5 t293.5 -122.5q113 0 207 12l27 363h-218z" />
<glyph unicode="H" horiz-adv-x="1251" d="M877 0l47 621h-584l-47 -621h-154l101 1343h153l-45 -587h586l43 587h153l-100 -1343h-153z" />
<glyph unicode="I" horiz-adv-x="514" d="M393 1343l-100 -1343h-154l101 1343h153z" />
<glyph unicode="J" horiz-adv-x="626" d="M512 1343l-74 -1028q-12 -156 -100 -241.5t-225 -85.5q-68 0 -97 10v141q36 -10 99 -10q74 0 119 48t51 138l73 1028h154z" />
<glyph unicode="K" horiz-adv-x="1124" d="M856 0l-442 625h-76l-45 -625h-154l101 1343h153l-45 -593h64l512 593h186l-563 -632l506 -711h-197z" />
<glyph unicode="L" horiz-adv-x="843" d="M139 0l101 1343h153l-90 -1210h488l-3 -133h-649z" />
<glyph unicode="M" horiz-adv-x="1546" d="M393 1184h-10l-137 -1184h-148l168 1343h232l270 -890h8l395 890h228l-25 -1343h-155l30 1184h-12l-414 -910h-145z" />
<glyph unicode="N" horiz-adv-x="1251" d="M799 0l-422 1176h-8l-86 -1176h-144l101 1343h231l422 -1173h8l86 1173h143l-100 -1343h-231z" />
<glyph unicode="O" horiz-adv-x="1298" d="M733 1362q210 0 339.5 -158t129.5 -430q0 -186 -50.5 -338.5t-136.5 -250.5t-197 -150.5t-234 -52.5q-218 0 -343.5 140t-125.5 415q0 158 30.5 291.5t86 231t132.5 166t170.5 102.5t198.5 34zM707 1221q-87 0 -163.5 -43t-136 -123.5t-94 -206.5t-34.5 -281 q0 -121 23.5 -208.5t68 -139t103.5 -75t136 -23.5q82 0 157.5 39t136.5 113t97.5 195t36.5 271q0 247 -88 364.5t-243 117.5z" />
<glyph unicode="P" horiz-adv-x="1040" d="M332 516l-39 -516h-154l101 1343h323q211 0 315.5 -89t104.5 -259q0 -231 -137.5 -361t-368.5 -130q-71 0 -145 12zM545 1212h-162l-43 -565q64 -10 149 -10q144 0 238 86.5t94 234.5q0 133 -66.5 193.5t-209.5 60.5z" />
<glyph unicode="Q" horiz-adv-x="1298" d="M733 1362q210 0 339.5 -158t129.5 -430q0 -304 -125.5 -503.5t-324.5 -262.5l243 -362h-174l-219 336h-18q-218 0 -343.5 140t-125.5 415q0 158 30.5 291.5t86 231t132.5 166t170.5 102.5t198.5 34zM707 1221q-87 0 -163.5 -43t-136 -123.5t-94 -206.5t-34.5 -281 q0 -121 23.5 -208.5t68 -139t103.5 -75t136 -23.5q82 0 157.5 39t136.5 113t97.5 195t36.5 271q0 247 -88 364.5t-243 117.5z" />
<glyph unicode="R" horiz-adv-x="1103" d="M336 567l-43 -567h-154l101 1343h319q215 0 319.5 -87.5t104.5 -249.5q0 -155 -80 -258t-207 -144l146 -280q75 -143 200 -324h-188q-102 137 -172 287l-141 280h-205zM539 1214h-156l-39 -520h164q150 0 231.5 72t81.5 217q0 119 -66.5 175t-215.5 56z" />
<glyph unicode="S" horiz-adv-x="874" d="M25 18v144q160 -39 309 -39q133 0 216 62t83 159q0 72 -36 123t-134 111l-162 100q-97 62 -141.5 132.5t-44.5 166.5q0 165 121 272t309 107q134 0 248 -25l-13 -139q-130 29 -248 29q-117 0 -189.5 -63t-72.5 -150q0 -67 32.5 -113.5t113.5 -93.5l157 -94 q123 -72 171.5 -145t48.5 -177q0 -172 -131 -285.5t-343 -113.5q-163 0 -294 32z" />
<glyph unicode="T" horiz-adv-x="927" d="M588 1208l-90 -1208h-154l90 1208h-375l9 135h909l-10 -135h-379z" />
<glyph unicode="U" horiz-adv-x="1196" d="M545 -16q-441 0 -406 436l70 923h153l-67 -899q-13 -176 55.5 -251.5t218.5 -75.5q146 0 228.5 70t91.5 202l74 954h145l-70 -944q-17 -198 -144.5 -306.5t-348.5 -108.5z" />
<glyph unicode="V" horiz-adv-x="997" d="M358 0l-278 1343h170l225 -1191h8l435 1191h159l-518 -1343h-201z" />
<glyph unicode="W" horiz-adv-x="1677" d="M344 0l-266 1343h170l213 -1183h10l336 827l-86 356h162l278 -1183h6l385 1183h162l-467 -1343h-203l-182 780h-8l-307 -780h-203z" />
<glyph unicode="X" horiz-adv-x="1026" d="M129 1343h178l234 -516h4l334 516h163l-426 -638l357 -705h-182l-275 563h-4l-352 -563h-166l446 686z" />
<glyph unicode="Y" horiz-adv-x="929" d="M528 549l-41 -549h-153l41 551l-326 792h178l244 -643h6l359 643h168z" />
<glyph unicode="Z" horiz-adv-x="970" d="M154 1206l8 137h764l-4 -126l-684 -1076v-4h616v-137h-811l8 121l688 1081v4h-585z" />
<glyph unicode="[" horiz-adv-x="579" d="M305 1343h307l-10 -108h-182l-129 -1489h182l-8 -104h-307z" />
<glyph unicode="\" horiz-adv-x="630" d="M25 1331l120 35l445 -1712l-119 -35z" />
<glyph unicode="]" horiz-adv-x="579" d="M244 -358h-307l10 108h182l129 1489h-182l8 104h307z" />
<glyph unicode="^" d="M532 1368l447 -448l-96 -97l-351 353l-350 -353l-96 97z" />
<glyph unicode="_" d="M18 -233v135h1024v-135h-1024z" />
<glyph unicode="`" horiz-adv-x="806" d="M483 1425l158 -297h-123l-196 297h161z" />
<glyph unicode="a" horiz-adv-x="940" d="M719 1004l123 20l-92 -1024h-142l17 164h-7q-131 -182 -303 -182q-225 0 -225 348q0 163 39.5 296.5t106 218t152 130t179.5 45.5q83 0 152 -16zM633 315l51 570q-56 12 -129 12q-47 0 -92 -22.5t-85 -68.5t-70 -111t-48 -156.5t-18 -198.5q0 -225 123 -225 q56 0 126.5 51t141.5 149z" />
<glyph unicode="b" horiz-adv-x="937" d="M219 0l-123 -23l131 1440l148 19l-56 -586h7q78 91 148 130.5t147 39.5q233 0 233 -350q0 -167 -40.5 -301t-109 -217t-155.5 -126.5t-184 -43.5q-81 0 -146 18zM307 700l-53 -583q48 -13 115 -13t125 32.5t105.5 97.5t75 175t27.5 253q0 219 -127 219q-49 0 -122 -48 t-146 -133z" />
<glyph unicode="c" horiz-adv-x="671" d="M698 1006l-12 -134q-89 15 -160 15q-57 0 -107.5 -30t-92 -91.5t-66 -168.5t-24.5 -247q0 -125 46.5 -182t137.5 -57q98 0 209 43v-127q-122 -45 -228 -45q-162 0 -239.5 84t-77.5 274q0 138 25.5 252.5t68 192.5t100.5 132t122 78.5t132 24.5q92 0 166 -14z" />
<glyph unicode="d" horiz-adv-x="942" d="M881 1436l-131 -1436h-142l17 164h-7q-134 -182 -303 -182q-225 0 -225 348q0 163 39.5 296.5t106 218t152 130t179.5 45.5q73 0 129 -12l37 409zM633 315l53 570q-55 12 -131 12q-47 0 -92 -22.5t-85 -68.5t-70 -111t-48 -156.5t-18 -198.5q0 -225 123 -225 q56 0 126.5 51t141.5 149z" />
<glyph unicode="e" horiz-adv-x="813" d="M84 352q0 163 37 294t98 211t136 121.5t155 41.5q125 0 192.5 -61t67.5 -171q0 -175 -146 -282t-393 -107q0 -161 50 -222.5t155 -61.5q131 0 264 71v-133q-72 -38 -142 -54.5t-163 -16.5q-154 0 -232.5 89.5t-78.5 280.5zM618 770q0 123 -124 123q-84 0 -158 -99 t-94 -280q176 0 276 72.5t100 183.5z" />
<glyph unicode="f" horiz-adv-x="530" d="M367 1001h206l-14 -116h-203l-116 -1276h-146l117 1276h-98v116h110l8 111q12 145 107.5 233.5t228.5 88.5q79 0 158 -15l-14 -123q-81 11 -154 11q-71 0 -121 -50.5t-59 -140.5z" />
<glyph unicode="g" horiz-adv-x="940" d="M719 1004l123 20l-92 -1034q-9 -101 -44 -176.5t-90 -121t-122 -67.5t-146 -22q-154 0 -289 26v142q141 -41 279 -41q121 0 188 61.5t80 194.5l19 178h-7q-134 -182 -303 -182q-225 0 -225 348q0 163 39.5 296.5t106 218t152 130t179.5 45.5q83 0 152 -16zM633 315 l51 570q-56 12 -129 12q-47 0 -92 -22.5t-85 -68.5t-70 -111t-48 -156.5t-18 -198.5q0 -225 123 -225q56 0 126.5 51t141.5 149z" />
<glyph unicode="h" horiz-adv-x="952" d="M625 0l63 662q10 118 -15.5 167.5t-80.5 49.5q-102 0 -283 -160l-65 -719h-146l129 1417l148 19l-56 -578h7q165 162 305 162q237 0 205 -336l-66 -684h-145z" />
<glyph unicode="i" horiz-adv-x="438" d="M336 1012l-92 -1012h-146l90 993zM203 1317q0 47 27.5 74.5t72.5 27.5q38 0 59 -22t21 -60q0 -43 -27 -71.5t-73 -28.5q-36 0 -58 20.5t-22 59.5z" />
<glyph unicode="j" horiz-adv-x="438" d="M336 1012l-94 -1090q-13 -159 -94 -236t-218 -77h-14v127q79 0 123.5 39.5t54.5 134.5l94 1083zM203 1317q0 47 27.5 74.5t72.5 27.5q38 0 59 -22t21 -60q0 -43 -27 -71.5t-73 -28.5q-36 0 -58 20.5t-22 59.5z" />
<glyph unicode="k" horiz-adv-x="884" d="M276 362l-32 -362h-146l129 1417l148 19l-49 -537h6q115 121 252 121q111 0 175 -64t64 -182t-72 -210.5t-188 -133.5l144 -231q53 -89 143 -199h-180q-63 71 -113 156l-127 225zM287 479l80 10q143 17 223 86t80 170q0 70 -31.5 105t-87.5 35q-52 0 -119.5 -32.5 t-118.5 -86.5z" />
<glyph unicode="l" horiz-adv-x="438" d="M375 1436l-131 -1436h-146l129 1417z" />
<glyph unicode="m" horiz-adv-x="1445" d="M98 0l90 993l146 19l-15 -154h7q89 89 155 125.5t140 36.5q83 0 129 -40.5t65 -125.5h4q88 88 161 127t148 39q109 0 163.5 -81t37.5 -255l-65 -684h-146l64 662q21 217 -95 217q-92 0 -260 -144l-71 -735h-148l64 662q12 119 -11 168t-79 49q-92 0 -273 -158l-65 -721 h-146z" />
<glyph unicode="n" horiz-adv-x="952" d="M625 0l63 662q21 217 -98 217q-101 0 -281 -160l-65 -719h-146l90 993l146 19l-15 -154h7q162 162 305 162q237 0 205 -336l-66 -684h-145z" />
<glyph unicode="o" horiz-adv-x="956" d="M432 -18q-338 0 -338 407q0 150 35.5 271.5t96.5 199.5t140.5 120t170.5 42q159 0 247 -106t88 -306q0 -145 -36 -265t-97.5 -198.5t-140.5 -121.5t-166 -43zM246 408q0 -162 52 -230.5t146 -68.5q52 0 100.5 29t88.5 85.5t64 151t24 213.5q0 303 -203 303 q-50 0 -98 -30.5t-87 -88.5t-63 -152.5t-24 -211.5z" />
<glyph unicode="p" horiz-adv-x="937" d="M209 -391h-146l125 1384l148 19l-19 -164h7q78 92 148.5 132t148.5 40q233 0 233 -350q0 -167 -41.5 -301t-111.5 -217t-157.5 -126.5t-183.5 -43.5q-57 0 -116 16zM307 702l-53 -585q48 -13 108 -13q67 0 126 32.5t108 97.5t77.5 175t28.5 253q0 219 -127 219 q-51 0 -124.5 -48t-143.5 -131z" />
<glyph unicode="q" horiz-adv-x="940" d="M719 1004l123 20l-125 -1415h-146l54 555h-7q-131 -182 -303 -182q-225 0 -225 348q0 163 39.5 296.5t106 218t152 130t179.5 45.5q83 0 152 -16zM633 315l51 570q-56 12 -129 12q-47 0 -92 -22.5t-85 -68.5t-70 -111t-48 -156.5t-18 -198.5q0 -225 123 -225 q56 0 126.5 51t141.5 149z" />
<glyph unicode="r" horiz-adv-x="585" d="M625 1006l-19 -144q-23 4 -59 4q-57 0 -121 -52.5t-121 -147.5l-57 -666h-146l84 993l146 19l-19 -189h9q67 117 118 157t117 40q40 0 68 -14z" />
<glyph unicode="s" horiz-adv-x="696" d="M25 8l2 139q118 -32 231 -32q92 0 150.5 41t58.5 102q0 49 -27 88.5t-94 85.5l-96 64q-144 101 -141 231q0 123 95.5 207t237.5 84q99 0 201 -17l-12 -133q-120 21 -195 21q-81 0 -132.5 -39.5t-51.5 -95.5q0 -47 22 -80t78 -68l99 -59q89 -55 128 -116t39 -142 q0 -127 -106.5 -217t-263.5 -90q-127 0 -223 26z" />
<glyph unicode="t" horiz-adv-x="583" d="M98 885v116h117l21 216l145 22l-25 -238h207l-12 -116h-207l-59 -588q-10 -102 12 -142t76 -40q66 0 143 26v-129q-52 -18 -89 -24t-99 -6q-108 0 -157 72.5t-32 232.5l62 598h-103z" />
<glyph unicode="u" horiz-adv-x="958" d="M332 1012l-64 -672q-11 -119 15 -168t86 -49q105 0 274 145l62 725l147 19l-84 -1012h-141l14 147h-6q-87 -87 -160.5 -126t-148.5 -39q-241 0 -207 337l65 674z" />
<glyph unicode="v" horiz-adv-x="788" d="M244 0l-174 1001h155l133 -868h9l55 113q78 160 131 337t90 418h152q-72 -430 -263 -792l-110 -209h-178z" />
<glyph unicode="w" horiz-adv-x="1273" d="M236 0l-156 1001h156l110 -868h8l47 98q56 117 115 275t98 299l-28 196h149l115 -868h8l47 98q84 173 132 354t75 416h152q-31 -239 -89.5 -427.5t-160.5 -378.5l-103 -195h-172l-86 610h-4q-62 -247 -155 -432l-86 -178h-172z" />
<glyph unicode="x" horiz-adv-x="796" d="M496 518l264 -518h-160l-205 420h-6l-67 -111q-88 -141 -175 -309h-153q135 247 231 383l99 139l-228 479h160l168 -380h6l53 84q93 148 164 296h148q-105 -212 -205 -350z" />
<glyph unicode="y" horiz-adv-x="782" d="M287 33l-228 968h156l180 -831h6l58 145q58 145 98 301t76 385h149q-77 -429 -217 -731l-141 -309q-90 -196 -173 -276t-190 -80q-46 0 -79 8v125q36 -8 88 -8q54 0 106.5 53.5t110.5 185.5l26 64h-26z" />
<glyph unicode="z" horiz-adv-x="718" d="M102 879l11 122h575l17 -120l-525 -756v-2h475v-123h-639v117l523 757v5h-437z" />
<glyph unicode="{" horiz-adv-x="610" d="M303 713l35 401q10 118 68.5 181t152.5 63q55 0 86 -8l-8 -84q-89 0 -129.5 -30t-46.5 -97l-35 -400q-8 -104 -79.5 -175t-196.5 -77v-4q128 -9 186 -62t49 -149l-37 -409q-7 -75 34 -108.5t132 -33.5l-8 -79q-47 -15 -92 -15q-89 0 -143.5 52.5t-47.5 142.5l37 426 q6 68 -38 112t-159 74l11 115q215 26 229 164z" />
<glyph unicode="|" horiz-adv-x="497" d="M188 1343h119v-1699h-119v1699z" />
<glyph unicode="}" horiz-adv-x="610" d="M279 272l-35 -401q-10 -118 -70 -181t-154 -63q-52 0 -83 8l6 84q91 0 131.5 30t46.5 97l35 400q8 104 78.5 174.5t195.5 77.5v4q-126 7 -184 61t-49 150l36 409q7 75 -33.5 108.5t-131.5 33.5l8 79q43 15 92 15q89 0 143 -52.5t45 -142.5l-37 -426q-6 -68 39 -112 t160 -74l-10 -115q-215 -26 -229 -164z" />
<glyph unicode="~" d="M870 700l56 -92q-54 -72 -111 -108.5t-137 -36.5q-33 0 -68 16t-64.5 38.5t-58.5 45.5t-60 39t-60 16q-41 0 -89 -27.5t-88 -76.5l-55 94q55 71 123.5 110.5t140.5 39.5q43 0 88 -24.5t76 -53.5t70.5 -53.5t73.5 -24.5q87 0 163 98z" />
<glyph unicode="&#xa1;" horiz-adv-x="555" d="M176 -332l-162 -22l68 612l35 375l143 8zM100 885q0 57 33 92t90 35q48 0 75.5 -28t27.5 -77q0 -64 -31.5 -97.5t-87.5 -33.5q-51 0 -79 28.5t-28 80.5z" />
<glyph unicode="&#xa2;" d="M602 -43h-115l15 207q-150 24 -238.5 137.5t-85.5 312.5q3 232 121 380.5t289 181.5l20 210h115l-18 -200q113 -3 190 -27l-27 -133q-106 23 -200 23q-133 0 -232 -116.5t-102 -307.5q-1 -165 75 -247.5t199 -82.5q115 0 213 29v-136q-84 -24 -205 -30z" />
<glyph unicode="&#xa3;" d="M459 784h299l-13 -129h-296l-19 -233q-17 -198 -104 -289h336q121 0 235 51l-12 -137q-89 -47 -246 -47h-580l13 133h90q50 41 76.5 106t35.5 169l21 247h-158l13 129h155l19 224q14 164 116 256t275 92q104 0 190 -25l-12 -137q-93 27 -201 27q-95 0 -153 -54t-64 -145z " />
<glyph unicode="&#xa4;" d="M193 606q0 107 57 187l-115 112l96 96l113 -114q82 57 186 57q102 0 187 -57l112 114l99 -96l-117 -112q57 -90 57 -187q0 -104 -57 -186l115 -111l-97 -96l-112 113q-79 -58 -187 -58q-107 0 -186 58l-113 -115l-96 96l115 113q-57 77 -57 186zM326 606q0 -86 59 -145.5 t145 -59.5t145.5 59.5t59.5 145.5t-59.5 145.5t-145.5 59.5t-145 -59.5t-59 -145.5z" />
<glyph unicode="&#xa5;" d="M924 549h-316l-12 -170h313l-10 -133h-311l-19 -246h-153l18 246h-305l12 133h303l13 170h-303l12 133h237l-288 661h176l260 -643h6l361 643h167l-399 -661h250z" />
<glyph unicode="&#xa6;" horiz-adv-x="497" d="M182 209h129v-565h-129v565zM182 1343h129v-565h-129v565z" />
<glyph unicode="&#xa7;" horiz-adv-x="972" d="M766 236q57 -79 57 -185q0 -195 -143.5 -311.5t-362.5 -116.5q-134 0 -280 31v149q151 -36 305 -36q143 0 233.5 70.5t90.5 182.5q0 76 -45 130q-56 -17 -105 -17q-162 0 -267.5 103t-105.5 264q0 62 21.5 126.5t60.5 112.5q-73 76 -73 203q0 184 131.5 299t345.5 115 q136 0 258 -25l-29 -143q-121 26 -250 26q-143 0 -221 -68t-78 -175q0 -82 51 -127q72 37 156 37q162 0 267.5 -104t105.5 -265q0 -78 -32.5 -152.5t-90.5 -123.5zM285 506q0 -106 64 -172t167 -66q102 0 167 66.5t65 171.5t-65 172t-167 67q-103 0 -167 -66.5t-64 -172.5z " />
<glyph unicode="&#xa8;" horiz-adv-x="897" d="M231 1247q0 44 22.5 68t65.5 24q41 0 65 -22t24 -62q0 -44 -25 -69t-68 -25q-40 0 -62 22.5t-22 63.5zM532 1247q0 44 24 68t67 24q40 0 63 -21.5t23 -62.5q0 -44 -24 -69t-67 -25q-40 0 -63 22.5t-23 63.5z" />
<glyph unicode="&#xa9;" horiz-adv-x="1617" d="M111 670q0 187 93.5 347t254 253.5t348.5 93.5q187 0 347 -93.5t253.5 -253.5t93.5 -347q0 -141 -55.5 -270t-148.5 -222.5t-221.5 -149t-268.5 -55.5q-141 0 -270 55.5t-222 149t-148.5 222.5t-55.5 270zM211 670q0 -122 47 -233t127 -192t190.5 -129t231.5 -48 q161 0 298 81t216.5 220t79.5 301t-79.5 300.5t-216.5 220t-298 81.5q-162 0 -299.5 -81.5t-217 -220t-79.5 -300.5zM999 389v-98q-105 -23 -198 -23q-161 0 -254.5 93t-93.5 262q0 111 35 200t94.5 145t135.5 85.5t161 29.5q78 0 170 -14l-7 -104q-93 16 -170 16 q-57 0 -109.5 -22t-95 -63t-67.5 -108t-25 -151q0 -127 64.5 -195.5t171.5 -68.5q87 0 188 16z" />
<glyph unicode="&#xaa;" horiz-adv-x="694" d="M592 1331l98 15l-65 -670h-119l10 102h-4q-92 -114 -215 -114q-160 0 -160 231q0 211 101 329.5t247 118.5q45 0 107 -12zM522 881l37 354q-36 8 -84 8q-87 0 -150 -88t-63 -250q0 -133 82 -133q83 0 178 109z" />
<glyph unicode="&#xab;" horiz-adv-x="1122" d="M406 74l-281 438l354 438h168l-352 -428l278 -448h-167zM766 74l-279 438l353 438h168l-351 -428l277 -448h-168z" />
<glyph unicode="&#xac;" d="M127 723v137h807v-500h-137v363h-670z" />
<glyph unicode="&#xad;" horiz-adv-x="786" d="M158 520v133h522v-133h-522z" />
<glyph unicode="&#xae;" horiz-adv-x="1617" d="M111 670q0 187 93.5 347t254 253.5t348.5 93.5q187 0 347 -93.5t253.5 -253.5t93.5 -347q0 -141 -55.5 -270t-148.5 -222.5t-221.5 -149t-268.5 -55.5q-141 0 -270 55.5t-222 149t-148.5 222.5t-55.5 270zM211 670q0 -122 47 -233t127 -192t190.5 -129t231.5 -48 q161 0 298 81t216.5 220t79.5 301t-79.5 300.5t-216.5 220t-298 81.5q-162 0 -299.5 -81.5t-217 -220t-79.5 -300.5zM653 602l-24 -323h-117l61 796h220q140 0 210 -54t70 -153q0 -90 -48 -153t-132 -88l94 -158q57 -91 135 -190h-147q-62 75 -107 155l-92 168h-123z M774 981h-92l-23 -287h111q83 0 131.5 42t48.5 120q0 66 -40.5 95.5t-135.5 29.5z" />
<glyph unicode="&#xaf;" horiz-adv-x="817" d="M158 1157l10 111h485l-10 -111h-485z" />
<glyph unicode="&#xb0;" horiz-adv-x="794" d="M211 1042q0 -78 55 -133t133 -55q80 0 136.5 55t56.5 133t-57 134.5t-136 56.5q-78 0 -133 -56.5t-55 -134.5zM86 1042q0 131 91.5 223.5t221.5 92.5q131 0 223.5 -93t92.5 -223t-92.5 -221.5t-223.5 -91.5t-222 91.5t-91 221.5z" />
<glyph unicode="&#xb1;" d="M150 547l12 129h317l31 340h131l-31 -340h318l-13 -129h-317l-31 -336h-131l31 336h-317zM100 0l13 131h766l-13 -131h-766z" />
<glyph unicode="&#xb2;" horiz-adv-x="765" d="M240 1270v110q124 31 215 31q122 0 192 -57t70 -156q0 -94 -44.5 -158t-168.5 -143l-82 -53q-73 -49 -113.5 -97.5t-52.5 -105.5h428v-111h-528l-17 99q36 172 199 282l94 64q79 49 115.5 97t36.5 102q0 59 -42.5 90.5t-115.5 31.5q-90 0 -186 -26z" />
<glyph unicode="&#xb3;" horiz-adv-x="765" d="M223 1294v109h477l21 -103q-40 -86 -94.5 -142.5t-134.5 -102.5v-2q94 -19 145 -74t51 -135q0 -142 -124.5 -234t-319.5 -92h-103v105h109q137 0 223 56t86 144q0 59 -46.5 99t-135.5 53q-57 -28 -141 -45l-15 94q139 33 234 102.5t143 167.5h-375z" />
<glyph unicode="&#xb4;" horiz-adv-x="806" d="M426 1128l209 297h162l-246 -297h-125z" />
<glyph unicode="&#xb5;" horiz-adv-x="960" d="M334 1012l-64 -672q-11 -119 14.5 -168t84.5 -49q107 0 276 145l62 725l147 19l-61 -744q-6 -74 11 -113.5t44 -39.5q38 0 70 14v-123q-57 -24 -117 -24q-61 0 -105.5 43.5t-56.5 119.5h-6q-85 -87 -157 -125t-148 -38q-68 0 -105 47l-8 -95q-9 -110 -4 -181.5t27 -143.5 h-142q-36 137 -18 309l106 1075z" />
<glyph unicode="&#xb6;" horiz-adv-x="1333" d="M899 1343h272l-139 -1759h-147l131 1647h-115l-131 -1647h-104l49 625q-67 -23 -172 -23q-94 0 -169.5 29t-133.5 87.5t-89.5 155.5t-31.5 226q0 308 164.5 486t461.5 178q21 0 77 -2.5t77 -2.5z" />
<glyph unicode="&#xb7;" horiz-adv-x="417" d="M98 602q0 59 34.5 95t92.5 36q50 0 78.5 -28.5t28.5 -79.5q0 -65 -32.5 -100.5t-90.5 -35.5q-53 0 -82 29.5t-29 83.5z" />
<glyph unicode="&#xb8;" horiz-adv-x="1468" d="M272 -164l17 90h88q77 0 118.5 -33t41.5 -86q0 -87 -74 -142.5t-199 -55.5h-67v100h77q68 0 104 22t36 54q0 27 -23 39t-84 12h-35z" />
<glyph unicode="&#xb9;" horiz-adv-x="765" d="M244 1270v90q127 43 266 43h76l-72 -873h-129l64 760q-111 0 -205 -20z" />
<glyph unicode="&#xba;" horiz-adv-x="702" d="M387 670q-252 0 -252 270q0 192 93 301t231 109q116 0 182 -70t66 -201q0 -188 -93.5 -298.5t-226.5 -110.5zM264 950q0 -176 133 -176q73 0 128 74t55 213q0 184 -136 184q-73 0 -126.5 -76t-53.5 -219z" />
<glyph unicode="&#xbb;" horiz-adv-x="1122" d="M340 950l281 -438l-355 -438h-168l353 428l-279 448h168zM702 950l281 -438l-354 -438h-168l352 428l-278 448h167z" />
<glyph unicode="&#xbc;" horiz-adv-x="1699" d="M1333 1391l99 -64l-1004 -1622l-98 64zM262 1270v90q124 43 266 43h76l-72 -873h-129l62 760q-109 0 -203 -20zM1520 567l-50 -590h99v-106h-109l-16 -180h-121l14 180h-368l-25 86q23 196 156 371t309 239h111zM1059 -23h289l38 465h-4q-120 -65 -211 -192.5 t-112 -272.5z" />
<glyph unicode="&#xbd;" horiz-adv-x="1699" d="M1333 1391l99 -64l-1004 -1622l-98 64zM262 1270v90q124 43 266 43h76l-72 -873h-129l62 760q-109 0 -203 -20zM1126 432v111q123 30 215 30q123 0 194 -57.5t71 -155.5q0 -94 -44.5 -158t-168.5 -143l-82 -53q-73 -49 -113.5 -97.5t-52.5 -105.5h428v-110h-531l-16 98 q35 171 199 283l96 63q79 49 114 96.5t35 102.5q0 59 -41 91t-114 32q-89 0 -189 -27z" />
<glyph unicode="&#xbe;" horiz-adv-x="1699" d="M1333 1391l99 -64l-1004 -1622l-98 64zM262 1294v109h477l21 -103q-40 -86 -95 -142.5t-137 -102.5v-2q96 -19 147.5 -74t51.5 -135q0 -142 -124.5 -234t-319.5 -92h-103v105h109q137 0 223 56t86 144q0 60 -46.5 99.5t-137.5 52.5q-58 -28 -140 -45l-14 94 q139 33 234 102.5t143 167.5h-375zM1520 567l-50 -590h99v-106h-109l-16 -180h-121l14 180h-368l-25 86q23 196 156 371t309 239h111zM1059 -23h289l38 465h-4q-120 -65 -211 -192.5t-112 -272.5z" />
<glyph unicode="&#xbf;" horiz-adv-x="817" d="M57 -63q0 222 203 337l107 60q70 40 99.5 86t29.5 106q0 50 -17 107l125 10q29 -60 29 -137q0 -158 -164 -260l-123 -78q-125 -76 -125 -215q0 -75 56.5 -123.5t146.5 -48.5q131 0 256 47v-123q-131 -61 -285 -61q-157 0 -247.5 81t-90.5 212zM446 885q0 57 33 92t90 35 q48 0 75.5 -28t27.5 -77q0 -64 -31.5 -97.5t-87.5 -33.5q-51 0 -79 28.5t-28 80.5z" />
<glyph unicode="&#xc0;" horiz-adv-x="1083" d="M725 1343l266 -1343h-170l-65 348h-490l-121 -348h-163l516 1343h227zM600 1221h-14l-267 -742h418zM500 1774l157 -297h-122l-197 297h162z" />
<glyph unicode="&#xc1;" horiz-adv-x="1083" d="M725 1343l266 -1343h-170l-65 348h-490l-121 -348h-163l516 1343h227zM600 1221h-14l-267 -742h418zM494 1477l208 297h162l-246 -297h-124z" />
<glyph unicode="&#xc2;" horiz-adv-x="1083" d="M725 1343l266 -1343h-170l-65 348h-490l-121 -348h-163l516 1343h227zM600 1221h-14l-267 -742h418zM348 1477l217 297h152l160 -297h-142l-96 182h-31l-129 -182h-131z" />
<glyph unicode="&#xc3;" horiz-adv-x="1083" d="M725 1343l266 -1343h-170l-65 348h-490l-121 -348h-163l516 1343h227zM600 1221h-14l-267 -742h418zM864 1671l35 -94q-40 -56 -81.5 -83.5t-100.5 -27.5q-36 0 -79.5 30t-82.5 59.5t-66 29.5q-65 0 -129 -80l-34 94q39 55 89.5 86t102.5 31q32 0 67 -18.5t59 -41 t51.5 -41t47.5 -18.5q66 0 121 74z" />
<glyph unicode="&#xc4;" horiz-adv-x="1083" d="M725 1343l266 -1343h-170l-65 348h-490l-121 -348h-163l516 1343h227zM600 1221h-14l-267 -742h418zM377 1559q0 44 23.5 68t66.5 24q39 0 62.5 -22t23.5 -62q0 -44 -24 -69t-68 -25q-39 0 -61.5 22.5t-22.5 63.5zM682 1559q0 44 23.5 68t66.5 24q40 0 63 -21.5t23 -62.5 q0 -44 -23.5 -69t-66.5 -25q-40 0 -63 22.5t-23 63.5z" />
<glyph unicode="&#xc5;" horiz-adv-x="1083" d="M725 1343l266 -1343h-170l-65 348h-490l-121 -348h-163l516 1343h227zM600 1221h-14l-267 -742h418zM635 1792q60 0 99.5 -42.5t39.5 -109.5q0 -83 -47.5 -135.5t-120.5 -52.5q-64 0 -103.5 43.5t-39.5 110.5q0 82 50 134t122 52zM545 1616q0 -38 18 -61t49 -23 q35 0 58.5 26t23.5 72q0 38 -18.5 61t-46.5 23q-37 0 -60.5 -28.5t-23.5 -69.5z" />
<glyph unicode="&#xc6;" horiz-adv-x="1568" d="M774 0l27 348h-453l-201 -348h-165l796 1343h703l-11 -133h-452l-35 -454h424l-8 -133h-424l-37 -490h481v-133h-645zM811 479l55 742h-14l-428 -742h387z" />
<glyph unicode="&#xc7;" horiz-adv-x="1038" d="M965 152v-134q-92 -21 -149 -27.5t-152 -6.5q-118 0 -218 38.5t-174 110.5t-115.5 183.5t-41.5 250.5q0 153 36.5 283t100.5 222t149 157t182 96t201 31q126 0 271 -29l-13 -139q-140 31 -268 31q-95 0 -183 -42.5t-158 -119.5t-112 -196.5t-42 -262.5q0 -117 30.5 -209 t85 -150t126.5 -88t157 -30q129 0 287 31zM451 -164l14 94h94q87 0 132.5 -33t45.5 -90q0 -85 -82.5 -141.5t-210.5 -56.5h-69v106h80q73 0 112 20.5t39 49.5q0 26 -24 38.5t-86 12.5h-45z" />
<glyph unicode="&#xc8;" horiz-adv-x="931" d="M139 0l101 1343h606l-10 -133h-453l-35 -454h424l-8 -133h-424l-37 -490h481v-133h-645zM508 1774l158 -297h-123l-197 297h162z" />
<glyph unicode="&#xc9;" horiz-adv-x="931" d="M139 0l101 1343h606l-10 -133h-453l-35 -454h424l-8 -133h-424l-37 -490h481v-133h-645zM481 1477l209 297h162l-246 -297h-125z" />
<glyph unicode="&#xca;" horiz-adv-x="931" d="M139 0l101 1343h606l-10 -133h-453l-35 -454h424l-8 -133h-424l-37 -490h481v-133h-645zM313 1477l217 297h152l160 -297h-142l-96 182h-31l-129 -182h-131z" />
<glyph unicode="&#xcb;" horiz-adv-x="931" d="M334 1559q0 44 23.5 68t66.5 24q39 0 62.5 -22t23.5 -62q0 -44 -24 -69t-68 -25q-39 0 -61.5 22.5t-22.5 63.5zM639 1559q0 44 23.5 68t66.5 24q40 0 63 -21.5t23 -62.5q0 -44 -23.5 -69t-66.5 -25q-40 0 -63 22.5t-23 63.5zM139 0l101 1343h606l-10 -133h-453l-35 -454 h424l-8 -133h-424l-37 -490h481v-133h-645z" />
<glyph unicode="&#xcc;" horiz-adv-x="514" d="M393 1343l-100 -1343h-154l101 1343h153zM260 1774l158 -297h-123l-197 297h162z" />
<glyph unicode="&#xcd;" horiz-adv-x="514" d="M393 1343l-100 -1343h-154l101 1343h153zM246 1477l209 297h161l-245 -297h-125z" />
<glyph unicode="&#xce;" horiz-adv-x="514" d="M393 1343l-100 -1343h-154l101 1343h153zM66 1477l217 297h151l160 -297h-141l-97 182h-30l-129 -182h-131z" />
<glyph unicode="&#xcf;" horiz-adv-x="514" d="M393 1343l-100 -1343h-154l101 1343h153zM92 1559q0 44 23.5 68t66.5 24q39 0 62.5 -22t23.5 -62q0 -44 -24 -69t-68 -25q-39 0 -61.5 22.5t-22.5 63.5zM397 1559q0 44 23.5 68t66.5 24q40 0 63 -21.5t23 -62.5q0 -44 -23.5 -69t-66.5 -25q-40 0 -63 22.5t-23 63.5z" />
<glyph unicode="&#xd0;" horiz-adv-x="1284" d="M514 0h-375l47 635h-141l10 123h142l43 585h348q272 0 436 -157t164 -426q0 -185 -48 -330t-137 -239t-212.5 -142.5t-276.5 -48.5zM565 1212h-182l-35 -454h252l-8 -123h-252l-37 -504h227q226 0 361 153t135 451q0 224 -122.5 350.5t-338.5 126.5z" />
<glyph unicode="&#xd1;" horiz-adv-x="1251" d="M958 1671l35 -94q-40 -56 -81.5 -83.5t-100.5 -27.5q-29 0 -62.5 18.5t-58.5 41t-54.5 41t-51.5 18.5q-65 0 -129 -80l-35 94q39 55 89.5 86t102.5 31q41 0 84.5 -30t80.5 -59.5t61 -29.5q65 0 120 74zM799 0l-422 1176h-8l-86 -1176h-144l101 1343h231l422 -1173h8 l86 1173h143l-100 -1343h-231z" />
<glyph unicode="&#xd2;" horiz-adv-x="1298" d="M733 1362q210 0 339.5 -158t129.5 -430q0 -186 -50.5 -338.5t-136.5 -250.5t-197 -150.5t-234 -52.5q-218 0 -343.5 140t-125.5 415q0 158 30.5 291.5t86 231t132.5 166t170.5 102.5t198.5 34zM707 1221q-87 0 -163.5 -43t-136 -123.5t-94 -206.5t-34.5 -281 q0 -121 23.5 -208.5t68 -139t103.5 -75t136 -23.5q82 0 157.5 39t136.5 113t97.5 195t36.5 271q0 247 -88 364.5t-243 117.5zM668 1774l157 -297h-123l-196 297h162z" />
<glyph unicode="&#xd3;" horiz-adv-x="1298" d="M733 1362q210 0 339.5 -158t129.5 -430q0 -186 -50.5 -338.5t-136.5 -250.5t-197 -150.5t-234 -52.5q-218 0 -343.5 140t-125.5 415q0 158 30.5 291.5t86 231t132.5 166t170.5 102.5t198.5 34zM707 1221q-87 0 -163.5 -43t-136 -123.5t-94 -206.5t-34.5 -281 q0 -121 23.5 -208.5t68 -139t103.5 -75t136 -23.5q82 0 157.5 39t136.5 113t97.5 195t36.5 271q0 247 -88 364.5t-243 117.5zM641 1477l209 297h162l-246 -297h-125z" />
<glyph unicode="&#xd4;" horiz-adv-x="1298" d="M733 1362q210 0 339.5 -158t129.5 -430q0 -186 -50.5 -338.5t-136.5 -250.5t-197 -150.5t-234 -52.5q-218 0 -343.5 140t-125.5 415q0 158 30.5 291.5t86 231t132.5 166t170.5 102.5t198.5 34zM707 1221q-87 0 -163.5 -43t-136 -123.5t-94 -206.5t-34.5 -281 q0 -121 23.5 -208.5t68 -139t103.5 -75t136 -23.5q82 0 157.5 39t136.5 113t97.5 195t36.5 271q0 247 -88 364.5t-243 117.5zM481 1477l217 297h152l160 -297h-142l-96 182h-31l-129 -182h-131z" />
<glyph unicode="&#xd5;" horiz-adv-x="1298" d="M989 1671l35 -94q-40 -56 -81.5 -83.5t-100.5 -27.5q-36 0 -79.5 30t-82.5 59.5t-66 29.5q-65 0 -129 -80l-34 94q39 55 89.5 86t102.5 31q32 0 67 -18.5t59 -41t51.5 -41t47.5 -18.5q66 0 121 74zM733 1362q210 0 339.5 -158t129.5 -430q0 -186 -50.5 -338.5 t-136.5 -250.5t-197 -150.5t-234 -52.5q-218 0 -343.5 140t-125.5 415q0 158 30.5 291.5t86 231t132.5 166t170.5 102.5t198.5 34zM707 1221q-87 0 -163.5 -43t-136 -123.5t-94 -206.5t-34.5 -281q0 -121 23.5 -208.5t68 -139t103.5 -75t136 -23.5q82 0 157.5 39t136.5 113 t97.5 195t36.5 271q0 247 -88 364.5t-243 117.5z" />
<glyph unicode="&#xd6;" horiz-adv-x="1298" d="M496 1559q0 44 23.5 68t66.5 24q39 0 62.5 -22t23.5 -62q0 -44 -24 -69t-68 -25q-39 0 -61.5 22.5t-22.5 63.5zM801 1559q0 44 23.5 68t66.5 24q40 0 63 -21.5t23 -62.5q0 -44 -23.5 -69t-66.5 -25q-40 0 -63 22.5t-23 63.5zM733 1362q210 0 339.5 -158t129.5 -430 q0 -186 -50.5 -338.5t-136.5 -250.5t-197 -150.5t-234 -52.5q-218 0 -343.5 140t-125.5 415q0 158 30.5 291.5t86 231t132.5 166t170.5 102.5t198.5 34zM707 1221q-87 0 -163.5 -43t-136 -123.5t-94 -206.5t-34.5 -281q0 -121 23.5 -208.5t68 -139t103.5 -75t136 -23.5 q82 0 157.5 39t136.5 113t97.5 195t36.5 271q0 247 -88 364.5t-243 117.5z" />
<glyph unicode="&#xd7;" d="M201 881l102 96l238 -277l284 275l80 -92l-284 -275l235 -274l-100 -96l-236 274l-287 -274l-79 92l286 274z" />
<glyph unicode="&#xd8;" horiz-adv-x="1298" d="M733 1362q127 0 230 -64l73 123l94 -53l-79 -139q151 -161 151 -455q0 -186 -50.5 -338.5t-136.5 -250.5t-197 -150.5t-234 -52.5q-128 0 -226 49l-63 -111l-94 53l67 121q-153 143 -153 443q0 158 30.5 291.5t86 231t132.5 166t170.5 102.5t198.5 34zM1038 739 q0 221 -71 344l-535 -923q72 -41 178 -41q65 0 127 24t116.5 75t95.5 123t65 174.5t24 223.5zM707 1223q-87 0 -164 -43.5t-136 -124t-93.5 -207t-34.5 -281.5q0 -220 73 -329l539 931q-74 54 -184 54z" />
<glyph unicode="&#xd9;" horiz-adv-x="1196" d="M545 -16q-441 0 -406 436l70 923h153l-67 -899q-13 -176 55.5 -251.5t218.5 -75.5q146 0 228.5 70t91.5 202l74 954h145l-70 -944q-17 -198 -144.5 -306.5t-348.5 -108.5zM631 1774l157 -297h-122l-197 297h162z" />
<glyph unicode="&#xda;" horiz-adv-x="1196" d="M545 -16q-441 0 -406 436l70 923h153l-67 -899q-13 -176 55.5 -251.5t218.5 -75.5q146 0 228.5 70t91.5 202l74 954h145l-70 -944q-17 -198 -144.5 -306.5t-348.5 -108.5zM604 1477l209 297h162l-246 -297h-125z" />
<glyph unicode="&#xdb;" horiz-adv-x="1196" d="M545 -16q-441 0 -406 436l70 923h153l-67 -899q-13 -176 55.5 -251.5t218.5 -75.5q146 0 228.5 70t91.5 202l74 954h145l-70 -944q-17 -198 -144.5 -306.5t-348.5 -108.5zM410 1477l217 297h151l160 -297h-141l-97 182h-30l-129 -182h-131z" />
<glyph unicode="&#xdc;" horiz-adv-x="1196" d="M430 1559q0 44 23.5 68t66.5 24q39 0 62.5 -22t23.5 -62q0 -44 -24 -69t-68 -25q-39 0 -61.5 22.5t-22.5 63.5zM735 1559q0 44 23.5 68t66.5 24q40 0 63 -21.5t23 -62.5q0 -44 -23.5 -69t-66.5 -25q-40 0 -63 22.5t-23 63.5zM545 -16q-441 0 -406 436l70 923h153 l-67 -899q-13 -176 55.5 -251.5t218.5 -75.5q146 0 228.5 70t91.5 202l74 954h145l-70 -944q-17 -198 -144.5 -306.5t-348.5 -108.5z" />
<glyph unicode="&#xdd;" horiz-adv-x="929" d="M528 549l-41 -549h-153l41 551l-326 792h178l244 -643h6l359 643h168zM457 1477l209 297h161l-245 -297h-125z" />
<glyph unicode="&#xde;" horiz-adv-x="1038" d="M393 1343l-18 -229h170q211 0 315.5 -89t104.5 -259q0 -231 -137.5 -361.5t-368.5 -130.5q-81 0 -148 11l-18 -285h-154l101 1343h153zM526 983h-161l-43 -567q47 -8 149 -8q144 0 238 86t94 235q0 132 -67 193t-210 61z" />
<glyph unicode="&#xdf;" horiz-adv-x="972" d="M362 8v137q67 -19 109.5 -25.5t103.5 -6.5q87 0 137 36.5t50 98.5q0 48 -21.5 88.5t-76.5 85.5l-80 72q-71 62 -96 111t-25 116q0 51 25.5 100.5t62 90.5t73 81.5t62 89t25.5 97.5q0 59 -42.5 93t-123.5 34q-79 0 -132.5 -49t-60.5 -138l-137 -1511h-145l139 1507 q13 146 111 232t249 86q128 0 206.5 -67.5t78.5 -172.5q0 -62 -26 -118.5t-63.5 -98.5t-75 -80t-63.5 -77.5t-26 -76.5q0 -39 18 -69t68 -70l80 -67q79 -68 112 -129t33 -132q0 -126 -103.5 -210t-244.5 -84q-64 0 -101 5.5t-100 20.5z" />
<glyph unicode="&#xe0;" horiz-adv-x="940" d="M719 1004l123 20l-92 -1024h-142l17 164h-7q-131 -182 -303 -182q-225 0 -225 348q0 163 39.5 296.5t106 218t152 130t179.5 45.5q83 0 152 -16zM633 315l51 570q-56 12 -129 12q-47 0 -92 -22.5t-85 -68.5t-70 -111t-48 -156.5t-18 -198.5q0 -225 123 -225 q56 0 126.5 51t141.5 149zM504 1425l158 -297h-123l-197 297h162z" />
<glyph unicode="&#xe1;" horiz-adv-x="940" d="M719 1004l123 20l-92 -1024h-142l17 164h-7q-131 -182 -303 -182q-225 0 -225 348q0 163 39.5 296.5t106 218t152 130t179.5 45.5q83 0 152 -16zM633 315l51 570q-56 12 -129 12q-47 0 -92 -22.5t-85 -68.5t-70 -111t-48 -156.5t-18 -198.5q0 -225 123 -225 q56 0 126.5 51t141.5 149zM440 1128l209 297h162l-246 -297h-125z" />
<glyph unicode="&#xe2;" horiz-adv-x="940" d="M719 1004l123 20l-92 -1024h-142l17 164h-7q-131 -182 -303 -182q-225 0 -225 348q0 163 39.5 296.5t106 218t152 130t179.5 45.5q83 0 152 -16zM633 315l51 570q-56 12 -129 12q-47 0 -92 -22.5t-85 -68.5t-70 -111t-48 -156.5t-18 -198.5q0 -225 123 -225 q56 0 126.5 51t141.5 149zM295 1128l217 297h152l159 -297h-141l-96 183h-31l-129 -183h-131z" />
<glyph unicode="&#xe3;" horiz-adv-x="940" d="M719 1004l123 20l-92 -1024h-142l17 164h-7q-131 -182 -303 -182q-225 0 -225 348q0 163 39.5 296.5t106 218t152 130t179.5 45.5q83 0 152 -16zM633 315l51 570q-56 12 -129 12q-47 0 -92 -22.5t-85 -68.5t-70 -111t-48 -156.5t-18 -198.5q0 -225 123 -225 q56 0 126.5 51t141.5 149zM805 1323l35 -94q-70 -109 -174 -109q-35 0 -79.5 29t-85.5 58.5t-67 29.5q-69 0 -133 -80l-35 94q81 115 189 115q30 0 64.5 -18.5t59.5 -40t54 -40t51 -18.5q66 0 121 74z" />
<glyph unicode="&#xe4;" horiz-adv-x="940" d="M719 1004l123 20l-92 -1024h-142l17 164h-7q-131 -182 -303 -182q-225 0 -225 348q0 163 39.5 296.5t106 218t152 130t179.5 45.5q83 0 152 -16zM633 315l51 570q-56 12 -129 12q-47 0 -92 -22.5t-85 -68.5t-70 -111t-48 -156.5t-18 -198.5q0 -225 123 -225 q56 0 126.5 51t141.5 149zM330 1247q0 44 22.5 68t65.5 24q41 0 64.5 -22t23.5 -62q0 -44 -24.5 -69t-67.5 -25q-40 0 -62 22.5t-22 63.5zM631 1247q0 44 23.5 68t66.5 24q40 0 63 -21.5t23 -62.5q0 -44 -23.5 -69t-66.5 -25q-40 0 -63 22.5t-23 63.5z" />
<glyph unicode="&#xe5;" horiz-adv-x="940" d="M719 1004l123 20l-92 -1024h-142l17 164h-7q-131 -182 -303 -182q-225 0 -225 348q0 163 39.5 296.5t106 218t152 130t179.5 45.5q83 0 152 -16zM633 315l51 570q-56 12 -129 12q-47 0 -92 -22.5t-85 -68.5t-70 -111t-48 -156.5t-18 -198.5q0 -225 123 -225 q56 0 126.5 51t141.5 149zM590 1444q61 0 101 -42.5t40 -109.5q0 -82 -48.5 -135t-121.5 -53q-64 0 -104.5 43.5t-40.5 109.5q0 82 51 134.5t123 52.5zM500 1268q0 -38 18 -61t49 -23q35 0 58.5 26t23.5 72q0 38 -18.5 61t-46.5 23q-37 0 -60.5 -28.5t-23.5 -69.5z" />
<glyph unicode="&#xe6;" horiz-adv-x="1368" d="M723 1001l117 23l-11 -109h2q45 50 108.5 77.5t125.5 27.5q128 0 194 -61.5t66 -172.5q0 -175 -147 -281t-392 -106q0 -161 48 -222.5t153 -61.5q135 0 268 71v-133q-73 -40 -142.5 -55.5t-168.5 -15.5q-249 0 -287 223h-4q-84 -116 -165.5 -169.5t-170.5 -53.5 q-227 0 -227 348q0 162 39.5 295t106 218t152 131t179.5 46q74 0 156 -19zM633 315l51 570q-49 12 -125 12q-48 0 -93.5 -22.5t-86 -68.5t-71 -111.5t-48.5 -157.5t-18 -199q0 -223 123 -223q57 0 126.5 50.5t141.5 149.5zM1174 770q0 61 -32.5 92t-92.5 31 q-38 0 -76.5 -22.5t-74.5 -66t-63.5 -119t-37.5 -171.5q177 0 277 70.5t100 185.5z" />
<glyph unicode="&#xe7;" horiz-adv-x="671" d="M698 1006l-12 -134q-89 15 -160 15q-57 0 -107.5 -30t-92 -91.5t-66 -168.5t-24.5 -247q0 -125 46.5 -182t137.5 -57q98 0 209 43v-127q-122 -45 -228 -45q-162 0 -239.5 84t-77.5 274q0 138 25.5 252.5t68 192.5t100.5 132t122 78.5t132 24.5q92 0 166 -14zM264 -164 l17 90h88q77 0 118 -33t41 -86q0 -87 -73.5 -142.5t-198.5 -55.5h-68v100h78q68 0 104 22t36 54q0 27 -23 39t-84 12h-35z" />
<glyph unicode="&#xe8;" horiz-adv-x="813" d="M84 352q0 163 37 294t98 211t136 121.5t155 41.5q125 0 192.5 -61t67.5 -171q0 -175 -146 -282t-393 -107q0 -161 50 -222.5t155 -61.5q131 0 264 71v-133q-72 -38 -142 -54.5t-163 -16.5q-154 0 -232.5 89.5t-78.5 280.5zM618 770q0 123 -124 123q-84 0 -158 -99 t-94 -280q176 0 276 72.5t100 183.5zM434 1425l158 -297h-123l-197 297h162z" />
<glyph unicode="&#xe9;" horiz-adv-x="813" d="M387 1128l209 297h162l-246 -297h-125zM84 352q0 163 37 294t98 211t136 121.5t155 41.5q125 0 192.5 -61t67.5 -171q0 -175 -146 -282t-393 -107q0 -161 50 -222.5t155 -61.5q131 0 264 71v-133q-72 -38 -142 -54.5t-163 -16.5q-154 0 -232.5 89.5t-78.5 280.5zM618 770 q0 123 -124 123q-84 0 -158 -99t-94 -280q176 0 276 72.5t100 183.5z" />
<glyph unicode="&#xea;" horiz-adv-x="813" d="M233 1128l218 297h151l160 -297h-141l-97 183h-30l-129 -183h-132zM84 352q0 163 37 294t98 211t136 121.5t155 41.5q125 0 192.5 -61t67.5 -171q0 -175 -146 -282t-393 -107q0 -161 50 -222.5t155 -61.5q131 0 264 71v-133q-72 -38 -142 -54.5t-163 -16.5 q-154 0 -232.5 89.5t-78.5 280.5zM618 770q0 123 -124 123q-84 0 -158 -99t-94 -280q176 0 276 72.5t100 183.5z" />
<glyph unicode="&#xeb;" horiz-adv-x="813" d="M258 1247q0 44 22.5 68t65.5 24q41 0 64.5 -22t23.5 -62q0 -44 -24.5 -69t-67.5 -25q-40 0 -62 22.5t-22 63.5zM559 1247q0 44 23.5 68t66.5 24q40 0 63 -21.5t23 -62.5q0 -44 -23.5 -69t-66.5 -25q-40 0 -63 22.5t-23 63.5zM84 352q0 163 37 294t98 211t136 121.5 t155 41.5q125 0 192.5 -61t67.5 -171q0 -175 -146 -282t-393 -107q0 -161 50 -222.5t155 -61.5q131 0 264 71v-133q-72 -38 -142 -54.5t-163 -16.5q-154 0 -232.5 89.5t-78.5 280.5zM618 770q0 123 -124 123q-84 0 -158 -99t-94 -280q176 0 276 72.5t100 183.5z" />
<glyph unicode="&#xec;" horiz-adv-x="438" d="M336 1012l-92 -1012h-146l90 993zM219 1425l158 -297h-123l-197 297h162z" />
<glyph unicode="&#xed;" horiz-adv-x="438" d="M174 1128l209 297h162l-246 -297h-125zM336 1012l-92 -1012h-146l90 993z" />
<glyph unicode="&#xee;" horiz-adv-x="438" d="M18 1128l218 297h151l160 -297h-141l-97 183h-30l-129 -183h-132zM336 1012l-92 -1012h-146l90 993z" />
<glyph unicode="&#xef;" horiz-adv-x="438" d="M45 1247q0 44 22.5 68t65.5 24q41 0 64.5 -22t23.5 -62q0 -44 -24.5 -69t-67.5 -25q-40 0 -62 22.5t-22 63.5zM346 1247q0 44 23.5 68t66.5 24q40 0 63 -21.5t23 -62.5q0 -44 -23.5 -69t-66.5 -25q-40 0 -63 22.5t-23 63.5zM336 1012l-92 -1012h-146l90 993z" />
<glyph unicode="&#xf0;" horiz-adv-x="960" d="M430 -18q-336 0 -336 409q0 148 35.5 269.5t96 199t138 119t164.5 41.5q102 0 164 -59l6 4q-15 71 -50 135.5t-81 107.5l-110 -104l-60 72l88 79q-82 52 -178 52q-82 0 -164 -13l13 123q78 17 159 17q150 0 269 -74l131 121l67 -80l-110 -103q105 -97 153.5 -255 t48.5 -406q0 -300 -127.5 -477.5t-316.5 -177.5zM246 412q0 -160 50 -231.5t155 -71.5q112 0 194 129.5t82 361.5q0 129 -8 207q-78 84 -205 84q-104 0 -186 -129t-82 -350z" />
<glyph unicode="&#xf1;" horiz-adv-x="952" d="M625 0l63 662q21 217 -98 217q-101 0 -281 -160l-65 -719h-146l90 993l146 19l-15 -154h7q162 162 305 162q237 0 205 -336l-66 -684h-145zM786 1323l35 -94q-70 -109 -174 -109q-28 0 -62 18.5t-60.5 40t-57 40t-51.5 18.5q-69 0 -133 -80l-35 94q81 115 188 115 q30 0 64.5 -18.5t59.5 -40t54.5 -40t51.5 -18.5q65 0 120 74z" />
<glyph unicode="&#xf2;" horiz-adv-x="956" d="M432 -18q-338 0 -338 407q0 150 35.5 271.5t96.5 199.5t140.5 120t170.5 42q159 0 247 -106t88 -306q0 -145 -36 -265t-97.5 -198.5t-140.5 -121.5t-166 -43zM246 408q0 -162 52 -230.5t146 -68.5q52 0 100.5 29t88.5 85.5t64 151t24 213.5q0 303 -203 303 q-50 0 -98 -30.5t-87 -88.5t-63 -152.5t-24 -211.5zM489 1425l158 -297h-123l-196 297h161z" />
<glyph unicode="&#xf3;" horiz-adv-x="956" d="M444 1128l209 297h162l-246 -297h-125zM432 -18q-338 0 -338 407q0 150 35.5 271.5t96.5 199.5t140.5 120t170.5 42q159 0 247 -106t88 -306q0 -145 -36 -265t-97.5 -198.5t-140.5 -121.5t-166 -43zM246 408q0 -162 52 -230.5t146 -68.5q52 0 100.5 29t88.5 85.5t64 151 t24 213.5q0 303 -203 303q-50 0 -98 -30.5t-87 -88.5t-63 -152.5t-24 -211.5z" />
<glyph unicode="&#xf4;" horiz-adv-x="956" d="M293 1128l217 297h152l159 -297h-141l-96 183h-31l-129 -183h-131zM432 -18q-338 0 -338 407q0 150 35.5 271.5t96.5 199.5t140.5 120t170.5 42q159 0 247 -106t88 -306q0 -145 -36 -265t-97.5 -198.5t-140.5 -121.5t-166 -43zM246 408q0 -162 52 -230.5t146 -68.5 q52 0 100.5 29t88.5 85.5t64 151t24 213.5q0 303 -203 303q-50 0 -98 -30.5t-87 -88.5t-63 -152.5t-24 -211.5z" />
<glyph unicode="&#xf5;" horiz-adv-x="956" d="M432 -18q-338 0 -338 407q0 150 35.5 271.5t96.5 199.5t140.5 120t170.5 42q159 0 247 -106t88 -306q0 -145 -36 -265t-97.5 -198.5t-140.5 -121.5t-166 -43zM246 408q0 -162 52 -230.5t146 -68.5q52 0 100.5 29t88.5 85.5t64 151t24 213.5q0 303 -203 303 q-50 0 -98 -30.5t-87 -88.5t-63 -152.5t-24 -211.5zM807 1323l35 -94q-70 -109 -174 -109q-35 0 -79.5 29t-85.5 58.5t-67 29.5q-69 0 -133 -80l-35 94q81 115 189 115q30 0 64.5 -18.5t59.5 -40t54 -40t51 -18.5q66 0 121 74z" />
<glyph unicode="&#xf6;" horiz-adv-x="956" d="M315 1247q0 44 22.5 68t65.5 24q41 0 65 -22t24 -62q0 -44 -25 -69t-68 -25q-40 0 -62 22.5t-22 63.5zM616 1247q0 44 24 68t67 24q40 0 63 -21.5t23 -62.5q0 -44 -24 -69t-67 -25q-40 0 -63 22.5t-23 63.5zM432 -18q-338 0 -338 407q0 150 35.5 271.5t96.5 199.5 t140.5 120t170.5 42q159 0 247 -106t88 -306q0 -145 -36 -265t-97.5 -198.5t-140.5 -121.5t-166 -43zM246 408q0 -162 52 -230.5t146 -68.5q52 0 100.5 29t88.5 85.5t64 151t24 213.5q0 303 -203 303q-50 0 -98 -30.5t-87 -88.5t-63 -152.5t-24 -211.5z" />
<glyph unicode="&#xf7;" d="M141 543l11 129h766l-11 -129h-766zM469 924q4 45 30 69.5t68 24.5t63.5 -24.5t18.5 -69.5q-6 -46 -31.5 -70.5t-66.5 -24.5q-42 0 -64 25t-18 70zM410 291q6 46 31.5 70t66.5 24q42 0 64 -24.5t18 -69.5t-30 -69.5t-68 -24.5t-63.5 24.5t-18.5 69.5z" />
<glyph unicode="&#xf8;" horiz-adv-x="956" d="M432 -18q-99 0 -168 34l-69 -116l-89 55l76 127q-88 101 -88 307q0 150 35.5 271.5t96.5 199.5t140.5 120t170.5 42q99 0 172 -45l75 127l88 -55l-84 -144q84 -108 84 -295q0 -145 -36 -265t-97.5 -198.5t-140.5 -121.5t-166 -43zM723 588q0 94 -21 180l-374 -635 q48 -29 116 -29q52 0 100.5 30t89 87.5t65 152.5t24.5 214zM244 408q0 -129 22 -191l377 639q-48 39 -125 39q-40 0 -79 -19t-74 -59.5t-62 -97t-43 -137t-16 -174.5z" />
<glyph unicode="&#xf9;" horiz-adv-x="958" d="M332 1012l-64 -672q-11 -119 15 -168t86 -49q105 0 274 145l62 725l147 19l-84 -1012h-141l14 147h-6q-87 -87 -160.5 -126t-148.5 -39q-241 0 -207 337l65 674zM492 1425l157 -297h-123l-196 297h162z" />
<glyph unicode="&#xfa;" horiz-adv-x="958" d="M444 1128l209 297h162l-246 -297h-125zM332 1012l-64 -672q-11 -119 15 -168t86 -49q105 0 274 145l62 725l147 19l-84 -1012h-141l14 147h-6q-87 -87 -160.5 -126t-148.5 -39q-241 0 -207 337l65 674z" />
<glyph unicode="&#xfb;" horiz-adv-x="958" d="M274 1128l218 297h151l160 -297h-141l-97 183h-30l-129 -183h-132zM332 1012l-64 -672q-11 -119 15 -168t86 -49q105 0 274 145l62 725l147 19l-84 -1012h-141l14 147h-6q-87 -87 -160.5 -126t-148.5 -39q-241 0 -207 337l65 674z" />
<glyph unicode="&#xfc;" horiz-adv-x="958" d="M315 1247q0 44 22.5 68t65.5 24q41 0 65 -22t24 -62q0 -44 -25 -69t-68 -25q-40 0 -62 22.5t-22 63.5zM616 1247q0 44 24 68t67 24q40 0 63 -21.5t23 -62.5q0 -44 -24 -69t-67 -25q-40 0 -63 22.5t-23 63.5zM332 1012l-64 -672q-11 -119 15 -168t86 -49q105 0 274 145 l62 725l147 19l-84 -1012h-141l14 147h-6q-87 -87 -160.5 -126t-148.5 -39q-241 0 -207 337l65 674z" />
<glyph unicode="&#xfd;" horiz-adv-x="782" d="M287 33l-228 968h156l180 -831h6l58 145q58 145 98 301t76 385h149q-77 -429 -217 -731l-141 -309q-90 -196 -173 -276t-190 -80q-46 0 -79 8v125q36 -8 88 -8q54 0 106.5 53.5t110.5 185.5l26 64h-26zM360 1128l209 297h162l-246 -297h-125z" />
<glyph unicode="&#xfe;" horiz-adv-x="937" d="M63 -391l168 1808l146 19l-58 -586h7q78 91 148.5 130.5t148.5 39.5q110 0 171.5 -84.5t61.5 -265.5q0 -167 -42 -301t-112.5 -217t-158.5 -126.5t-185 -43.5q-51 0 -116 14l-35 -387h-144zM309 702l-55 -587q51 -13 111 -13q52 0 100.5 20t92.5 64t76.5 108t51.5 158.5 t19 209.5q0 221 -130 221q-48 0 -121 -48t-145 -133z" />
<glyph unicode="&#xff;" horiz-adv-x="782" d="M287 33l-228 968h156l180 -831h6l58 145q58 145 98 301t76 385h149q-77 -429 -217 -731l-141 -309q-90 -196 -173 -276t-190 -80q-46 0 -79 8v125q36 -8 88 -8q54 0 106.5 53.5t110.5 185.5l26 64h-26zM213 1247q0 44 22.5 68t65.5 24q41 0 64.5 -22t23.5 -62 q0 -44 -24.5 -69t-67.5 -25q-40 0 -62 22.5t-22 63.5zM514 1247q0 44 23.5 68t66.5 24q40 0 63 -21.5t23 -62.5q0 -44 -23.5 -69t-66.5 -25q-40 0 -63 22.5t-23 63.5z" />
<glyph unicode="&#x131;" horiz-adv-x="438" d="M336 1012l-92 -1012h-146l90 993z" />
<glyph unicode="&#x152;" horiz-adv-x="1714" d="M924 0l8 111q-147 -129 -348 -129q-215 0 -342 139t-127 416q0 197 47 354.5t130 260t195.5 156.5t245.5 54q173 0 283 -107l6 88h606l-10 -133h-453l-35 -454h424l-8 -133h-424l-37 -490h482v-133h-643zM610 121q96 0 183.5 45t150.5 133l57 766q-113 156 -294 156 q-90 0 -167.5 -43t-135.5 -124t-91.5 -206.5t-33.5 -280.5q0 -121 23.5 -208.5t68 -139t103.5 -75t136 -23.5z" />
<glyph unicode="&#x153;" horiz-adv-x="1429" d="M438 -18q-344 0 -344 405q0 150 35.5 270.5t97 197.5t142 118t172.5 41q209 0 290 -185q114 185 289 185q131 0 198.5 -62t67.5 -174q0 -174 -142 -275.5t-390 -101.5v-67q0 -67 11.5 -111.5t35 -67.5t52.5 -31.5t71 -8.5q152 0 272 67l2 -127q-76 -40 -143 -56.5 t-160 -16.5q-195 0 -252 163q-60 -78 -139 -120.5t-166 -42.5zM250 406q0 -166 54 -231.5t161 -65.5q48 0 93.5 30t84.5 86t62.5 149.5t23.5 209.5q0 295 -211 295q-113 0 -190.5 -121.5t-77.5 -351.5zM1235 762q0 62 -33.5 97.5t-91.5 35.5q-84 0 -151 -91t-93 -286 q177 0 273 66t96 178z" />
<glyph unicode="&#x178;" horiz-adv-x="929" d="M528 549l-41 -549h-153l41 551l-326 792h178l244 -643h6l359 643h168zM307 1559q0 44 23.5 68t66.5 24q39 0 62.5 -22t23.5 -62q0 -44 -24 -69t-68 -25q-39 0 -61.5 22.5t-22.5 63.5zM612 1559q0 44 23.5 68t66.5 24q40 0 63 -21.5t23 -62.5q0 -44 -23.5 -69t-66.5 -25 q-40 0 -63 22.5t-23 63.5z" />
<glyph unicode="&#x192;" d="M606 922h240l-23 -111h-237l-205 -1165h-145l208 1165h-151v111h170l22 118q26 146 121.5 231t224.5 85q71 0 148 -15l-21 -118q-69 10 -147 10q-69 0 -118 -49.5t-66 -141.5z" />
<glyph unicode="&#x2c6;" horiz-adv-x="710" d="M176 1128l217 297h152l160 -297h-142l-96 183h-31l-129 -183h-131z" />
<glyph unicode="&#x2c7;" horiz-adv-x="690" d="M719 1425l-217 -297h-152l-157 297h141l98 -182h29l129 182h129z" />
<glyph unicode="&#x2d8;" horiz-adv-x="811" d="M541 1128h-15q-103 0 -161.5 67.5t-57.5 188.5q0 27 2 41h127q-2 -12 -2 -34q0 -71 29 -111.5t72 -40.5h28q47 0 86.5 50.5t46.5 135.5h115q-12 -139 -87 -218t-183 -79z" />
<glyph unicode="&#x2d9;" horiz-adv-x="468" d="M244 1333q45 0 70.5 -24t25.5 -68q0 -47 -27 -73.5t-73 -26.5q-44 0 -69.5 25t-25.5 69q0 46 26.5 72t72.5 26z" />
<glyph unicode="&#x2da;" horiz-adv-x="829" d="M545 1444q61 0 101 -42.5t40 -109.5q0 -82 -48.5 -135t-121.5 -53q-64 0 -104.5 43.5t-40.5 109.5q0 82 51 134.5t123 52.5zM455 1268q0 -38 18 -61t49 -23q35 0 58.5 26t23.5 72q0 38 -18.5 61t-46.5 23q-37 0 -60.5 -28.5t-23.5 -69.5z" />
<glyph unicode="&#x2db;" horiz-adv-x="565" d="M266 0h137q-176 -116 -176 -213q0 -68 74 -68q57 0 115 21v-100q-60 -31 -142 -31q-186 0 -186 147q2 62 46.5 126.5t131.5 117.5z" />
<glyph unicode="&#x2dc;" horiz-adv-x="751" d="M713 1323l35 -94q-70 -109 -175 -109q-28 0 -62 18.5t-60.5 40t-57 40t-51.5 18.5q-69 0 -133 -80l-35 94q81 115 188 115q30 0 64.5 -18.5t59.5 -40t54.5 -40t51.5 -18.5q66 0 121 74z" />
<glyph unicode="&#x2dd;" horiz-adv-x="886" d="M231 1128l232 297h153l-264 -297h-121zM522 1128l232 297h153l-262 -297h-123z" />
<glyph unicode="&#x2000;" horiz-adv-x="896" />
<glyph unicode="&#x2001;" horiz-adv-x="1792" />
<glyph unicode="&#x2002;" horiz-adv-x="896" />
<glyph unicode="&#x2003;" horiz-adv-x="1792" />
<glyph unicode="&#x2004;" horiz-adv-x="597" />
<glyph unicode="&#x2005;" horiz-adv-x="448" />
<glyph unicode="&#x2006;" horiz-adv-x="298" />
<glyph unicode="&#x2007;" horiz-adv-x="298" />
<glyph unicode="&#x2008;" horiz-adv-x="224" />
<glyph unicode="&#x2009;" horiz-adv-x="358" />
<glyph unicode="&#x200a;" horiz-adv-x="99" />
<glyph unicode="&#x2010;" horiz-adv-x="786" d="M158 520v133h522v-133h-522z" />
<glyph unicode="&#x2011;" horiz-adv-x="786" d="M158 520v133h522v-133h-522z" />
<glyph unicode="&#x2012;" horiz-adv-x="786" d="M158 520v133h522v-133h-522z" />
<glyph unicode="&#x2013;" horiz-adv-x="1024" d="M59 522v129h906v-129h-906z" />
<glyph unicode="&#x2014;" horiz-adv-x="2048" d="M59 522v129h1930v-129h-1930z" />
<glyph unicode="&#x2018;" horiz-adv-x="417" d="M354 1098q0 -51 -33.5 -85t-84.5 -34q-47 0 -75 28t-28 78q0 47 45 130.5t97.5 147.5t72.5 64h72l-115 -237q22 -11 35.5 -36t13.5 -56z" />
<glyph unicode="&#x2019;" horiz-adv-x="417" d="M170 1309q0 50 34 83t85 33q46 0 74 -27.5t28 -76.5q0 -47 -45 -131t-97.5 -148.5t-72.5 -64.5h-72l115 237q-49 27 -49 95z" />
<glyph unicode="&#x201a;" horiz-adv-x="417" d="M66 104q0 51 33.5 85t84.5 34q47 0 75 -27.5t28 -76.5q0 -47 -45 -131t-97.5 -148.5t-72.5 -64.5h-72l115 237q-49 27 -49 92z" />
<glyph unicode="&#x201c;" horiz-adv-x="749" d="M354 1098q0 -51 -33.5 -85t-84.5 -34q-47 0 -75 28t-28 78q0 47 45 130.5t97.5 147.5t72.5 64h72l-115 -237q22 -11 35.5 -36t13.5 -56zM686 1098q0 -51 -34 -85t-85 -34q-48 0 -76 28t-28 78q0 47 45.5 130.5t98 147.5t73.5 64h70l-113 -237q21 -11 35 -36.5t14 -55.5z " />
<glyph unicode="&#x201d;" horiz-adv-x="749" d="M170 1309q0 50 34 83t85 33q46 0 74 -27.5t28 -76.5q0 -47 -45 -131t-97.5 -148.5t-72.5 -64.5h-72l115 237q-49 27 -49 95zM500 1309q0 50 33.5 83t84.5 33q48 0 76.5 -27.5t28.5 -76.5q0 -47 -45.5 -131t-98 -148.5t-73.5 -64.5h-70l113 237q-21 13 -35 38.5t-14 56.5z " />
<glyph unicode="&#x201e;" horiz-adv-x="749" d="M66 104q0 51 33.5 85t84.5 34q47 0 75 -27.5t28 -76.5q0 -47 -45 -131t-97.5 -148.5t-72.5 -64.5h-72l115 237q-49 27 -49 92zM395 104q0 51 34 85t85 34q48 0 76 -27.5t28 -76.5q0 -47 -45.5 -131t-98 -148.5t-73.5 -64.5h-69l112 237q-21 13 -35 37.5t-14 54.5z" />
<glyph unicode="&#x2020;" horiz-adv-x="823" d="M410 1149l16 276h113l-29 -276l-6 -76h71l218 8l-9 -106l-217 6h-69l-9 -113l-94 -1259h-112l106 1259l8 113h-69l-219 -6l8 106l217 -8h69z" />
<glyph unicode="&#x2021;" horiz-adv-x="823" d="M410 -117l-15 -274h-112l26 274l6 78h-69l-217 -8l8 106l217 -6h70l73 928h-69l-219 -6l8 106l217 -8h69l7 76l16 276h113l-29 -276l-6 -76h67l222 8l-9 -106l-217 6h-69l-74 -928h70l217 6l-6 -106l-218 8h-71z" />
<glyph unicode="&#x2022;" horiz-adv-x="614" d="M92 598q0 106 57 167.5t160 61.5q98 0 153.5 -56t55.5 -159q0 -102 -57.5 -163.5t-157.5 -61.5t-155.5 55.5t-55.5 155.5z" />
<glyph unicode="&#x2026;" horiz-adv-x="1144" d="M61 104q0 59 34.5 95.5t92.5 36.5q50 0 78.5 -29t28.5 -80q0 -65 -32.5 -100t-90.5 -35q-53 0 -82 29t-29 83zM424 104q0 59 34.5 95.5t92.5 36.5q50 0 78 -29t28 -80q0 -65 -32 -100t-90 -35q-53 0 -82 29t-29 83zM786 104q0 59 34.5 95.5t92.5 36.5q50 0 78.5 -29 t28.5 -80q0 -65 -32.5 -100t-90.5 -35q-53 0 -82 29t-29 83z" />
<glyph unicode="&#x202f;" horiz-adv-x="358" />
<glyph unicode="&#x2039;" horiz-adv-x="759" d="M406 74l-281 438l354 438h168l-352 -428l278 -448h-167z" />
<glyph unicode="&#x203a;" horiz-adv-x="759" d="M324 950l278 -438l-352 -438h-168l350 428l-276 448h168z" />
<glyph unicode="&#x205f;" horiz-adv-x="448" />
<glyph unicode="&#x20ac;" d="M55 745l8 123h146q70 235 238.5 361.5t377.5 126.5q118 0 260 -29l-8 -135q-143 27 -266 27q-140 0 -260.5 -93t-177.5 -258h465l-11 -123h-485q-12 -73 -12 -155v-23h483l-8 -121h-465q31 -161 131.5 -243t243.5 -82q133 0 278 29v-134q-93 -20 -148 -26t-145 -6 q-212 0 -354 119t-172 343h-141l8 121h127q0 95 12 178h-125z" />
<glyph unicode="&#x2122;" horiz-adv-x="1607" d="M461 1241l-45 -627h-121l47 627h-207l6 102h529l-6 -102h-203zM895 1198h-4l-49 -584h-115l72 729h168l149 -436h4l199 436h149l9 -729h-117l-2 584h-4l-209 -444h-86z" />
<glyph unicode="&#x25ca;" horiz-adv-x="1099" d="M1026 678l-508 -678h-57l-387 678l506 665h59zM223 682l285 -504l371 496l-285 493z" />
<glyph unicode="&#x25fc;" horiz-adv-x="1000" d="M0 1000h1000v-1000h-1000v1000z" />
</font>
</defs>
</svg>
