<?xml version="1.0" standalone="no"?> 
<!DOCTYPE svg PUBLIC "-//W3C//DTD SVG 1.1//EN" "http://www.w3.org/Graphics/SVG/1.1/DTD/svg11.dtd" >
<svg xmlns="http://www.w3.org/2000/svg">
<defs>
  <font id="icons" horiz-adv-x="543">
    <font-face font-family="icons"
      units-per-em="512" ascent="448"
      descent="64" />
    <missing-glyph horiz-adv-x="0" />
    <glyph glyph-name="arrow/fat-down"
      unicode="&#xF101;"
      horiz-adv-x="287" d=" M1 184.81C1 191.11 3.443 197.41 8.316 202.157C17.906 211.544 33.294 211.354 42.649 201.764L143.956 98.092L245.2460000000001 201.764C254.6330000000001 211.354 270.004 211.542 279.61 202.157C289.185 192.77 289.374 177.414 279.987 167.824L161.317 46.396C156.774 41.696 150.507 39.078 143.957 39.078C137.422 39.078 131.154 41.695 126.594 46.396L7.91 167.824C3.286 172.54 1 178.668 1 184.81z" />
    <glyph glyph-name="arrow/fat-left"
      unicode="&#xF102;"
      horiz-adv-x="172" d=" M146.73 267.0320000000001C153.03 267.0320000000001 159.33 264.589 164.078 259.716C173.465 250.126 173.276 234.738 163.686 225.383L60.014 124.075L163.686 22.785C173.276 13.398 173.464 -1.973 164.078 -11.579C154.692 -21.152 139.335 -21.341 129.745 -11.954L8.318 106.715C3.618 111.257 1 117.524 1 124.074C1 130.609 3.617 136.877 8.318 141.437L129.745 260.122C134.462 264.7440000000001 140.589 267.0320000000001 146.731 267.0320000000001z" />
    <glyph glyph-name="arrow/fat-right"
      unicode="&#xF103;"
      horiz-adv-x="172" d=" M25.27 -18.88C18.97 -18.88 12.67 -16.436 7.922 -11.563C-1.464 -1.973 -1.276 13.415 8.314 22.77L111.986 124.078L8.314 225.368C-1.276 234.755 -1.464 250.128 7.922 259.733C17.308 269.307 32.665 269.495 42.255 260.1090000000001L163.682 141.439C168.382 136.8950000000001 171 130.627 171 124.079C171 117.543 168.3830000000001 111.275 163.682 106.715L42.255 -11.97C37.539 -16.592 31.411 -18.8800000000001 25.269 -18.8800000000001z" />
    <glyph glyph-name="arrow/fat-up"
      unicode="&#xF104;"
      horiz-adv-x="287" d=" M286.9100000000001 63.347C286.9100000000001 57.047 284.468 50.747 279.5950000000001 46C270.0050000000001 36.613 254.617 36.803 245.2620000000001 46.393L143.954 150.063L42.664 46.393C33.277 36.803 17.906 36.615 8.3 46C-1.274 55.387 -1.463 70.743 7.924 80.333L126.594 201.76C131.137 206.46 137.404 209.078 143.954 209.078C150.489 209.078 156.757 206.461 161.317 201.76L280.002 80.333C284.624 75.616 286.9120000000001 69.489 286.9120000000001 63.347z" />
    <glyph glyph-name="arrow/important-down"
      unicode="&#xF105;"
      horiz-adv-x="391" d=" M169.017 326V28.31L76.599 127.77L46.313 97.45L195.5 -63L344.693 97.45L314.407 127.736L222.06 28.379V326" />
    <glyph glyph-name="arrow/important-left"
      unicode="&#xF106;"
      horiz-adv-x="391" d=" M390 150.338H92.31L191.772 242.7560000000001L161.45 273.0410000000001L1 123.854L161.45 -25.34L191.737 4.947L92.38 97.294H390" />
    <glyph glyph-name="arrow/important-right"
      unicode="&#xF107;"
      horiz-adv-x="391" d=" M1 97.362H298.69L199.23 4.944L229.55 -25.34L390 123.848L229.55 273.038L199.264 242.753L298.621 150.406H1" />
    <glyph glyph-name="arrow/important-up"
      unicode="&#xF108;"
      horiz-adv-x="391" d=" M221.99 -63V234.69L314.4070000000001 135.23L344.6910000000001 165.55L195.505 326L46.314 165.55L76.599 135.264L168.944 234.621V-63" />
    <glyph glyph-name="arrow/link-down"
      unicode="&#xF109;"
      horiz-adv-x="306" d=" M1 197.066C1 200.932 2.444 204.799 5.354 207.729C11.047 213.507 20.244 213.419 25.766 207.473L152.931 74.403L280.031 207.473C285.641 213.377 294.774 213.507 300.468 207.728C306.1810000000001 201.971 306.286 192.476 300.7220000000001 186.573L163.233 42.46C160.513 39.613 156.797 38 152.887 38C149.003 38 145.284 39.613 142.547 42.46L5.035 186.575C2.34 189.525 1 193.287 1 197.065z" />
    <glyph glyph-name="arrow/link-left"
      unicode="&#xF10A;"
      horiz-adv-x="176" d=" M160.066 276.9120000000001C163.932 276.9120000000001 167.799 275.468 170.729 272.558C176.507 266.865 176.419 257.668 170.473 252.146L37.404 124.98L170.474 -2.12C176.378 -7.73 176.508 -16.862 170.729 -22.556C164.972 -28.269 155.477 -28.374 149.574 -22.81L5.46 114.68C2.613 117.398 1 121.115 1 125.025C1 128.909 2.613 132.628 5.46 135.365L149.575 272.875C152.525 275.573 156.287 276.9119999999999 160.065 276.9119999999999z" />
    <glyph glyph-name="arrow/link-right"
      unicode="&#xF10B;"
      horiz-adv-x="176" d=" M15.934 -26.912C12.068 -26.912 8.201 -25.468 5.271 -22.558C-0.507 -16.865 -0.419 -7.668 5.527 -2.146L138.597 125.02L5.527 252.12C-0.378 257.728 -0.508 266.86 5.271 272.555C11.027 278.269 20.521 278.375 26.425 272.81L170.54 135.32C173.387 132.6 175 128.884 175 124.974C175 121.09 173.387 117.371 170.54 114.634L26.425 -22.877C23.475 -25.574 19.713 -26.913 15.935 -26.913z" />
    <glyph glyph-name="arrow/link-up"
      unicode="&#xF10C;"
      horiz-adv-x="306" d=" M304.824 52.934C304.824 49.068 303.38 45.201 300.4700000000001 42.271C294.7770000000001 36.493 285.5800000000001 36.581 280.0580000000001 42.527L152.893 175.597L25.793 42.527C20.183 36.623 11.051 36.493 5.357 42.272C-0.356 48.029 -0.461 57.524 5.103 63.427L142.5930000000001 207.542C145.311 210.3890000000001 149.0280000000001 212.0020000000001 152.9380000000001 212.0020000000001C156.822 212.0020000000001 160.5410000000001 210.3890000000001 163.2780000000001 207.542L300.788 63.427C303.485 60.477 304.824 56.715 304.824 52.937z" />
    <glyph glyph-name="arrow/more-down"
      unicode="&#xF10D;"
      horiz-adv-x="378" d=" M355.52 124.75C355.52 32.927 280.797 -41.77 189 -41.77C97.177 -41.77 22.48 32.926 22.48 124.75C22.48 216.547 97.176 291.27 189 291.27C280.797 291.27 355.52 216.547 355.52 124.75zM377 124.75C377 228.586 292.836 312.75 189 312.75C85.165 312.75 1 228.586 1 124.75C1 20.915 85.165 -63.25 189 -63.25C292.836 -63.25 377 20.915 377 124.75z M65.914 164.94L86.864 181.65L189 74.07L291.135 181.65L312.138 164.94L189 31.12" />
    <glyph glyph-name="arrow/more-filled-down"
      unicode="&#xF10E;"
      horiz-adv-x="378" d=" M376.4220000000001 125.04C376.4220000000001 228.7150000000001 292.3870000000001 312.75 188.712 312.75C85.062 312.75 1 228.715 1 125.04S85.063 -62.672 188.71 -62.672C292.387 -62.672 376.4220000000001 21.3630000000001 376.4220000000001 125.038zM55.836 165.68L87.209 190.74L188.709 83.818L290.225 190.74L321.637 165.68L188.71 21.23L55.837 165.682z" />
    <glyph glyph-name="arrow/more-filled-left"
      unicode="&#xF10F;"
      horiz-adv-x="378" d=" M188.71 -62.672C292.386 -62.672 376.42 21.3629999999999 376.42 125.038C376.42 228.688 292.386 312.75 188.71 312.75C85.035 312.75 1 228.687 1 125.04C1 21.363 85.035 -62.672 188.71 -62.672zM229.354 257.914L254.414 226.541L147.492 125.041L254.415 23.524L229.355 -7.888L84.905 125.042L229.355 257.9160000000001z" />
    <glyph glyph-name="arrow/more-filled-right"
      unicode="&#xF110;"
      horiz-adv-x="378" d=" M188.712 312.75C85.036 312.75 1 228.716 1 125.04C1 21.39 85.036 -62.672 188.712 -62.672C292.388 -62.672 376.4220000000001 21.391 376.4220000000001 125.038C376.4220000000001 228.716 292.3880000000001 312.75 188.712 312.75zM148.068 -7.836L123.008 23.537L229.93 125.04L123.008 226.554L148.068 257.966L292.52 125.04L148.07 -7.836z" />
    <glyph glyph-name="arrow/more-filled-up"
      unicode="&#xF111;"
      horiz-adv-x="378" d=" M1 125.04C1 21.363 85.034 -62.672 188.71 -62.672C292.36 -62.672 376.42 21.3630000000001 376.42 125.04C376.42 228.716 292.358 312.75 188.71 312.75C85.036 312.75 1 228.717 1 125.04zM321.586 84.396L290.213 59.336L188.71 166.258L87.197 59.335L55.785 84.395L188.713 228.845L321.587 84.395z" />
    <glyph glyph-name="arrow/more-left"
      unicode="&#xF112;"
      horiz-adv-x="378" d=" M189 -41.77C97.177 -41.77 22.48 32.953 22.48 124.75C22.48 216.573 97.176 291.27 189 291.27C280.7970000000001 291.27 355.52 216.574 355.52 124.75C355.52 32.953 280.797 -41.77 189 -41.77zM189 -63.25C292.836 -63.25 377 20.914 377 124.75C377 228.585 292.836 312.75 189 312.75C85.165 312.75 1 228.585 1 124.75C1 20.914 85.165 -63.25 189 -63.25z M229.19 247.836L245.9 226.886L138.32 124.75L245.9 22.615L229.19 1.612L95.37 124.75" />
    <glyph glyph-name="arrow/more-right"
      unicode="&#xF113;"
      horiz-adv-x="378" d=" M189 291.27C280.823 291.27 355.52 216.547 355.52 124.75C355.52 32.927 280.824 -41.77 189 -41.77C97.203 -41.77 22.48 32.926 22.48 124.75C22.48 216.547 97.203 291.27 189 291.27zM189 312.75C85.165 312.75 1 228.585 1 124.75S85.165 -63.25 189 -63.25S377 20.915 377 124.75S292.835 312.75 189 312.75z M148.808 1.664L132.098 22.614L239.683 124.75L132.1 226.885L148.808 247.888L282.63 124.75" />
    <glyph glyph-name="arrow/more-up"
      unicode="&#xF114;"
      horiz-adv-x="378" d=" M22.48 124.75C22.48 216.573 97.203 291.27 189 291.27C280.823 291.27 355.52 216.574 355.52 124.75C355.52 32.953 280.824 -41.77 189 -41.77C97.203 -41.77 22.48 32.953 22.48 124.75zM1 124.75C1 20.914 85.165 -63.25 189 -63.25S377 20.914 377 124.75C377 228.585 292.835 312.75 189 312.75S1 228.585 1 124.75z M312.086 84.56L291.136 67.85L189 175.43L86.865 67.85L65.862 84.56L189 218.38" />
    <glyph glyph-name="calendar-one-day"
      unicode="&#xF115;"
      horiz-adv-x="512.161" d=" M346 413.333C346 432.686 360.075 448.246 379.985 448.246C399.955 448.246 414 432.686 414 413.333V376.796C414 357.492 399.954 341.946 379.985 341.946C360.075 341.946 346 357.492 346 376.796V413.333zM98 413.333C98 432.686 115.574 448.246 135.463 448.246C155.455 448.246 173 432.686 173 413.333V376.796C173 357.492 155.455 341.946 135.463 341.946C115.573 341.949 98 357.494 98 376.796V413.333z M0 -64V381H75.26S75.26 316.4700000000001 135.448 316.4700000000001C195.678 316.4700000000001 195.678 381 195.678 381H323.62S323.62 316.4700000000001 380.08 316.4700000000001C436.52 316.4700000000001 436.512 381 436.512 381H512L511.772 -64H0zM45 -20H474V250H45V-20z M345.287 206H376V31H339V177H338.694L304.372 161.497L297.4190000000001 188.341M177.767 97H158V133H177.127C191.267 133 209.01 141.362 209.01 156.125C209.01 166.573 200.382 175.843 182.44 175.843C167.742 175.843 152.2940000000001 170.418 145.0320000000001 166.091L136.447 195.938C147.317 202.658 168.5800000000001 209.3 192.1350000000001 209.3C230.3830000000001 209.3 251.2680000000001 189.85 251.2680000000001 166.016C251.2680000000001 147.483 241.0000000000001 132.799 218.0000000000001 125.61V125.04C241.0000000000001 121.297 257.4120000000001 105.453 257.4120000000001 82.434C257.4120000000001 51.87 229.6270000000001 29.349 183.9280000000001 29.349C160.6150000000001 29.349 141.0960000000001 35.229 130.6010000000001 41.4350000000001L139.1510000000001 72.198C146.6930000000001 68.2120000000001 163.8330000000001 61.4930000000001 181.0530000000001 61.4930000000001C202.8810000000001 61.4930000000001 213.9680000000001 65.2810000000001 213.9680000000001 78.179C213.9680000000001 95.574 196.1930000000001 96.999 177.768 96.999z" />
    <glyph glyph-name="calendar"
      unicode="&#xF116;"
      horiz-adv-x="543" d=" M170.666 416.9700000000001C170.666 434.09 156.76 448 139.638 448C122.514 448 108.608 434.09 108.608 416.9700000000001V370.424C108.608 353.274 122.514 339.394 139.638 339.394C156.788 339.394 170.666 353.304 170.666 370.424V416.9700000000001zM170.666 230.788H263.76V168.728H170.666zM279.275 230.788H372.365V168.728H279.275zM387.877 230.788H480.973V168.728H387.877zM62.062 153.214H155.152V91.152H62.062zM170.666 153.214H263.76V91.152H170.666zM279.275 153.214H372.365V91.152H279.275zM387.877 153.214H480.973V91.152H387.877zM62.062 75.635H155.152V13.575H62.062zM170.666 75.635H263.76V13.575H170.666zM279.275 75.635H372.365V13.575H279.275zM434.426 416.9700000000001C434.426 434.09 420.518 448 403.393 448C386.273 448 372.366 434.09 372.366 416.9700000000001V370.424C372.366 353.274 386.274 339.394 403.393 339.394C420.545 339.394 434.426 353.304 434.426 370.424V416.9700000000001z M512 385.938H456.152V370.424C456.152 341.334 432.482 317.666 403.392 317.666S350.667 341.334 350.667 370.424V385.938H192.393V370.424C192.393 341.334 168.727 317.666 139.638 317.666C110.545 317.666 86.88 341.334 86.88 370.424V385.938H31.03C13.91 385.938 0 372.03 0 354.91V-32.972C0 -50.09 13.91 -64 31.03 -64H512C529.152 -64 543.03 -50.09 543.03 -32.972V354.91C543.03 372.03 529.1519999999999 385.938 512 385.938zM496.482 -17.455H46.545V261.817H496.483V-17.455z" />
    <glyph glyph-name="email"
      unicode="&#xF117;"
      horiz-adv-x="512" d=" M255.86 433.502L5.814 247.808V-47.502H505.814V247.808L255.86 433.502zM186.674 300.988C194.018 314.342 204.13 324.374 216.947 331.051C229.739 337.779 244.337 341.159 260.849 341.159C274.764 341.159 287.187 338.4340000000001 298.067 333.073C308.93 327.621 317.207 319.996 323.005 310.015C328.667 300.0410000000001 331.602 289.1620000000001 331.602 277.395C331.602 263.3350000000001 327.242 250.627 318.517 239.27C307.57 224.925 293.621 217.77 276.527 217.77C271.921 217.77 268.482 218.542 266.117 220.136C263.817 221.788 262.207 224.103 261.453 227.2160000000001C255.036 220.882 247.433 217.6940000000001 238.889 217.6940000000001C229.675 217.6940000000001 222.054 220.882 215.989 227.1400000000001C209.913 233.4730000000001 206.885 241.9200000000001 206.885 252.3620000000001C206.885 265.389 210.525 277.1570000000001 217.848 287.8270000000001C226.755 300.8540000000001 238.074 307.3800000000001 251.948 307.3800000000001C261.821 307.3800000000001 269.118 303.6300000000001 273.791 296.1070000000001L275.863 305.2910000000001H297.856L285.308 246.0140000000001C284.52 242.2140000000001 284.151 239.8400000000001 284.151 238.7410000000001C284.151 237.3150000000001 284.461 236.3760000000001 285.0710000000001 235.6290000000001C285.694 234.9490000000001 286.4740000000001 234.5810000000001 287.329 234.5810000000001C290.057 234.5810000000001 293.469 236.1490000000001 297.664 239.4040000000001C303.334 243.5390000000001 307.881 249.2520000000001 311.379 256.2540000000001C314.859 263.3260000000001 316.663 270.6410000000001 316.663 278.2070000000001C316.663 291.7450000000001 311.733 303.0770000000001 301.859 312.2470000000001C291.979 321.3210000000001 278.171 325.9100000000001 260.523 325.9100000000001C245.466 325.9100000000001 232.745 322.8720000000001 222.31 316.7400000000001C211.872 310.6760000000001 204 302.0870000000001 198.64 291.0150000000001C193.377 280.0100000000001 190.735 268.4350000000001 190.735 256.4890000000001C190.735 244.8790000000001 193.737 234.2690000000001 199.605 224.7490000000001C205.539 215.1590000000001 213.819 208.2490000000001 224.475 203.8290000000001C235.132 199.4750000000001 247.379 197.2940000000001 261.111 197.2940000000001C274.297 197.2940000000001 285.689 199.1220000000001 295.259 202.7970000000001C304.839 206.4700000000001 312.4790000000001 211.9140000000001 318.3010000000001 219.3210000000001H335.9490000000001C330.4220000000001 208.1230000000001 321.9490000000001 199.3490000000001 310.4990000000001 192.9490000000001C297.3490000000001 185.6930000000001 281.3430000000001 182.0690000000001 262.4530000000001 182.0690000000001C244.1090000000001 182.0690000000001 228.3390000000001 185.1310000000001 215.0310000000001 191.2630000000001C201.7030000000001 197.4370000000001 191.8380000000001 206.4700000000001 185.2960000000001 218.4650000000001C178.8330000000001 230.4520000000001 175.6460000000001 243.5120000000001 175.6460000000001 257.6550000000001C175.6580000000001 273.1390000000001 179.2940000000001 287.6080000000001 186.6760000000001 300.9870000000001zM23.442 241.96L207.922 118.892L23.44 -23.144V241.96zM37.46 -32.612L255.86 135.526L474.176 -32.6120000000001H37.46zM488.167 -23.142L303.747 118.89L488.175 241.96V-23.146H488.167zM264.852 287.482C267.787 284.16 269.246 279.372 269.246 273.13C269.246 267.578 268.156 261.54 266.018 255.147C263.928 248.663 261.354 243.714 258.408 240.367C256.421 238.027 254.274 236.299 252.193 235.2C249.433 233.648 246.493 232.894 243.319 232.894C239.074 232.86 235.584 234.546 232.687 237.859C229.86 241.172 228.459 246.289 228.459 253.292C228.459 258.526 229.457 264.566 231.524 271.344C233.592 278.154 236.612 283.322 240.654 287.038C244.724 290.702 249.114 292.531 253.862 292.531C258.2989999999999 292.506 261.9819999999999 290.828 264.8519999999999 287.481z" />
    <glyph glyph-name="enveloppe"
      unicode="&#xF118;"
      horiz-adv-x="512" d=" M469.4998 250.9998H28.4998C18.9398 250.9998 11.9998 244.6438 11.9998 235.8858V-45.8772C11.9998 -50.4842 13.9698 -55.3622 17.2918 -58.9002L17.2118 -58.9932L24.3098 -65.1052L25.5428 -63.6752C26.4958 -63.8732 27.4768 -64.0001999999999 28.4998 -64.0001999999999H469.4998C479.2238 -64.0001999999999 485.9998 -54.4502 485.9998 -45.8772V235.8858C485.9998 244.6438 479.0598 250.9998 469.4998 250.9998zM345.3498 95.6948L345.3368000000001 95.6828L476.8668000000001 237.2028C476.9468000000001 236.7928 476.9998000000001 236.3588 476.9998000000001 235.8858V-45.8772C476.9998000000001 -47.2121999999999 476.6798000000001 -48.5372 476.1448 -49.7492L345.3498 95.6958zM250.8938 7.2848L32.7458 241.9998H469.0398L250.8938 7.2858zM20.9998 -45.8762V235.8858C20.9998 237.6038 21.5658 238.8978 22.4628 239.8458L155.1268 97.1058L153.1138 98.8398L23.2198 -52.0162C21.8818 -50.3282 20.9998 -48.1162 20.9998 -45.8762zM145.3358 75.4598L153.5818 85.0278L159.7238 92.1598L248.5878 -3.4522L250.8878000000001 -1.3142L253.1928000000001 -3.4592L339.1978000000001 89.0788L468.7638 -55.0002H33.0098L145.3358 75.4598z" />
    <glyph glyph-name="external"
      unicode="&#xF119;"
      horiz-adv-x="512" d=" M353 188.71L401 236.4V111H421V271H420V272H260V252H387.438L338.703 203H138.61C132.473 203 127 197.876 127 191.74V-11.39C127 -17.526 132.474 -23 138.61 -23H341.738C347.873 -23 353 -17.525 353 -11.39V188.71zM400.56 251.562V251.222L400.2200000000001 251.562H400.56zM150 0V181H316.475L245.8330000000001 110.208L260.1570000000001 95.971L331 166.5V0H150z" />
    <glyph glyph-name="externalLink"
      unicode="&#xF11A;"
      horiz-adv-x="512" d=" M388.12 248.296C386.91 238.849 379.805 231.386 371.113 230.44C362.421 229.534 354.635 235.43 352.519 244.517L340.085 298.18L273.195 225.187C262.67 213.737 250.841 219.821 241.015 230.517C231.19 241.23 225.635 254.135 236.159 265.605L328.257 366.055S327.879 367.755 325.537 366.262C322.664 364.392 288.877 342.492 288.877 342.492L253.847 352.165C245.533 354.452 240.127 362.955 240.959 372.4220000000001C241.394 377.2970000000001 243.435 381.756 246.477 385.082C249.349 388.199 253.127 390.352 257.304 390.996L386.454 410.646C391.9740000000001 411.498 397.414 409.532 401.269 405.336C405.1230000000001 401.142 406.939 395.19 406.144 389.144L388.12 248.296z M390.613 74.664H106.33V362.256H224.88V323.558H145.027V113.362H351.915V202.247H390.6130000000001" />
    <glyph glyph-name="social/facebook"
      unicode="&#xF11B;"
      horiz-adv-x="512" d=" M287.735 -58.8239999999999V169.252H364.289L375.751 258.137H287.735V314.884C287.735 340.617 294.881 358.154 331.782 358.154L378.847 358.174V437.674C370.707 438.759 342.77 441.178 310.263 441.178C242.403 441.178 195.946 399.7560000000001 195.946 323.688V258.1380000000001H119.196V169.2530000000001H195.946V-58.821H287.736z" />
    <glyph glyph-name="social/googleplus"
      unicode="&#xF11C;"
      horiz-adv-x="512" d=" M269.538 155.726L246.088 173.936C238.948 179.858 229.182 187.6760000000001 229.182 201.986C229.182 216.356 238.9480000000001 225.491 247.425 233.948C274.735 255.448 302.029 278.328 302.029 326.548C302.029 376.131 270.831 402.213 255.879 414.5900000000001H296.194L338.51 441.178H210.308C175.128 441.178 124.434 432.854 87.318 402.213C59.344 378.08 45.698 344.801 45.698 314.843C45.698 263.991 84.744 212.443 153.694 212.443C160.209 212.443 167.331 213.08 174.5 213.747C171.28 205.913 168.024 199.387 168.024 188.317C168.024 168.121 178.404 155.732 187.552 144.004C158.252 141.986 103.56 138.744 63.242 113.961C24.842 91.127 13.158 57.894 13.158 34.434C13.158 -13.85 58.668 -58.822 153.035 -58.822C264.943 -58.822 324.185 3.098 324.185 64.398C324.198 109.438 298.179 131.605 269.54 155.728zM184.301 230.71C128.321 230.71 102.959 303.08 102.959 346.748C102.959 363.752 106.179 381.303 117.251 395.014C127.688 408.069 145.868 416.543 162.838 416.543C216.808 416.543 244.798 343.523 244.798 296.563C244.798 284.813 243.504 263.99 228.54 248.933C218.072 238.493 200.56 230.71 184.3 230.71zM184.941 -31.5C115.328 -31.5 70.437 1.802 70.437 48.1070000000001C70.437 94.3970000000001 112.061 110.0550000000001 126.383 115.2410000000001C153.695 124.4330000000001 188.845 125.715 194.709 125.715C201.214 125.715 204.467 125.715 209.649 125.0600000000001C259.139 89.8430000000001 280.621 72.2880000000001 280.621 38.9450000000001C280.621 -1.4279999999999 247.425 -31.5009999999999 184.941 -31.5009999999999zM433.859 231.706V296.902H401.653V231.706H336.567V199.146H401.653V133.552H433.8590000000001V199.146H499.273V231.706" />
    <glyph glyph-name="social/linkedin"
      unicode="&#xF11D;"
      horiz-adv-x="512" d=" M53.707 280.976H143.691V-34.0119999999999H53.707zM98.709 325.974C73.829 325.974 53.707 346.1 53.707 370.986C53.707 395.846 73.829 415.988 98.709 415.988C123.594 415.988 143.689 395.846 143.689 370.986C143.693 346.1 123.596 325.974 98.71 325.974M458.695 -34.0120000000001H368.691V145.996C368.691 170.856 348.589 190.978 323.709 190.978S278.707 170.856 278.707 145.996V-34.0119999999999H188.707V280.978H278.707V225.101C297.263 250.609 325.627 280.977 357.457 280.977C413.372 280.977 458.6949999999999 230.599 458.6949999999999 168.487V-34.011z" />
    <glyph glyph-name="social/twitter"
      unicode="&#xF11E;"
      horiz-adv-x="512" d=" M451.265 293.1430000000001C451.405 288.759 451.511 284.323 451.511 279.889C451.511 144.434 350.151 -11.751 164.904 -11.751C108.037 -11.751 55.0769999999999 5.205 10.5169999999999 34.323C18.3929999999999 33.326 26.3929999999999 32.859 34.5409999999999 32.859C81.745 32.859 125.1589999999999 49.249 159.6139999999999 76.776C115.547 77.604 78.3479999999999 107.246 65.5389999999999 147.906C71.6909999999999 146.686 78.0089999999999 146.11 84.4689999999999 146.11C93.6719999999999 146.11 102.5689999999999 147.3730000000001 110.9819999999999 149.71C64.9549999999999 159.137 30.2249999999999 200.55 30.2249999999999 250.2C30.2249999999999 250.622 30.2249999999999 251.04 30.2469999999999 251.475C43.7989999999999 243.793 59.3569999999999 239.175 75.8639999999999 238.665C48.833 257.016 31.053 288.409 31.053 323.974C31.053 342.752 35.999 360.354 44.683 375.502C94.373 313.468 168.605 272.65 252.301 268.418C250.556 275.908 249.705 283.732 249.705 291.752C249.705 348.358 294.767 394.25 350.393 394.25C379.416 394.25 405.583 381.7920000000001 423.901 361.872C446.891 366.479 468.4209999999999 375.014 487.903 386.76C480.355 362.828 464.3679999999999 342.73 443.633 330.04C463.959 332.498 483.371 338.046 501.469 346.176C488.031 325.618 470.909 307.581 451.265 293.1430000000001" />
    <glyph glyph-name="social/youtube"
      unicode="&#xF11F;"
      horiz-adv-x="512" d=" M441.543 448H70.457C31.544 448 0 416.457 0 377.545V155.582C0 116.668 31.544 85.125 70.457 85.125H441.543C480.455 85.125 512 116.668 512 155.582V377.545C512 416.457 480.455 448 441.543 448zM200.075 172.188V363.57L355.08 261.68L200.075 172.19z" />
  </font>
</defs>
</svg>
